<?xml version="1.0" encoding="UTF-8"?>
<svg id="Layer_1" xmlns="http://www.w3.org/2000/svg" xmlns:xlink="http://www.w3.org/1999/xlink" xmlns:svg="http://www.w3.org/2000/svg" xmlns:sodipodi="http://sodipodi.sourceforge.net/DTD/sodipodi-0.dtd" xmlns:rdf="http://www.w3.org/1999/02/22-rdf-syntax-ns#" xmlns:inkscape="http://www.inkscape.org/namespaces/inkscape" xmlns:dc="http://purl.org/dc/elements/1.1/" xmlns:cc="http://creativecommons.org/ns#" version="1.1" viewBox="0 0 280 245">
  <!-- Generator: Adobe Illustrator 29.6.1, SVG Export Plug-In . SVG Version: 2.1.1 Build 9)  -->
  <defs>
    <style>
      .st0, .st1, .st2, .st3 {
        fill: none;
      }

      .st4, .st5 {
        fill-rule: evenodd;
      }

      .st4, .st6 {
        fill: #fff;
      }

      .st7 {
        fill: #900;
      }

      .st5, .st8 {
        fill: #011f5b;
      }

      .st9 {
        clip-path: url(#clippath-1);
      }

      .st1, .st2 {
        stroke: #011f5b;
      }

      .st1, .st2, .st3 {
        stroke-miterlimit: 17.09;
      }

      .st1, .st3 {
        stroke-width: .85px;
      }

      .st2 {
        stroke-width: .55px;
      }

      .st3 {
        stroke: #900;
      }

      .st10 {
        clip-path: url(#clippath);
      }
    </style>
    <clipPath id="clippath">
      <rect class="st0" x="-46.27" y="-21.43" width="411.53" height="287.85"/>
    </clipPath>
    <clipPath id="clippath-1">
      <rect class="st0" x="2.06" y="3.77" width="275.41" height="237.04"/>
    </clipPath>
  </defs>
  <g id="svg7009" inkscape:version="0.48.1 " sodipodi:docname="UPenn shield with banner.svg">
    <sodipodi:namedview id="base" bordercolor="#666666" borderopacity="1.0" fit-margin-bottom="0" fit-margin-left="0" fit-margin-right="0" fit-margin-top="0" inkscape:current-layer="layer1" inkscape:cx="199.33279" inkscape:cy="83.01685" inkscape:document-units="px" inkscape:pageopacity="0.0" inkscape:pageshadow="2" inkscape:window-height="721" inkscape:window-maximized="1" inkscape:window-width="1024" inkscape:window-x="-4" inkscape:window-y="-4" inkscape:zoom="1" pagecolor="#ffffff" showgrid="false"/>
    <g id="layer1" inkscape:groupmode="layer" inkscape:label="Layer 1">
      <g id="g4754">
        <g class="st10">
          <g id="g4756">
            <g id="g4762">
              <g class="st9">
                <g id="g4764">
                  <path id="path4770" class="st6" d="M3.04,195.73c2.8-3.11,1.88-18.62,7.01-21.6,6.65-3.26,24.07.54,32.12,9.93,15.98-3.9,33.61-3.6,38.54,1.17.86,6.49-3.37,6.9-2.34,8.76,4.71,11.11-3.19,10.5-5.84,12.84,23.01,16.51,98.73,18.32,133.1,1.17-14.62-6.26-4.4-8.58-5.84-14.6-.67-2.9-3-4.43-1.17-7.59,11.24-3.23,17.94-3.84,28.02-2.34,3.6.16,5.58.54,9.33,1.74-2.4-2.95,30.14-20.28,35.03-7.01,3.31,7.09,6.67,17.74,6.42,17.51-4.63,6.3-9.89,6.65-15.18,3.51-2.22-1.14-1.3-3.88-5.25-9.33-1.22,1.2-3.05,1.2-5.84,4.08.66,1.07,4.61,4.41,4.67,4.67-3.7,3.09-8.26,12.82-12.26,14.6-12.43-3.29-12.43-13.63-12.26-13.43-5.02-.21-11.41-2.34-11.67-2.34-1.56,6.39,4.21,9.43,4.08,9.33,2.26,5.25,6.21,11.03,1.17,14.6-56.99,31.09-144.25,18.32-171.05-.58-6.04-6.93,2.47-14.24,2.34-14.01,4.1-4.77,1.66-9.33,1.74-9.33-4.35-.31-9.81,2.12-9.93,2.34-1.71,8-4.15,11.34-11.09,14.01-3.09.07-12.21-11.79-14.01-15.77,1.79-1.79,2.7-4.84,2.91-4.67-1.43-.77-3.87-2.91-4.08-2.91.23,0-2.81,10.04-2.91,10.5-7.49,2.27-12.05.76-15.77-5.25" inkscape:connector-curvature="0"/>
                  <path id="path4772" class="st1" d="M7.72,177.64c-.95,6.91-3.08,15.85-4.67,18.68.23-.07,7.29,8.79,15.77,4.67.25.03,2.55-8,5.25-15.77" inkscape:connector-curvature="0"/>
                  <path id="path4774" class="st6" d="M53.25,4.25h177.47c-.03.18-.03,87.26,0,88.74.07,67.11-79.46,107.9-91.08,108-11.61-.31-84.84-33.6-86.4-108,.16-1.15.18-88.54,0-88.74" inkscape:connector-curvature="0"/>
                  <path id="path4776" class="st1" d="M53.25,4.25h177.47c-.03.18-.03,87.26,0,88.74.07,67.11-79.46,107.9-91.08,108-11.61-.31-84.84-33.6-86.4-108,.16-1.15.18-88.54,0-88.74h.02Z" inkscape:connector-curvature="0"/>
                  <path id="path4778" class="st6" d="M60.26,11.82h163.46c.15-.2.15,80.18,0,81.73-.95,66.54-75.65,101.56-85.24,100.99-9.6-.08-78.44-34.37-78.22-101.58,0-1.1.02-81.33,0-81.15" inkscape:connector-curvature="0"/>
                  <path id="path4780" class="st1" d="M60.26,11.82h163.46c.15-.2.15,80.18,0,81.73-.95,66.54-75.65,101.56-85.24,100.99-9.6-.08-78.44-34.37-78.22-101.58,0-1.1.02-81.33,0-81.15v.02Z" inkscape:connector-curvature="0"/>
                  <path id="path4782" class="st1" d="M55.59,222.57c39.77,19.67,105.52,27.61,168.71-.58" inkscape:connector-curvature="0"/>
                  <path id="path4784" class="st5" d="M66.09,191.64c.28.97.3,1.4,0,2.34h.58c0-.23.03-.3,0,0,.2-.28.3-.23.58,0,.36,0,.95.15,1.74,0,2.45.58,3.14-.76,3.51-1.74,0-1.5-1.4-2.22-2.34-2.91-1.63-.61-1.83-1.1-1.74-1.74.1-.59.53-1.38,1.74-1.17.18-.03,1.99.21,2.34,1.74.07-.21.13-.82,0-1.17.15.2.28-.43.59-.58h-.59s-.16.05-.58,0c.07,0-1.25-.35-1.74-.58-1.45-.02-2.75.77-2.91,2.34-.23,1.17.72,1.84,1.74,2.34,1.27.66,2.16,1.17,1.74,2.34.07,1.14-.95,1.09-1.17,1.17-.66-.2-1.37-.46-1.74-.58-1.07-.77-1.2-1.22-1.17-1.74h-.58v-.05ZM63.75,188.14h-.58c.2.3.12.94,0,1.17-.21-.07-.92.05-1.74,0-.59.13-1.04.13-1.17,0-.23-.48-.25-.72,0-1.17-.3-.59-.28-1.09,0-1.74.35-.23.91-.31,1.74-.58,1.05.16,1.65.36,1.74.58-.08.44-.12.63,0,.58-.05.21.08.23,0,0,.33.21.48-.63.59-1.74-1.07.33-1.55.36-2.34.58h-4.67c.26.28.35.28.58.58.31-.2.44-.15.59.58-.03.36.15,1.96,0,2.34.21.81.31,3.08,0,4.08.16.16-.12.23-.59.58,1.3-.05,1.88-.1,2.91,0,1.47-.23,1.96-.25,3.51,0,.61-1.12.71-1.51.58-2.34-.3.58-.61,1.6-2.91,1.74-.49,0-1.15-.08-1.74,0,.07-.49-.07-.97,0-1.74-.1.02-.15-1.48,0-1.74.15.02.33,0,1.17,0,1.86-.15,1.86-.1,2.34,1.17v-2.91h0v.02ZM55.01,188.14c-.16-.43-.35-.86-.58-2.34l-.58.58s.02.12,0,0c-.77.08-1.28.05-2.34,0-2.01.67-4.43,2.5-4.08,5.25.66,1.74,2.29,3.95,5.84,2.91.99.1,2.86-.54,3.51-.58v-.58c-.21.07-.35.02-.58-1.17-.36-1.56-.35-1.7,0-1.74v-.59l-1.17.59c-.07-.16-1.71.18-2.34,0l.58.58c1.14-.21,1.17-.23,1.74,1.74-.15-.03-.05.43,0,.58-.23.51-.97.86-1.74,1.17-1.51.15-3.56-.87-4.08-2.91-.49-2.65.76-4.18,2.34-4.67,2.11-.26,2.95.82,3.51,1.17h0l-.03.02ZM44.49,191.64h0c-.21-.07-.1.58,0,.58-.36.25-.99.58-1.74,1.17-.56-.1-.99.03-1.17,0-.36-.44-.44-.66-.58-1.17-.25-.48-.4-.94-.58-1.74.49-.23,1-.48,1.74-.59,1.04-.56,1.65-.54,1.74,0,.15.08.16.26,0,.59.28-.18.41-.2.58,0,.05-.28-.07-1.14-.58-1.74-.66.15-1.1.31-1.74.58l-4.08,1.74s.03,0,0,0c.59-.08.74-.07,1.17.58.02.35.71,1.81.58,2.34.56.59,1.38,2.72,1.74,3.51-.13.38-.36.53-.58.58v.58c1.09-.59,1.63-.82,2.91-1.17,1.05-.53,1.51-.67,3.51-1.17-.23-.99-.25-1.38-.58-2.34v.58c-.15.25-.12,1.32-1.74,1.74-.99.53-1.63.66-2.34.58.07-.15-.21-.56-.58-1.17.08-.12-.43-1.53-.58-1.74.36-.1.51-.18,1.17-.58,1.86-.54,1.88-.49,2.34.58h.58l-1.17-2.34h0l-.03.05ZM38.65,197.47c.46.63.53,1.28-1.74,2.91-.38.16-.66.35-.58,0-.49.15-.74-.18-1.17-.58l-1.17-1.74c-.43-.64-1.83-2.6-1.74-2.91-.15-.35.13-.61.58-1.17h-.58c-.16.31-.36.46-1.17,1.17-.84.41-.99.48-1.17.58v.58c.28-.35.63-.53,1.17,0,.07.13.2.31,1.74,2.34,1.78,2.57,1.86,2.68,1.74,2.91.07.38-.18.64-.58.59l.58.58,2.91-2.34c.79-.38,1.23-.67,1.74-.58.15-.46.36-.56.58-.58-.36-1.43-.41-1.51-.58-1.74h-.58" inkscape:connector-curvature="0"/>
                  <path id="path4786" class="st5" d="M70.76,220.25c-.03,1.17-.13,1.63-.58,2.34h.58c.03.15.08.08,0,0,.26.16.35.23.58,0,.48.67,1.12,1.04,1.74,1.17,3.08,1.38,4.26.15,4.67-.58.72-1.83-.71-3.06-1.74-4.08-1.61-1.2-1.7-1.81-1.17-2.34.02-.74.74-1.47,2.34-1.17,0,.35,2.07,1.2,1.74,2.91h.58c-.15-.16.1-.81,0-1.17.16.21.49-.43.58-.58-.41-.07-.59-.1-.58,0-.4-.26-1.86-1.05-2.34-1.17-1.73-.79-3.49-.33-4.08,1.17-.64,1.32.28,2.34,1.74,3.51.91.81,1.79,1.65,1.17,2.91-.43,1.1-1.61.72-1.74.58-.86-.26-1.6-.77-2.34-1.17-.72-1.04-.74-1.55-.58-2.34h-.58" inkscape:connector-curvature="0"/>
                  <path id="path4788" class="st5" d="M80.11,226.08c.4.3,1,.48,2.34,1.17l2.34.58v-.58c-1-.23-1.07-.33-1.17-.58.18-.63,1.12-3.23,1.17-4.08.43-.48,1.27-2.83,1.74-2.91.25-.26.53-.23,1.17,0v-.59c-.13.07-1.53-.35-1.74-.58-.25.08-.77-.12-1.17-.58-.74.05-1.35-.16-1.74,0,1.23.53,1.28.81,1.17,1.17.23.28-.69,2.85-1.17,3.51,0,.72-.82,3.01-1.17,3.51-.46.13-1.19-.05-1.74,0" inkscape:connector-curvature="0"/>
                  <path id="path4790" class="st5" d="M97.04,227.25c-.35-.77-.92-1.58-1.74-2.34-1.86-3.01-1.91-3.06-2.91-4.08l-.58-.58c-.02.15-.38.05-.58,0-.46-.15-.79-.25-.58,0-.36-.07-.36,0-.58,0,1.51.66,1.28,1.63,1.17,2.91l-1.17,4.08c-.54,1.09-.77,1.55-1.74,1.17-.1.33-.12.38,0,.58.18,0,1.78.31,2.34.58.18-.1.44-.02.58,0,.31.13.51.21.58,0,.16.18.23.08,0,0-1.5-.77-1.37-1.28-1.17-2.34l1.17-3.51c-.03-.28.16-.92,0-1.17.43.16.61.43.58.58l4.08,5.25c.64,1.09,1.3,2.02,1.74,2.91h.58c-.05-.69.08-1.27,0-1.17.23-.69.81-2.78,1.17-3.51-.03-.49.63-2.88,1.17-3.51.16-.1.61,0,.58,0h.59c-.44-.31-1.48-.56-1.74-.58.07-.02-.33-.13-.58,0-.46-.38-.81-.48-1.17-.58.07.05-.08.02,0,0h-.58c1.66.77,1.74.95,1.17,4.08-.3.26-.86,2.24-1.17,2.91l-1.17-1.74" inkscape:connector-curvature="0"/>
                  <path id="path4792" class="st5" d="M111.64,227.84l-.58-.58c-.08.28-.35.95-.58,1.17-.2-.12-1.07-.15-2.34-.58-.44.18-.99.07-1.17,0-.1-.69-.05-.94,0-1.17.13-.92.28-1.45.58-2.34.66.07,1.37.1,1.74,0,1.91.44,2.55.79,2.34,1.17.1.36,0,.56,0,.58.05.16.2.21,0,0,.49.26.89-.61,1.17-1.74-1.25.05-1.83-.03-2.91,0l-5.25-1.17v.58c0-.16.1-.13,0,0,.74.12.89.21.58,1.17.16.25,0,2.02,0,2.34-.21.99-.66,3.47-1.17,4.08.03.63-.31.64-1.17.58v.58c1.76,0,2.49.08,4.08.58,1.42-.05,2.01.07,4.08.58.71-.97.94-1.37,1.17-2.34h-.58c-.1.59-.72,1.63-2.91,1.17-1.19-.05-1.96-.28-2.34-.58-.16-.26-.2-.82,0-1.74-.07.1.26-1.55.58-1.74h1.17c2.4.51,2.4.58,2.34,1.74h.58l.58-2.34" inkscape:connector-curvature="0"/>
                  <path id="path4794" class="st5" d="M123.88,231.92c.02,1.81-.05,2.45-1.74,2.34v.58h1.74c.53.05.82.07,1.17,0,.31.12.69.13,1.17,0-1.43-.43-1.5-.64-1.17-1.74-.2-1.14-.02-2.35,0-4.08.28-.3.3-.36.58-.58-.03.1.58,1.25,1.17,1.74,1.43,3.31,1.6,3.62,1.74,4.67h.58c1.15-1.81,2.01-3.26,4.08-6.42.3,1.2.28,3.19,0,4.67.12,1.55-.23,1.63-1.17,1.74v.58c.49-.13.86-.12,2.34,0h1.74v-.58c-.72.16-.94.05-1.17-.58-.07-.69.12-5.2,0-5.84.21-1.37.48-1.43,1.74-1.74l-2.91-.58-2.34,3.51-.59,1.74c-.79.77-.79.79-1.17,1.17-.07.25-.94-1.35-1.17-1.74-1.07-1.89-1.33-2.44-2.34-4.67-.86-.15-.91-.15-2.34-.58-.49.25-.94.2-1.17,0v.58c1.45.21,1.93.53,1.74,1.74.1.16.07.63,0,1.17l-.58,2.91" inkscape:connector-curvature="0"/>
                  <path id="path4796" class="st5" d="M141.99,230.18c-.2-3.19,2.26-3.56,2.91-3.51,3.11-.12,4.21,3.08,4.08,5.25.21,2.4-2.01,3.01-2.91,2.91-2.83.15-4.2-2.5-4.08-4.67v.02ZM139.65,230.76c.3,2.55,2.42,4.77,5.84,4.67,3.46,0,5.61-2.34,5.84-4.67-.31-2.75-2.8-4.77-5.84-4.67-2.88,0-5.63,1.84-5.84,4.67" inkscape:connector-curvature="0"/>
                  <path id="path4798" class="st5" d="M160.08,227.84c.48,1.56-1.22,1.73-1.74,1.74-.71.12-.77.1-1.17,0,0-1.17-.03-1.35,0-2.91-.16-.74-.18-.92.58-1.17,2.09-.05,2.55,1.53,2.34,2.34h0ZM154.83,234.84c1.28-.2,1.42-.21,2.34,0,.21-.33.46-.36.58-.58.43.2.72.18,1.17,0-.12-.16-.77-.23-1.17-.59-.12-.18-.26-1.63-.58-2.34.18-.58.16-.84,0-1.17h1.17c3.21,4.44,5.51,4.21,7.01,4.08v-.59c-1.61.2-3.03-.99-5.25-4.08,1.3-.31,2.16-1.3,2.34-2.34-.41-1.1-1.6-2.34-4.08-2.34-.41.3-.97.4-1.74.58-.35,0-.92.1-1.17,0-.16.15-1.14.23-1.17,0v.58c.12.03.79-.02,1.17.58-.13.36-.08.66,0,2.34.21.94.54,4.25.58,4.67-.18.46-.44.58-1.17.59v.58" inkscape:connector-curvature="0"/>
                  <path id="path4800" class="st5" d="M168.26,233.09c.61-.02,1.23-.16,2.34-.58h2.91v-.58c-1.45.18-1.56.12-1.74-.58-.18-.12-.67-2.81-.58-3.51-.35-.71-.79-3.16-.58-3.51.25-.31.51-.41,1.17-.58v-.58c-.36.26-1.79.56-2.34.58.05.05-.51.13-1.17,0-.54.3-1.17.4-1.17.58,1.07.02,1.25.25,1.17.58.51.16,1,2.85,1.17,3.51.1.77.53,3.14.58,3.51-.44.58-1.17.76-1.74,1.17" inkscape:connector-curvature="0"/>
                  <path id="path4802" class="st5" d="M182.85,228.42c-.03.76-.25,1.76-2.34,2.34-.59-.03-.76-.05-.58,0-.41-.51-.53-1.02-1.17-4.08.15-.07.35-.12.58,0,.46-.26,2.78-.61,3.51,1.74h0ZM180.53,224.34c.3.72-.03,1.56-1.74,1.74-.3-.64-.72-2.53-.58-2.91-.15-.41-.1-.48,0-.58,1.6-.23,2.22.66,2.34,1.74h-.02ZM177.02,231.92c.41-.23.58-.3,1.74-.58.05.03.56-.05,1.17,0,.44-.23.95-.33,1.17-.59,3.05-.41,3.46-1.96,3.51-2.91-.41-.76-1.14-2.16-4.08-1.74,1.66-.82,2.01-1.73,1.74-2.34-.18-1.35-1.3-2.16-3.51-1.74-.12.07-.59.18-1.17.58-.35-.16-.79-.05-1.17,0-.59.15-.99.21-1.17,0v.58s.51-.05.58,0c.51.41.59.48,1.17,4.08,1.07,3.8,1,3.95,0,4.08v.58" inkscape:connector-curvature="0"/>
                  <path id="path4804" class="st5" d="M187.52,223.74c.08.49.54,2.32.58,2.91.79,2.21,3.37,1.83,4.67,1.17,1.4-.08,3.42-.86,3.51-2.34.43-1.04-.15-3.54-.58-4.67,0-.46-.44-1.91-.58-2.34.23-.13.69-.28,1.17-.58h-1.74c-.38.33-.67.38-1.17.58h-.58v.58c1.23-.33,1.55-.4,2.34,1.74.4,1.86.77,3.47.58,4.08-.12,1.74-2.09,2.3-2.34,2.34-.56.2-1.45.35-2.34,0-.69-.21-1.09-.81-1.74-3.51-1.12-3.26-1.04-3.31,0-4.08.28.2.41.15.59,0h-.59l-4.08,1.17c1.09,0,1.3-.05,1.74,1.17l.58,1.74" inkscape:connector-curvature="0"/>
                  <path id="path4806" class="st5" d="M200.96,223.17c.69.82.97,1.23,1.17,1.74h.58s-.07-.08,0,0c.12-.16.25-.16,0,0,1.07-.33,1.79-.49,2.34-.58,3.21-1.3,3.18-2.98,2.91-4.08-.77-1.5-2.7-1.43-4.08-1.17-2.12-.08-2.62-.46-2.91-1.17-.21-.58-.23-1.58,1.17-2.34.23.15,2.32-.63,3.51,1.17v-.59c.02-.16-.26-.79-.59-1.17.26.23.05-.44,0-.58-.35.18-.51.28-.58.58-.33-.16-1.94.25-2.34.58-1.84.49-2.78,1.99-2.34,3.51.69,1.35,2.09,1.47,3.51,1.17,1.71.13,2.96.13,3.51,1.17.43,1.38-.69,1.91-1.17,1.74-.54.53-1.45.66-2.34.58-1.19.02-1.58-.33-1.74-1.17l-.58.58" inkscape:connector-curvature="0"/>
                  <path id="path4808" class="st5" d="M207.95,193.39c-.26-.26.48.82.58,1.17h.58c-.08-1.2.21-2.34.58-2.91l.58-3.51c.63-1.12.92-1.47,1.74-1.74-1.32-.08-1.74,0-2.34,0v.58c-.03-.18.4-.21.58,0-.03.61-.94,3.79-1.17,4.67-.16.58-.2.64,0,1.17-2.91-3.98-3.47-4.77-3.51-5.25-.07-.03.03-.05.58,0v-.59l-2.91.59v.58c.48-.38.49-.38,1.74,1.17l2.91,4.08" inkscape:connector-curvature="0"/>
                  <path id="path4810" class="st5" d="M214.96,187.56c.38.89.76,1.81,1.17,2.91-.25-.18-.46-.15-.58,0-.84-.13-1.32-.2-1.74,0l1.17-2.91h-.02ZM213.79,191.05c.48-.33,1.09-.33,1.74-.58.35.23.49.25.58,0,.2.43.86,2.02.58,2.34.28.15-.02.28-.58.58.63,0,1.23-.08,1.74,0,.81-.1,1.09-.08,1.17,0v-.58c-.3.21-.51.18-1.17-1.74-.38-.67-1.71-3.8-1.74-4.67-.41-.26-.49-.53-.58-.58h-.58c.2.03.13.26,0,.58-.15.41-2.26,5.65-2.91,6.42,0,.31-.33.38-.58.58.26.05.79.05,1.17,0-.2.05.15.05.58,0,.31.07.69.07.58,0-.16-.26-.77-.31-.58-.58-.21-.38,0-.87,0-1.17l.58-.58" inkscape:connector-curvature="0"/>
                  <path id="path4812" class="st5" d="M227.23,191.64c-.41-.33-.89-.97-1.17-1.74-2.01-2.14-2.04-2.19-2.91-2.91l-.58-.58c.13.23-.15.18-.58,0-.08.07-.35,0-.58,0,.13.18.13.23,0,.58,1.15.1,1.04.92.58,1.74l-.58,3.51c0,1.23-.13,1.65-1.17,1.74.2-.07.2-.02,0,0,.43.13,1.66.25,1.74,0,.49.35.71.38,1.17.58-.1-.12.05-.07,0,0,.23-.12.26-.2,0-.58-1.1-.18-1.04-.63-.58-1.74v-2.91c.3-.1.41-.66.58-1.17.02.41.18.63.58.58l2.91,4.67c.66.41,1.22,1.15,1.74,1.74v.58-.58c.23-.51.3-1,.58-1.17-.21-.33.12-2.14,0-2.34.3-.86.66-2.91,1.17-3.51,0-.07.35,0,.58,0-.16-.3-.97-.4-1.17-.58.03.15-.26.1-.58,0-.26-.05-.53-.1-.58,0-.16-.15-.28-.15-.58,0,1.22.4,1.3.53,1.17,2.91-.35.53-.66,2.22-.58,2.34l-1.17-1.17" inkscape:connector-curvature="0"/>
                  <path id="path4814" class="st5" d="M234.82,191.05c.15.84.18,1.83,0,2.91.02-.16-.18-.2-.59-.58-.51.1-.95-.1-1.17,0l1.74-2.34h.02ZM232.48,193.39c.69.35,1.27.53,1.74.58.48.25.61.3.59.58.25,0,.33,1.7,0,1.74.18.38-.15.41-.59.58.4.13.99.25,1.74.58.49.07.76.16,1.17,0-.53-.18-.71-.28-.58-2.34-.23-.72-.43-4.12-.58-4.67.12-.64.13-.92,0-1.17-.31.08-.46.26-.58.58-.4.28-4.15,4.58-4.67,5.25-.48.13-.81.1-1.17,0v.58c.28-.23.79-.07,1.17,0-.21,0,.12.1.58,0,.23.35.58.46.58.58v-.58c-.15.08-.71-.18-.58-.58.08-.2.44-.61.58-.58l.58-1.17" inkscape:connector-curvature="0"/>
                  <path id="path4816" class="st5" d="M245.91,196.32h-.58c.13-.05-.26.43-.59.58-.03-.18-.66-.41-1.17-.58-.66-.43-1.02-.64-1.17-.58.16-.71.26-.91.58-1.17.16-.61.41-.99.58-1.74.79.33,1.28.53,1.74.58,1.12.74,1.48,1.17,1.17,1.74,0-.03-.12.1,0,0-.13.26-.05.35,0,.58.15-.13.71-.74,1.17-1.74-.84-.08-1.23-.28-1.74-.58l-4.08-1.74c.16.03.23.08,0,0,.63.43.69.53.58,1.17-.33.28-.99,1.66-1.17,1.74-.36.89-1.42,2.75-1.74,3.51-.38.12-.64.05-1.17,0,1.04.67,1.53.91,2.34,1.17,1.28.81,1.68,1.02,2.91,1.74.92-.44,1.2-.71,1.74-1.17h-.59c-.18.07-.94.74-2.34,0-.94-.44-1.42-.81-1.74-1.17.1-.21.25-.66.58-1.17,0-.12.72-1.35.58-1.74.51.35.66.4,1.17.58,1.73.95,1.71,1,1.17,1.74l.58.58,1.17-2.34" inkscape:connector-curvature="0"/>
                  <path id="path4818" class="st1" d="M222.55,216.75c-.64-7.03-19-9.09-22.77-11.67-4.72-4.23.72-7.01,0-11.09-.07-2.06-2.53-7.84-.58-8.18,27.62-8.3,45.88,1.43,56.63,12.26,1.1,1-1.61,2.53-3.51,4.67-1.19,1.68-6.68,10.9-8.76,10.5-6.49-1.55-11.79-7.64-12.26-12.84" inkscape:connector-curvature="0"/>
                  <path id="path4820" class="st1" d="M243.57,208.57c-6.62-14.83-46.86-12.69-37.94-7.59,3.9.43,14.45,3.33,18.68,6.42,1.98,1.73,6.67,12.54-.58,15.18" inkscape:connector-curvature="0"/>
                  <path id="path4822" class="st1" d="M235.39,185.22c4.86-6.58,28.53-16.35,34.45-9.93,6.7,7.52-5.7,13.55-11.67,11.67-6.4-1.91-2.85-7.26.58-8.16,1.28.05,3.9-.82,5.84,1.17,1.15,1.68-2.44,4.92-5.25,4.08" inkscape:connector-curvature="0"/>
                  <path id="path4824" class="st1" d="M272.18,178.8c1.47,6.26,5.68,13.51,4.67,17.51.18-.2-1.94,7.18-12.84,4.08-2.5-.46-5.83-9-8.76-15.18" inkscape:connector-curvature="0"/>
                  <path id="path4826" class="st1" d="M258.17,189.88c-3.03.77-4.67,2.24-5.84,4.08" inkscape:connector-curvature="0"/>
                  <path id="path4828" class="st8" d="M220.21,202.15c.31,1.37,2.72,2.85,2.91,4.67-4.72-2.32-5.04-2.11-7.59-4.08-1.2-.59-11.34-.49-11.09-2.91.94-3.19,12.59-2.72,16.35-1.74,0-.26-1.12,1.63-.58,4.08" inkscape:connector-curvature="0"/>
                  <path id="path4830" class="st1" d="M220.21,202.15c.31,1.37,2.72,2.85,2.91,4.67-4.72-2.32-5.04-2.11-7.59-4.08-1.2-.59-11.34-.49-11.09-2.91.94-3.19,12.59-2.72,16.35-1.74,0-.26-1.12,1.63-.58,4.08v-.02Z" inkscape:connector-curvature="0"/>
                  <path id="path4832" class="st5" d="M235.39,201.57c0,.16,3.77,7.93,8.18,7.01,1.86-.28-1.53-4.4-8.18-7.01" inkscape:connector-curvature="0"/>
                  <path id="path4834" class="st1" d="M235.39,201.57c0,.16,3.77,7.93,8.18,7.01,1.86-.28-1.53-4.4-8.18-7.01Z" inkscape:connector-curvature="0"/>
                  <path id="path4836" class="st1" d="M72.51,207.4c29.86,17.88,103.84,16.16,133.7,0" inkscape:connector-curvature="0"/>
                  <path id="path4838" class="st1" d="M273.93,184.63c-1.55,2.02-2.49,3.14-4.67,3.51" inkscape:connector-curvature="0"/>
                  <path id="path4840" class="st1" d="M273.93,188.14c-1.55,1.98-1.27,1.96-3.51,2.34" inkscape:connector-curvature="0"/>
                  <path id="path4842" class="st1" d="M275.67,190.48c-1.98,2.17-1.48,2.75-3.51,2.91" inkscape:connector-curvature="0"/>
                  <path id="path4844" class="st1" d="M276.84,193.39c-2.04,1.99-1.35,1.79-3.51,2.34" inkscape:connector-curvature="0"/>
                  <path id="path4846" class="st1" d="M259.33,184.06c1.33.74,1.61,1.74,1.74,2.91" inkscape:connector-curvature="0"/>
                  <path id="path4848" class="st1" d="M264.59,181.13c-.05,1.58,1.88,3.65,1.74,4.67" inkscape:connector-curvature="0"/>
                  <path id="path4850" class="st1" d="M56.16,216.75c.87-7.31,18.7-9.73,22.19-12.84,5-3.69-.23-5.42,0-9.33.58-2.22,5.58-9.55,1.17-11.09-22.96-6.78-50.44,2.14-56.05,14.6-.66,1.19,11.34,16.33,13.43,15.77,6.47-1.38,11.18-8.77,11.67-14.01" inkscape:connector-curvature="0"/>
                  <path id="path4852" class="st1" d="M35.74,208.57c6.67-15.14,46.91-13.02,37.94-7.59-3.85.12-14.88,2.17-18.68,6.42-1.58,1.78-6.57,9.83,1.17,15.77" inkscape:connector-curvature="0"/>
                  <path id="path4854" class="st2" d="M21.73,190.48c2.86.84,2.88,1.33,4.08,2.91" inkscape:connector-curvature="0"/>
                  <path id="path4856" class="st1" d="M42.75,183.46c-4.84-6.16-27.31-14.91-33.27-8.18-6.65,7.21,5.74,13.23,11.67,11.09,6.45-1.65,2.91-7-.58-7.59-1.23-.26-3.85-1.14-5.84,1.17-1.1,1.37,2.49,4.61,5.84,3.51" inkscape:connector-curvature="0"/>
                  <path id="path4858" class="st8" d="M59.09,201.57c-.26,1.63-2.67,3.11-2.91,4.67,4.77-2.06,4.72-2.44,7.59-3.51,6.26-2.67,12-.07,11.67-2.34-.86-3.36-13.12-3.62-16.92-2.91.05,0,1.17,1.91.58,4.08" inkscape:connector-curvature="0"/>
                  <path id="path4860" class="st1" d="M59.09,201.57c-.26,1.63-2.67,3.11-2.91,4.67,4.77-2.06,4.72-2.44,7.59-3.51,6.26-2.67,12-.07,11.67-2.34-.86-3.36-13.12-3.62-16.92-2.91.05,0,1.17,1.91.58,4.08h0Z" inkscape:connector-curvature="0"/>
                  <path id="path4862" class="st5" d="M43.92,201.57c.03-.15-3.7,7.62-8.18,7.01-1.81-.59,1.6-4.71,8.18-7.01" inkscape:connector-curvature="0"/>
                  <path id="path4864" class="st1" d="M43.92,201.57c.03-.15-3.7,7.62-8.18,7.01-1.81-.59,1.6-4.71,8.18-7.01Z" inkscape:connector-curvature="0"/>
                  <path id="path4866" class="st1" d="M18.22,190.48c2.39,1.2,2.62.07,4.08-.59" inkscape:connector-curvature="0"/>
                  <path id="path4868" class="st1" d="M17.05,193.39c1.1.95,2.62.64,4.08,0" inkscape:connector-curvature="0"/>
                  <path id="path4870" class="st1" d="M16.48,195.73c.89,1.25,2.16.99,3.51.58" inkscape:connector-curvature="0"/>
                  <path id="path4872" class="st1" d="M15.31,198.64c1.25,1.05,2.62.63,4.67,0" inkscape:connector-curvature="0"/>
                  <path id="path4874" class="st1" d="M19.98,183.46c-1.28,1-1.56,2.01-1.74,3.51" inkscape:connector-curvature="0"/>
                  <path id="path4876" class="st1" d="M14.71,180.55c.1,1.84-1.83,3.92-1.74,4.67" inkscape:connector-curvature="0"/>
                  <path id="path4878" class="st8" d="M55.59,216.16c-.49,1.23,0,3.16,1.74,1.74,1.28-1.6,1.51-4.97,7.59-6.42,3.31-.53,10.37-2.34,9.93-2.91-2.52-2.7-2.09-1.23-2.91-1.74-.21-.03-12.18,1.6-16.35,9.33" inkscape:connector-curvature="0"/>
                  <path id="path4880" class="st1" d="M55.59,216.16c-.49,1.23,0,3.16,1.74,1.74,1.28-1.6,1.51-4.97,7.59-6.42,3.31-.53,10.37-2.34,9.93-2.91-2.52-2.7-2.09-1.23-2.91-1.74-.21-.03-12.18,1.6-16.35,9.33h0Z" inkscape:connector-curvature="0"/>
                  <path id="path4882" class="st7" d="M60.26,61.45c.3.12.07-49.81,0-49.63h163.46c.08-.2.08,26.58,0,49.63H60.26" inkscape:connector-curvature="0"/>
                  <path id="path4884" class="st3" d="M60.26,61.45c.3.12.07-49.81,0-49.63h163.46c.08-.2.08,26.58,0,49.63H60.26Z" inkscape:connector-curvature="0"/>
                  <path id="path4886" class="st8" d="M69.6,133.85c6.16,13.45,13.94,24.08,25.1,33.28l47.29-48.46,46.12,47.29c9.2-8.72,18.4-19.19,25.1-31.52l-71.23-68.3-72.4,68.3v-.58" inkscape:connector-curvature="0"/>
                  <path id="path4888" class="st1" d="M69.6,133.85c6.16,13.45,13.94,24.08,25.1,33.28l47.29-48.46,46.12,47.29c9.2-8.72,18.4-19.19,25.1-31.52l-71.23-68.3-72.4,68.3v-.58h0v-.02Z" inkscape:connector-curvature="0"/>
                  <path id="path4890" class="st1" d="M60.26,61.45h163.46" inkscape:connector-curvature="0"/>
                  <path id="path4892" class="st6" d="M182.85,24.09h4.67c3.03-.84,4.21-2.73,7.59-2.91,2.37.18,3.51,1.78,5.25,1.74,1.51.03,3.8-1.68,6.42-1.74,2.47.08,3.74,1.61,5.25,2.34,1.66.64,3.64.61,5.84.58-.18,1.51-.13,2.4,0,3.51-.13,1.43,1.58.92,1.74,2.91-.16,2.26-2.39,1.84-2.34,2.91v8.18c-.02.76,2.02.89,1.74,2.34.28,2.39-2.01,1.6-1.74,3.51,0,1.23-.1,4.05,0,4.08-4.49-.03-32.76.21-33.86,0-.2-2.85.26-2.67.58-4.08-.13-1.2-2.77-1.91-2.91-4.08.16-1.15,1.73-1.07,1.74-2.34v-8.16c.03-1-2.34-1.53-2.34-2.91.18-1.96,2.29-1.71,2.34-2.91-.05-.54,0-2.52,0-2.91" inkscape:connector-curvature="0"/>
                  <path id="path4894" class="st1" d="M182.85,24.09h4.67c3.03-.84,4.21-2.73,7.59-2.91,2.37.18,3.51,1.78,5.25,1.74,1.51.03,3.8-1.68,6.42-1.74,2.47.08,3.74,1.61,5.25,2.34,1.66.64,3.64.61,5.84.58-.18,1.51-.13,2.4,0,3.51-.13,1.43,1.58.92,1.74,2.91-.16,2.26-2.39,1.84-2.34,2.91v8.18c-.02.76,2.02.89,1.74,2.34.28,2.39-2.01,1.6-1.74,3.51,0,1.23-.1,4.05,0,4.08-4.49-.03-32.76.21-33.86,0-.2-2.85.26-2.67.58-4.08-.13-1.2-2.77-1.91-2.91-4.08.16-1.15,1.73-1.07,1.74-2.34v-8.16c.03-1-2.34-1.53-2.34-2.91.18-1.96,2.29-1.71,2.34-2.91-.05-.54,0-2.52,0-2.91h0l.02-.03Z" inkscape:connector-curvature="0"/>
                  <path id="path4896" class="st1" d="M186.35,24.09c.1.03.16,18.14,0,22.19.1.21,26.47.26,27.44,0,.2-4.66.16-22.29,0-22.19" inkscape:connector-curvature="0"/>
                  <path id="path4898" class="st1" d="M200.36,22.92v23.36" inkscape:connector-curvature="0"/>
                  <path id="path4900" class="st8" d="M200.96,43.36c.87.33,3.01,1.12,5.25,1.74,2.5.81,5.35.23,7.59.58.53.21-13.14.31-12.84.58-.23-2.9-.28-2.63,0-2.91" inkscape:connector-curvature="0"/>
                  <path id="path4902" class="st1" d="M200.96,43.36c.87.33,3.01,1.12,5.25,1.74,2.5.81,5.35.23,7.59.58.53.21-13.14.31-12.84.58-.23-2.9-.28-2.63,0-2.91h0v.02Z" inkscape:connector-curvature="0"/>
                  <path id="path4904" class="st8" d="M198.62,46.85c.08-.33.77-.79,1.74-.58.72-.21,1.4.26,1.17.58.23.86-.44,1.33-1.17,1.17-.97.16-1.66-.31-1.74-1.17" inkscape:connector-curvature="0"/>
                  <path id="path4906" class="st1" d="M198.62,46.85c.08-.33.77-.79,1.74-.58.72-.21,1.4.26,1.17.58.23.86-.44,1.33-1.17,1.17-.97.16-1.66-.31-1.74-1.17Z" inkscape:connector-curvature="0"/>
                  <path id="path4908" class="st8" d="M199.19,43.36c-.87.33-3.01,1.12-5.25,1.74-2.5.81-5.35.23-7.59.58-.53.21,13.14.31,12.84.58.23-2.9.28-2.63,0-2.91" inkscape:connector-curvature="0"/>
                  <path id="path4910" class="st1" d="M199.19,43.36c-.87.33-3.01,1.12-5.25,1.74-2.5.81-5.35.23-7.59.58-.53.21,13.14.31,12.84.58.23-2.9.28-2.63,0-2.91v.02Z" inkscape:connector-curvature="0"/>
                  <path id="path4912" class="st4" d="M108.71,53.87c.63,1.73,1.93,2.86,4.08,2.91,3.92-.05,7.74-2.98,9.93-4.67,1.89-1.23,3.75-2.6,3.51-5.25v1.17c-.08-.23,3.01-3.33,10.5-1.17,2.26.97,11.33,6.07,13.43,7.01,1.55.61,7.46,4.84,16.92,3.51-.23-.3,13.86-2.22,10.5-16.92-2.04-10.21-1.35-10.95-.58-14.01-.25-.41-8.53-2.27-8.16,9.35-3.74.26-8.31,2.96-5.25,9.93,1.14-1.63,2.77-3.54,5.25-3.51,1.15-.05,2.65,1.98,2.91,3.51.03,3.59-3.6,5.19-8.18,4.67-2.27-.61-4.38-3.16-7.59-5.25.59-.46,1.1-2.32,1.17-2.91-.07-1.99-1.65-2.83-2.91-3.51.41-.59.86-1.43.58-2.34.28-1.2-1.79-1.1-2.34-1.74.07-.36.07-.1,0-.58.07-2.3.4-3.47-4.08-3.51.53-1.98.08-3.33-1.17-4.08h-3.51c-1.89-.63.08-1.28-1.74-2.91-1.65-1.73-4.33-.15-4.08,0-.25-1.61-1.25-2.77-2.91-2.91-1.05.15-2.21.23-2.91.58l-1.17,1.17c-1.78-.12-2.19-1.6-4.08-1.74-1.91.15-2.68,1.65-3.51,2.34-1.23-.35-1.4-1.43-2.91-1.17-1.23-.26-1.55.82-1.74,1.17-1.37,1.42-1.28,2.72-2.91,3.51l-.58-1.17c-.23-.21-.25-.3,0-.58-2.86,1.47-8.72,14.83-8.76,17.51.02,2.67,2.29,1.53,2.34,4.08-.03,1.89-2.47,3.08-2.34,4.67-.13,1.61,1.94,2.49,3.51,2.34l-1.17.58" inkscape:connector-curvature="0"/>
                  <path id="path4914" class="st1" d="M108.71,53.87c.63,1.73,1.93,2.86,4.08,2.91,3.92-.05,7.74-2.98,9.93-4.67,1.89-1.23,3.75-2.6,3.51-5.25v1.17c-.08-.23,3.01-3.33,10.5-1.17,2.26.97,11.33,6.07,13.43,7.01,1.55.61,7.46,4.84,16.92,3.51-.23-.3,13.86-2.22,10.5-16.92-2.04-10.21-1.35-10.95-.58-14.01-.25-.41-8.53-2.27-8.16,9.35-3.74.26-8.31,2.96-5.25,9.93,1.14-1.63,2.77-3.54,5.25-3.51,1.15-.05,2.65,1.98,2.91,3.51.03,3.59-3.6,5.19-8.18,4.67-2.27-.61-4.38-3.16-7.59-5.25.59-.46,1.1-2.32,1.17-2.91-.07-1.99-1.65-2.83-2.91-3.51.41-.59.86-1.43.58-2.34.28-1.2-1.79-1.1-2.34-1.74.07-.36.07-.1,0-.58.07-2.3.4-3.47-4.08-3.51.53-1.98.08-3.33-1.17-4.08h-3.51c-1.89-.63.08-1.28-1.74-2.91-1.65-1.73-4.33-.15-4.08,0-.25-1.61-1.25-2.77-2.91-2.91-1.05.15-2.21.23-2.91.58l-1.17,1.17c-1.78-.12-2.19-1.6-4.08-1.74-1.91.15-2.68,1.65-3.51,2.34-1.23-.35-1.4-1.43-2.91-1.17-1.23-.26-1.55.82-1.74,1.17-1.37,1.42-1.28,2.72-2.91,3.51l-.58-1.17c-.23-.21-.25-.3,0-.58-2.86,1.47-8.72,14.83-8.76,17.51.02,2.67,2.29,1.53,2.34,4.08-.03,1.89-2.47,3.08-2.34,4.67-.13,1.61,1.94,2.49,3.51,2.34l-1.17.58h0l-.03-.07Z" inkscape:connector-curvature="0"/>
                  <path id="path4916" class="st8" d="M115.13,42.77c-.13-.15,2.75.97,2.91,1.74-.18.63-2.04,1.51-3.51,2.34h-1.17c.4-1.56-.15-.91,0-2.34-.15-1.4,1.14-1.89,1.74-1.74" inkscape:connector-curvature="0"/>
                  <path id="path4918" class="st1" d="M115.13,42.77c-.13-.15,2.75.97,2.91,1.74-.18.63-2.04,1.51-3.51,2.34h-1.17c.4-1.56-.15-.91,0-2.34-.15-1.4,1.14-1.89,1.74-1.74h.02Z" inkscape:connector-curvature="0"/>
                  <path id="path4920" class="st1" d="M125.65,37.52c1.35-.51.66-2.34,2.91-2.34s3.08,1.48,5.25,1.74c1.05-.26,1.98-1.55,3.51-1.74,1.81.2,3.88,2.34,3.51,4.67.05.21,5.58-1.6,5.25,4.08,4.53-1.2,4.08,2.44,4.67,4.08.3,1.84,3.18.46,2.91,4.08" inkscape:connector-curvature="0"/>
                  <path id="path4922" class="st6" d="M66.68,24.09h4.08c3.44-.71,4.63-2.6,8.18-2.34,2.21-.26,3.34,1.33,5.25,1.17,1.35.16,3.64-1.53,6.42-1.74,2.3.21,3.57,1.76,5.25,2.34,1.5.79,3.47.76,5.25.58.23,1.66.28,2.55,0,4.08.28.99,1.99.48,1.74,2.34.25,2.4-1.96,1.98-1.74,2.91l-.58,8.18c.4.91,2.44,1.04,2.34,2.34.12,2.53-2.17,1.73-1.74,3.51-.16,1.37-.26,4.2,0,4.08-4.66.1-32.33.13-33.86,0,.23-2.93.1-2.52,0-4.08.28-1.05-2.34-1.78-2.34-3.51,0-1.6,1.58-1.51,1.74-2.91v-8.16c-.13-.86-2.5-1.4-2.34-2.91,0-1.81,2.12-1.58,2.34-2.91-.21-.4-.15-2.37,0-2.91" inkscape:connector-curvature="0"/>
                  <path id="path4924" class="st1" d="M66.68,24.09h4.08c3.44-.71,4.63-2.6,8.18-2.34,2.21-.26,3.34,1.33,5.25,1.17,1.35.16,3.64-1.53,6.42-1.74,2.3.21,3.57,1.76,5.25,2.34,1.5.79,3.47.76,5.25.58.23,1.66.28,2.55,0,4.08.28.99,1.99.48,1.74,2.34.25,2.4-1.96,1.98-1.74,2.91l-.58,8.18c.4.91,2.44,1.04,2.34,2.34.12,2.53-2.17,1.73-1.74,3.51-.16,1.37-.26,4.2,0,4.08-4.66.1-32.33.13-33.86,0,.23-2.93.1-2.52,0-4.08.28-1.05-2.34-1.78-2.34-3.51,0-1.6,1.58-1.51,1.74-2.91v-8.16c-.13-.86-2.5-1.4-2.34-2.91,0-1.81,2.12-1.58,2.34-2.91-.21-.4-.15-2.37,0-2.91h0v-.03Z" inkscape:connector-curvature="0"/>
                  <path id="path4926" class="st1" d="M70.19,24.09c-.07.18,0,18.27,0,22.77-.07-.23,26.3-.18,27.44,0,.03-5.1,0-22.73,0-22.77" inkscape:connector-curvature="0"/>
                  <path id="path4928" class="st1" d="M84.2,22.92v23.93" inkscape:connector-curvature="0"/>
                  <path id="path4930" class="st8" d="M84.2,43.94c1.3-.1,3.42.67,5.25,1.17,2.93.95,5.76.38,7.59.58.94.35-12.71.46-12.84.58.18-2.77.13-2.5,0-2.34" inkscape:connector-curvature="0"/>
                  <path id="path4932" class="st1" d="M84.2,43.94c1.3-.1,3.42.67,5.25,1.17,2.93.95,5.76.38,7.59.58.94.35-12.71.46-12.84.58.18-2.77.13-2.5,0-2.34h0v.02Z" inkscape:connector-curvature="0"/>
                  <path id="path4934" class="st8" d="M82.44,47.45c-.08-.76.61-1.23,1.17-1.17,1.14-.07,1.83.41,1.74,1.17.07.41-.61.89-1.74,1.17-.56-.28-1.25-.76-1.17-1.17" inkscape:connector-curvature="0"/>
                  <path id="path4936" class="st1" d="M82.44,47.45c-.08-.76.61-1.23,1.17-1.17,1.14-.07,1.83.41,1.74,1.17.07.41-.61.89-1.74,1.17-.56-.28-1.25-.76-1.17-1.17Z" inkscape:connector-curvature="0"/>
                  <path id="path4938" class="st8" d="M83.03,43.94c-1.04-.1-3.18.67-5.25,1.17-2.67.95-5.51.38-7.59.58-.69.35,12.97.46,12.84.58.07-2.77.12-2.5,0-2.34" inkscape:connector-curvature="0"/>
                  <path id="path4940" class="st1" d="M83.03,43.94c-1.04-.1-3.18.67-5.25,1.17-2.67.95-5.51.38-7.59.58-.69.35,12.97.46,12.84.58.07-2.77.12-2.5,0-2.34h0v.02Z" inkscape:connector-curvature="0"/>
                  <path id="path4942" class="st6" d="M88.28,128.6c.15-7.56,6.54-13.71,14.6-13.43,7.7-.28,14.09,5.88,14.01,13.43.08,7.64-6.3,13.79-14.01,14.01-8.07-.23-14.45-6.39-14.6-14.01" inkscape:connector-curvature="0"/>
                  <path id="path4944" class="st1" d="M88.28,128.6c.15-7.56,6.54-13.71,14.6-13.43,7.7-.28,14.09,5.88,14.01,13.43.08,7.64-6.3,13.79-14.01,14.01-8.07-.23-14.45-6.39-14.6-14.01Z" inkscape:connector-curvature="0"/>
                  <path id="path4946" class="st6" d="M127.39,95.31c.26-7.31,6.65-13.47,14.6-13.43,7.84-.03,14.22,6.12,14.01,13.43.2,7.88-6.19,14.04-14.01,14.01-7.93.03-14.32-6.12-14.6-14.01" inkscape:connector-curvature="0"/>
                  <path id="path4948" class="st1" d="M127.39,95.31c.26-7.31,6.65-13.47,14.6-13.43,7.84-.03,14.22,6.12,14.01,13.43.2,7.88-6.19,14.04-14.01,14.01-7.93.03-14.32-6.12-14.6-14.01Z" inkscape:connector-curvature="0"/>
                  <path id="path4950" class="st6" d="M164.76,128.6c-.07-7.56,6.32-13.71,14.01-13.43,8.07-.28,14.47,5.88,14.6,13.43-.13,7.64-6.52,13.79-14.6,14.01-7.69-.23-14.09-6.39-14.01-14.01" inkscape:connector-curvature="0"/>
                  <path id="path4952" class="st1" d="M164.76,128.6c-.07-7.56,6.32-13.71,14.01-13.43,8.07-.28,14.47,5.88,14.6,13.43-.13,7.64-6.52,13.79-14.6,14.01-7.69-.23-14.09-6.39-14.01-14.01Z" inkscape:connector-curvature="0"/>
                  <path id="path4954" class="st1" d="M156,44.53c-3.39-4.18-6.62-8.91-7.01-9.33-1.96-.54-6.24-9.05-17.51-9.93-3.14.07-14.14,1.14-14.6,4.08" inkscape:connector-curvature="0"/>
                  <path id="path4956" class="st1" d="M126.81,47.45c-.23-.26-.2-.56,0-.58-.2-.74-2.9-.49-3.51-.58-.48-.23,1.15-.87.58-1.17,1.94-.35,6.19-2.22,4.67-3.51-1.4-1.53-2.26-3-2.91-4.08-1.22-.95-2.49-1.6-4.67-1.74-1.47.15-4.2,3.08-5.25,4.08.76-1,3.16-3.08,2.91-4.67.23-3.95-2.83-7.28-3.51-10.5" inkscape:connector-curvature="0"/>
                  <path id="path4958" class="st1" d="M109.88,53.29c3.18,0,4.89-.21,6.42-1.17,1.48-.63,4.33-2.4,5.25-4.08" inkscape:connector-curvature="0"/>
                </g>
              </g>
            </g>
          </g>
        </g>
      </g>
    </g>
  </g>
</svg>