<?xml version="1.0" encoding="utf-8"?>
<!-- Generator: Adobe Illustrator 23.0.6, SVG Export Plug-In . SVG Version: 6.00 Build 0)  -->
<svg version="1.1" id="Layer_1" xmlns="http://www.w3.org/2000/svg" xmlns:xlink="http://www.w3.org/1999/xlink" x="0px" y="0px"
	 viewBox="0 0 457.6 45" style="enable-background:new 0 0 457.6 45;" xml:space="preserve">
<style type="text/css">
	.jst0{fill-rule:evenodd;clip-rule:evenodd;}
	.jst1{fill:none;stroke:#000000;stroke-width:0.75;stroke-linecap:round;}
</style>
<path d="M18.1,28.7c0,4.3-2.3,6.3-5.2,6.3c-3,0-5.2-2-5.2-5.5H0c0,7.8,5.5,11.8,12.9,11.8c7.5,0,13-4.8,13-12.6V0.5h-7.7V28.7z"/>
<path d="M38.2,40.7l2.9-8.5h15.5l2.9,8.5h8.3L53,0.5h-8.3L29.8,40.7H38.2z M48.6,10.3h0.5l5.3,15.5H43.3L48.6,10.3z"/>
<path d="M72.6,0.5v40.1h7.7V13.2h0.3l10.6,27h5.6l10.6-26.9h0.3v27.4h7.7V0.5h-9.8l-11.4,28h-0.5l-11.4-28H72.6z"/>
<path d="M144.2,17.3c-1.6-4.4-5-7.1-10.6-7.1c-6.4,0-11.1,3.6-11.1,8.7c0,3.7,2.4,7,8,8.4l5.1,1.3c3,0.7,4.3,2,4.3,4
	c0,2.5-2.5,4.8-6.9,4.8c-4.5,0-6.6-2.4-7.7-5.2l-4.3,1.6c1.5,3.8,4.8,7.6,12.1,7.6c7.5,0,11.5-4.3,11.5-8.9c0-3.4-2.3-6.6-7.8-7.9
	l-4.5-1.1c-3.5-0.9-5.1-2.7-5.1-4.7c0-2.6,2.8-4.5,6.5-4.5c4.7,0,5.8,3.1,6.4,4.4L144.2,17.3z"/>
<path d="M164.5,10.6h-6.5V4.2h-4.7v6.4h-4.6v4.3h4.6v18.4c0,5.3,4.3,7.8,8.2,7.8c1.7,0,2.8-0.3,3.5-0.5l-0.9-4.2
	c-0.4,0.1-1,0.2-2.1,0.2c-2.1,0-4-0.6-4-4.5V14.9h6.5V10.6z"/>
<path d="M189.7,40.7h4.7V20.9c0-9.6-7.3-10.7-11.2-10.7c-4.6,0-9.8,1.6-12.2,7.1l4.4,1.6c1-2.2,3.5-4.5,8-4.5c3.6,0,6.3,1.6,6.3,6.6
	v0.1c0,2-3.6,1.8-7.8,2.4c-5.7,0.7-11.8,2-11.8,8.9c0,5.9,4.6,9.3,10.3,9.3c5.3,0,8.1-2.8,9-4.8h0.2V40.7z M189.7,29.8
	c0,3.8-3,7.4-8.5,7.4c-3.7,0-6.4-1.6-6.4-4.9c0-3.5,3.2-4.6,6.9-5.1c2-0.2,7.3-0.8,8.1-1.7V29.8z"/>
<path d="M227,19.6c-0.8-5.6-5.6-9.4-12-9.4c-8.2,0-13.7,6.4-13.7,15.4c0,9.3,5.3,15.7,13.7,15.7c6.7,0,11.1-4.1,11.9-9.4h-4.7
	c-0.9,3.3-3.6,5.3-7.3,5.3c-5.5,0-9.1-4.5-9.1-11.5c0-6.8,3.6-11.3,9.1-11.3c4.1,0,6.6,2.5,7.3,5.3H227z"/>
<path d="M251.7,40.7h5.4l-13.2-17.3l11.9-12.8h-5.8l-12.3,13.6h-0.6V0.5h-4.7v40.1h4.7V30.2l3.6-3.8L251.7,40.7z"/>
<path d="M283.1,40.7h-25.3V45h25.3V40.7z"/>
<path d="M310.7,19.6c-0.8-5.6-5.6-9.4-12-9.4c-8.2,0-13.7,6.4-13.7,15.4c0,9.3,5.3,15.7,13.7,15.7c6.7,0,11.1-4.1,11.9-9.4H306
	c-0.9,3.3-3.6,5.3-7.3,5.3c-5.5,0-9.1-4.5-9.1-11.5c0-6.8,3.6-11.3,9.1-11.3c4.1,0,6.6,2.5,7.3,5.3H310.7z"/>
<path d="M329.9,41.3c8.2,0,13.7-6.2,13.7-15.5c0-9.4-5.5-15.6-13.7-15.6c-8.2,0-13.7,6.2-13.7,15.6
	C316.1,35.1,321.7,41.3,329.9,41.3z M329.9,37.2c-6.2,0-9.1-5.3-9.1-11.4s2.8-11.4,9.1-11.4s9.1,5.4,9.1,11.4S336.1,37.2,329.9,37.2
	z"/>
<path d="M355.4,22.9c0-5.6,4.3-8.2,7.8-8.2c3.9,0,6.6,2.8,6.6,7.2v18.8h4.7V21.6c0-7.7-4.1-11.4-9.8-11.4c-4.6,0-7.6,2.4-9,5.5h-0.3
	v-5.1h-4.7v30.1h4.7V22.9z"/>
<path d="M385.1,40.7h4.7V14.9h6.8v-4.3h-6.8V8.9c0-3,1.3-4.5,4.3-4.5c1.3,0,2.1,0.3,2.6,0.5l1.3-4c-0.7-0.3-2.1-0.8-4.4-0.8
	c-4.3,0-8.5,2.6-8.5,7.8v2.8h-4.9v4.3h4.9V40.7z"/>
<g>
	<path class="jst0" d="M428.3,34.1c-0.2,0-0.4,0.2-0.4,0.4v1.3c0,0.2,0.2,0.4,0.4,0.4c0.2,0,0.4-0.2,0.4-0.4v-1.3
		C428.7,34.2,428.5,34.1,428.3,34.1z M429.7,34.1c-0.2,0-0.4,0.2-0.4,0.4v1.3c0,0.2,0.2,0.4,0.4,0.4c0.2,0,0.4-0.2,0.4-0.4v-1.3
		C430.1,34.2,429.9,34.1,429.7,34.1z M431.1,34.1c-0.2,0-0.4,0.2-0.4,0.4v1.3c0,0.2,0.2,0.4,0.4,0.4c0.2,0,0.4-0.2,0.4-0.4v-1.3
		C431.5,34.2,431.3,34.1,431.1,34.1z M432.5,34.1c-0.2,0-0.4,0.2-0.4,0.4v1.3c0,0.2,0.2,0.4,0.4,0.4c0.2,0,0.4-0.2,0.4-0.4v-1.3
		C432.9,34.2,432.7,34.1,432.5,34.1z M433.9,34.1c-0.2,0-0.4,0.2-0.4,0.4v1.3c0,0.2,0.2,0.4,0.4,0.4c0.2,0,0.4-0.2,0.4-0.4v-1.3
		C434.3,34.2,434.2,34.1,433.9,34.1z M435.3,34.1c-0.2,0-0.4,0.2-0.4,0.4v1.3c0,0.2,0.2,0.4,0.4,0.4c0.2,0,0.4-0.2,0.4-0.4v-1.3
		C435.7,34.2,435.6,34.1,435.3,34.1z M428.3,8.4c0.2,0,0.4-0.2,0.4-0.4V6.7c0-0.2-0.2-0.4-0.4-0.4c-0.2,0-0.4,0.2-0.4,0.4V8
		C427.9,8.2,428.1,8.4,428.3,8.4z M429.7,8.4c0.2,0,0.4-0.2,0.4-0.4V6.7c0-0.2-0.2-0.4-0.4-0.4c-0.2,0-0.4,0.2-0.4,0.4V8
		C429.3,8.2,429.5,8.4,429.7,8.4z M431.1,8.4c0.2,0,0.4-0.2,0.4-0.4V6.7c0-0.2-0.2-0.4-0.4-0.4c-0.2,0-0.4,0.2-0.4,0.4V8
		C430.7,8.2,430.9,8.4,431.1,8.4z M432.5,8.4c0.2,0,0.4-0.2,0.4-0.4V6.7c0-0.2-0.2-0.4-0.4-0.4c-0.2,0-0.4,0.2-0.4,0.4V8
		C432.1,8.2,432.3,8.4,432.5,8.4z M433.9,8.4c0.2,0,0.4-0.2,0.4-0.4V6.7c0-0.2-0.2-0.4-0.4-0.4c-0.2,0-0.4,0.2-0.4,0.4V8
		C433.5,8.2,433.7,8.4,433.9,8.4z M435.3,8.4c0.2,0,0.4-0.2,0.4-0.4V6.7c0-0.2-0.2-0.4-0.4-0.4c-0.2,0-0.4,0.2-0.4,0.4V8
		C435,8.2,435.1,8.4,435.3,8.4z M428.3,20.2c-0.2,0-0.4,0.2-0.4,0.4v1.3c0,0.2,0.2,0.4,0.4,0.4c0.2,0,0.4-0.2,0.4-0.4v-1.3
		C428.7,20.4,428.5,20.2,428.3,20.2z M429.7,20.2c-0.2,0-0.4,0.2-0.4,0.4v1.3c0,0.2,0.2,0.4,0.4,0.4c0.2,0,0.4-0.2,0.4-0.4v-1.3
		C430.1,20.4,429.9,20.2,429.7,20.2z M431.1,20.2c-0.2,0-0.4,0.2-0.4,0.4v1.3c0,0.2,0.2,0.4,0.4,0.4c0.2,0,0.4-0.2,0.4-0.4v-1.3
		C431.5,20.4,431.3,20.2,431.1,20.2z M432.5,20.2c-0.2,0-0.4,0.2-0.4,0.4v1.3c0,0.2,0.2,0.4,0.4,0.4c0.2,0,0.4-0.2,0.4-0.4v-1.3
		C432.9,20.4,432.7,20.2,432.5,20.2z M433.9,20.2c-0.2,0-0.4,0.2-0.4,0.4v1.3c0,0.2,0.2,0.4,0.4,0.4c0.2,0,0.4-0.2,0.4-0.4v-1.3
		C434.3,20.4,434.2,20.2,433.9,20.2z M435.3,20.2c-0.2,0-0.4,0.2-0.4,0.4v1.3c0,0.2,0.2,0.4,0.4,0.4c0.2,0,0.4-0.2,0.4-0.4v-1.3
		C435.7,20.4,435.6,20.2,435.3,20.2z M446.3,38.8c-1.1-0.8-2.5-1.2-3.9-1.2c-2.2,0-4.2,1.1-5.5,2.8c0.3,0.2,0.5,0.5,0.8,0.8
		c0.1,0.2,0.1,0.4,0,0.5c-0.1,0.1-0.2,0.1-0.3,0.1c-0.1,0-0.2,0-0.3-0.1c-0.9-1.1-2.3-1.7-3.7-1.7c-0.9,0-1.8,0.3-2.6,0.7
		c0.5,0.2,0.9,0.5,1.3,0.9c0.1,0.2,0.1,0.4,0,0.5c-0.1,0.1-0.2,0.1-0.3,0.1c-0.1,0-0.2,0-0.3-0.1c-0.5-0.5-1.1-0.9-1.9-0.9
		c-0.6,0-1.2,0.2-1.6,0.6c-0.2,0.1-0.4,0.1-0.5,0c-0.1-0.2-0.1-0.4,0-0.5c0.6-0.5,1.3-0.8,2.1-0.8c0,0,0.1,0,0.1,0
		c0.3-0.2,0.6-0.5,1-0.6c-0.7-1.9-2.5-3.3-4.6-3.3c-1.8,0-3.4,1-4.3,2.5c0.1,0.1,0.2,0.3,0.3,0.4c0.1,0.2,0.1,0.4-0.1,0.5
		c-0.1,0-0.1,0.1-0.2,0.1c-0.1,0-0.2-0.1-0.3-0.2c-1-1.5-2.8-2.4-4.6-2.4c-1.2,0-2.3,0.4-3.3,1.1c0.4,0.6,0.8,1.3,1,2.1
		c0.1,0.2,0,0.4-0.3,0.5c0,0-0.1,0-0.1,0c-0.2,0-0.3-0.1-0.4-0.3c-0.7-2.2-2.4-3.9-4.7-4.5c-0.2-0.1-0.3-0.3-0.3-0.5
		c0.1-0.2,0.3-0.3,0.5-0.3c0.8,0.2,1.5,0.5,2.2,1c7.1-6.3,11.5-18.5,11.5-32.1c0,0,0,0,0,0V4.2c0-0.2,0.2-0.4,0.4-0.4h0.5V3.2
		c0-0.2,0.2-0.4,0.4-0.4h1c0.2,0,0.4,0.2,0.4,0.4v0.6h0.5c0.2,0,0.4,0.2,0.4,0.4V5h9.8V4.2c0-0.2,0.2-0.4,0.4-0.4h0.5V3.2
		c0-0.2,0.2-0.4,0.4-0.4h1c0.2,0,0.4,0.2,0.4,0.4v0.6h0.5c0.2,0,0.4,0.2,0.4,0.4v1.5c0.2,12.2,4,23.3,10.2,29.8
		c0.2,0,0.5-0.1,0.5-0.1L446.3,38.8z M412.5,37.1c0,0-0.1,0.1-0.1,0.1c0,0,0.1,0.1,0.1,0.1V37.1z M414.7,34.8
		c-0.5,0.5-0.9,1.1-1.4,1.5c0,0,0,0,0,0.1V38c0.4-0.3,0.9-0.6,1.4-0.8L414.7,34.8z M416.9,31.9c-0.5,0.7-0.9,1.4-1.4,2V37
		c0.5-0.1,0.9-0.2,1.4-0.2V31.9z M419.1,28c-0.4,0.9-0.9,1.8-1.4,2.6v6.3c0.5,0.1,1,0.2,1.4,0.3V28z M421.3,22.6
		c-0.2,0.5-0.4,1-0.5,1.5c-0.3,0.7-0.6,1.5-0.9,2.2v11.2c0.5,0.3,1,0.6,1.4,1L421.3,22.6z M423.3,14.4c-0.3,1.9-0.7,3.8-1.2,5.7
		v17.6c0.4-0.4,0.8-0.7,1.2-1V14.4z M426.2,4.6h-0.5c-0.2,0-0.4-0.2-0.4-0.4V3.6H425v0.6c0,0.2-0.2,0.4-0.4,0.4h-0.5v31.6
		c0.7-0.3,1.4-0.4,2.1-0.4V4.6z M436.7,37.8c0-0.2-0.2-0.3-0.4-0.3h-6.1c0.6,0.6,1,1.3,1.3,2c0.6-0.2,1.3-0.3,1.9-0.3
		c1,0,2,0.3,2.9,0.8c0.1-0.2,0.3-0.4,0.4-0.5L436.7,37.8z M436.7,33.5c-0.1,0-0.2,0.1-0.4,0.1h-9c-0.1,0-0.3,0-0.4-0.1v2.4
		c0.8,0.1,1.6,0.4,2.3,0.9h7.1c0.1,0,0.3,0,0.4,0.1V33.5z M436.7,23.9c0-0.2-0.2-0.3-0.4-0.3h-9c-0.2,0-0.4,0.2-0.4,0.4c0,0,0,0,0,0
		v8.4c0,0,0,0,0,0c0,0.2,0.2,0.4,0.4,0.4h9c0.2,0,0.4-0.1,0.4-0.3V23.9z M436.7,19.6c-0.1,0-0.2,0.1-0.4,0.1h-9
		c-0.1,0-0.3,0-0.4-0.1v3.3c0.1,0,0.2-0.1,0.4-0.1h9c0.1,0,0.3,0,0.4,0.1V19.6z M436.7,10.1c0-0.2-0.2-0.3-0.4-0.3h-9
		c-0.2,0-0.4,0.2-0.4,0.4c0,0,0,0,0,0v8.4c0,0,0,0,0,0c0,0.2,0.2,0.4,0.4,0.4h9c0.2,0,0.4-0.1,0.4-0.3V10.1z M436.7,5.8h-9.8V9
		c0.1,0,0.2-0.1,0.4-0.1h9c0.1,0,0.3,0,0.4,0.1V5.8z M439.5,5.7c0-0.3,0-0.7,0-1c0,0,0,0,0-0.1H439c-0.2,0-0.4-0.2-0.4-0.4V3.6h-0.3
		v0.6c0,0.2-0.2,0.4-0.4,0.4h-0.5v0.7c0,0,0,0,0,0V24c0,0,0,8.4,0,8.4c0,0,0,0,0,0v5.5c0,0,0,0,0,0v0.7c0.6-0.5,1.3-1,2.1-1.3
		L439.5,5.7z M441.5,20c-0.5-1.8-0.9-3.7-1.2-5.6v22.6c0.4-0.1,0.8-0.2,1.2-0.2V20z M443.7,26.3c-0.5-1-0.9-2.1-1.3-3.3
		c0-0.1-0.1-0.3-0.1-0.4v14.2c0,0,0.1,0,0.1,0c0.4,0,0.9,0,1.3,0.1V26.3z M445.9,30.6c-0.5-0.8-1-1.7-1.4-2.6v9.1
		c0.5,0.1,1,0.3,1.4,0.6V30.6z M448.1,33.8c-0.5-0.6-1-1.3-1.4-2v6.2c0,0,0,0,0.1,0c0.4-0.5,0.8-1,1.4-1.4L448.1,33.8
		C448.1,33.8,448.1,33.8,448.1,33.8z M449.8,35.8c-0.3-0.3-0.6-0.6-0.9-1v1.4C449.2,36.1,449.5,35.9,449.8,35.8z"/>
	<path class="st0" d="M435.5,15c-0.7,0-1.4,0.2-2,0.6c-0.6-0.4-1.3-0.6-2-0.6c-0.2,0-0.4,0.2-0.4,0.4c0,0.2,0.2,0.4,0.4,0.4
		c0.6,0,1.2,0.2,1.8,0.7c0.1,0.1,0.2,0.1,0.2,0.1c0.1,0,0.2,0,0.2-0.1c0.5-0.4,1.2-0.7,1.8-0.7c0.2,0,0.4-0.2,0.4-0.4
		C435.9,15.2,435.7,15,435.5,15z"/>
	<path class="st0" d="M431.5,12.6c0.4-0.4,0.9-0.5,1.4-0.5c0.2,0,0.4-0.2,0.4-0.4c0-0.2-0.2-0.4-0.4-0.4c-0.6,0-1.2,0.2-1.7,0.5
		c-0.5-0.3-1.1-0.5-1.7-0.5c-0.2,0-0.4,0.2-0.4,0.4c0,0.2,0.2,0.4,0.4,0.4c0.5,0,1,0.2,1.4,0.5c0.1,0.1,0.2,0.1,0.2,0.1
		C431.3,12.7,431.4,12.6,431.5,12.6z"/>
	<path class="st0" d="M449.2,21.1c0-0.2-0.2-0.4-0.4-0.4c-0.7,0-1.4,0.2-2,0.6c-0.6-0.4-1.3-0.6-2-0.6c-0.2,0-0.4,0.2-0.4,0.4
		s0.2,0.4,0.4,0.4c0.6,0,1.2,0.2,1.8,0.7c0.1,0.1,0.2,0.1,0.2,0.1c0.1,0,0.2,0,0.2-0.1c0.5-0.4,1.2-0.7,1.8-0.7
		C449,21.4,449.2,21.3,449.2,21.1z"/>
	<path class="jst1" d="M445.9,41.6c0.3-3.6,3.4-6.3,7-6.1"/>
</g>
</svg>
