<svg xmlns="http://www.w3.org/2000/svg" viewBox="0 0 450 160" enable-background="new 0 0 450 160"><style type="text/css">.st0{fill:#231F20;} .st1{fill:#FFFFFF;}</style><path d="M120.3 42.1c2.6 0 2.6 3.2 0 3.2h-13.9v30.7c0 7.2 1.2 14.6 10.5 14.6 1.9 0 4.6-.7 6-1.5 2.1-1 4 1.6 1.3 3-2.5 1.3-4.8 1.7-7.3 1.7-11.2 0-13.9-8.5-13.9-17.8v-30.7h-9.3c-2.7 0-2.7-3.2 0-3.2h9.3v-12.8c0-2.2 3.4-2.1 3.4 0v12.8h13.9zm20.1-6.8c0 2.2-3.7 2.2-3.7 0v-5.6c0-2.2 3.7-2.2 3.7 0v5.6zm-3.6 8.3c0-2.4 3.5-2.4 3.5-.1v48.7c0 2.4-3.5 2.4-3.5 0v-48.6zm18.5 37.8c1.3 6.2 10.8 9.1 19.6 9.1 6 0 18.8-2.5 18.8-11.6 0-17.6-41-1.5-41-23.1 0-9.6 11.9-14.6 21.2-14.6 7.6 0 18.2 1.3 21.6 10.2.7 2.8-2.6 3.4-3.3 1.3-2.8-7.5-12.8-8.2-18.3-8.2-7.2 0-17.8 3.1-17.8 11.3 0 16.9 41.1 1.3 41.1 23.1 0 12-14.2 14.8-22.3 14.8-8.2 0-20.9-2-22.8-11.7-.8-2.6 2.9-3.3 3.2-.6zm99.3-18.1c0-13-12.1-21.2-23.9-18.1-10.3 2.6-17.2 12.3-17.5 22.8v23.8c0 1.1-.6 1.8-1.7 1.8s-1.8-.7-1.8-1.8v-62.5c0-2.4 3.5-2.2 3.5.1v28.1c2.3-8.4 9.2-13.7 16.4-15.6 13.3-3.4 28.5 4.5 28.5 21.4v28.5c0 1.1-.6 1.8-1.7 1.8s-1.8-.7-1.8-1.8v-28.5zm42.1-21.9c4.3.1 8.4 1.1 12 3.2 3.3 2.2 5.8 5.3 7.3 9.3v-10.1c0-1.1.6-1.8 1.7-1.8s1.8.7 1.8 1.8v47.9c0 1.1-.7 1.8-1.8 1.8s-1.7-.7-1.7-1.8v-10.1c-1.5 4-4 7.1-7.3 9.3-6.3 3.7-14.3 4.6-21.9 1.5-10.8-4.4-16.2-14.3-15.9-26 .3-10.1 5.7-19.4 15.2-23.1 3.3-1.4 6.8-2 10.6-1.9zm19.3 30.7v-8.7c-.4-7.3-3.8-13.3-10.4-16.5-2.9-1.3-5.8-1.9-8.9-2-8.5-.1-17.1 4.4-20.5 12.7-1.1 2.6-1.7 5.8-1.8 8.7-.3 7.7 2.3 14.8 8.8 20 3.5 2.7 7.8 4.2 12.3 4.5 3.5.1 6.8-.7 10.1-2.2 6.6-3.2 10-9.2 10.4-16.5zm14.8-28c-.5-2 2.1-3.3 3.4-1.2l22.7 44.9 22.2-44.9c1-2.5 4.6-1 3.4 1.2l-33.9 67c-1.3 2.7-4.1 1.4-3.2-1.1l9.3-18.8-23.9-47.1zm-242.2 47l-31.9-62.7c-.2-.6-.8-.9-1.4-.9-.6 0-1.2.3-1.5.9l-31.8 62.7c-.4.8-.1 1.7.6 2.1.8.5 1.8.3 2.3-.5l8.9-17.7 21.5-42.6 21.5 42.6 8.9 17.7c.5.7 1.3.9 2.1.6.8-.4 1.2-1.4.8-2.2z"/><circle cx="27.1" cy="42.4" r="3.8"/><circle cx="83.4" cy="42.4" r="3.8"/><path class="st0" d="M27.1 55.3c4.2 3.4 8.6 6.4 13.3 9 .6.3 1.2.7 1.8.9l1.8.8c1.2.5 2.4.9 3.7 1.3l.9.3 1 .2 1.9.4c.6.1 1.3.2 1.9.2l1.9.1c5.2-.1 10.3-1.5 14.8-4 4.7-2.6 9.2-5.6 13.3-9-3.4 4.3-7.6 8-12.2 11-.6.4-1.2.8-1.8 1.1l-1.9.9c-.6.3-1.2.7-1.9.9l-2 .7c-1.3.4-2.7.8-4.1 1-.7.1-1.4.2-2.1.2l-2.1.1c-.7 0-1.4-.1-2.1-.2-.7 0-1.4-.1-2.1-.2l-2.1-.4-1-.2-1-.3c-1.3-.4-2.7-1-3.9-1.6l-2-.9c-.6-.3-1.2-.7-1.8-1.1-4.7-3.1-8.8-6.9-12.2-11.2z"/><circle class="st1" cx="28.4" cy="43.8" r="1.3"/><circle class="st1" cx="82.1" cy="43.8" r="1.3"/><path d="M379.7 89.4c0 .4-.3.7-.7.7s-.7-.3-.7-.7.3-.7.7-.7.7.3.7.7zm27-7.1c-.1-3.2-3.1-5.3-6.3-4.5-2.7.7-4.5 3.2-4.5 5.9v6c0 .3-.2.5-.5.5s-.4-.2-.4-.5v-7c0-1.7-.7-3.5-2.2-4.4-1.2-.7-2.7-.9-4-.6-2.7.7-4.5 3.2-4.5 5.9v6c0 .6-.9.6-.9 0v-12.4c0-.2.2-.4.4-.4.3 0 .5.2.5.4v3.8c.7-2.3 2.4-3.6 4.3-4.1 1.6-.4 3.3-.2 4.7.7 1.1.7 2.1 1.7 2.4 3.8.7-2.7 2.4-4 4.5-4.5 3.3-.8 7.4 1.2 7.4 5.3v7.5c0 .3-.2.5-.5.5s-.4-.2-.4-.5v-7.4zm17.8 1c0 .4-.1.9-.8.9h-11.7c.1 1.1.5 2.2 1.3 3.1 1.1 1.3 2.7 2 4.4 2 1.4 0 2.9-.4 4.1-1.3.5-.4 1.1.2.6.7-1.2 1.1-2.9 1.6-4.6 1.6-2 0-4-.8-5.2-2.3-1.1-1.4-1.7-3-1.6-5 .1-2.8 2-5.3 4.8-6.1 1.2-.3 2.6-.3 3.9 0 2.9.7 4.7 3.1 4.8 6.4zm-12.6 0h11.6c-.1-2.9-1.6-5-4.2-5.7-1-.3-2.3-.3-3.3 0-2.5.8-4 3.1-4.1 5.7zm-388.4 43.9c1.1-.2 2.6-.3 4-.3 2.7 0 4.7.6 6 1.8 1.3 1.2 2 2.9 2 5.2s-.8 4.3-2.2 5.7c-1.4 1.4-3.7 2.2-6.6 2.2-1.2 0-2.6 0-3.5-.2v-14.4h.3zm2 13.1c.6 0 1.1.2 2 .2 4 0 6.1-2.2 6.1-6.1 0-3.5-2-5.7-6-5.7-.9 0-1.7 0-2.2.2v11.4h.1zm12.5-5.8v-3.2h1.7v2c.6-1.4 1.7-2.3 2.9-2.3h.6v1.8h-.8c-1.2 0-2.3 1.1-2.6 2.6v6.6h-1.8v-7.5zm8 2.3c0 2.6 1.7 3.7 3.7 3.7 1.4 0 2.2-.2 2.9-.6l.3 1.4c-.8.3-1.8.8-3.5.8-3.2 0-5.2-2.2-5.2-5.2s1.8-5.7 4.9-5.7c3.5 0 4.3 3.1 4.3 4.9v.9h-7.4v-.2zm5.6-1.2c0-1.2-.6-3.1-2.7-3.1-2 0-2.7 1.8-2.9 3.1h5.6zm10.1 6.1l-.2-1.2c-.6.9-1.7 1.7-3.2 1.7-2.2 0-3.2-1.4-3.2-3.1 0-2.6 2.2-4 6.4-4v-.2c0-.9-.2-2.3-2.3-2.3-.9 0-2 .3-2.7.8l-.5-1.4c.9-.6 2.2-.9 3.5-.9 3.2 0 4 2.2 4 4.3v4c0 .9 0 1.8.2 2.6h-1.8v-.3h-.2zm-.2-5.2c-2.2 0-4.6.3-4.6 2.3 0 1.2.9 1.8 1.8 1.8 1.4 0 2.2-.9 2.6-1.8 0-.2.2-.3.2-.6v-1.7zm5-2.5v-2.9h1.7v1.7c.6-1.1 1.7-2 3.2-2 1.4 0 2.6.9 2.9 2.2.3-.6.8-1.1 1.1-1.4.6-.6 1.2-.8 2.3-.8 1.4 0 3.5.9 3.5 4.6v6.1h-1.8v-6c0-2-.8-3.2-2.3-3.2-1.1 0-2 .8-2.2 1.8 0 .2-.2.6-.2.9v6.6h-1.8v-6.1c0-1.7-.8-2.9-2.2-2.9-1.2 0-2 .9-2.3 2-.2.3-.2.6-.2.9v6.4h-1.8v-7.9h.1zm16.8 10.4c.6-1.2 1.1-3.7 1.2-5.2l2.2-.2c-.6 1.8-1.4 4.3-2 5.2l-1.4.2zm10.6-17.2c.9-.2 2.2-.3 3.5-.3 1.8 0 3.1.3 4 1.1.8.6 1.2 1.4 1.2 2.6 0 1.4-.9 2.7-2.6 3.2 1.4.3 3.1 1.4 3.1 3.7 0 1.2-.6 2.2-1.2 2.9-1.1.9-2.7 1.4-5.1 1.4-1.2 0-2.3 0-2.9-.2v-14.4zm1.8 6.2h1.7c2 0 3.2-1.1 3.2-2.6 0-1.7-1.2-2.3-3.2-2.3-.9 0-1.4 0-1.7.2v4.7zm0 6.9h1.7c2 0 3.8-.8 3.8-2.9 0-2-1.7-2.9-3.8-2.9h-1.7v5.8zm18.7-1.5v2.9h-1.7l-.2-1.7c-.6.9-1.7 2-3.5 2-1.7 0-3.7-.9-3.7-4.6v-6.1h2v5.8c0 2 .6 3.2 2.3 3.2 1.2 0 2.2-.9 2.6-1.8.2-.3.2-.6.2-.9v-6.6h2v7.8zm5.2-10.6c0 .8-.6 1.1-1.2 1.1s-1.1-.6-1.1-1.1c0-.8.6-1.2 1.2-1.2.8 0 1.1.6 1.1 1.2zm-2.1 13.5v-10.6h2v10.6h-2zm5.1-15.5h2v15.5h-2v-15.5zm14.3 0v15.4h-1.7v-1.8c-.6 1.1-1.8 2-3.7 2-2.6 0-4.6-2.2-4.6-5.5 0-3.5 2.2-5.7 4.7-5.7 1.7 0 2.7.8 3.2 1.7v-6.1h2.1zm-2 9.4v-.8c-.3-1.2-1.2-2.2-2.7-2.2-2 0-3.1 1.8-3.1 4s1.1 3.8 3.1 3.8c1.2 0 2.6-.9 2.7-2.3v-2.5zm8.6 8.8c.6-1.2 1.1-3.7 1.2-5.2l2.2-.2c-.6 1.8-1.4 4.3-2 5.2l-1.4.2zm10.4-17.4h1.8v13h6.4v1.7h-8.1v-14.7zm11.1 9.8c0 2.6 1.7 3.7 3.7 3.7 1.4 0 2.2-.2 2.9-.6l.3 1.4c-.8.3-1.8.8-3.5.8-3.2 0-5.2-2.2-5.2-5.2s1.8-5.7 4.9-5.7c3.5 0 4.3 3.1 4.3 4.9v.9h-7.4v-.2zm5.6-1.2c0-1.2-.6-3.1-2.7-3.1-2 0-2.7 1.8-2.9 3.1h5.6zm10 6.1l-.2-1.2c-.6.9-1.7 1.7-3.2 1.7-2.2 0-3.2-1.4-3.2-3.1 0-2.6 2.2-4 6.4-4v-.2c0-.9-.2-2.3-2.3-2.3-.9 0-2 .3-2.7.8l-.3-1.2c.9-.6 2.2-.9 3.5-.9 3.2 0 4 2.2 4 4.3v4c0 .9 0 1.8.2 2.6h-1.8v-.3h-.4zm-.2-5.2c-2.2 0-4.6.3-4.6 2.3 0 1.2.9 1.8 1.8 1.8 1.4 0 2.2-.9 2.6-1.8 0-.2.2-.3.2-.6v-1.7zm4.9-2v-3.2h1.7v2c.6-1.4 1.7-2.3 2.9-2.3h.6v1.8h-.8c-1.2 0-2.3 1.1-2.6 2.6v6.6h-1.8v-7.5zm7.4-.5v-2.9h1.7l.2 1.8c.6-1.1 1.8-2 3.5-2 1.4 0 3.8.9 3.8 4.6v6.4h-2v-5.9c0-1.7-.6-3.1-2.3-3.1-1.2 0-2.2.9-2.6 2 0 .2-.2.6-.2.9v6.4h-2l-.1-8.2zm10.8 10.4c.6-1.2 1.1-3.7 1.2-5.2l2.2-.2c-.6 1.8-1.4 4.3-2 5.2l-1.4.2zm21.7-3.2c-.9.3-2.6.8-4.6.8-2.2 0-4-.6-5.5-2-1.2-1.2-2-3.2-2-5.5 0-4.3 3.1-7.7 8-7.7 1.7 0 3.1.3 3.7.8l-.6 1.7c-.8-.3-1.8-.6-3.2-.6-3.7 0-5.8 2.2-5.8 5.8 0 3.8 2.2 6 5.7 6 1.2 0 2.2-.2 2.6-.3v-4.3h-2.9v-1.4h4.9v6.9h-.3v-.2zm2.7-6.7v-3.2h1.7v2c.6-1.4 1.7-2.3 2.9-2.3h.6v1.8h-.8c-1.2 0-2.3 1.1-2.6 2.6v6.6h-1.8v-7.5zm16.5 2c0 3.8-2.7 5.7-5.2 5.7-2.9 0-5.1-2.2-5.1-5.5 0-3.5 2.3-5.7 5.2-5.7 3 0 5.1 2.1 5.1 5.5zm-8.4 0c0 2.3 1.2 4 3.2 4 1.8 0 3.2-1.7 3.2-4.2 0-1.8-.9-4-3.1-4-2.3.2-3.3 2.2-3.3 4.2zm11.3-5.4l1.4 5.5c.3 1.1.6 2.2.8 3.2.2-1.1.6-2.2.9-3.2l1.7-5.5h1.7l1.7 5.2c.3 1.2.8 2.3.9 3.5.2-1.1.6-2.2.8-3.5l1.4-5.2h1.8l-3.5 10.6h-1.8l-1.7-5.1c-.3-1.1-.8-2.2-.9-3.5-.2 1.2-.6 2.3-.9 3.5l-1.7 5.1h-1.8l-3.2-10.6h2.4zm24.4 4v1.4h-5.5v-1.4h5.5zm7.2 6.6v-14.7h2l4.7 7.5c1.1 1.7 2 3.2 2.7 4.7-.2-2-.2-3.8-.2-6v-6.2h1.8v14.7h-2l-4.7-7.5c-1.1-1.7-2-3.2-2.7-4.9.2 1.8.2 3.7.2 6v6.4h-1.8zm15.2-4.9c0 2.6 1.7 3.7 3.7 3.7 1.4 0 2.2-.2 2.9-.6l.3 1.4c-.8.3-1.8.8-3.5.8-3.2 0-5.2-2.2-5.2-5.2s1.8-5.7 4.9-5.7c3.5 0 4.3 3.1 4.3 4.9v.9h-7.5l.1-.2zm5.6-1.2c0-1.2-.6-3.1-2.7-3.1-2 0-2.7 1.8-2.9 3.1h5.6zm4.9-4.5l2 6 .9 2.7c.2-.9.6-1.8.9-2.7l2-6h2l-4.2 10.6h-1.7l-4-10.6h2.1zm10.8 5.7c0 2.6 1.7 3.7 3.7 3.7 1.4 0 2.2-.2 2.9-.6l.3 1.4c-.8.3-1.8.8-3.5.8-3.2 0-5.2-2.2-5.2-5.2s1.8-5.7 4.9-5.7c3.5 0 4.3 3.1 4.3 4.9v.9h-7.5v-.2zm5.6-1.2c0-1.2-.6-3.1-2.7-3.1-2 0-2.7 1.8-2.9 3.1h5.6zm4.2-1.1v-3.2h1.7v2c.6-1.4 1.7-2.3 2.9-2.3h.6v1.8h-.8c-1.2 0-2.3 1.1-2.6 2.6v6.6h-1.8v-7.5zm11.4 5.2c.6.3 1.7.8 2.6.8 1.4 0 2-.8 2-1.7 0-.9-.6-1.4-2-2-1.8-.8-2.7-1.7-2.7-2.9 0-1.7 1.4-3.1 3.7-3.1 1.1 0 2 .3 2.6.8l-.6 1.4c-.3-.2-1.1-.6-2.2-.6s-1.8.8-1.8 1.4c0 .9.6 1.2 2 1.8 1.8.8 2.7 1.7 2.7 3.2 0 1.8-1.4 3.1-4 3.1-1.1 0-2.2-.3-2.9-.8l.6-1.4zm11.3-11.6v3.1h2.7v1.4h-2.7v5.7c0 1.2.3 2 1.4 2 .6 0 .9 0 1.1-.2v1.4c-.3.2-.9.2-1.7.2-.9 0-1.7-.3-2-.8-.6-.6-.8-1.4-.8-2.7v-5.8h-1.6v-1.4h1.7v-2.6l1.9-.3zm14.4 8.4c0 3.8-2.7 5.7-5.2 5.7-2.9 0-5.1-2.2-5.1-5.5 0-3.5 2.3-5.7 5.2-5.7 2.8 0 5.1 2.1 5.1 5.5zm-8.4 0c0 2.3 1.2 4 3.2 4 1.8 0 3.2-1.7 3.2-4.2 0-1.8-.9-4-3.1-4-2.4.2-3.3 2.2-3.3 4.2zm10.8-1.9v-3.5h1.7v1.8c.8-1.2 2-2 3.8-2 2.6 0 4.6 2.2 4.6 5.5 0 3.8-2.3 5.7-4.7 5.7-1.4 0-2.6-.6-3.2-1.7v5.8h-1.9v-11.6h-.3zm1.8 2.9v.8c.3 1.2 1.4 2.2 2.9 2.2 2 0 3.2-1.7 3.2-4 0-2.2-1.1-4-3.1-4-1.2 0-2.6.9-2.9 2.3l-.2.8.1 1.9zm17.4-9.4v3.1h2.7v1.4h-2.7v5.7c0 1.2.3 2 1.4 2 .6 0 .9 0 1.1-.2v1.4c-.3.2-.9.2-1.7.2-.9 0-1.7-.3-2-.8-.6-.6-.8-1.4-.8-2.7v-5.8h-1.7v-1.4h1.7v-2.6l2-.3zm5.1 6.4v-3.2h1.7v2c.6-1.4 1.7-2.3 2.9-2.3h.6v1.8h-.8c-1.2 0-2.3 1.1-2.6 2.6v6.6h-1.8v-7.5zm8.4-3.4l2.3 6.1.8 2.2c.2-.6.3-1.4.8-2.2l2.2-6.1h2l-2.9 7.5c-1.4 3.7-2.3 5.5-3.7 6.6-.9.9-1.8 1.1-2.3 1.2l-.6-1.7c.6-.2 1.1-.6 1.7-.9s1.1-1.1 1.7-2.2c0-.2.2-.3.2-.6s0-.2-.2-.6l-3.8-9.6h2v.2h-.2zm11.7-2.9c0 .8-.6 1.1-1.2 1.1-.8 0-1.1-.6-1.1-1.1 0-.8.6-1.2 1.2-1.2.5 0 1.1.6 1.1 1.2zm-2.2 13.5v-10.6h2v10.6h-2zm5.1-7.7v-2.9h1.7l.2 1.8c.6-1.1 1.8-2 3.5-2 1.4 0 3.8.9 3.8 4.6v6.4h-2v-5.9c0-1.7-.6-3.1-2.3-3.1-1.2 0-2.2.9-2.6 2 0 .2-.2.6-.2.9v6.4h-2l-.1-8.2zm21.2-2.9v9c0 2.3-.6 3.8-1.4 4.9-1.1.9-2.6 1.2-3.8 1.2s-2.7-.3-3.5-.9l.6-1.4c.8.3 1.8.9 3.1.9 2 0 3.5-1.1 3.5-3.7v-1.1c-.6.9-1.7 1.8-3.2 1.8-2.6 0-4.6-2.2-4.6-5.1 0-3.7 2.3-5.7 4.7-5.7 1.8 0 2.9.9 3.2 1.8v-1.7h1.4zm-1.9 4.3c0-.3 0-.6-.2-.9-.3-1.1-1.2-2-2.7-2-1.8 0-3.1 1.7-3.1 4 0 2 1.1 3.8 3.1 3.8 1.1 0 2.2-.8 2.7-2 .2-.3.2-.8.2-1.1v-1.8zm4.3 5.2c0-.8.6-1.4 1.2-1.4.8 0 1.2.6 1.2 1.4 0 .8-.6 1.4-1.2 1.4s-1.2-.6-1.2-1.4zm4.5 0c0-.8.6-1.4 1.2-1.4.8 0 1.2.6 1.2 1.4 0 .8-.6 1.4-1.2 1.4-.8.1-1.2-.6-1.2-1.4zm4.4 0c0-.8.6-1.4 1.2-1.4.8 0 1.2.6 1.2 1.4 0 .8-.6 1.4-1.2 1.4-.7.1-1.2-.6-1.2-1.4z"/></svg>