<?xml version="1.0" encoding="utf-8"?>
<!-- Generator: Adobe Illustrator 23.0.3, SVG Export Plug-In . SVG Version: 6.00 Build 0)  -->
<svg version="1.1" id="Layer_1" xmlns="http://www.w3.org/2000/svg" xmlns:xlink="http://www.w3.org/1999/xlink" x="0px" y="0px"
	 viewBox="0 0 226.37 225.78" style="enable-background:new 0 0 226.37 225.78;" xml:space="preserve">
<style type="text/css">
	.st0{fill-rule:evenodd;clip-rule:evenodd;fill:#4DC9F5;}
	.st1{fill-rule:evenodd;clip-rule:evenodd;fill:#4EC1B8;}
	.st2{fill-rule:evenodd;clip-rule:evenodd;fill:#F15E5C;}
	.st3{fill-rule:evenodd;clip-rule:evenodd;fill:#F39921;}
	.st4{fill:#4A2F89;}
	.st5{fill:#FFFFFF;}
	.st6{font-family:'MyriadPro-Regular';}
	.st7{font-size:14px;}
	.st8{fill:none;}
	.st9{font-size:24px;}
</style>
<path class="st0" d="M112.8,0c62.72,0,113.57,50.84,113.57,113.56H112.8L112.8,0z"/>
<path class="st1" d="M113.57,0C50.85,0,0,50.84,0,113.56h113.56L113.57,0z"/>
<path class="st2" d="M112.8,225.78c62.72,0,113.57-50.84,113.57-113.56H112.8L112.8,225.78z"/>
<path class="st3" d="M113.57,225.78C50.85,225.78,0,174.94,0,112.22h113.56L113.57,225.78z"/>
<ellipse class="st4" cx="112.55" cy="112.18" rx="47.04" ry="46.78"/>
<text transform="matrix(1 0 0 1 118.3648 61.4248)" class="st5 st6 st7">Microservices</text>
<rect x="79" y="91.93" class="st8" width="66.17" height="46"/>
<text transform="matrix(1 0 0 1 82.3318 108.9727)"><tspan x="0" y="0" class="st5 st6 st9">Cloud</tspan><tspan x="-2.48" y="28.8" class="st5 st6 st9">Native</tspan></text>
<rect x="17.72" y="50.73" class="st8" width="78.47" height="40.07"/>
<text transform="matrix(1 0 0 1 22.9991 60.6705)"><tspan x="0" y="0" class="st5 st6 st7">Continuous</tspan><tspan x="10.04" y="16.8" class="st5 st6 st7">Delivery</tspan></text>
<text transform="matrix(1 0 0 1 30.2153 169.915)" class="st5 st6 st7">Containers</text>
<text transform="matrix(1 0 0 1 136.4782 169.915)" class="st5 st6 st7">DevOps</text>
</svg>
