<svg xmlns="http://www.w3.org/2000/svg" viewBox="0 0 240.0004 234.0004" enable-background="new 0 0 240.0004 234.0004"><radialGradient id="a" cx="93.66" cy="-18" r="383.64" gradientUnits="userSpaceOnUse"><stop offset="0" stop-color="#EC202B"/><stop offset=".146" stop-color="#E2202A"/><stop offset=".399" stop-color="#C51E26"/><stop offset=".727" stop-color="#981C20"/><stop offset="1" stop-color="#6D1A1B"/></radialGradient><path fill-rule="evenodd" clip-rule="evenodd" fill="url(#a)" d="M0 0h240v234h-240z"/><linearGradient id="b" gradientUnits="userSpaceOnUse" x1="28.872" y1="116.908" x2="214.065" y2="116.908"><stop offset=".14" stop-color="#fff"/><stop offset="1" stop-color="#EAECEA"/></linearGradient><path fill="url(#b)" d="M145.399 50.817c36.321 0 65.766 29.77 65.766 66.092s-29.444 66.092-65.766 66.092h-58.51c-30.44 0-55.117-25.003-55.117-55.443s24.677-55.309 55.117-55.309c3.186 0 6.308.207 9.346.726 12.046-13.551 29.606-22.158 49.164-22.158"/><linearGradient id="c" gradientUnits="userSpaceOnUse" x1="28.872" y1="116.908" x2="214.065" y2="116.908"><stop offset=".14" stop-color="#fff"/><stop offset="1" stop-color="#EAECEA"/></linearGradient><path fill="url(#c)" d="M145.399 47.916c-9.981 0-19.606 2.095-28.609 6.228-8.213 3.77-15.489 9.033-21.65 15.656-2.731-.389-5.5-.586-8.252-.586-7.831 0-15.43 1.538-22.586 4.57-6.908 2.928-13.112 7.117-18.44 12.453-5.326 5.334-9.509 11.545-12.431 18.46-3.026 7.16-4.56 14.761-4.56 22.592s1.534 15.432 4.56 22.592c2.922 6.915 7.105 13.126 12.431 18.46 5.328 5.336 11.532 9.793 18.44 12.721 7.156 3.033 14.755 4.838 22.586 4.838h58.51c9.268 0 18.262-2.087 26.73-5.675 8.176-3.464 15.519-8.555 21.825-14.869 6.304-6.312 11.255-13.729 14.714-21.912 3.581-8.473 5.397-17.502 5.397-26.771s-1.816-18.281-5.397-26.754c-3.459-8.183-8.409-15.541-14.714-21.853-6.306-6.314-13.649-11.275-21.825-14.739-8.469-3.588-17.462-5.411-26.73-5.411z"/><linearGradient id="d" gradientUnits="userSpaceOnUse" x1="28.872" y1="116.908" x2="214.065" y2="116.908"><stop offset=".14" stop-color="#fff"/><stop offset="1" stop-color="#EAECEA"/></linearGradient><path fill="url(#d)" d="M145.399 50.817c36.321 0 65.766 29.77 65.766 66.092s-29.444 66.092-65.766 66.092h-58.51c-30.44 0-55.117-25.003-55.117-55.443s24.677-55.309 55.117-55.309c3.186 0 6.308.207 9.346.726 12.046-13.551 29.606-22.158 49.164-22.158m0-2.9c-9.981 0-19.606 2.095-28.609 6.228-8.213 3.77-15.489 9.033-21.65 15.656-2.731-.389-5.5-.586-8.252-.586-7.831 0-15.43 1.538-22.586 4.57-6.908 2.928-13.112 7.117-18.44 12.453-5.326 5.334-9.509 11.545-12.431 18.46-3.026 7.16-4.56 14.761-4.56 22.592s1.534 15.432 4.56 22.592c2.922 6.915 7.105 13.126 12.431 18.46 5.328 5.336 11.532 9.793 18.44 12.721 7.156 3.033 14.755 4.838 22.586 4.838h58.51c9.268 0 18.262-2.087 26.73-5.675 8.176-3.464 15.519-8.555 21.825-14.869 6.304-6.312 11.255-13.729 14.714-21.912 3.581-8.473 5.397-17.502 5.397-26.771s-1.816-18.281-5.397-26.754c-3.459-8.183-8.409-15.541-14.714-21.853-6.306-6.314-13.649-11.275-21.825-14.739-8.469-3.588-17.462-5.411-26.73-5.411z"/><linearGradient id="e" gradientUnits="userSpaceOnUse" x1="77.789" y1="116.582" x2="201.101" y2="116.582"><stop offset=".14" stop-color="#fff"/><stop offset="1" stop-color="#EAECEA"/></linearGradient><path fill="url(#e)" d="M79.214 129.102c-1.938-1.992-1.894-5.178.098-7.115 1.992-1.938 5.178-1.894 7.115.098l26.679 26.747c8.261 8.272 19.679 13.389 32.293 13.389 25.205 0 45.638-20.433 45.638-45.638s-20.433-45.638-45.638-45.638c-10.747 0-20.624 3.716-28.422 9.932-3.015-1.959-6.234-3.631-9.619-4.978 9.957-9.313 23.331-15.018 38.041-15.018 30.763 0 55.702 24.939 55.702 55.702s-24.939 55.702-55.702 55.702c-15.373 0-29.291-6.228-39.37-16.298l-26.815-26.884z"/><linearGradient id="f" gradientUnits="userSpaceOnUse" x1="41.821" y1="127.613" x2="138.764" y2="127.613"><stop offset=".14" stop-color="#fff"/><stop offset="1" stop-color="#EAECEA"/></linearGradient><path fill="url(#f)" d="M109.854 100.884c-6.146-5.351-14.177-8.583-22.965-8.583-19.324 0-34.989 15.607-34.989 34.931s15.665 34.989 34.989 34.989l11.152.272c3.697 3.836 7.856 7.455 12.387 10.356h-23.539c-24.882 0-45.068-20.424-45.068-45.306s20.156-45.165 45.038-45.165c11.625 0 22.215 4.311 30.2 11.533l20.279 20.782c1.939 1.991 1.896 5.159-.095 7.098s-5.177 1.887-7.115-.104l-20.273-20.804z"/><linearGradient id="g" gradientUnits="userSpaceOnUse" x1="28.872" y1="116.908" x2="214.065" y2="116.908"><stop offset=".14" stop-color="#fff"/><stop offset="1" stop-color="#EAECEA"/></linearGradient><path fill="url(#g)" d="M145.399 50.817c36.321 0 65.766 29.77 65.766 66.092s-29.444 66.092-65.766 66.092h-58.51c-30.44 0-55.117-25.003-55.117-55.443s24.677-55.309 55.117-55.309c3.186 0 6.308.207 9.346.726 12.046-13.551 29.606-22.158 49.164-22.158m0-2.9c-9.981 0-19.606 2.095-28.609 6.228-8.213 3.77-15.489 9.033-21.65 15.656-2.731-.389-5.5-.586-8.252-.586-7.831 0-15.43 1.538-22.586 4.57-6.908 2.928-13.112 7.117-18.44 12.453-5.326 5.334-9.509 11.545-12.431 18.46-3.026 7.16-4.56 14.761-4.56 22.592s1.534 15.432 4.56 22.592c2.922 6.915 7.105 13.126 12.431 18.46 5.328 5.336 11.532 9.793 18.44 12.721 7.156 3.033 14.755 4.838 22.586 4.838h58.51c9.268 0 18.262-2.087 26.73-5.675 8.176-3.464 15.519-8.555 21.825-14.869 6.304-6.312 11.255-13.729 14.714-21.912 3.581-8.473 5.397-17.502 5.397-26.771s-1.816-18.281-5.397-26.754c-3.459-8.183-8.409-15.541-14.714-21.853-6.306-6.314-13.649-11.275-21.825-14.739-8.469-3.588-17.462-5.411-26.73-5.411z"/><linearGradient id="h" gradientUnits="userSpaceOnUse" x1="77.789" y1="116.582" x2="201.101" y2="116.582"><stop offset=".14" stop-color="#fff"/><stop offset="1" stop-color="#EAECEA"/></linearGradient><path fill="url(#h)" d="M79.214 129.102c-1.938-1.992-1.894-5.178.098-7.115 1.992-1.938 5.178-1.894 7.115.098l26.679 26.747c8.261 8.272 19.679 13.389 32.293 13.389 25.205 0 45.638-20.433 45.638-45.638s-20.433-45.638-45.638-45.638c-10.747 0-20.624 3.716-28.422 9.932-3.015-1.959-6.234-3.631-9.619-4.978 9.957-9.313 23.331-15.018 38.041-15.018 30.763 0 55.702 24.939 55.702 55.702s-24.939 55.702-55.702 55.702c-15.373 0-29.291-6.228-39.37-16.298l-26.815-26.884z"/><linearGradient id="i" gradientUnits="userSpaceOnUse" x1="41.821" y1="127.613" x2="138.764" y2="127.613"><stop offset=".14" stop-color="#fff"/><stop offset="1" stop-color="#EAECEA"/></linearGradient><path fill="url(#i)" d="M109.854 100.884c-6.146-5.351-14.177-8.583-22.965-8.583-19.324 0-34.989 15.607-34.989 34.931s15.665 34.989 34.989 34.989l11.152.272c3.697 3.836 7.856 7.455 12.387 10.356h-23.539c-24.882 0-45.068-20.424-45.068-45.306s20.156-45.165 45.038-45.165c11.625 0 22.215 4.311 30.2 11.533l20.279 20.782c1.939 1.991 1.896 5.159-.095 7.098s-5.177 1.887-7.115-.104l-20.273-20.804z"/><radialGradient id="j" cx="93.66" cy="-18" r="383.64" gradientUnits="userSpaceOnUse"><stop offset="0" stop-color="#EC202B"/><stop offset=".146" stop-color="#E2202A"/><stop offset=".399" stop-color="#C51E26"/><stop offset=".727" stop-color="#981C20"/><stop offset="1" stop-color="#6D1A1B"/></radialGradient><path fill-rule="evenodd" clip-rule="evenodd" fill="url(#j)" d="M0 0h240v234h-240z"/><linearGradient id="k" gradientUnits="userSpaceOnUse" x1="28.872" y1="116.908" x2="214.065" y2="116.908"><stop offset=".14" stop-color="#fff"/><stop offset="1" stop-color="#EAECEA"/></linearGradient><path fill="url(#k)" d="M145.399 50.817c36.321 0 65.766 29.77 65.766 66.092s-29.444 66.092-65.766 66.092h-58.51c-30.44 0-55.117-25.003-55.117-55.443s24.677-55.309 55.117-55.309c3.186 0 6.308.207 9.346.726 12.046-13.551 29.606-22.158 49.164-22.158m0-2.9c-9.981 0-19.606 2.095-28.609 6.228-8.213 3.77-15.489 9.033-21.65 15.656-2.731-.389-5.5-.586-8.252-.586-7.831 0-15.43 1.538-22.586 4.57-6.908 2.928-13.112 7.117-18.44 12.453-5.326 5.334-9.509 11.545-12.431 18.46-3.026 7.16-4.56 14.761-4.56 22.592s1.534 15.432 4.56 22.592c2.922 6.915 7.105 13.126 12.431 18.46 5.328 5.336 11.532 9.793 18.44 12.721 7.156 3.033 14.755 4.838 22.586 4.838h58.51c9.268 0 18.262-2.087 26.73-5.675 8.176-3.464 15.519-8.555 21.825-14.869 6.304-6.312 11.255-13.729 14.714-21.912 3.581-8.473 5.397-17.502 5.397-26.771s-1.816-18.281-5.397-26.754c-3.459-8.183-8.409-15.541-14.714-21.853-6.306-6.314-13.649-11.275-21.825-14.739-8.469-3.588-17.462-5.411-26.73-5.411z"/><linearGradient id="l" gradientUnits="userSpaceOnUse" x1="77.789" y1="116.582" x2="201.101" y2="116.582"><stop offset=".14" stop-color="#fff"/><stop offset="1" stop-color="#EAECEA"/></linearGradient><path fill="url(#l)" d="M79.214 129.102c-1.938-1.992-1.894-5.178.098-7.115 1.992-1.938 5.178-1.894 7.115.098l26.679 26.747c8.261 8.272 19.679 13.389 32.293 13.389 25.205 0 45.638-20.433 45.638-45.638s-20.433-45.638-45.638-45.638c-10.747 0-20.624 3.716-28.422 9.932-3.015-1.959-6.234-3.631-9.619-4.978 9.957-9.313 23.331-15.018 38.041-15.018 30.763 0 55.702 24.939 55.702 55.702s-24.939 55.702-55.702 55.702c-15.373 0-29.291-6.228-39.37-16.298l-26.815-26.884z"/><linearGradient id="m" gradientUnits="userSpaceOnUse" x1="41.821" y1="127.613" x2="138.764" y2="127.613"><stop offset=".14" stop-color="#fff"/><stop offset="1" stop-color="#EAECEA"/></linearGradient><path fill="url(#m)" d="M109.854 100.884c-6.146-5.351-14.177-8.583-22.965-8.583-19.324 0-34.989 15.607-34.989 34.931s15.665 34.989 34.989 34.989l11.152.272c3.697 3.836 7.856 7.455 12.387 10.356h-23.539c-24.882 0-45.068-20.424-45.068-45.306s20.156-45.165 45.038-45.165c11.625 0 22.215 4.311 30.2 11.533l20.279 20.782c1.939 1.991 1.896 5.159-.095 7.098s-5.177 1.887-7.115-.104l-20.273-20.804z"/></svg>