<svg xmlns="http://www.w3.org/2000/svg" viewBox="-185 279 240 235" enable-background="new -185 279 240 235"><style type="text/css">.st0{fill:url(#SVGID_1_);} .st1{fill:#CBFC00;} .st2{fill:#E4ECB0;} .stroke path { fill:transparent; stroke: #000; stroke-width: 2; animation-fill-mode: forwards; animation-iteration-count: 1; animation-name: draw; animation-timing-function: linear; stroke-dasharray: 200; stroke-dashoffset: 200; animation-duration: 10s; animation-iteration-count: infinite; } @keyframes draw { 0% { stroke-dashoffset: 200; } 95% { stroke-dashoffset: 0; opacity: 1; } 100% { stroke-dashoffset: 0; opacity: 0; } } path.d50 { stroke-dasharray: 50; stroke-dashoffset: 50; animation-name: d50; } @keyframes d50 { 0% { stroke-dashoffset: 50; } 95% { stroke-dashoffset: 0; opacity: 1; } 100% { stroke-dashoffset: 0; opacity: 0; } } path.d200 { stroke-dasharray: 200; stroke-dashoffset: 200; animation-name: d200; } @keyframes d200 { 0% { stroke-dashoffset: 200; } 95% { stroke-dashoffset: 0; opacity: 1; } 100% { stroke-dashoffset: 0; opacity: 0; } } path.draw2 { stroke-dasharray: 1000; stroke-dashoffset: 1000; animation-name: draw2; } @keyframes draw2 { 0% { stroke-dashoffset: 1000; } 95% { stroke-dashoffset: 0; opacity: 1; } 100% { stroke-dashoffset: 0; opacity: 0; } } .shape { opacity: 0.5; animation-name: show; animation-duration: 10s; animation-fill-mode: forwards; animation-iteration-count: 1; animation-timing-function: linear; animation-iteration-count: infinite; } @keyframes show { 0% { opacity: 0.5; } 40% { opacity: 0.5; } 95% { opacity: 0; } 100% { opacity: 0.5; } }</style><title>Adobe Shape Growth</title><g class="shape"><radialGradient id="SVGID_1_" cx="-368.822" cy="791.47" r=".759" gradientTransform="matrix(218 0 0 -213 80301 168921)" gradientUnits="userSpaceOnUse"><stop offset="0" stop-color="#39391C"/><stop offset="1" stop-color="#1C1B05"/></radialGradient><path class="st0" d="M-174 290h218v213h-218v-213z"/><path class="st1" d="M-185 514h240v-235h-240v235zm11-224h218v213h-218v-213zm154 81l-44-26v10l44 26v-10zm0 47v-9l-44-26v10l44 25zm-47-73l-43 26.6v46.4l43-25.2v-47.8zm1.5 102l43.5-26-43.5-24-43.5 25 43.5 25zm1.5-89v9l44 26v-9l-44-26zm44 48v-10l-44-26v10l44 26z"/><path class="st2" d="M-78.1 333l-12.9 7.5 2.1 3.5 12.9-7.5-2.1-3.5m-42.8 34v-3.8l7.9-4.7-2.1-3.5-5.8 3.5-2.9 1.7c-.6.3-1.2 1-1.2 1.7v5.1h4.1m24.8 81l2.1-3.5-12.9-7.5-2.1 3.5 12.9 7.5m0-104l-12.9 7.5 2.1 3.5 12.9-7.5-2.1-3.5m-16.9 88.6l-7.9-4.6v-10h-4.1v11.3c0 .7.6 1.3 1.2 1.6l2.9 1.7 5.9 3.4 2-3.4m106.8-72.7l-2.9-1.7-52-31.2-2.9-1.7c-.6-.3-1.6-.3-2.2 0l-2.8 1.7-3.7 2.2 2.1 3.5 5.6-3.4 56 33.5v65.3l-56 33.5-23.9-14.3-2.1 3.5 22 13.2 2.9 1.7c.6.3 1.6.3 2.2 0l54.9-32.9 2.9-1.7c.6-.3 1.2-1 1.2-1.6v-68c-.1-.7-.7-1.3-1.3-1.6"/><path class="st2" d="M-125 374h4v15h-4v-15zm0 21h4v16h-4v-16z"/></g><g class="stroke"><radialGradient id="SVGID_1_" cx="-368.822" cy="791.47" r=".759" gradientTransform="matrix(218 0 0 -213 80301 168921)" gradientUnits="userSpaceOnUse"><stop offset="0" stop-color="#39391C"/><stop offset="1" stop-color="#1C1B05"/></radialGradient><path class="draw2" d="M-174 290h218v213h-218v-213zm-11 224h240v-235h-240v235zm11-224h218v213h-218v-213z"/><path class="d200" d="M-20 371l-44-26v10l44 26v-10zm0 47v-9l-44-26v10l44 25zm-47-73l-43 26.6v46.4l43-25.2v-47.8zm1.5 102l43.5-26-43.5-24-43.5 25 43.5 25zm1.5-89v9l44 26v-9l-44-26zm44 48v-10l-44-26v10l44 26z"/><path class="d50" d="M-78.1 333l-12.9 7.5 2.1 3.5 12.9-7.5-2.1-3.5m-42.8 34v-3.8l7.9-4.7-2.1-3.5-5.8 3.5-2.9 1.7c-.6.3-1.2 1-1.2 1.7v5.1h4.1m24.8 81l2.1-3.5-12.9-7.5-2.1 3.5 12.9 7.5m0-104l-12.9 7.5 2.1 3.5 12.9-7.5-2.1-3.5m-16.9 88.6l-7.9-4.6v-10h-4.1v11.3c0 .7.6 1.3 1.2 1.6l2.9 1.7 5.9 3.4 2-3.4"/><path class="draw2" d="M-6.2 359.9l-2.9-1.7-52-31.2-2.9-1.7c-.6-.3-1.6-.3-2.2 0l-2.8 1.7-3.7 2.2 2.1 3.5 5.6-3.4 56 33.5v65.3l-56 33.5-23.9-14.3-2.1 3.5 22 13.2 2.9 1.7c.6.3 1.6.3 2.2 0l54.9-32.9 2.9-1.7c.6-.3 1.2-1 1.2-1.6v-68c-.1-.7-.7-1.3-1.3-1.6"/><path d="M-125 374h4v15h-4v-15zm0 21h4v16h-4v-16z"/></g></svg>