<svg fill="#fff" height="961.982" viewBox="0 0 961.982 961.982" width="961.982" xmlns="http://www.w3.org/2000/svg"><path d="m613.297 152.741-9.985 4.077c-6.357-22.343-12.717-44.685-19.075-67.028-.318-1.121-1.982-1.917-3.087-1.163l-15.675 10.71-28.379-61.88c-.593-1.294-3.021-1.254-3.629 0-3.561 7.338-7.12 14.677-10.679 22.015-19.294-15.25-33.032-35.329-39.555-58.095-.278-.973-1.291-1.433-2.243-1.372-.951-.061-1.964.399-2.242 1.372-6.522 22.766-20.261 42.845-39.555 58.095l-10.679-22.015c-.608-1.254-3.036-1.294-3.629 0l-28.379 61.88-15.675-10.71c-1.104-.754-2.769.042-3.088 1.163-6.357 22.343-12.717 44.685-19.074 67.028l-9.985-4.077c-1.333-.544-3.271.059-3.162 1.679 1.484 21.894 1.909 41.428-2.339 62.978-.629 3.189-5.459 35.735-9.573 35.683-5.758-.073-11.583 1.588-16.02 5.067-15.78 12.371-12.26 32.386-5.497 48.139 4.397 10.245 9.213 20.352 13.827 30.515 3.607 7.948 6.678 16.718 12.744 23.422 4.254 4.701 10.918 8.065 17.617 8.962.429 1.258.785 2.533.997 3.787 4.122 24.369 17.741 50.322 35.279 68.865 9.177 9.702 25.544 20.997 24.322 35.793-.551 6.678-2.892 14.982-10.289 17.125h-14.216c.074-.406.148-.808.225-1.219.369-1.985.75-4.039 1.112-6.116.884-5.062-.317-10.086-3.38-14.146-2.936-3.889-7.331-6.486-12.159-7.21a18.44 18.44 0 0 0 -3.21-.283c-6.17 0-11.851 3.144-15.194 8.407-4.247 6.687-7.64 13.568-10.433 20.565h-27.989c-87.512 0-158.455 70.942-158.455 158.455v298.771c0 5.523 4.477 10 10 10h616.199c5.522 0 10-4.477 10-10v-298.77c0-87.513-70.943-158.455-158.455-158.455h-26.401c-2.792-6.998-6.186-13.879-10.432-20.565-3.344-5.264-9.024-8.407-15.193-8.407h-.001c-1.07 0-2.147.096-3.21.283-4.827.724-9.223 3.321-12.159 7.21-3.062 4.06-4.263 9.082-3.38 14.146.362 2.076.743 4.13 1.112 6.115l.225 1.219h-15.804c-7.397-2.143-9.737-10.447-10.289-17.125-1.222-14.796 15.146-26.091 24.322-35.793 17.538-18.543 31.157-44.496 35.278-68.865.213-1.254.569-2.529.997-3.787 6.7-.897 13.365-4.261 17.618-8.962 6.066-6.704 9.137-15.474 12.744-23.422 4.614-10.164 9.429-20.27 13.827-30.515 6.763-15.753 10.284-35.768-5.497-48.139-4.438-3.479-10.262-5.14-16.02-5.067-4.114.052-8.945-32.494-9.573-35.683-4.248-21.55-3.823-41.085-2.339-62.978.108-1.62-1.83-2.223-3.163-1.679zm-354.662 399.891v374.835h-35.306v-369.839s10.659-17.32 35.306-27.979zm444.711-14.989v-7.994c24.646 10.658 35.306 27.979 35.306 27.979v369.84h-35.306zm-303.435 88.83v300.993h-35.308v-321.553l10.868-3.512h.012c.805 0 16.911 12.026 24.427 17.297zm55.358 10.884c-15.515-8.643-64.281-42.032-68.599-45.561-2.824-2.308-7.219-3.707-11.186-3.707-1.454 0-2.85.188-4.09.589l-6.791 2.194-19.396 6.27c-.862.279-1.641.411-2.321.411-2.97 0-4.121-2.52-2.552-6.443 0 0 7.765-29.925 10.229-43.444 3.306-18.135 6.726-36.197 14.336-52.907 2.003-4.398 4.29-8.705 6.949-12.893.737-1.16 1.905-1.672 3.117-1.688 2.477-.036 5.135 1.996 4.646 4.787-.575 3.299-1.205 6.559-1.79 9.794-.786 4.351-1.491 8.659-1.884 12.959-.854 9.386-.206 18.739 4.409 28.448a225.505 225.505 0 0 0 6.841 9.34 254.716 254.716 0 0 0 12.722 15.206c15.046 16.654 36.713 36.48 67.09 55.908-6.631 4.836-11.117 12.617-11.73 20.737zm141.827 290.109h-35.306v-80.971c5.783 1.397 11.702 2.127 17.652 2.127s11.869-.729 17.653-2.127v80.971zm35.671-197.583v30.844c0 23.261-14.899 45.883-35.672 54.368-5.527 2.258-11.464 3.527-17.653 3.527-6.188 0-12.127-1.27-17.652-3.527-20.772-8.486-35.672-31.107-35.672-54.368v-30.844c0-5.523 4.478-10 10-10h86.65c5.522 0 9.999 4.476 9.999 10zm-70.978-40v-69.313c7.929-5.527 15.855-11.42 23.45-17.622.395-.23 11.856 2.565 11.856 2.565v84.37zm0-127.294a264.348 264.348 0 0 0 13.487-15.587 227.22 227.22 0 0 0 7.52-9.97c4.196-8.412 5.373-16.551 5.122-24.667-.182-5.85-1.104-11.688-2.173-17.607-.585-3.235-1.215-6.495-1.79-9.795-.715-4.094 5.5-6.661 7.764-3.098 2.66 4.188 4.952 8.493 6.955 12.893 8.013 17.594 11.375 36.69 14.854 55.789 2.52 13.826 5.102 27.654 9.56 40.912a3.61 3.61 0 0 1 .139 1.885c.385 2.618-.821 4.209-3.179 4.209-.68 0-1.456-.133-2.317-.411l-12.983-4.196c-9.029-2.918-19.915-8.146-28.479-1.148a350.221 350.221 0 0 1 -14.479 11.189c-21.58 15.831-44.114 28.978-59.802 37.497-1.91 1.038-3.664 2.814-5.027 4.928-1.717 2.66-2.813 5.854-2.813 8.788v101.74c0 5.265-3.906 9.534-8.724 9.534h-7.194c-4.819 0-8.725-4.268-8.725-9.534v-116.686c0-5.687 3.818-9.998 8.541-12.537 31.063-16.698 59.634-38.313 83.743-64.128z" fill="#fff"/></svg>