<?xml version="1.0" encoding="iso-8859-1"?>
<!-- Generator: Adobe Illustrator 16.0.0, SVG Export Plug-In . SVG Version: 6.00 Build 0)  -->
<!DOCTYPE svg PUBLIC "-//W3C//DTD SVG 1.1//EN" "http://www.w3.org/Graphics/SVG/1.1/DTD/svg11.dtd">
<svg version="1.1" id="Capa_1" xmlns="http://www.w3.org/2000/svg" xmlns:xlink="http://www.w3.org/1999/xlink" x="0px" y="0px"
	 width="961.982px" height="961.982px" viewBox="0 0 961.982 961.982" style="enable-background:new 0 0 961.982 961.982;"
	 xml:space="preserve">
	 <style>*{fill: white;}</style>
<g>
	<g>
		<path d="M613.297,152.741l-9.985,4.077c-6.357-22.343-12.717-44.685-19.075-67.028c-0.318-1.121-1.982-1.917-3.087-1.163
			c-5.225,3.57-10.45,7.14-15.675,10.71c-9.46-20.627-18.919-41.253-28.379-61.88c-0.593-1.294-3.021-1.254-3.629,0
			c-3.561,7.338-7.12,14.677-10.679,22.015c-19.294-15.25-33.032-35.329-39.555-58.095c-0.278-0.973-1.291-1.433-2.243-1.372
			c-0.951-0.061-1.964,0.399-2.242,1.372c-6.522,22.766-20.261,42.845-39.555,58.095c-3.56-7.338-7.12-14.677-10.679-22.015
			c-0.608-1.254-3.036-1.294-3.629,0c-9.46,20.627-18.919,41.254-28.379,61.88c-5.226-3.57-10.45-7.14-15.675-10.71
			c-1.104-0.754-2.769,0.042-3.088,1.163c-6.357,22.343-12.717,44.685-19.074,67.028l-9.985-4.077
			c-1.333-0.544-3.271,0.059-3.162,1.679c1.484,21.894,1.909,41.428-2.339,62.978c-0.629,3.189-5.459,35.735-9.573,35.683
			c-5.758-0.073-11.583,1.588-16.02,5.067c-15.78,12.371-12.26,32.386-5.497,48.139c4.397,10.245,9.213,20.352,13.827,30.515
			c3.607,7.948,6.678,16.718,12.744,23.422c4.254,4.701,10.918,8.065,17.617,8.962c0.429,1.258,0.785,2.533,0.997,3.787
			c4.122,24.369,17.741,50.322,35.279,68.865c9.177,9.702,25.544,20.997,24.322,35.793c-0.551,6.678-2.892,14.982-10.289,17.125
			h-14.216c0.074-0.406,0.148-0.808,0.225-1.219c0.369-1.985,0.75-4.039,1.112-6.116c0.884-5.062-0.317-10.086-3.38-14.146
			c-2.936-3.889-7.331-6.486-12.159-7.21c-1.062-0.188-2.139-0.283-3.21-0.283c-6.17,0-11.851,3.144-15.194,8.407
			c-4.247,6.687-7.64,13.568-10.433,20.565h-27.989c-87.512,0-158.455,70.942-158.455,158.455v298.771c0,5.523,4.477,10,10,10
			H789.09c5.522,0,10-4.477,10-10v-298.77c0-87.513-70.943-158.455-158.455-158.455h-26.401
			c-2.792-6.998-6.186-13.879-10.432-20.565c-3.344-5.264-9.024-8.407-15.193-8.407h-0.001c-1.07,0-2.147,0.096-3.21,0.283
			c-4.827,0.724-9.223,3.321-12.159,7.21c-3.062,4.06-4.263,9.082-3.38,14.146c0.362,2.076,0.743,4.13,1.112,6.115
			c0.076,0.411,0.15,0.812,0.225,1.219h-15.804c-7.397-2.143-9.737-10.447-10.289-17.125c-1.222-14.796,15.146-26.091,24.322-35.793
			c17.538-18.543,31.157-44.496,35.278-68.865c0.213-1.254,0.569-2.529,0.997-3.787c6.7-0.897,13.365-4.261,17.618-8.962
			c6.066-6.704,9.137-15.474,12.744-23.422c4.614-10.164,9.429-20.27,13.827-30.515c6.763-15.753,10.284-35.768-5.497-48.139
			c-4.438-3.479-10.262-5.14-16.02-5.067c-4.114,0.052-8.945-32.494-9.573-35.683c-4.248-21.55-3.823-41.085-2.339-62.978
			C616.568,152.8,614.63,152.197,613.297,152.741z M258.635,552.632v374.835h-35.306V557.628c0,0,10.659-17.32,35.306-27.979
			V552.632z M703.346,537.643v-7.994c24.646,10.658,35.306,27.979,35.306,27.979v369.84h-35.306V537.643z M399.911,626.473v300.993
			h-35.308V615.934v-10.021l10.868-3.512c0.004,0,0.008,0,0.012,0c0.805,0,16.911,12.026,24.427,17.297L399.911,626.473
			L399.911,626.473z M455.269,637.357c-15.515-8.643-64.281-42.032-68.599-45.561c-2.824-2.308-7.219-3.707-11.186-3.707
			c-1.454,0-2.85,0.188-4.09,0.589l-6.791,2.194l-19.396,6.27c-0.862,0.279-1.641,0.411-2.321,0.411c-2.97,0-4.121-2.52-2.552-6.443
			c0,0,7.765-29.925,10.229-43.444c3.306-18.135,6.726-36.197,14.336-52.907c2.003-4.398,4.29-8.705,6.949-12.893
			c0.737-1.16,1.905-1.672,3.117-1.688c2.477-0.036,5.135,1.996,4.646,4.787c-0.575,3.299-1.205,6.559-1.79,9.794
			c-0.786,4.351-1.491,8.659-1.884,12.959c-0.854,9.386-0.206,18.739,4.409,28.448c1.962,2.834,4.24,5.968,6.841,9.34
			c3.584,4.646,7.794,9.753,12.722,15.206c15.046,16.654,36.713,36.48,67.09,55.908
			C460.368,621.456,455.882,629.237,455.269,637.357z M597.096,927.466H561.79v-80.971c5.783,1.397,11.702,2.127,17.652,2.127
			s11.869-0.729,17.653-2.127V927.466z M632.767,729.883v30.844c0,23.261-14.899,45.883-35.672,54.368
			c-5.527,2.258-11.464,3.527-17.653,3.527c-6.188,0-12.127-1.27-17.652-3.527c-20.772-8.486-35.672-31.107-35.672-54.368v-30.844
			c0-5.523,4.478-10,10-10h25.672h35.306h25.672C628.29,719.883,632.767,724.359,632.767,729.883z M561.789,689.883V620.57
			c7.929-5.527,15.855-11.42,23.45-17.622c0.395-0.23,11.856,2.565,11.856,2.565v84.37L561.789,689.883L561.789,689.883z
			 M561.789,562.589c5.2-5.569,9.678-10.809,13.487-15.587c2.87-3.602,5.371-6.945,7.52-9.97c4.196-8.412,5.373-16.551,5.122-24.667
			c-0.182-5.85-1.104-11.688-2.173-17.607c-0.585-3.235-1.215-6.495-1.79-9.795c-0.715-4.094,5.5-6.661,7.764-3.098
			c2.66,4.188,4.952,8.493,6.955,12.893c8.013,17.594,11.375,36.69,14.854,55.789c2.52,13.826,5.102,27.654,9.56,40.912
			c0.233,0.694,0.251,1.321,0.139,1.885c0.385,2.618-0.821,4.209-3.179,4.209c-0.68,0-1.456-0.133-2.317-0.411
			c-4.328-1.399-8.656-2.798-12.983-4.196c-9.029-2.918-19.915-8.146-28.479-1.148c-4.716,3.854-9.573,7.591-14.479,11.189
			c-21.58,15.831-44.114,28.978-59.802,37.497c-1.91,1.038-3.664,2.814-5.027,4.928c-1.717,2.66-2.813,5.854-2.813,8.788V755.94
			c0,5.265-3.906,9.534-8.724,9.534h-7.194c-4.819,0-8.725-4.268-8.725-9.534c0,0,0-116.685,0-116.686
			c0-5.687,3.818-9.998,8.541-12.537C509.109,610.019,537.68,588.404,561.789,562.589z"/>
	</g>
</g>
<g>
</g>
<g>
</g>
<g>
</g>
<g>
</g>
<g>
</g>
<g>
</g>
<g>
</g>
<g>
</g>
<g>
</g>
<g>
</g>
<g>
</g>
<g>
</g>
<g>
</g>
<g>
</g>
<g>
</g>
</svg>
