<svg xmlns="http://www.w3.org/2000/svg" viewBox="0 0 408 408" enable-background="new 0 0 408 408"><style type="text/css">.st0{fill:#060706;} .st1{fill:#0C0E0E;} .st2{fill:#5D5D5D;} .st3{fill:#AAA9A7;} .st4{fill:#9B9B97;} .st5{fill:#696B67;} .st6{fill:#A8A29F;} .st7{fill:#B7AEB4;} .st8{fill:#DFF2F5;} .st9{fill:#E3F2F5;} .st10{fill:#E2F0F5;} .st11{fill:#D8EFF6;} .st12{fill:#141312;} .st13{fill:#0A0E09;} .st14{fill:#282E31;} .st15{fill:#262B2F;} .st16{fill:#272F33;} .st17{fill:#1D2628;} .st18{fill:#1F2325;} .st19{fill:#E6EFF1;} .st20{fill:#20282C;} .st21{fill:#232E30;} .st22{fill:#1F2629;} .st23{fill:#1F2328;} .st24{fill:#202629;} .st25{fill:#21272B;} .st26{fill:#212A2E;} .st27{fill:#293032;} .st28{fill:#2C373A;} .st29{fill:#262B30;} .st30{fill:#1B2425;} .st31{fill:#E7EEED;} .st32{fill:#293132;} .st33{fill:#252B2E;} .st34{fill:#374245;} .st35{fill:#31363D;} .st36{fill:#323B3B;} .st37{fill:#333D3E;} .st38{fill:#3A4347;} .st39{fill:#2C3535;} .st40{fill:#2B363C;} .st41{fill:#192226;} .st42{fill:#20292B;} .st43{fill:#252E32;} .st44{fill:#1F282A;} .st45{fill:#31383D;} .st46{fill:#272D30;} .st47{fill:#1C2426;} .st48{fill:#383F43;} .st49{fill:#56585E;} .st50{fill:#374043;} .st51{fill:#343B3F;} .st52{fill:#111210;} .st53{fill:#110704;} .st54{fill:#2D3436;} .st55{fill:#262C30;} .st56{fill:#2B3337;} .st57{fill:#22292D;} .st58{fill:#272E31;} .st59{fill:#28181E;} .st60{fill:#232B2E;} .st61{fill:#2E3437;} .st62{fill:#2C3639;} .st63{fill:#1A2325;} .st64{fill:#242B2C;} .st65{fill:#172225;} .st66{fill:#262E33;} .st67{fill:#2C3438;} .st68{fill:#2B3034;} .st69{fill:#3E494A;} .st70{fill:#252D30;} .st71{fill:#171A1E;} .st72{fill:#1C2427;} .st73{fill:#273135;} .st74{fill:#060C0F;} .st75{fill:#1B2325;} .st76{fill:#181E22;} .st77{fill:#4C5557;} .st78{fill:#262E30;} .st79{fill:#090E11;} .st80{fill:#232526;} .st81{fill:#FEFCC2;} .st82{fill:#F2C300;} .st83{fill:#130A04;} .st84{fill:#D8ECF6;} .st85{fill:#FDFBC3;} .st86{fill:#170E06;} .st87{fill:#F3C603;} .st88{fill:#4D906D;} .st89{fill:#DBE4E8;} .st90{fill:#D6DAD9;} .st91{fill:#558B71;} .st92{fill:#E4E5EC;} .st93{fill:#DBE0DF;} .st94{fill:#598B72;} .st95{fill:#CBD4B7;} .st96{fill:#A23D33;} .st97{fill:#6D646D;} .st98{fill:#5D8B75;} .st99{fill:#E8CB46;} .st100{fill:#552418;} .st101{fill:#968522;} .st102{fill:#BFB25A;} .st103{fill:#1F9955;} .st104{fill:#E1E4E4;} .st105{fill:#898D8C;} .st106{fill:#A4A4A4;} .st107{fill:#BBBAB5;} .st108{fill:#ADAFB5;} .st109{fill:#D7DCDA;} .st110{fill:#DDE7E9;} .st111{fill:#E6EFF4;} .st112{fill:#DAE3E6;} .st113{fill:#E0EBEF;} .st114{fill:#F1F3F5;} .st115{fill:#E1E9EC;} .st116{fill:#DEEDED;} .st117{fill:#E7EAED;} .st118{fill:#C3CCCC;} .st119{fill:#E1EEF0;} .st120{fill:#DAEBF9;} .st121{fill:#4D906E;} .st122{fill:#DBE5E7;} .st123{fill:#CFBB3B;} .st124{fill:#DEDDC3;} .st125{fill:#579175;} .st126{fill:#5C8676;} .st127{fill:#5A856E;} .st128{fill:#8A3226;} .st129{fill:#D7DDDE;} .st130{fill:#EBEBEB;} .st131{fill:#CBC4C4;} .st132{fill:#8B8B8B;} .st133{fill:#A8A5AC;} .st134{fill:#CFCAC8;} .st135{fill:#423830;} .st136{fill:#918F8D;} .st137{fill:#9F9E9D;} .st138{fill:#9FA8A0;} .st139{fill:#B5B3B4;} .st140{fill:#EC9840;} .st141{fill:#E6A25D;} .st142{fill:#E7A661;} .st143{fill:#DDA564;} .st144{fill:#D79A59;} .st145{fill:#DEA15E;} .st146{fill:#E0E6E8;} .st147{fill:#E7EBEF;} .st148{fill:#BFC0C4;} .st149{fill:#080F13;} .st150{fill:#69665C;} .st151{fill:#9C9C89;} .st152{fill:#DDC139;} .st153{fill:#695006;} .st154{fill:#F5C301;} .st155{fill:#EDC808;} .st156{fill:#E5D342;} .st157{fill:#DFCA23;} .st158{fill:#DFC135;} .st159{fill:#E7DC23;} .st160{fill:#8C7A46;} .st161{fill:#4E4737;} .st162{fill:#FAFBFA;} .st163{fill:#918C90;} .st164{fill:#E6BD8F;} .st165{fill:#F0CF9F;} .st166{fill:#250B00;}</style><path class="st0" d="M55.4 66.5c20.1-22.1 43.9-38.8 71.6-49.9 19.4-8 39.6-12.7 60.3-14.6 14.9-1.4 29.9-.8 44.9 1.6 16.9 2.6 33.2 6.8 49 13.3 4.7 2 9.4 4 14.1 5.9 7.1 3.8 14.4 7.2 20.9 12 14.6 10.1 28 21.6 39.8 34.9 5.3 6 10 12.6 15 18.9.8 3.2 4.6 4.7 5 8.2 0 2.7-1.2 3.9-3.9 3-2.8-1.2-3.7-4.3-5.9-6.2-3.8-4.6-7.2-9.5-10.8-14.3-.9-2.6-2.9-4.3-4.9-5.9-.5-.5-.9-1-1.2-1.6-2.4-3.8-5.5-7.1-9.5-9.3-5.6-4.4-10.8-9.3-16.2-14-2.4-3.1-5.9-4.7-9-6.8-.4-.2-.8-.5-1.1-.7-3.8-2.4-7.2-5.6-11.6-7.1-3.6-1.3-7-2.8-10-5.1-3.4-3.3-8.1-4.2-12.2-6l-1.3-.6c-10-4.2-20.2-7.6-30.9-9.3-.5-.1-1-.2-1.5-.4-4.9-1.4-9.8-2.6-14.9-2.7-.5-.1-1.1-.2-1.6-.4-29-3.3-57.5-1.4-85.4 7.8-10.1 3-19.8 7.3-29.2 12-3.3 1.1-6.2 2.9-9 5-.7.6-1.5 1-2.3 1.4-3.3 1.5-6.1 3.5-8.8 5.8-7.2 3.9-13.5 9.2-19.5 14.7-1 1.2-1.9 2.6-3.5 3.3-4.2 2.8-7.6 6.3-10.5 10.3-.7.9-1.6 1.7-2.3 2.5-4.1 3.9-7.3 8.5-10.7 13-5.7 8-11.1 16.2-16 24.8-3.5 5.1-6.1 10.6-8.1 16.4-12.3 28.3-17.3 57.9-16 88.6.6 13 3 25.7 6.2 38.3 1.8 9.1 4.9 17.8 8.5 26.4.2.4.4.9.5 1.3.6 2.2 1.5 4.3 2.6 6.2l.6 1.2c1.7 3.7 3.5 7.2 5.4 10.8l.6 1.2c4.1 6.4 7.5 13.3 12.5 19.1 3.4 4.9 7.6 9.2 10.9 14.1 4.5 5.9 9.8 11 15.6 15.7 2.6 2.5 5.7 4.4 8.2 6.9 1.8 1.8 3.5 3.9 5.9 5.1 3.5 2.1 6.3 5.1 9.9 7.1.7.6 1.3 1.3 1.9 2.1.9 1.4 2.4 2.2 3.7 3.3 1.2 1 3.4 1.9 2.1 3.8-1 1.4-2.9.2-4-.6-4.2-2.9-8.5-5.6-12.8-8.4-3.6-2.3-6.6-5.4-10.4-7.6-8.2-4.9-14.3-12.1-20.7-19-16.8-17.8-29.5-38.3-38.7-61-3.3-7.5-5.5-15.4-7.8-23.2-3.2-11-5-22.1-6.4-33.4-1.1-9.2-1.5-18.5-1.3-27.7.8-17.4 3.9-34.3 8.6-51 3.2-11.3 7.6-22.1 12.9-32.6 5.8-9.8 11.4-19.8 18.2-28.9 4.7-6.2 9.7-11.9 14.5-17.7z"/><path class="st1" d="M76.2 360.9c2.6 0 4.3 1.7 5.9 3.2 5.4 4.7 11.9 7.6 17.4 12.1.8.6 2.1.7 3.7 1.2-1.8-3.4-5.9-3.6-6.8-6.8 3-1.2 4.8 1.4 7.1 2.4 2.7 1.9 5.8 2.9 8.4 5 3.3 2.2 6.8 3.9 10.6 5.1 3 1.6 6.3 2.7 9.4 4 13.8 5.5 27.9 9.6 42.6 11.6l1.6.3c11.2 1.3 22.3 2.9 33.6 2.3 19-.9 37.8-3.8 55.8-10.3 2.1-1.1 4.4-1.6 6.7-2.2 3.6-.6 6.8-1.9 10-3.7 1.5-.7 2.8-1.7 4.3-2.2 3.1-.7 6-2.2 8.6-4 7.2-5 15-8.8 22.1-14 6-4.4 11.4-9.5 17.5-13.7 3-1.1 5-3.4 6.8-5.9.7-.9 1.5-1.7 2.4-2.4 2.9-2.5 6-4.9 7.7-8.5 5.4-6.9 10.8-13.8 15.8-21 3.2-2.6 4.3-6.9 7.6-9.5.4-.2.8-.3 1.2-.4 2.7-.4 3-3.5 5.1-4.5.5-.1.8 0 1.1.4-1.1 5.4-4.7 9.6-7.4 14-10 16.2-22.5 30.6-36.9 43-6.8 5.9-13.8 11.7-21.6 16.5-8.3 5-16.3 10.8-25.3 14.5-10.5 4.3-20.8 9.2-32.1 11.9-7.4 1.8-15 4.2-22.4 5-7.3.9-14.3 3.7-21.8 3.3-8.9-.4-17.9-.1-26.8-.1-2.1 0-4.5.4-5.1-2.6 3.4-2.4 7.4-1.1 10.5-.3 13.5 3.2 26.5-.1 37-1.7-5 .6-12.5 1.9-20.1 3.4-2.9.5-5.6-.4-8.3-.8-8.5-1.2-17.1-1.5-25.7-2-5.3-.3-10.3-2.3-15.5-2.9l-2.2-1c.7.4 1.1.9.5 1.7-12.8-1.3-24.5-6.3-36.2-11.1-14.2-5.8-27-14.2-39.7-22.7-2.8-2-5.5-3.8-7.1-6.6zm295.7-262.3c2 .8 3.5.8 3.2-2 2.2.2 2.2 1.9 2.6 3.5-1.1 2.6.8 4.6 1.5 6.8-.3-1.1-1.1-2.1-.4-3.3 1.2-.8 1.7.2 2.2.9 3.9 8.6 7.6 17.2 11.7 25.7 1 2.1 1.4 4 1.4 6.1-1 .7-1.6 0-1.8-.7-1.3-4.4-3.7-8.3-5.3-12.8 6.7 15.4 11.6 31.1 13.9 47.6.7.9 1 2.1 1.3 3.2.4 1.3.1 2.6.2 3.7.4-2.7-.4-5.3-2-7.8.1-10.1-4.3-19.1-6.4-28.6-.3-1.5-1.6-3 .1-4.5 3.3 1.5 2.9 5.4 3.3 7.7 1.4 7.3 3.7 14.4 5.4 21.6 1.6 6.4-.6 13.5 3.8 19.2.4.5.2 1.6.2 2.4 0 11 1.5 22.2-.5 32.8-1.1 6.2-.3 13.1-3.7 19.1-.6 1.1 0 2.9-.3 4.4-.3 1.6.9 3.7-1.5 4.7-2-2.8.2-5.9-.5-8.7 1.3-2.6 2.5-5.2 1.9-8.4.2 2.5 0 4.8-1.2 6.9-.6 3.4-2.1 6.8-.2 10.3-2.1 13-6.1 25.3-11.8 37.2-2.2 4.7-3.3 9.9-6.9 13.9l-.3-.3-.2-.4c.3-.4.1-.8-.3-.5-2.2 1.6-2 5.3-5.2 6.1l-.5-.3c-1-2.2.8-3.7 1.3-5.5l.6-1.2c1.1-2.2 2.5-4.2 3.3-6.5.1-.4.3-.8.5-1.2 1.3-2.8 3.1-5.5 3.3-8.7.4-1.9 1-3.7 2.2-5.3 3.7-7.6 6.2-15.6 7.9-23.8.1-.5.2-1.1.4-1.6 5-19.5 6.1-39.3 5-59.2-.7-13-3.2-25.9-6.8-38.6-.2-.5-.4-1-.5-1.5-2-5.8-2.6-12-6-17.3-1.8-2.9-3-6-4-9.3-.6-3.9-2.8-7.2-4.5-10.6l-.6-1.2c-1.4-3.1-3-6.2-4.9-9.1-.5-1.8-1.8-3.1-.9-4.9z"/><path class="st2" d="M281.4 16.8l-22.2-6.7c-13.3-4-27-6.1-40.9-7.3-22.4-2-44.2 1-65.8 6.3-7.3 1.8-14.5 4.6-21.6 7-1.3.4-2.4 1.1-3.8.6 3.4-3.5 8.2-4 12.4-5.5 31.5-10.7 63.8-13.2 96.6-8.2 14.3 2.2 28.4 6 42 11.3 1.2.5 3.1.4 3.3 2.5z"/><path class="st0" d="M158.9 401c-1-2.5-3.8-.5-5.2-2 .2-1.8 1.6-1.3 2.6-1 14.7 3.4 29.5 4.7 44.5 6.1 12.1 1.1 23.4-2.3 35.1-2.9.4 0 .9.1 1.5.2-1 2.1-3 1.4-4.4 1.6-10.7 1.8-21.3 5.3-32.2 3.4-6-1-11.9-2.1-17.9-1.7-7.9 1.3-15.3-2.3-23-2.6-.4.1-.7-.7-1-1.1z"/><path class="st3" d="M23.7 112.5c-8.7 18.6-15.6 37.7-18.6 58.1-1.3 8.5-2.2 17.1-3.2 25.7-.3.4-.6.4-.9 0-.3-9.6 1.4-19 3.1-28.4 1.7-9.4 3.8-18.7 6.9-27.7 3.4-10.2 6.8-20.5 12.8-29.7.5.6.4 1.3-.1 2z"/><path class="st4" d="M.9 196.2h.9c-.5 29.3 5.2 57.4 14.9 84.8-4.1-3-4.4-8.1-5.7-12.2-3.4-11-6.5-22.2-8.2-33.6-1.8-12.8-2.9-25.9-1.9-39z"/><path class="st5" d="M23.7 112.5l-.1-2.1c8-15.5 18-29.5 29.4-42.5.7-.7 1.2-1.6 2.4-1.5-2.3 5-6.6 8.4-9.8 12.7-7.4 9.9-14.4 20.1-20.1 31.1-.3.9-1.1 1.6-1.8 2.3z"/><path class="st6" d="M316.3 34.7c-7.2-3.6-14.3-7.3-20.9-12 5.8 0 9.3 4.8 14.2 6.8 2.6 1.1 5.4 2.3 6.7 5.2z"/><path class="st7" d="M381.1 104.4l-1.9-1.2c-1.6-.3-2-1.4-1.9-2.8 0-1.7-1.3-2.7-2.2-3.9-.1-3.3-4.5-4.4-4-8 4.9 4.4 7.6 10 10 15.9z"/><path class="st8" d="M388.1 275.9l-1.9 5.1c-1.5 3-3 5.9-4 9.1v-.1c-1.6 2.5-3.4 5-4 8-3.2 5.4-6.8 10.5-10.1 15.9-4.2 7.8-10.1 14.4-16 21-2.2 3.3-5.6 5.6-7.9 8.8l-2.2 2.1-6.8 6.1c-11.9 11.2-25.3 20.1-39.6 27.9-3.3.8-6.2 2.3-9.2 3.9-1.2.6-1.7 2.3-3.5 2.1-3.6.9-7.1 2.3-10.5 4-1.4 1.9-4.1.1-5.4 2l-22 5.5c-17 3.5-34.1 5.2-51.6 4-6.2-.4-12.4-1.1-18.6-1.6-15.1-2.7-29.8-7-44.3-11.9-3-.9-6-1.6-8.6-3.6-3.2-2.7-7.2-3.9-11-5.4l-7.9-4.5c-1.9-3.1-5.2-3.9-8.2-5.4-4.3-.8-6.3-4.8-9.8-6.7-2-1.9-3.5-4.3-6.3-5.2-2.4-2.4-5.8-3.6-7.7-6.6l-16-16.4c-3.9-4.3-7.9-8.6-10.9-13.7-1.3-2.9-3.5-5.2-4.7-8.2-.4-1.1-1-2.3 0-3.5 2.3-.8 3.6.9 4.3 2.5 1.3 3 3.6 5.1 5.6 7.5.9 1.1 1.1 2.6 3.1.6 1.3-1.3 2.5.7 2.5 2.3 0 3.2 1 5.9 3.5 8.7.8-2.5.6-4.1-1.3-5.1-3.3-1.7-3-3.2.2-4.6 1.3-.5 2.2-1.5 2.9-2.6 1.8-2.1 3.9-5.5 6.6-3.9 2.8 1.6-.1 4.7-.6 7.1-.2 1.1-.7 2.2-1.1 3.3-.2.6-.5 1.2-.8 1.8-.5 1.2-1.3 2.6 0 3.6 1.5 1.1 2.8.3 3.8-1 3.4-3.8 7.9-6.4 12.1-11-3.7.7-5.4 2.8-7.4 4.2-1.1.7-2.2 1.7-3.6.7-1.1-.8-.8-2.1-.4-3.2 1-3.1 1.3-6.5 3.1-9.3.7-1.2 1-2.5-.2-3.4-1.9-1.3-2.8.7-4 1.6-3.2 2.8-6.4 5.6-9.8 8-8.2-.2-14-4.6-18.7-10.8-.3-.4-.4-.9-.5-1.3.6-3.1-1.9-4.7-3.3-6.9-4.2-6.6-3.9-8 2.4-12.3 3.8-2.1 7.8-3.7 11.6-5.6 2.6-1.3 3.4-2.8 1.9-5.5-1.1-2-2.4-4-2.1-6.5 1.2-3 3-2.9 4.7-.7 1.7 2.2 3.3 4.6 4.3 7.3 1.1 3.1 1.6 6.4 4.6 8.5 1.6 1.2.3 3.1.5 4.4 3.7-2.8 2.3-5.8 0-8.8-4-5-4.2-11.8-8.5-16.6-.9-1-.3-2.6-.4-3.9-.4-3.6-.8-6.9-3.1-10.2-2.4-3.6-4-8.4-3.4-12.7.9-7.2-1.3-13.8-1.9-20.6 0-.5-.3-1-.3-1.4-.1-2.5 1.2-4.4 3.6-4.6 2.3-.1 2.1 2.3 2.1 3.8-.2 6.5 1.2 12.8 2.5 19.2.2.5.3 1 .4 1.5 1.1 9.7 3.6 19.1 7.3 28.1.2.4.4.9.5 1.4 1 4.9 3.4 9.1 5.8 13.4.8 1.7 1.6 3.4 2.5 5 .6 1.3 1.4 2.6 2.2 3.8 1.8 2.8 4.6 2.2 7.2 2.2h78c1.7 0 3.3-.1 5 .1 1.2.2 2.9.2 3 1.9.1 1.5-1.1 2.4-2.4 2.9-2 .9-4.2.7-6.4.7h-60.6c-4.6 0-9.3-.1-13.9.7-3.7.7-7.2-.2-10.5-2.1-1.1-.6-2.6-1.6-3.4.2-.7 1.4.3 2.8 1.5 3.3 7.8 3.5 7 10.7 7.9 17.5 3-1.9 5.1-1 7.6 2.1 7.7 9.7 15.6 19.3 27.6 24.1 2.7 5 8.3 6.5 12.2 10-1 1.9-2.9 1.9-4.6 1.8-2.2 0-4.1.5-5.8 1.8l-.7.3c-.5.1-.9-.1-1.3-.5-1.9-2-.3-5.2-2.7-7-6.6-7.3-10.4-7.6-17.3-1.4-2.8 3.3-4.1 6.7-1.4 10.7 1.4 1.5 2.7 2.9 4.3 4.2 3 2.5 5.9 2.4 8.7-.2 2.8-1.7 3.4-5.4 6.5-6.9.7-.1 1.4.1 1.9.6 1.4 1.5 2.1 5.1 5.1 1.7 3.8-1.4 6.5.1 8 3.6 1.4 3.3-.7 8.8-4.2 10.8-3.4 2-6.3 1.3-8.4-2.2-.6-5.5.2-6.2 5.5-4-3.8-3.1-6.8-1.2-8.9.5-1.7 1.4-.1 3.6 1.4 5 6.2 5.6 11.6 4.7 15.8-2.5l1.5-2.5c1.4-2.6 1.2-5-.7-7.2-.8-.8-1.6-1.7-2.3-2.7-.5-1.3-2.1-2.4-.3-3.8 8 1.5 10.6 6.7 9.1 14.5-1.2 6.4-4.2 10-9.8 12.4-2.7 1.2-3 2.4-.1 4.4 6.3 4.2 13 6.4 20.5 6.8 1.7.1 3.3.3 4.8 1.2 8.5 5.7 18.1 6.1 27.9 6.9 11.6.9 23.1 2.2 34.7 1.8 8.9-.3 17.7-1.2 26.6-3.1 4.9-1.1 9.7-2.9 14.9-2.8 3 0 6.3-.7 7.8-4.2.8-1.9 2.6-2.4 4.5-2.4 8-.1 14.8-3.3 21.8-7 4.3-2.2 8.7-4.2 12.5-7-2.7-.8-2.7-.8-4.6 1.6-6.7 8.3-17.5 6.8-21.4-3.2-1.1-2.7-3.3-4.6-4.8-6.9-2.9-4.4-2.3-6.8 1.5-10.3 4.6-4.2 10.5-5.5 16.1-7.6 3.1-1.2 2.7 1.9 3.5 3.5.7 1.5 2 2.8 1.7 4.7-1.4 2.9-3.2.3-4.8.4-.9-.3-1.7-.7-2.5-1.1-2.7-1.6-4.6-.1-6.6 1.5-1.4 1.3-2.9 2.6-3.9 4.3-.7 5.4.3 6.6 5.8 6.7 1.8-.2 3.5-.8 5.3-1.1 1.9-.3 3.8-.3 4.4 1.9.6 2.4-1.1 3.6-3 4.3-1.7.7-3.5.4-5.3.2-1.1.2-1.5.9-.5 1.6 2.6 1.8 5.4 2.1 8.1.2 2.1-1.4 3.5-3.3 5-5.3 1.4-1.4 3.1-2.3 5.2-2.5 3.2.5 6.8-1.6 9.6 1.7.6.7 2.2-.3 3.1-1 10.1-7.4 20.6-14.2 29-23.5 3.2-3.5 5.2-8.1 8.9-11.5-2.1-.4-4.6 1.1-6.1-1.4.6-5.5 5.5-8.1 8.3-12.1.5-.6 1.1-1.2 1.5-1.9-2.8-.4-4.5 1.1-5.9 3.1-2.6 2.5-4.4.7-6.3-1-2.6-2.3-5.1-4.9-9.6-6.4 3 4.3 6.8 6 9.8 8.8 1.9 1.8 3.2 3.4 1 5.8-2.4 1-1.7 5-5 5.2-5.9-1.2-8.3-7.2-14.1-10.5 1.8 4.5 5 6.3 7.2 8.9 1.7 1.7 3.2 3.7 5.5 4.8l1.2.6c2.7 1.2 2.5 3.1.5 4.6-2.6 2-4.2 4.4-5.6 7.4-1 2.3-3.1 3.9-5.3 5.1-1.2.7-2.3 1.5-3.6 1.7-3 .5-4 5-6.8 4.3-2.3-.5-2.4-4.6-5-5.7-3-2.9-5.5-6.1-7.3-9.8-4.6-4.1-2.5-7.4 1-10.9 2.7-2.6 4.6-6.1 8.3-7.7 2.2-1 3.6-3 4.9-4.8 2.5-3.4 5.6-4.5 9.6-2.9-.9-2.1-3.6-3.8-1.9-6.4 1.9-3.1 4.7-5.6 7.6-7.7.7-.5 1.8.2 2 1 .6 4.5 4.1 4 7.1 4.2l1.4.3c2.8 1.2 5.8 1.6 8.8 1.8l1.4.3c1.4.3 3 .9 3.9-.7.9-1.5 0-2.8-1.2-3.7-3.8-3.8-7.1-7.9-8.8-13.1.1-1.5.9-2.3 2.4-2.3 3.2.9 5.9 2.6 8.8 4.1 1.5 1.1 2.8 2.3 4.6 3 1.6.6 4 .9 3 3.5s-3.1 2.6-5.5 1.2c1.2 1.7 4 1.9 4 4.5 0 2.2-1.4 3.8-2.8 5.2-3.9 4-5.8 9.3-9.1 13.8 3.8-2.7 6.2-6.7 9.1-10.2 3.1-3.7 5.8-7.7 6.4-12.7.1-.8.4-1.7 1-2.3 5.7-5.3 7.1-13.1 11.1-19.3.7-1 1.8-2.2.7-3.6-1.3-1.6-.2-2.7.6-4 3.6-5.7 5.1-11.8 6.3-18.5 1.4-8.1 2.7-16.3 4.7-24.3 2.2-8.7 2-17.5 1.6-26.3-.1-3.2-.5-6.3.1-9.4 0-.1.1-.3 0-.5-2.2-10.3-2.4-21-5.7-31.1-.1-.5-.6-.9-.6-1.3-1-8-3-15.8-6.3-22.7 0 1.6.5 3.7 1.2 5.8 2.2 6.2 3.1 12.7 5 19 .2.6.2 1.3 0 2-.4 2 .5 5.1-2.3 5.3-2.2.2-1.7-2.8-2.3-4.4l-2.2-7.6c-.2-.4-.3-.9-.4-1.4-.2-2.4-.7-4.6-2.1-6.6-1.8-4.1-3.5-8.1-4.2-12.6-.2-1-.1-2-.9-2.8-1.1-1.1-3.3-1.8-1.7-3.9 1.3-1.8 3.1-1.6 4.9-.6.3.2.6.1 1.2-.2-3.8-10.8-8-21.3-15.6-30.5-4.6-5.5-8.9-11.5-12.7-17.7-2.3-3.7-4.6-7.3-9.5-8.8-2.4-.8-3.9-4.3-5.5-6.8-1.9-3.1-4.3-5.3-8.8-6.1 2.5 2.5 3.9 4.9 6.8 5.7.8.2 1.6.8 1.9 1.6 2.5 7.4 10 10.2 14.5 15.8.6.8 1.5 1.3 2 2.2 1.8 3.2.8 5.5-2.9 6.2-1 .2-1.8.7-2.6 1.3-3.9 3.1-7.1 6.9-11.8 9-2.7-.2-4.3-1.7-3.3-4.2 1.4-3.4-1.1-2.7-2.6-2.8-1.3-.1-2.5.8-3.7 1.2-1.3.4-2.9 1.2-3.8.3-2.9-2.6-7.1-3.7-8.8-7.6-1.8-4.3-.2-7.7 3.1-10.5.4-.3.6-.8.6-1.4-2 1-3.8 5.6-6.1.4.9-5 5-7.5 8.3-10.6 1.7-1.6 3.4-.5 4.8.6 1.2 1.7 4.2 1.2 4.8 3.7-2.6 4.5-6.2 8.1-9.8 11.7-.9.8-2.5 1.5-1.6 3.1.7 1.3 1.6.4 2.3-.4 2.9-3.7 6.2-6.9 9.1-10.5.9-1.2 2.3-2 2-3.8-1.1-1.6-2.9-2.5-4.2-4-3.1-2.5-6.3-4.8-9.1-7.7-.6-.6-1.8-2.7-2.7-.1 2.5 2.6 3 5.3.4 8.1-2.2 2.8-5 4.9-7.1 7.7-2.8 5.1-3 5.3-7.8 1.9-5.2-3.7-8.1-9.4-10.4-15.2 2.5-5.4 4.1-5.8 8.3-2.1 1.4 2.8.6 5.8 1 8.7.1 1 .5 2 1.6 2.2 1.1.3 1.7-.6 1.5-1.4-1.2-5.4 2.6-8.1 5.9-11.1 1.3-3.3.3-5.8-2.8-7.5-3.1-1.7-5.2-6-9.9-3.9-1.3.2-2.3-.3-3.1-1.4-.5-3.5 1.1-4.4 4.5-4.5 6.3-.3 10.3 3 13.8 7.5 2.6 3.4 7.3 2.9 11 6.5-4.6-6.4-22.5-17.4-28.7-18.1 1.5 4 1.5 4-3.8 3.6-1.7-.3-3.2-1.1-4.5-2.3-1-1.2-2.3-1.9-3.7-2.4-1.6-.5-3.6-.9-3.3-3 .4-2.4 2.5-2.1 4.4-2.3-18.9-8.9-39.1-13-60.7-16.1 5.2 3.2 11.1 4.5 9.8 11.5.4 3.8-1.8 7.1-2.4 10.7-1.5 5.6-7 9.7-13.6 9.4-10.4-.4-20.7-1.3-31-2.5-2.3-.3-3.5-1.6-4.1-3.7-.5-1.4-.4-3-1.2-4.3-2.1-3.9-2-8.3-2.9-12.8-.3 4.9-2.6 7.4-7.5 7.7-4.1.3-4.8-2.8-6.2-5.5 0 3.9 1.4 7.5 1.1 11.3.1 2.7-.7 5.5 2.2 7.7 1.9 1.5.8 2.8-1.3 3.4-6.1 1.8-11.7 4.8-18.5 4-3.3-.4-5.6 3.3-8.2 5.2-2.5 1.8-5.1 3.1-8.3 2.6-1-.1-2.1-.2-2.4-1.4-.3-1.5.8-2.1 2-2.3 2.3-.4 4.5-1 6.1-2.9 1.2-1.5 3.1-2.8 3.2-4.9.2-3.4-2.2-4.5-5.1-4.9-2-.2-3.9.3-5.9.5-2.2.2-4.1-.4-4.6-2.8s1.2-3.6 3.1-4.5c1.7-.9 3.6-.2 5.4-.5-4-1.8-6.5-.8-10.9 4.2-1.1 1.7-1.7 4.4-4.7 2.6-2.3-1.4-2.3-3.6 0-7.9-.2-.3-.6-.3-.7.1-1.9 6.8-7.5 4.6-12 4.9-.5-.1-.9-.3-1.3-.6-.9-1.2-.1-1.7.8-2.2l1.5-1.3c3.3-1.3 6.4-3.1 9.4-4.9 9-5.3 18.4-9.6 28.7-12 14.8-4.2 29.7-8 45-9 12-.8 24.1-1 36.1.3 2.3.3 4.6-.2 6.9.7h-.1c5.3 1.3 10.8 1.9 16.1 2.9l-.1-.1c11.1 3 22.1 6.2 32.9 10.2 4 2.7 8.6 3.9 12.8 6.1l10 5.1c4 2.7 7.8 5.6 12.1 7.7l-.1-.1c2.9 2.9 6.7 4.6 9.8 7.2 5.7 4.2 11.1 8.7 16 13.9 3.7 3 7 6.3 10 10 .3.3.6.7 1 1 1.3 2.3 3.6 3.7 5 6 4.2 4.3 7.6 9.2 11 14.2l12 19.7c1.3 3.9 3.4 7.3 5 11l3.9 9c2.7 5.7 3 12.3 6.1 17.8v-.1c2.7 12.2 5.7 24.4 6.5 37 1.3 18.7.8 37.3-3.1 55.7-.6 2.7-.9 5.5-1.4 8.3v-.1c-1.4 8.8-4.2 17-7.1 25.2z"/><path class="st9" d="M39.6 308.9l1 3c-3.6-.2-2.8-4.2-4.9-5.9-1.8-1.4-2.6-4.1-4.1-6-1.5-4.2-3.5-8.3-6-12-.7-2.5-1.8-4.8-3-7-3.4-8.9-6.2-17.9-9-27-4.5-11.6-5.7-24-6.6-36.3-2.1-31.2 3.1-61.4 15.1-90.3.3-.7.9-1.4 1.3-2 3.1-5.2 5.4-10.8 8-16.3 4.1-8.9 10-16.7 15.6-24.7 4.8-3.6 8-8.5 11.2-13.3.2-.8.8-1.4 1.6-1.6l11.5-10.8 2.7-3.1c1.2-.5 2.7-1.2 3.4.5.8 1.9-.6 3.2-1.9 4.2-6.5 5-11.9 11.6-17.4 17.9-3.1 3.5-3.6 9.2-1.4 12.5 1.9 1.7 3.7 3.4 5.3 5.4 1 1.9 2.8 2.8 4.6 3.7 1.3.9 2.5 2.1 3.6 3.3.6.8 1.1 1.6 1.4 2.5.4 1.6 1.2 3.4-.9 4.2-2 .8-2.9-.8-3.5-2.4-1.1-2.7-3.5-3.7-5.8-4.9-3.7-2.2-7.3-4.4-10.6-7.3-3-2.9 0-5.7 0-8.3-4.8 6.8-9.7 14-14.2 21.4-.9 2.1-1.8 4.2-3.1 6.1-.6.9-1.3 1.8-1.6 2.9-1.5 4.2-5.2 8.2-2 13.1.4 3.3-1.3 6.1-2.4 9-1 2.5-.4 3.9 2.1 5 3.7 1.8 7.8 2.6 11.2 5.1.9 1.1 2.3 1.3 3.5 1.7 1.9.7 3 2.1 3.2 4 .2 1.2 0 2.4-1.1 3.1-1.2.7-2.4.1-3-.9-1.2-2.1-2.9-3.1-5.3-2.8-4.5-.2-8.7-1.7-14-2.3 2.1 2.1 5.4 1.9 5.7 5.1.3 4.4-1.7 7-6.4 7.9-3.1.6-.1 1.1.1 1.7 4 2 8.3 3 12.7 3.8 1.7.3 4 .2 3.9 2.8 0 1.8-1 3.2-3.1 3 0 0-.3-.2-.1.1 2.1 2.9-.6 3-2 2.9-2.8-.2-5.6 0-8.3-.6-.5-.1-.9-.3-1.3-.5-2.2-.9-4.3-1.9-4.7-4.6-.1-1-.5-2.1-1.8-1.9-1.2.2-1.4 1.2-1.6 2.2-.6 3.9-.7 8-2.1 11.7-2.6 6.6-3.4 13.5-3.7 21.2.1-4.2.8-7.2 3.9-9.7 3.5-2.7 6.6-3.7 10.1-.5 1.7 1.5 3.1 1.6 4.7 0 1.1-1 2.4-1.7 3.9-2 1.6-.4 3.2-.2 3.8 1.4.9 2.1-.9 2.6-2.3 2.9-1.8.4-2.9 1.4-3.9 2.8-.8 1-1.6 1.9-2.8 2.4-2 .6-3.3-.6-4.5-1.9-.3-.3-.6-.7-.9-1.1-3.8-2.1-8.3 0-8.1 4.6.4 6.7-3.5 12.7-2.1 19.2 1.2-1.4.9-1.3.2-3.9-1-4 2.3-4.1 4.8-4.7 4.1.1 8.2-1.6 12.2.2 3.2.8 6.2 2 8.9 4 4.2 3.2 5.4 7 3.8 11.8-1.4 4-2.1 8.4-5 11.8-2.4 2.8-.2 3.5 2 3.7 6 .7 8.5 2.5 8.4 6.6 0 4.6-4.6 8.6-10 8.7-3.5.1-6.9 1-10.3 1.7-1.7.3-4.1 1.3-4.8-1-.8-2.6 2.1-2.3 3.5-3.1.4-.2.9-.4 1.4-.6.4-.2.9-.4 1.3-.5 2.3-.4 4.6-.6 6.6-1.9 1-.5 2.1-1 3.2-1.2l2.4-.4c1.2-.2 2.3-.7 2-2.1-.4-1.7-1.6-1.8-3-1.3s-2.6 1.3-4 1.6c-2.8.1-4-1.5-4.4-4-.1-.8-.1-1.6-.2-2.5-.2-1.1-.8-2-2-1.5-1.7.6-.8 1.8-.3 2.8.8 1.2 1.6 2.5 1.6 4.1 0 2-.9 3.5-2.9 4-2.1.5-3.5-.4-4.2-2.4-.5-1.5-.8-3.1-2-5.2-.4 2.3.4 4 .4 5.6-.2 2.3.9 4.5.6 6.9-.4 2.7-1.4 3.3-3.6 1 3.5 3.4 3.3 8 5.1 11.8 3.8 8.4 6.6 17.3 12.4 24.7 1.2 1.5 1.7 3.1 2.2 4.8 1.1 1.6 1.1 2.9.1 4.2z"/><path class="st10" d="M56.4 91.5c-1.5-.1-3-.9-2.7-2.3 1-4-.2-8.4 3.3-11.8 6.2-6 11-13.3 18.3-18.3.9-.6 2.1-1.4 1.5-2.8-.5-1-1.7-.7-2.7-.8 6.1-5.6 12.5-10.8 19.7-15 3.3-.2 4.9-4.1 8.4-3.8h1c1.4 2.4-.6 3.3-2 4.3-2.2 1.5-4.4 2.8-6.9 4.6 6.5-2.8 10.7-.2 13.7 5.2.5.4 1 .9 1.4 1.4.9 1.4 2.1 2.9.7 4.5-1.2 1.3-2.8.4-4.1-.2-2.7-1.2-5.3-2.8-8.1-3.8-1-.4-2.3-1-3.1.2-.6 1 .4 1.8.8 2.7 2.2 4 5.8 7.2 6.2 12.1-.8 1.9-2.4 1.3-3.8 1.2-4.4-.7-7.9-3.3-11.7-5.2-1.4-.7-3.1-2-4.6-.6-1.3 1.3.1 2.8.5 4.1 1.3 4.7 4.3 9 3.6 14.3-.5.9-1.4 1.3-2.4 1.5-3.4-1.1-4.8-4.4-7.3-6.4-1.6-1.3-2.8-3.1-5-3.8 3.9 4.4 8.1 8.4 11.9 12.9 5.3 2.5 5 2.3 1.9 7-3 4.5-7 7.7-10.8 11.2-1 1-2 2.3-3.8 1.7l-1.2-2.4c.7-3.5 3.8-5.3 5.5-8 2.6-4 2.5-6-.8-9.6-4-4.5-7.6-5.8-11.1-3.5-3.2 2-6.4 4.6-6.3 9.4z"/><path class="st11" d="M230.9 8.6c-9.6.4-19-1.3-28.6-1-17.1.6-33.9 2.2-50.1 7.8-2.9 1-6.1.8-9.2 1.2 10.7-4.7 22.1-6.5 33.4-8.3 16.6-2.6 33.2-2.7 49.8-.9 1.6.2 3.3.2 4.7 1.2zm48.7 12.9c-5.3.4-9.6-2.9-14.6-4.1-6.2-1.5-12.5-3-18.3-6 11.6 1.6 22.5 5.1 32.9 10.1zm-266.1 232.6c4 8.7 6.7 17.8 9 27-4.4-8.5-7.3-17.5-9-27zm365.7-141.7c-4.8-6.1-9.2-12.4-12-19.7l4.7 5.9c1.9 4.9 6.1 8.5 7.3 13.8zm-347.7 187.6c4 3.2 5.6 8.3 9.1 11.9.9 3 3.7 5.1 3.8 8.4-5-6.3-9.3-13.1-12.9-20.3zm23.8 34c3.4-.2 3.9 3.2 5.5 4.9 3.6 3.7 8.1 6.6 10.4 11.5-5.9-4.8-11.3-10.3-15.9-16.4zm-23.8-225c-1.7 5.9-3.6 11.7-8 16.3 1.7-5.8 4.5-11.2 8-16.3z"/><path class="st10" d="M58.3 71c-2.6 5.4-5.5 10.6-11.2 13.3 3.7-4.4 7.5-8.8 11.2-13.3zm13.1-12.4c-3.3 4.1-6.4 8.6-11.5 10.8 3.6-4 6.8-8.2 11.5-10.8z"/><path class="st11" d="M246.9 11.5c-5.5-.3-11.1-.2-16.1-2.9 5.6-.3 10.9.8 16.1 2.9zm67.7 29c-4.8-1.4-8.8-3.9-12.1-7.7 4.5 1.7 8.4 4.6 12.1 7.7zm-22.2-12.9c-4.8-1-9.3-2.5-12.8-6.1 4.5 1.6 9.2 2.8 12.8 6.1zm57.9 43.9c-3.8-2.9-7.1-6.2-10-10 4.3 2.3 7.4 5.9 10 10zm-324.7 216.5c3.5 3.3 5.3 7.4 6 12-2.7-3.6-4.7-7.6-6-12zm298.7-240.4c-3.7-1.8-7.6-3.4-9.8-7.2 3.7 1.7 7.4 3.6 9.8 7.2zm-222-11c-3.1.7-4.6 4.8-8.4 3.8 2.9-2.3 5.8-4.5 9.4-5.7-.4.7-.7 1.3-1 1.9zm11.9-8.1c-2.4 3-5.7 4.4-9.4 4.9 2.9-2.1 5.9-4 9.4-4.9zm-19.2 340.4c3.4.7 6.8 1.5 8.2 5.4l-6.8-3.7c-.5-.5-.9-1.1-1.4-1.7zm-16-11.9c3.4.1 4.9 2.6 6.3 5.2-2.4-1.4-4.6-3.1-6.3-5.2zm277.2-278.5c-2.1-1.6-4.5-3-5-6 2.4 1.4 4.1 3.4 5 6zm-333.7 202.6c2.1 1.8 3.5 4 3 7-1.5-2.1-2.7-4.4-3-7zm152.4 118.7c11.6.9 23.1.9 34.7 1 17.5.1 34.4-3.7 51.1-8 2.1-.5 4.1-1.4 6.3-.9-23.2 8.3-47.1 11.5-71.6 10.3-6.8-.3-13.8-.3-20.5-2.4zm-44.3-11.9c3.6-.4 6.9 1.2 10 2.3 9.7 3.6 19.7 6.1 29.9 7.6 1.5.2 3.3.5 4.4 1.9-11.5-.8-22.4-4.2-33.3-7.6-3.7-1.1-7.3-2.8-11-4.2z"/><path class="st0" d="M105.2 377.7c4.3 2.2 8.5 4.4 12.8 6.5l-.6 1.4-12.8-6.5c.2-.5.4-1 .6-1.4z"/><path class="st11" d="M368.2 313.9c2.4-5.9 5.9-11.1 10.1-15.9l-2.4 5.7c-3.2 3-4 7.7-7.7 10.2z"/><path class="st0" d="M376.3 304c2-2.8 3.9-5.7 6-8.6 1.4 1.2.2 2.3-.3 3.5-2.4 1.2-1.5 6-5.7 5.1z"/><path class="st11" d="M344.3 343.7c1.4-4 5-6.2 7.9-8.8-1.7 3.8-4.9 6.2-7.9 8.8zm-233.2 35.2c4.2.8 8.4 1.5 11 5.4-3.7-1.8-7.4-3.6-11-5.4zm175.4 4.9c2.4-2.8 5.4-4.3 9.2-3.9-3 1.5-5.7 3.6-9.2 3.9z"/><path class="st0" d="M119.2 386.1c4.1-.7 5.9 1.8 8.2 3.1-2.9.2-5.1-1.5-8.2-3.1z"/><path class="st11" d="M272.6 389.9c3-2.7 6.5-4 10.5-4-3.4 1.7-6.7 3.4-10.5 4z"/><path class="st0" d="M145.1 396.3c2.7-.7 4.6-.9 6.9.9-2.7.7-4.5.8-6.9-.9z"/><path class="st11" d="M335.3 351.9c1.8-2.5 3.6-5.1 6.8-6.1-2 2.4-3.7 5.1-6.8 6.1zm60.8-100.7c-.3-8.3 2.9-16.2 3.2-24.5.3-9.4 1.8-18.6 1-28.1-.8-9-.4-18.2-2.3-27.1-1.1-5.2-2-10.4-3.3-15.4-.5-2-.8-3.9-.6-5.9 4.7 13.2 6.6 27 7.6 40.9 1.5 20.3.1 40.4-5.6 60.1z"/><path class="st0" d="M401 170.3c-1.8-6.8-3.7-13.6-5.2-20.5-2.1-9.6-6.1-18.4-9.7-27.4-.4-1.1-1.7-2.2 0-3.6 2.7 5.9 5.4 11.7 8.1 17.5v-.1c-.1 5.1 2 9.7 3.3 14.4 1.9 6.5 4 12.8 3.5 19.7zm3.4 14.1v37.8h-1.6c2.3-12.7.9-25.4.1-38 .4.1 1 .2 1.5.2z"/><path class="st11" d="M388.1 275.9c-.8-4.1 1.9-7.2 3.2-10.6 1.8-4.7 1.7-10 4.9-14.2-1.6 8.7-3.9 17.1-8.1 24.8zm6.1-125.6c-4.2-5.2-4.6-11.7-6.1-17.8 3.2 5.5 4.8 11.6 6.1 17.8z"/><path class="st0" d="M377.3 100.4l1.9 2.8c-.4 2.3 2.4 4 1.4 6.8-2.6-2.3-3.2-5.5-4.9-7.9-.9-1.2.6-1.5 1.6-1.7zm16.6 168.9c-.9-4 1.9-6.9 2.5-10.4.6 3.9-1.6 7-2.5 10.4z"/><path class="st11" d="M384.2 123.4c-2.5-3.3-4.6-6.8-5-11 2.3 3.3 4.2 6.9 5 11z"/><path class="st0" d="M401 170.3c3.8 2.8 1 6.8 2.9 9.9l-1.4.3-1.5-10.2zm0 67.8l1.4-10.1c.2 3.5 2.1 7.2-1.4 10.1zm0 10c-1.5.6-2.4.1-1.9-1.5.8-2.8.3-5.9 1.9-8.5v10z"/><path class="st11" d="M382.2 290.1c0-3.6 1.4-6.6 4-9.1-.3 3.5-2.2 6.3-4 9.1zm-4 8c-.4-3.6 1.3-6.1 4-8-.5 3.1-2.2 5.5-4 8zm-270.8-246.6c-4.3-3.9-6.5-4.8-13-4.9-.8 0-1.5-.1-2.8-.3 3-4.8 9.7-4.4 11.6-9.7 2.7.7 5.3-2.1 8.1.2 1 .8 1.8-.7 1.8-1.7 0-4.3 3.5-4.2 6.5-5.7-.5 2.8-3.1 3.6-3.5 5.9-.3 1.7-.9 3.2.8 4.4 2.7 1.9 1.9-2 3.4-2.1 2.9 3.1 5.8 5.8 10.6 4.3 3-.9 5.8-.1 6.6 3.4.5 2.3-2.8 5-6.1 5.2-1.3.1-2.6-.6-4.5-.6 1.9 2 3.7 2.3 5.8 1.6 1.4-.5 2.7-1.3 4.3-.5-1.6 3.6-5.2 3.2-9.3 4.1 6.6 2.7 9.9-1.4 13.4-4.2 2.7-2.2 5-3.4 8.8-3 3.6.4 8.2 1.1 10.8-3.7 1.1-2 3.9 1.7 6.1-.8-4.8-1.5-3.7-5.4-3.8-8.8 2.2-.2 1.6 2.2 2.7 3 .5-2-.4-4.3.7-6.3 1.1-2.1 3.3-2 5.2-2.5 5.5-1.3 6.3 2.8 7 6.7 1.6-.6 1.1-2.2 2.1-2.8 2.8 5.5 3.5 6.8 10.6 7.9 8.9 1.4 18 2.3 26.9 1.8 3.8-.2 9.8-1.5 10.6-7.8 2.2 4.1 6 4.5 10.3 4.6-1.1-1.3-2.5-1.2-3.7-1.5-2.9-.8-3.9-2.7-3.4-5.6.6-3.5 1.6-7 1.7-10.8-1.4.6-1.2 2.6-2.9 2.4 1-5.7-2.2-6.4-11.5-11 .7-.4 1.3-1.1 1.7-1 7.2 1.4 14.9-.8 21.8 2.9 5.6 3 12 2 17.9 3.9 7.8 2.5 15.6 4.9 22.9 8.7 1.1.6 3.4 1.3 2.6 3.1-1 2.1-2.5-.1-3.7-.4-1.2-.3-2.6-.7-3 .6-.6 2 1.3 1.7 2.5 2 1.9.5 3.9.9 4.5 3.3-6.6-.3-6.6-.3-9.8 6.2-.4.7-.8 1.4-1.1 2.2-.9 2.3-4.1 3.9-2.2 7 1.5 2.4 9.6 4.8 12.3 4 1.8.1 2 1.6 2.6 2.8.4 1.7 2 1.8 3.3 2.4-.1 1.6.4 2.8 1.9 3.6 1.9 1 3 2.6 3.5 4.9 1 4.4 5.5 5.4 8.6 8.1 1.5-1.2.5-4.1 2.9-4.6 1 1.2 2.1 2.4 3.8 2.6.3 1.4.6 2.9 2.5 1.5 1.1-.9 2.1-2.1 3.3-3.4 1.7 2.2 1.7 3.7-.8 5.5-4.5 3.3-3.7 8.4 1.5 11 .6.3 1.3.6 1.6 1.1 2.2 4.7 5.7 3.4 8.4 1.3 2.7-2.1 3.9.2 5.5.9 2.9 1.3-.2 2.1-.4 3.1-.7 2.7 1.2 3 3.1 3.4.1.8-.4 1.6 0 2.7 4.6-2.4 8.2-6 12-9.3 2.7-2.4-1.4-1.5-1.4-2.6.5-1.1 1.4-1.7 2.7-2 1.1-.3 2.8 1.5 3.2-.8.3-1.9-.1-3.9-1.8-4.9-4.9-2.8-7.2-8.7-12.9-10.5-1.7-.5-.8-2.3-1.3-3.5-.8-1.8-.8-4.6-4.1-3.7-1.5.4-1.5-.8-1.9-1.7-1-2.4-3.3-3.4-5.5-4.7 4.5-2.1 10-.1 12.4 4.7.7 1.5 2.2 2.7 2.6 4 1 3.1 4 2.3 5.8 3.9 5.3 4.7 8.3 11 12.5 16.5 5 6.7 10.8 12.8 14.5 20.5 3.2 6.6 6.2 13.2 8.6 20.1.4 1.2-.6 1.3-1 1.9-.8 1.2-1.9.8-2.4-.1-1.1-1.8-2.6-1.9-3.6-.5-1.5 2.1 1.2 1.6 1.9 2.3 1.1 1.1 1.1 2.3 1 3.7-.8.3-2.5-.8-2.2.9.8 4.5-2.4 5.3-5.4 6.4-3.1 1.1-6.3 1.8-9.1 3.7 3.5-.2 6.7-1.6 9.9-2.9 2.9-1.1 5.5-1.6 7.1 1.9.7 1.5 2.1 2 3.6 2.4 2.6 1.9 2.3 4.7 2.1 7.4-6.7-3-12.4 1.2-18.5 2.6-1.3.3-1.6 1.7-1.2 2.9.8 2.6 1 5.4 2.3 8.5 1.1-4.1-4.3-9.1 2.1-11.1 5.2-1.6 4.5 4.1 6.6 6.4.2 0 .2-.2.2-.6-.3-3-1.9-7 2.5-7.8 3.9-.7 4.2 3.4 5.1 6.1.2.6.3 1.3.9 1.9.7-3-2.3-6 0-8.9 2.8 3.6 2.6 8.3 4.5 13.1.6-3.8 1.9-6.8-.5-9.7-.3-.4-.6-.9-.6-1.3.4-7.6-4-14.1-4.8-21.4-.2-1.4-1-3.3 1.2-3.5 1.9-.2 2.5 1.5 2.3 3.1-.3 3.4 1 5.8 3.1 8.5 2.3 3.1.1 7.5 1.9 11 4.8 9.4 2.3 20.5 6.7 30 .7 1.5.4 3.6.2 5.4-.8 11 1.1 22-.7 33-1.2 7.4-2 15.1-4.1 22-1.4 4.9-1.2 10-2.7 14.9-1.2 3.7-4.3 6.3-4.6 10.2-.1 1.2-5 2.3 0 3.4-.3.8-.4 1.6-.8 2.2-5.2 6.6-6.9 15.1-12.3 21.9-3.2 4-3.7 11-7.8 15-3.9 3.8-5.1 10.2-11.3 12.1-1.2-3-.2-5.1 1.7-7.3 3.6-4.2 6.7-8.7 10-13.1 1-1.3.8-2.4-.9-3.1-.9-.3-1.9-.9-2.4-1.6-.9-1.1-3.9-1.5-2.3-3.5 1.2-1.6 2.5.8 3.7 1.4 1.6.8 3 2.1 4-.3 1.2-2.8-1.6-1.7-2.6-2.2-1.8-.9-3.6-1.8-4.6-3.6 1.1-1.5 2.7-.1 4.2-.3-1.3-1.3-2.8-1.9-4-2.6-1.7-.9-4.4-1.5-4-3.8.4-2.2 3.2-1.7 5.1-2.3 1.9-.6 4-.4 5.9-.9 1.2-.3 2.7-.3 3.5-2.1-4.1-3.6-9.1-5.5-14.1-7.6 2 2.2 4.9 2.9 7.3 4.4 1.1.7 2.6 1.3 2.2 2.9-.4 1.4-1.8 1.9-3.1 2.1-2.5.3-4.9.6-7.4.7-3.8.2-5 1.6-3.5 5.2-1.3.1-1.9.8-1.9 2.1-.6.4-1.8.2-1.6 1.5 1.3 8.1-.4 10.4-8.1 11.1 1 1.6 3.7.8 4.1 3.1-4 .2-8.9 1.7-8.5-6.2-3 3-5.8 5.1-7.5 7.8-2.5 3.9 3.6 5.2 3.3 8.8-1.4 1-2.1-.3-2.8-1-2.2-2.1-5.4-1.5-6.3 0-4 7.1-13.3 8.9-16.3 16.8-.3.8-.5 1.5-1.5 1.6-3.3.4-3.5 1.3-.3 2.6 1.7.7 1.8 2.2 1.7 3.8-.4.7-3.6-1.1-1.7 1.8l2.4 3.1c.9 1.5 2.6 3 1.4 4.8-1.3 1.9-3.3.8-4.9.1-2.1-.8-4.4-1.4-6.4-2.4-2.3-1.1-4.4-.9-6.5.5-2-.7-.2-2.8-1.6-4.2-1.2 3.5-4.4 1.9-6.6 3-3.5 1.7-7 3.1-10.2 5.7-2.8 2.3-3.4 4.2-1.6 7.1 2.4 3.8 5.3 7.1 7.1 11.6 2.5 6.3 13.4 6.1 17.1.4 3.3-5 3.8-5 9.9 0-3.3-.8-5.2.4-6.7 2.4-1.6 2-3.5 3.5-6.4 3.1-.8-.1-1.8 0-2.3.5-6.4 5.9-14.2 7.7-22.7 7.7-1.6 0-4.6-.3-2.7 3.2.6 1.1-.4 1.5-1.3 1.5-2.1 0-4.1 2-5.4 1.8-5.3-.9-9.6 3.5-14.7 2.3-2.9-.7-4.4 1.7-6.9 2.1-18.4 2.5-36.7 2.1-55.2.4-8-.7-15.6-2.3-23.5-3.4-.7-.1-1.6.1-1.9-.3-6.4-6.4-15.5-4-22.8-7.3-3.5-1.6-6.9-3.6-10.2-5.6-1.8-1.1-2.3-2.1 0-4 3.2-2.5 8.5-2.2 9.9-7.3.3-1 3.6-11.2 3-11.7-2.9-2.9-4.9-7-9.7-7.7-1.4-3-4-3-6.6-2.1-2.4.8-3.6.8-2.8-2.3.7-2.5-.6-4.4-2.8-5.1-7.2-2.4-13.1-6.4-17.5-12.7-.7-1.1-1.7-2.4-2.8-2.7-5-1.7-6.7-6.7-9.1-10.2-2-3-3-1.4-4.3-1-1.4.4-2.1 2.7-4.2 1.7 3.7-5.8.9-15.6-5.3-18.3-3.2-1.4-4.1-4.3-2.7-6.8 1.3-2.4 3.9-1.1 5.9.5 2.6 2 5.9 2.7 9 2 7.1-1.6 14.2-.8 21.3-.9l56.2-.1c2.2 0 4.7.6 5.8-2.5-1.8-1-3.6-.5-5.4-.5h-81.6c-3.1 0-6.2.2-6.9-3.9 10.7 2.7 21.6 1.3 32.5 1.3 44.7.1 89.4-.1 134.2.1 29.8.2 59.6 0 89.5.1 2.6 0 5-.3 6.3-3 10.4-17.6 17-36.6 20.1-56.8 4.3-27.9.6-54.8-10.4-80.7-7.2-16.8-17-31.7-29.6-45-18.9-19.9-41.3-33.7-67.4-41.4-20.4-6.1-41.3-7.3-62.5-4.5-17.6 2.3-34.3 7.7-50 15.9-14.5 7.6-27.2 17.5-38.7 29.3-16.6 17.2-28.2 37.2-35.4 59.9-3.4 9.6-4.7 19.5-6.1 29.5-1.7 12.4-.6 24.7.7 37 .2 2.1.5 4.3-1 6.2-3.2-7.2-3.2-14.9-3.2-22.7-3.9 1.7-3.1 1.6-2.9 4.9.5 6.7 3 13.1 2 20.2-.6 4.3.5 10 4.6 14 2.7 2.6 1.2 6.5 2 9.8.4 1.7-1 3.9 2 4.5 1 .2 1.1 1.5 1.2 2.5.8 5.7 4.5 10 6.8 14.9.8 1.7 5.8 5.7-1.3 6.6-.4 0-.7 1.5-.9 2.1-3.5-6.9-7.1-13.8-10.5-20.8-1.4-2.9-2.4-2.5-3.2.3-3 .1-1.9 1.8-1.3 3.4 1.8 5 1.5 5.7-3.3 8-2.4 1.2-4.8 2.3-7.2 3.4-2.4 1.1-1.3 2-.1 3.1-5.9 4.8-6.1 6.6-.5 12.5 1.9 2 3 3.7 1.5 6.3-10.8-12.3-14.5-27.9-20.5-42.8 2.2.1 1.5 2.2 3.2 2.1 1.5-2.8-1.4-5.5-.5-8.3 2.5 1.9 4.1 5 7.8 5.1-1.1 2.3-3.8 1.5-5.8 3.2 2.4 1.5 4.2-.4 6.1-.4 3.5 0 6.6-2.4 10.7-1.1 3.2 1 4.2-2.9 5.9-5 1.9-2.3.9-4.4-.4-6.4s-3-2.7-5.5-1.6c-2.5 1-4.1-.5-5.1-2.7-.9-2.1-1.5-4 2.1-3.3.8.2.8-.8 1-1.4.8-2.3 1.7-4.6 2.4-7 3.3-9.6.8-13.9-9.3-16.3-.4-.1-.7-.6-1.1-.9.7-1.1 2.5-.7 3.1-2-.6-.8-1.5-.6-2.3-.6-2.4-.1-4.7-.4-5.6-3.1-.9-3 .7-5 2.9-6.7 1-.8 2.5-1.2 3.2-2.3 1.1-1.6-1.3-.4-1.3-1.3.5-3.8 3.7-3.7 6.3-4.8-2.8-2.2-5.2-.5-7 1.7-1.4 1.6-2 2.9-4.1.7-4.6-4.9-11-3.2-13.2 3.2-.7 2-1.1 4.1-1.3 6.2-1.4-8.3-.5-16.3 2.5-24.2 1.2-3.3 1.4-7.1 1.8-10.7.2-2.3.8-3.8 3.5-3.8 2.4 0 3 1.6 2.5 3.3-1.2 3.9 4.2 2 4 4.8-4.6 1.4-5.5.9-7.2-3.9-.6 3.2-.5 6.4-1.3 9.6 4.6-8 11.1-.6 16.8-2.6-1.5-.9-3.1-.7-4.5-1-1.5-.3-3.5.2-3.9-2.1h11.3c-.3-1.7-1.8-.9-2.6-1.4-.9-.6-1.7-1.3-1.1-2.4.8-1.2 1.6-.7 2.3.3.7 1.1 1.6 1.9 2.8.7.5-.5 1.1-1.5.9-2.2-.3-1.6-1.8-.9-2.9-1.1-4.6-.9-9.3-1.9-13.6-4.1 2.5-2 5.1-.5 7.6-.1 2.1.4 4.1 1.1 7 1.4-2.4-1.9-5.1-1.5-6.6-3.3-1.6-1.9-.8-4.1-.2-6.2 1.3-4.1 2.5-4.5 8.8-3.5.3-1.6-2.3-1.6-1.9-3.2 2.6 0 5.5-1 6.4 2.8.2 1 1 2 2.1 1.4 1-.5.8-1.8.5-2.7-.5-1.4-1.2-2.8-3.1-2.7-1.6.1-3-.4-3.6-2.1 5.9-1.3 6-6.6 7.7-10.8-2.8 2.5-2.1 9.4-8.1 7.3-5.1-1.8-1.4-6.1-.9-9.7-1.1 1.5-1.5 2.9-2.3 4.2-1.2 1.9-2.8 3.6-5.3 2.4-2.3-1.2-2.3-3.4-1.8-5.7.3-1.1.8-2.2 1.3-3.2.9-1.9.1-3.2-1.5-4.2-2.5-3.3-2.1-6.4.1-9.7.9-1.3 1.2-3 1.8-4.5 1.9-.7 3.9-.7 5.3-2.7 1.2-1.7 3.4-2 4.9.3-.7 1.3-2.5 2.5.1 3.8 3.6 1.8 7 3.8 10.5 5.7 2 1.1 3-.1 4.1-1.4 1.6-.8 2.3.8 3.9 2.3-1.3-4-6.4-2.7-6.2-6.8 1-1.4 2.3-.4 3.6-.4-1.5-2.4-4.1-3-6.1-4.5-2.6-4-2.1-5 2.4-5.5 3.5-.4 7.2.8 10.6-.8-.6-.8-1.6-1.4-2.1-2.3-.4-.8-.8-1.6-.6-2.5 3.1.4 5.5 2.1 7.1 4.7.6 1-.1 3.3 1.8 2.8 2.4-.6-.1-2.4.4-3.7 6-5 11.7-10.3 16.1-17-.7-1.6-3.1-.3-4.1-1.7.2-1.5-.1-3.2 1-4.5l2.1-.8c1.9-.7 2-2.1 1.9-3.9-.1-5.7 3-8.7 8.6-7.5 3.3.7 2-1 2.1-2.4 1.1-.5 2.2 1 3.2-.1 2.9-2.5-.3-4-.9-5.9-.6-2.1-3.6-4.1-1.6-6.1 1.9-1.9 4.3.3 6.4 1.3 3 1.4 5.8 3.1 9.8 3.3-2-5.5-5.4-9.5-8.3-14.3-.5 2.5 1.9 4.1.4 6.1z"/><path class="st12" d="M335.5 282.1c-1.1 3.9-3.4 5.3-7.6 5.3-82.8-.3-165.6-.4-248.5-.5-3.2 0-5.7-.8-8-2.8-.4-1.1-1.4-2.1-1-3.4 1.7-2.1 2.9-.6 3.6.7 1.8 3.2 4.3 3.8 7 1.8 2.8-2.2.4-4.3-.8-6.4-1.5-2.5-2.4-5.1-1.4-7.9-1.7 1.7 1.3 5.2-2.3 6.3-3.1-3.9-.9-8-.2-12 1.8-2.2-.5-4.8.8-7 2.5-.3 5.1 2 7.6-.4 3.6 1.3 3.4 4.7 4.1 7.6-.3-1.3-.6-2.7.2-4 .4-.4.8-.5 1.3-.3 1.3.5 1.3 3.5 3.6 2.1 2-1.2 1.3-3.1.9-4.8.9-3.4-2.8-5.3-2.7-8.4 1.3-.7 2.8-1.3 2-3.4-.2-1-.6-1.9-1.4-2.5-2.8-1.9-16.6-.4-19 2-1 1-.9 2-.3 3.1.6 1.2 1.1 2.4.3 3.7-2.7.8-3.8-1.3-4.9-2.9l-4.5-6.3c.5-3 3.1-3.6 5.3-4.5 3.3-1.4 6.8-2.4 10.4-3.1 3.6-.7 7.2 0 11.4-.6-4.6-7.8-1.5-14.3 2.8-20.6.6-1 1-2.1 1.7-3 2.4-3.1 5.2-3.1 7 .4 3.4 6.9 5.1 14 1.9 21.5-2.3 5.4.8 8.8 7 8.1 4.7 4.2 6.8 9.4 6 15.7-.7.9-1.4.6-2.1 0-.5-.4-1.1-.9-1.7-.2-.6.7-.4 1.5.1 2.3.6.8 1.4 1.4 2.1 2.1 5.6 5.7 6 10.9 1.3 17.1-.7.9-2.1 1.6-1.6 2.8.6 1.6 2.3.9 3.5.9 2.8.1 5.6 0 8.4 0 2 0 3.5-.6 4.1-2.7 1.5-.6.9-1.1.3-2.3-1.3-2.5-4.9-4.4-2.6-8 3 1.5 4.5.9 4.3-2.8-.8-12.6 2.6-24.3 7.7-35.6 1.3-3 1.2-6.1 1.3-9.3-1.1.2-1.6 1.5-2.7 1.2-1.3-1-.5-2.4-.7-3.8-.2 3.3-1.3 6-3.9 7.8-.9.6-1.9.8-2.8.1-1.2-.8-.5-1.8.1-2.6 4.7-6.2 5.2-14.2 9-20.8 1.6-2.8 3.4-5.3 6.7-6.1 1.6 1.9 1.9 4.3 2.8 6.5-3.3 1.8 1.6 1.8.7 3.1-1.3 6.5-1.3 13-1.5 19.6-.1 3.3 2.1 6.3 1.1 9.7-2.5 1.1-2.9-.9-3.7-2.4-1.4-2.7-1.2-5.5-.9-8.3.3-3.1.1-6.2.2-8.5.2 3-.1 6.8-.5 10.6-.2 1.8-.2 3.5.5 5.4 1.6 4.2 1.2 5.2-3.3 5.7-1.8.2-1 1.3-1.3 1.8-3.3 7.6-4.8 15.4-4.3 23.7.1 2.2.1 4.3-.9 6.3 1.5-3.4.9-7 .9-10.5 0-4.2.6-8.2 1.8-12.2.5-1.6.8-3.3 2.9-3.6 2.3 1.8 1 4 .5 5.9-2.1 7.1-1.5 14.5-2.2 21.8-.2 2.3.9 3.4 3.2 3.3.5 0 1 0 1.5-.1 2.4-.3 5.7 1 7.2-.8 1.9-2.3-1.6-4.1-2.3-6.4-1.2-3.7-2.5-7.5.7-10.8 3.6-3.8 4.3-7.6 1.3-12-.3-.4-.2-1-.1-1.5.2-1.1.7-1.9 1.6-2.5 10.7 6.9 14.7 16.9 12.1 30.3-1.3 6.7-1.3 6.7 5.4 6.2 2.2-.1 4.2 1.9 6.6-.8 1.9-2.1 4.1-.6 4.9 1.8.6-1.7-2.5-4.1 1-5.5 1 .4 1.8 1.1 2 2.1.9 5.5 4.6 5.9 9.1 5.7 5.3-.3 10.5-.3 15.8 0 4.5.2 8.5.3 8.9-5.6 3.9 1.7 6.2 6.1 10.8 6.8.8.1 1.5.7 2.3.7.5 0 1.4 1 1.5-.3 0-.4-.8-.9-1-1.6.3-1.4 1.8-2.3 1.7-3.9 4.7-2.1 4.1-7.7 7.1-10.9 2.1 1.1 1.2 3 1.4 4.5.4-1.2 1-2.4 2.7-2.6 1.6.3 3 1.1 4.3 2.1.6 1.3-1.3 2.7.1 4 .2.4.2.8 0 1.2-1.3 1.5-2 3.2-2.6 5l-.1.5c1.8 5.7 1.8 5.7-3.6 5.5 6.6 2.6 9-4.1 12.9-7.3 2.2-1.8.6-5-1-7.2-3.6-4.9-5.5-10.5-7.1-16.3-.6-2.1-1.3-4.2.3-6.2 2.2-.2 2.2 1.7 2.6 3 2.5 7 4.6 14.2 9.4 20.2 1.3 1.7 1.2 3.7.9 5.7-.3 2.2.6 2.9 2.7 3 3.5 0 6.4-.8 8.8-3.6 11-13.3 18.3-28.3 21.9-45.2.5-2.2.2-3.9-1.7-5.2.8-2.6 1.7-6.6 4.8-5.6 3.1 1 2.1 4.8 1.6 7.9-1.7 9.7-4.6 19-8.7 27.9-4.3 9.2-10 17.5-16.9 24.9-3.6 3.9-8.4 3.4-13 3.6 6.6 0 13.3.2 19.9 0h22.4c4.6-.2 9.2-.2 13.7 0 5.6.5 11.4 0 17.1-2.2z"/><path class="st13" d="M77.4 256.4c-.1 1.3.4 2.4 1.2 3.5 1.3 1.8-.2 2.1-1.5 2.4-3.9.7-5.1-2.5-6.7-4.8-2-2.9-3.4-6.3-5.7-9.1 2.9 10.7 6.5 21.1 12.3 30.9.3-1.5-.8-2.8.2-4 .3-2.9-.2-6 1.2-8.8.4-.8.9-1.5 1.8-1.2 1.1.4.8 1.3.4 2-2.3 4-1.1 7.4 1.9 10.2 2.6 2.5 1.5 5.1-.1 6.9-2 2.2-7.3 1.3-8.6-1-.8-1.4-.5-3.9-3.3-2.9-2-.9-1.8-3.2-3-4.6-2.3-4.6-4.7-9.1-5.9-14.2l.1.1c-4.2-9.6-6.2-19.8-8-30-.6-7.4-1.3-14.8-1.7-22.2-.9-16.2 1.5-32 5.7-47.6.4-1.4 1.2-2.7 1.7-4 1.8 1.7 1.1 3.8.5 5.6-1.6 4.3-1.2 8.1 1.8 11.6.5 1-.8 1.6-.4 2.4.1.1.9-.6 1.6-.7 2.3.6 3.2 3.3 5.6 3.8 3.9.9 7.4.4 10.4-2.4 2.2-.1 5.3-1.9 5.5 2.5-.1.3-.3.6-.5.8-1.4 1.7-2.6 3.6-1 5.7 1.4 1.9 3.3.5 5 .2 3.3-1.6 6.6-2.9 10.4-2.5 1.1.1 2.3.6 2.4 2 0 1.2-1 2-1.9 1.9-7.1-.5-6.7 4.1-6.2 8.9-.6 2.6-1.7 5.1-3.3 7.2-1.7 2.4-2.7 4.9-2.7 7.8 0 1.9.1 4.3-2.6 4.7-2.5.3-3.3-1.7-3.8-3.8-.2-1-.2-2.4-.9-2.7-7.1-2.8-5.2-9.5-6.7-14.8-.6-2.2-.1-4.3.5-6.3.7-2.1-.1-3.7-2.1-4.4-2.8-1-2.2 1.6-2.6 3-.9 3.4-3.1 5.5-6.4 6.2-2.5.5-3.2 1.8-3.5 4-1.3 8.1.5 16.2.8 24.2.2 4.4 1.4 8.8 2.3 13.2.4 2.1.8 4.3 2.6 5.7 1.9-.1 2.7.8 3.6 2.5 1.3 2.5 2.7 5.3 5.7 6.5 2.9.9 3.7 3 3.9 5.6z"/><path class="st11" d="M345.1 326.6c2.3 1.7 5.2.3 7.4 1.2-.5 4.4-5.8 5.3-6.8 9.6-.4 1.7-2.2 3.3-3.7 4.5-5.6 4.4-10.1 10-16.4 13.8-4.7 2.8-9 6.6-13.6 9.7-1.6 1.1-4 2.9-4.7-1.2-.3-1.5-1.4-1.4-2.2-.5-1.6 1.6-3.1 0-4.7.1-.6-.6-.6-1.2-.3-1.9.9-.7 2.7-.9 1.5-2.8l-2.7-4.1c-.9-1.5-3-3-1.6-4.7 1.5-2.1 3.6-.2 5.4.3 1.7.5 3.3 1.4 5 2 5.3 2 5.4 1.9 5.2-3.5 3.6 2.2 3.6 2.2 5.2 6.7 1.3-4.4 5-5.2 8.1-6.7 3.5-1.7 6.5-3.8 7.1-8.1.4-2.4 2.3-2.9 4-3.9 2.4-1.4 2.7-2.9-.1-4.2 1.1-1.5.7-3.2.6-4.8 1.5-.1 2.3-.9 2.4-2.4.1-1.7 1.2-2.6 2.9-2.7.4.5.5 1.2.4 1.8-.1 1.1-1 2.9 1.6 1.8z"/><path class="st14" d="M64.6 324.9c-.1-3.7 2.8-6.7 2.9-10.6-3 .3-4.5 2.3-6.1 4.2-.2.4-.5.8-.9 1.1-1.3 1-2.5 2.2-4.3 1.6-.9-.3-1.2-1.1-1.2-1.9-.2-2.5 2-2.6 3.5-3.4l9.1-7.9c1.6-.7 2.7-3.4 4.9-1.5 1.3 1.1 2.6 2.6.5 4.3-1.2 3.9-2.5 7.8-3.9 12.3 4-.8 5.9-3.7 8.2-5.6 1.9-1.6 3.6-1.4 4.6-.1 1.2 1.5-1.1 2.6-2 3.3-3.7 2.7-7.2 5.5-10.5 8.6-1.2 2.1-3.1 2.7-4.9 1.5-3-1.8-.4-3.9.1-5.9z"/><path class="st15" d="M291.5 60.5c-2.6 2.1-3.8 1.5-3.8-1.8 2.7-4.8 4.7-10.1 8.8-14 1.6-2 3-2.6 5-.2 1.3 1.6 3.2 2.8 5.1 3.8 3.4 1.9 4.9 4.4 3.8 8.3-.4.5.3 0-.2.4-4 2.9-7.9 5.9-6.4 11.9.3 1.1-1.1 1.5-2.2 1.3-1.4-.3-2.4-1.1-2.5-2.7-.3-2.9.5-5.9-.5-8.8-3.9-3.5-4.6-3.3-7.1 1.8z"/><path class="st16" d="M352.1 288c-.8-1.7-4.3-1.6-3.5-4.1.7-2.1 3.2-1.8 5.2-2.1 3.9-.5 7.8-.9 12.2-1.5-2.8-3.1-6.1-3.8-8.9-5.3-1.5-.8-3.5-1.6-2.4-3.5 1.2-2.3 2.8-.3 4.2.4 4.1 2.1 8.2 4.3 12.3 6.5 1.1.6 2.7.8 2.3 2.7-.4 1.5-1.7 2-3 2.2-4.5.7-9 1.3-14.8 2.1 3.9 2 6.6 3.4 9.3 4.8 1.3.7 3.2 1.4 2.3 3.2-.9 1.9-2.5.7-3.9.1-1-.5-1.8-1.5-3.1-1.3-2.8-1.4-5.5-2.8-8.2-4.2z"/><path class="st17" d="M310.5 330.9c3-4.1 6.7-6.7 12-5.1 4.3 1.3 7.4 4.2 8.5 8.5 1.3 5.4-1.1 9.5-5.7 12.4-2.6 1.6-5.3.9-8 .1-3.1-1.6-5-4.3-6.9-7-1.6-2.9-2.2-5.9.1-8.9zm2.5 18.1c.4.7.7 1.5 1.3 2.1 1 1.1 1.6 2.2.6 3.5-1 1.3-2.4 1-3.6.5-4.4-1.6-8.8-3.3-13.7-4.2 1.9 2.6 3.7 5.2 5.5 7.8.8 1.2 2.4 2.3.8 3.8-1.4 1.3-2.3-.6-3.4-1-3-3-5.8-6.3-7.9-10.1.3-1.8-1.4-2.4-2-3.7.7-3.3 2.7-3.2 5.2-2.2l10.2 3.9c.7.3 1.5 1 2.2.2.9-1 0-1.7-.6-2.5-1.3-1.7-2.7-3.4-3.9-5.1-.9-1.3-2.8-2.8-1.1-4.2 1.8-1.5 2.7.9 3.9 1.9 1.6 3.6 4 6.5 6.5 9.3z"/><path class="st18" d="M92.3 342.9c6.1-7.4 13.8-6.2 18.5 1.1 2.4 2.6 2.5 5.1.1 7.7-1.6 2.6-2.8 5.6-5.6 7.2-3.3 2.4-6.7 1.9-9.9-.1-1.3-1.3-2.6-2.6-4-3.9-3-4.3-1.6-8.2.9-12z"/><path class="st19" d="M296.5 44.6c-2.4 5-4.8 10.1-8.8 14-1.4-.5-.8-2.7-2.5-2.9-3.2.2-5.6-1.8-8.1-3.3-2.4-1.4-2.8-3.5-1.5-6 1.3-2.4 3.2-2.5 5.5-1.5 1.3.6 2.6 1.3 4.7 2.2-1.9-2-4-2.4-5.3-3.9-1.4-1.5-1.8-3.1-.6-4.9 1.3-1.9 3.1-1.8 4.8-.8l6.2 4.1c1 .6 2 1.1 2.8 2 .8.3 1.8.7 2.8 1z"/><path class="st20" d="M203.6 26.7c-.1 6.4-5.3 12-11.1 11.8-4.2-.1-9.6-7.1-9.5-12.4 0-5.7 4.9-10.6 10.3-10.5 5.7 0 10.3 5.1 10.3 11.1z"/><path class="st21" d="M129.6 362.7c-1.4 2.6-2.6 5.2-5.2 7.1-4.4 3.2-8.5 2.8-13.4-2-.4-.3-.8-.6-1-1-.9-1.7-2.1-3.4-.6-5.4.5-.7 1.2-1.1 2.1-.9 2.7.5 1.8 3.1 2.6 4.7 2 2.2 3.9 4.5 7.3 2.1 3.5-2.5 5.6-7.4 3.9-10.4-1.6-2.9-4.1-4-7.3-2.4-.7 1.2-1.8 2-3.1 1.2-1.3-.9-1.8-2.2-.5-3.6l-.1.1c4.7-4 8.4-3.9 12.7.3l1.6 1.6c2.2 2.6 3.1 5.4 1 8.6z"/><path class="st22" d="M274.7 355.8l3.9-4c2.5-1 4.7-3.9 7.8-1.5.5.8 1.3.5 2 .6 1.2.8 3 1.4 2.4 3.3-.6 1.8-2.3 1.5-3.8 1.5-.5 0-1-.1-1.5-.2-1.7-.2-3.3-.2-4.6 1.3-.3.4-.4 1-.1 1.4 1.4 1.5 3.1.7 4.6.4 4.2-1 7.5-.3 9.7 3.7-.1 7.3-7.2 12.4-12.9 9.2-2.1-1.2-4-2.6-.4-4.4 2.7 1.7 5.4 1.9 7.8-.5.7-.7 1.3-1.6.5-2.6-.6-.8-1.3-1.4-2.5-1-2.3.7-4.6 1.2-6.9 1.8-5.9-1.4-7.2-3.2-6-9z"/><path class="st23" d="M290.5 42.5c-2-1.3-4.2-2.5-6.1-4-1.7-1.3-2.9-1.4-4 .6-1 1.9-.5 3.1 1.3 4 1.3.6 2.6 1.4 4 2.1 1.3.7 3.3 1.5 2.4 3.1-1.1 2-2.8.4-4.2-.4-1-.6-2.1-1.1-3-1.7-2-1.3-3.4-1.4-4.7 1-1.3 2.4-.6 3.6 1.6 4.6 2.5 1.2 5 2.6 7.4 3.9.1 2.3-1 3.1-3.1 2-3.1-1.5-6.1-3.2-9.2-4.8-2.3-1.2-2.5-2.5-1.1-4.8 1.9-3.1 3.4-6.4 5.1-9.7 3.2-6.2 3.3-6.2 9.6-2.6 1.1.8 2.1 1.9 3.7 1.7 1.3.4 3.1.4 3.1 2.4-.2 1.8-.9 3-2.8 2.6z"/><path class="st11" d="M63.3 334.1c2 .6 3 1.9 3.9 3.3 4.2 6 8 5.9 12.1-.4.4-.7.4-1.7 1.3-1.9 1.2-.2 2.4-1.7 3.7-.5 1.6 1.5-.3 2.7-1 3.2-1.9 1.5-3.2 3.5-5.4 4.7-2.8 1.4-3.5 3.5-.2 5.5 2.1 1.3 3.2 5.7 6.9 2.3.1-.1 1.7.7 1.8 1.3.8 4.2 4.5 5.8 6.9 8.5.7.8 2.4 1.9.7 3.2-1.1.9-1.9-.1-2.9-.8-10.1-7.2-19-15.7-27.8-24.4-.8-.8-2-1.5-1.3-2.9.2-.5.9-.8 1.3-1.1z"/><path class="st24" d="M137 51.1c-3.4 1.6-6.8 3.7-10.5.5-1-.9-2.4-1.8-1.7-3.2.8-1.7 2.2-.7 3.3 0 1.6 1 3.3 1.3 5.2.6 1.9-.8 3.9-1.9 3.5-4.1-.4-2.7-3-2.1-4.9-1.9-8.7.9-9.5.6-11.5-5.4 3.4-5.7 8.4-8.1 12.4-5.7 1.2.7 3.1 1.4 2.2 3.3-.8 1.5-2.3.7-3.5.1-1.1-.6-2.2-.9-3.3-.6-1.9.6-4.2 1.5-3.8 3.9.4 2.5 2.6 1.9 4.5 1.5 3.5-.7 7-1.9 10.1 1.5 4 4.4 0 6.6-2 9.5z"/><path class="st25" d="M206.7 23.7c.4-1 .8-2 1.2-2.9 5.2-6.9 10.8-7.4 16.7-1.6 4.3 7.5 1.6 15.7-3.9 18.4-3.5 1.9-6.8.9-9.9-.9l-2.1-2.1c-2.9-3.2-2.7-7-2-10.9z"/><path class="st26" d="M60.5 295.9c-.4-.3-.7-.6-1.1-1-.6-.4-1.2-.5-1.9-.5-1.7 0-3.4.1-4.3-1.7-.5-1.1 0-2.1.9-2.5 1.7-.8 3.6-1.9 5.1.3 9.2 5.1 8.6 13.2.2 19.4-2.9 1.4-5.8 2.4-9 1-2.3-.5-3.4-2.5-4.9-3.9-1.6-2.9-3.6-5.6-1.1-9v-.1c.7-1.2 1.1-2.9 3.1-2.3 2.1.7 1.5 2.4 1 3.7-.9 2.3-.1 4.2.8 6.1 4.5 4.6 7.6 0 11.1-1.6 1.6-2.7 2.5-5.3.1-7.9z"/><path class="st27" d="M180.7 32.7l.2 2.4c.1 1.5.4 3.3-1.7 3.4-2.1.1-1.9-1.8-2.2-3.2-1.1-5.7-3.1-6.8-8.5-4.6-1.6.6-1.8 1.7-1.6 3.1.2 1.3.5 2.6.6 3.9.2 1.3.5 2.8-1.5 2.9-1.6.1-1.7-1.2-2-2.3-.2-1.3.1-2.7-.9-3.7l-1.4-10.8c-.2-1.5-.8-3.2 1.2-3.7 2.1-.5 2.3 1.3 2.5 2.8.3 2.5.1 5.3 4.1 4.3 3-.8 7.2-.3 5.4-5.7-.4-1.3-.7-3.4 1.3-3.6 1.9-.2 2.1 1.7 2.4 3.2.9 3.8.4 7.9 2.1 11.6z"/><path class="st28" d="M151.4 45.3c-5.7.1-10.3-4.6-11.2-11.1-.6-4.7 3.3-9.9 8.3-11 1.8-.4 3.6-.2 5.3.8 1.5.9 4 1.6 2.8 3.8-1 2-2.8.4-4.2-.3-3.6-1.9-6.1-.4-7.7 2.8-1.7 3.4.8 9.8 4.3 11.1 3.3 1.2 5.8-.1 7.3-3.3.7-1.5.7-4.4 3.3-2.9 2 1.1 1 3.4-.1 4.8-2.2 2.7-3.9 6.1-8.1 5.3z"/><path class="st29" d="M86.4 327.9c-4.1-.7-5.2 3.6-8 5-.8 1.4-2.2 2.4-3 3.7-1 1.7-2.3 2.3-4 1.3-2-1.3-1-2.7.2-3.9l-.1.1 6.4-6c3.8-6.1 11.9-5.3 15.5 1.6 1.6 3.2.3 5.8-1.1 8.2-1.2 2-3.2 3.5-4.9 5.2-1.2 1.5-2.5 2.9-4.1 4-.8.6-1.9.7-2.6-.1-1-1-1.3-2.2.3-3.1 2.8-3.1 5.6-6.2 8.5-9.3 1.9-3.5-.9-5-3.1-6.7z"/><path class="st11" d="M290.5 42.5c4.6-2 1.7-3.4-.4-4.8h3.9c.3-2.3-3.1-1.9-3.1-4 10.4-.2 30.3 12.3 33.8 21.6-4-2.4-7.8-3.9-11.5-5.6-3.3-1.5-5.7-5.2-8.6-7.8-2.6-2.4-5.9-1-8.8-1.6-2.1-.4-1.3 2.3-2.3 3.2-1.1.1-2.3.3-3-1z"/><path class="st15" d="M344.6 305.8l-3.7-1.1c-1.3-.4-3.3-.4-3-2.5.3-2.1 2.4-1.7 3.6-1.3 3 1.1 4.4-.2 6-2.6 1.6-2.2 2.1-3.9.1-6-.9-1-2.6-2.3-1.1-3.8 1.9-1.9 2.6.8 3.9 1.5 2.6 4.2 4.9 8.5 8.6 12 1.8 1.2 2.6 3 1.5 4.9-1.2 2-3.1 1.9-5 .9h.1c-3.4-.7-6.8-.7-10.1-2l-.3-.3c-.3.2-.6.3-.6.3z"/><path class="st11" d="M58.4 315.9l-1.7 1.7c-.9.9-1.3 2-.3 3 .8.8 1.8.3 2.7-.3.8-.6 1.6-1.2 2.3-1.8-.5 3-3.2 3.3-5.9 4.4 7.2.8 4.7 5.5 5 9.5-7.6-1.8-4.6-8.7-6.9-12.8-1.8.9-.5 2.7-2.1 4.1-1.7-4.6-6.7-6.3-8.1-11.2-.5-1.7-1.8-3.1-3.8-3.5v-4c2.2-.2 2.2 2.1 3.2 3.2 4.2 4.6 9.8 6.3 15.6 7.7z"/><path class="st30" d="M343.3 85.7l-3-3.2c-1.1-1.8-2.4-2.2-4-.5-1.2 1.3-.6 2.4.4 3.4l.7.7c1.3 1.6 4 3.4 1.7 5.3s-3.3-1.5-4.8-2.8c-1.9-2.1-3.8-4.2-6.1-.4-.8 1.8-2 3.2-4.1 2.6-1.8-.5-1.3-2-.9-3.3 3.7-3.3 7.4-6.6 11.1-10 2.4-1.7 4.8-4.7 6.9.3 1.5 1.6 3 3.2 4.6 4.8 1.5 1 2.9 2.2 1.4 3.9-1.3 1.4-2.8.4-3.9-.8z"/><path class="st31" d="M294.2 361.9c-2.6-2.9-5.7-3.3-9.3-2.1-2.1.7-4.6 1.6-6.3-.6-.8-1-.1-2.2.8-3.1 2-1.9 4.2-3.4 7-1.8 1.2.7 2.6 1.4 3.6.3 1.3-1.7-1.2-2.3-1.5-3.7 1.6-.9 2.5 2.5 4.2.6 3.9 2.4 6 6.1 7.9 10.1l-.1 2.2c-1.8.1-3.3 1.2-4.8 2-1.6-.9.2-3.1-1.5-3.9z"/><path class="st32" d="M345.1 326.6c-.8.2-1.7 1.3-2.5.3-1.1-1.4.3-2.6.6-4 2.1-1.8 1-2.9-.7-4.2-3.2-2.3-6.3-4.7-9.4-7.2-1-.8-2.4-1.7-1.3-3.3 1.2-1.8 2.8-.8 3.9 0 3 2.3 5.8 4.7 8.6 7.2 1.3 1.1 2.4 2.5 4 .4.8-1.2 1.7-2.4 2.9-3.1 1-.6 2-.3 2.6.4.7.8 1.7 1.8-.1 2.6-2.9 3.7-6.2 6.9-8.6 10.9z"/><path class="st33" d="M312.2 75.1c-1 .7-2 1.8-3.3.9-1.4-1-.3-2.3-.4-3.5l6.9-7.3c4.5-3.2 1.3-5.3-1-7.6.9-3.2 1.6-3.6 3.5-1.7 3.1 3.2 6.5 6 10.1 8.7 1.3.8 1.2 2.1.3 2.8-1.5 1.2-2.6-.4-3.9-.9-1.4-1.7-2.5-2.5-4.5-.3-2.6 3-5.9 5.3-7.7 8.9z"/><path class="st34" d="M381.9 148c-2.3 1.9-3.8 1.6-4.5-1.5-.6-2.6-2-3-4.4-2-3.4 1.4-6.9 2.4-10.3 3.7-1.5.6-3 1.3-3.7-.7-.7-1.9.8-2.6 2.3-3.1 3.6-1.2 7.2-2.4 10.9-3.5 2.3-.7 3.7-1.4 2.1-4.1-.8-1.3-1.1-3.2.7-3.8 1.9-.7 2.2 1.5 3.1 2.6.1 4.5 2.4 8.3 3.8 12.4z"/><path class="st35" d="M38.6 286.2c-1.3-.1-3.1 1.3-3.9-.8-.8-2.1 1.3-2.4 2.5-3 2.8-1.4 5.6-2.9 8.5-3.9 3.7-1.3 4.8-3.1 2.4-6.4-.4-.5-.5-1.2-.9-1.8-.7-1.2-1.4-2.6.1-3.5 1.6-1 2.2.8 3.1 1.6.6 1.5.9 3.2 1.8 4.5 3.2 4.6 1.3 6.7-3.2 8.3-3.7 1.2-7 3.2-10.4 5z"/><path class="st36" d="M230.8 23.8c.2-.6.5-1.2.6-1.9.3-1.5-.3-3.8 2.4-3.4 2.7.4 1.5 2.3 1.2 3.9l-.8 5.9c-1.1 7-1.2 7 5.7 9 1.3.4 2.7.7 2.3 2.5-.3 1.5-1.8 1.3-2.9 1.1-2.6-.4-5.2-.8-7.8-1.3-3-.5-2.7-2.9-2.7-5-.4-3.8 2.5-7 2-10.8z"/><path class="st37" d="M42.8 288.1l11.7-6c1.9-1.2 3 0 3.3 1.5.5 2.5-1.9 2.6-3.4 3.3-4.6 2.3-9.2 4.7-13.7 7-1.8 1.1-2.7-.1-3.3-1.5-.5-1.3.5-2.1 1.5-2.7 1.1-.8 2.6-1.1 3.9-1.6z"/><path class="st38" d="M319.1 80.5c3.4-3.7 6.8-7.4 10.1-11.1 1.2-1.4 2.4-2.3 3.9-.3-.2 4.8-5 6.3-7.1 9.8-1.2 2.1-3.2 3.7-4.8 5.5-1.1 1.9-2.5 2.1-3.8.4-1.5-2.1.5-3.1 1.7-4.3z"/><path class="st39" d="M347.3 90.4c1.4.1 3.2-2 4.3.3.9 1.9-1.1 2.4-2.2 3.3-3.4 2.8-6.7 5.7-10.2 8.5-1.2.9-2.5 3-4.1 1.4-2-2 .6-3 1.6-4.2 3.5-3.1 7-6.2 10.6-9.3z"/><path class="st40" d="M337.9 328c1 1.8 5.2 3.9-.6 4.8l-6-5c-2.2-2.2-4.6-4.2-6.6-6.5-.7-.8-3.2-1.5-1.3-3.4 1.8-1.8 3.7-.3 4.6.9 2.7 3.8 6.4 6.4 9.9 9.2z"/><path class="st11" d="M113.1 373.9c-5.6.1-9.2-3.2-13.3-5.7-.9-.6-1.6-2.2-.2-2.9 1.9-.9 4.7-3.9 5.9-1.3 1.8 4 4.1 7.2 7.6 9.9zm-59.4-142l5 19.1 3 11c-3-2.2-3.3-5.8-4-8.8-1.6-7-5-13.8-4-21.3zm60.4 133.2c-.2-.6-.6-1.2-.7-1.8-.3-1.5-.8-2.7-2.5-2.1-1.6.6-1.4 2.1-1 3.4.3 1.1.8 2.1 1.2 3.2-3-1.1-3.7-4.1-2.4-6 2-3.1 5.8-3 9.2-2.2.9.2 2.8-.5 2.5 1.4-.1 1-1.1 2-1.8 2.8-.5.6-1.2.5-1.6-.2-.5-.9.9-3.3-1.6-2.5-1.9.6-.9 2.7-1.3 4zm184.4-306.6c1.9 2.7.6 5.7 1 8.6.2 1.3.8 2.2 2.1 2.4 1 .2 1.8-.7 1.5-1.4-2.4-6.9 3.4-8.6 7.2-11.7 0 .3.1.8-.1 1-4.1 3.1-7.1 6.8-6.2 12.5.1.9-1.1 1.6-2.2 1.2-1.8-.6-3.3-1.5-3.3-3.7v-8.9zm35.8 30.1c2 .1 2.7 4.7 4.9 2.2 1.7-2-1.5-3.5-2.8-5-1.4-1.6-2.9-2.9-.3-4.7 2.2-1.5 3.6-1.5 4.2 1.4-1.2-.5-2.4-1.4-3.4.2-.8 1.3.3 2.1 1.1 2.9l.7.7c1.3 1.5 2.8 3 2.4 5.1-.2 1.2-1.6 2-2.7 1.7-2.2-.6-3.7-2.1-4.1-4.5zm-282 208.7c-.3 5 6.9-2.1 5.4 3.7-.4 1.6-2.5 4.4-4.7 3.4-2.7-1.2-1.3-4.3-.7-7.1zm241.9 64.6c1.9.8 1 2.6 1.5 3.9-3.5 6.6-8.5 8.9-13.7 6.2-1.4-.7-2.5-1.5-2.4-3.3.1-1.5 1-1.9 2.3-1.8-2.3 2.6-.4 3.7 1.8 4.6 3.1 1.2 5.7-.1 8.1-2.1 2.3-1.9 4.2-4.1 2.4-7.5zm-69.6-342.7c-7.1-4.7-10.3-4.4-16.7 1.6.8-4 3.7-5.8 7.4-6 3.7-.2 7.7-.3 9.3 4.4zm-163 242.7c2.6 4.5 4.5 9.2 5.9 14.2-3.2-4.3-5.9-8.7-5.9-14.2zm-2.3 28.6c-.8-.1-1.7-.3-2.4-.2-1.2.1-3-.2-3.1 1.6-.2 2.3 1.8 1.9 3.2 2 1 .1 2-.1 2.5 1.1h-3.4c-1.8 0-3.2-.6-3.4-2.7-.1-1.7.6-2.8 2.3-3.3 1.7-.4 3.8-1.8 4.3 1.5zm12.3 43.5c0 1.3-1.9 2.8.2 3.8 1.8.9 2.5-.8 3.5-1.8 1-1.1 2-2 3.1-3.1 0 2.5-2.1 3.8-3.5 5.3-1.3 1.4-3.5 1.2-4.8-.4-1.3-1.8-.4-3.1 1.5-3.8zm-22.2-28.6c-2.1-1.5-2.4-3.4-1.5-5.7.4-1.1 1-2.4-.2-3.2-1.6-1.1-2.3.5-3.2 1.4-.1-2 .7-3.1 2.9-2.9 2.5.2 2.3 2.1 2 3.7-.4 2.2-.4 4.4 0 6.7zm263.1-244c-.1 2.5-2.6 3.4-2.3 6.7-4.2-5.3-.2-5.6 2.3-6.7zm-231.6 282.6c-.2 1.1-.5 2.3.8 3 1.1.6 1.7-.4 2.5-1 1.1-.9 1.6-2.5 3.2-2.8-.2 2.2-2.1 3.2-3.4 4.6-1.1 1.2-2.6 1.7-3.8.2-1.1-1.5-1.5-3.1.7-4zm46.2 8.4c-4.1-3.5-8.4-3.4-12.7-.3 2.3-5.5 7.1-2.4 10.8-3.2.6 1.1 1.2 2.3 1.9 3.5zm83.7-315.7c3.2 1.2 6.5 1.7 9.9.9-3.6 3.9-6.8 1.7-9.9-.9zm-118.5 306.2c-1.5 3.9-2.9 7.8-1 12-3.4-3.2-3-7.9 1-12zm261.4-27.1c-1.1-3-1.1-3-5.4.1.9-4.9 4.5-4 8.3-3.9-1.3 1.4-1 3.3-2.9 3.8zm-289.1 9.1l-.2 1.9c-.4 1.4-1 2.9.7 4 1.9 1.2 2.9-.7 4.2-1.4-1 3.5-3.8 3.3-5.7 1.7-2.3-2-1-4.4 1-6.2zm268.6-255.9c-1.4-.9-2.7-.2-3.9.3-1.3-1.5-4.2-.2-4.9-2.8 1.4-.2 4.4 2.5 3.6-1.9 1.7 1.5 3.5 3 5.2 4.4zm-237.9 289.8c3.3.9 6.6 1.7 9.9.1-3.3 3.5-6.6 3.5-9.9-.1zm179.4-3c-.6 4.9 1.7 7.7 6.3 8.9-6.6-.1-8.7-3.1-6.3-8.9zm-231.9-67.7c-1 .6-2 1.1-2.9 1.7-3 1.9-2.9 3.3.6 4.2-1.4 1.6-2.7 1.1-3.5-.4-.8-1.4-.6-2.9.8-4 1.4-1.2 3.1-1.8 5-1.5zm300.5-202.4c1.2.2 2.3 2 3.5.4 1-1.4-.5-2.4-1-3.5 1.8.4 3.2 1.2 3.1 3.2-.1.8-1.1 1.8-1.9 2.1-1.9.6-3.2-.2-3.7-2.2zm-270.4 225.1c.2-5-.5-5.4-5.4-2.8 1.3-2.1 2.9-4.2 5.4-2.3 1.5 1.1 3 3.4 0 5.1zm241.5-253.2c5.2 3.9 5.2 3.9 1 7.6 2.9-3 0-5.1-1-7.6zm-203.5 294.1c1.3-2.6 1-5.2-.1-7.7 4.2 1.6 1.7 5.2 2.4 7.8-.7 0-1.5 0-2.3-.1zm208.2-271.2c-.1 1.5-2.7 2.5-.9 4.3 1.1 1.1 2.1.1 3.1-.4-.1 1.8-1.1 2.2-2.7 1.9-1.3-.2-2-1.1-2.1-2.4-.2-1.9.6-3.2 2.6-3.4zm-112.4-56.8c-.5 3.9.2 7.5 2 10.9-4.4-3-3.2-6.9-2-10.9zm148.5 284.1c5.5-.1 6.1-1.1 3.5-5.8 3.2.9 3.1 3.4 1.9 5.4-1.2 2.2-3.4 2.3-5.4.4zm-300.9-20.9c1-1.1 3.3-1.1 3.1-3.2-.1-1.8-1.7-1.6-2.9-1.7 1.9-1.9 3.3-.9 3.8 1.1.6 3.2-1.3 4.1-4 3.8zm291 19c3.5-.3 6.7 1.1 10.1 2-3.6.1-7.1.5-10.1-2zm-300.8-7.9c-1.3 3.2.2 6.1 1.1 9-2.4-2.8-4.8-5.5-1.1-9zm266 32.9c-.8 3-.9 6-.1 9-2.3-3-3.6-6 .1-9zm12.7-243.4c.8 6.5 3.2 1.3 5 .7 0 3.1-2 3.7-4.3 3.1-2.2-.6-1.9-2.2-.7-3.8zm18-9.7c-2.1-4.1-4.5-.9-6.9-.3 3.6-4.3 5.1-4.2 6.9.3zm-263.3 250.3c-1.9 2.2-3.5 4.8-6.4 6 1.6-2.7 3.4-5 6.4-6zm8.5-.2c3.3 1.2 6.2 2.6 3 6.7.7-3-1.7-4.6-3-6.7zm231 19l8-.1c-2.6 3.1-5.3 2-8 .1zm13.9-19.1c2.8.7 4.2 3.1 6 5-3-.4-4.4-2.8-6-5zm6.9-8.4c1.1.3 1 1.2 1 2 0 .7-.4 1.3-1.2 1.2-.8-.1-1.5-.7-1.4-1.7.1-1 .7-1.5 1.6-1.5zm-287.7-8.6c3.1.6 6-.4 9-1-2.8 2.6-5.8 3.1-9 1zm235.9 39.5c-2.9-1.1-5.2 1.3-7.8 1.5 2.2-2.4 4.5-4.7 7.8-1.5zm-225.9-54.4c3.2 2.6 2.5 5.2 0 7.8.4-2.6 1.2-5.2 0-7.8zm69.1 66.8c1.5-3.1.4-5.9-1-8.7 3.4 2.5 3.7 5.4 1 8.7zm-15.1-10.7c-.6 3.5.8 4 3.6 2.4-.4 1.7-1.4 2.7-3.1 2.1-2.2-.8-1.6-2.9-1.7-4.7.4.1.8.2 1.2.2z"/><path class="st10" d="M40.5 114.5c-1.6-1.9-4-1.5-4.3.3-.9 5-3.3 2.7-5.6 1.6.4-1 1-1.6 2-2 1.4-1.8 3.5-3.2 3-6 2.6-5.9 6-11.3 10.1-16.2 2.2-2.6 2.8-6.3 6.4-8.2.9 3.9-2.9 7.3-.7 10.9-1.7 2.9 1.7 3.4 2.4 5.2l1.6 1.8c2.5 2.6.6 3.3-1.7 3.6-2.4.3-4.9 0-7.4.2-1.6.1-3.6-.5-4.2 1.6-.7 2.5 1.9 2.6 3.2 3.5.4.3.9.3 1.4.5 2.3 1.9 6.3 2 6.8 6 .8 1.8 2 3.1 4.1 3.1 3.5 0 2.9 2.4 2.7 4.5-.1 1-.5 2-1.8 2-1.1 0-1-1.1-1.1-1.9-.1-1.5-.5-2.6-2.3-2.5-5.9-.6-11.1-2.6-14.6-8z"/><path class="st41" d="M56.4 91.5c-3.5-3.9.2-5.8 2.3-8 6.3-6.4 15.2-4.4 18.4 4 1 2.7 1 5.4-1.2 7.7-2.3 2.5-4.4 5.2-6.6 7.7l-3-2.6c-1.6-1.4-3.5-2.4-4.8-4-1.7-1.5-3.4-3.2-5.1-4.8z"/><path class="st42" d="M28.7 130.6c3-.4 5.3-.4 2.9 3.6-.8 1.4-1.3 3-1.9 4.5-.7 1.7-.6 3.3 1.3 4.1 1.9.8 3.1-.1 3.8-1.9.7-1.7 1.4-3.4 2.1-5 .5-1.1 1-2.3 2.5-1.5 1.4.7 1 1.8.5 3-.7 1.5-1.3 3-2.1 4.5-1 2-.7 3.5 1.5 4.3 2.1.8 3.4.2 4.1-2.1.7-2.2 1.6-4.3 2.6-6.4.4-.9 1.3-1.7 2.4-1.3 1.2.5 1 1.7.7 2.6-1.4 3.5-2.8 7.1-4.4 10.5-1.3 2.7-3.4.9-5.2.7-4-1.7-8-3.6-12.1-5.2-2.7-1-3.1-2.4-2-4.8 1.5-3 3.6-5.9 3.3-9.6z"/><path class="st43" d="M37.3 153.5c.6.3 1.1.7 1.7.9 1.5.5 3.6.8 2.8 3.1-.7 1.9-2.6 1-3.9.5-4.5-2.1-5.9-.2-6.9 4.2-1.1 4.6 1.5 4.5 4.3 5 1.7.3 4.2.6 3.7 3-.6 2.8-2.8 1-4.4.7-4-.7-7.8-2.5-12-2.4-.4-.2-.8-.6-1.3-.7-1.4-.4-3.3-.7-2.6-2.7.6-1.6 2.2-1.2 3.4-.7 3.9 1.6 5.2-.2 6.1-3.8.8-3.2.7-5.1-3.2-5.4-1.5-.1-3.9-.5-3.5-2.7.5-2.7 2.8-1.4 4.5-1.1 3.9.5 7.6 1.3 11.3 2.1z"/><path class="st44" d="M37.7 236.3c-5.1 6.8-11.9 8.1-17.3 3.2-2.9-2.6-4.4-5.9-3.2-9.8 1.5-4.7 5-7.4 9.7-8.1 3.8-.5 7.4.1 9.2 4.3.2.6.9.9 1.4 1.4 2.2 2.9 1.2 6 .2 9z"/><path class="st45" d="M29.5 261c-5.1 2.1-6.6-1.3-7.8-5.1-.4-1.8-.9-3.5-1.2-5.3-.2-1.1-.5-2.4 1-2.9 1.7-.6 1.9.8 2.3 1.8.5 1.4 1.1 2.8 1.4 4.2.4 2.1.9 4.1 3.7 3.2 2.8-.9 1.9-3 1.2-4.8-.3-.7-.9-1.4-1.3-2.1-1.5-2.1-.6-3.8 1.4-4.1 3.3-.5 2.5 2.7 3.3 4.5-.3 3.1.8 4.6 4.1 3.6l.9-.4c1.9-.2 4.3-2.9 5.4.3 1.3 3.8-2.5 3.2-4.5 4.1l-2.9 1.1-7 1.9z"/><path class="st46" d="M30.6 202c.8-.6 1.4-1.3 2.3-1.7.8-.4 2.1-.7 2.6.4.5 1 .5 2-.8 2.8-2.3 1.3-4.5 2.8-6.6 4.6-1.6 1.4-1.6 2.9-1.3 4.3.3 1.4 2 1.5 3.3 1.5h1.5c1.8 0 4.6-.9 4.5 2 0 3-2.9 1.7-4.6 1.9-.3 0-.6.2-.9.3-4.2-.8-8.4-.4-12.6 0-.4-.2-.9-.5-1.2-.8-1.2-1-2.2-2.3-1.3-3.8.9-1.6 2.6-.7 4-.7 3 .6 3.4-1.8 4.3-3.7.6-2.6 1.7-4.8 4.8-5 .6-.7 1.3-1.4 2-2.1z"/><path class="st47" d="M52.5 100.4c-.9-.8-2-1.6-2.8-2.6-1.7-2.1-.5-2.8 1.6-2.9 3.3 2.2 6.5 4.4 9.8 6.7l1.4 1.8c-.6.8-1.1 1.8-.1 2.5s2.1.5 3-.5c1.6 2.4 1.4 3-1.2 3.2-3.6.3-7.2.1-10.8.1-1.2 0-2.9-.9-3.6.5-.7 1.5 1.5 1.8 2 3-3 1.7-4.4-.4-4.8-2.7-.5-2.7 1.8-2.5 3.6-2.6 1.2-.1 2.5.3 3.3 0-3.4-.8-7.1 1.2-10.9.1-1.5-1.4-.6-2 .8-2.1 2.8-.2 5.5 0 8.3-.1 1.5-.1 3.2.7 4.7-.9-1.1-1.4-2.9-2.3-4.3-3.5z"/><path class="st11" d="M17.6 217.4c.2.2.3.4.4.7l-1 .2c-1.4.6-4 .8-2.9 3 1 2 2.3-1.3 4.3-.3-1.6 2.3-3.2 4.5-4.8 6.7-.5.6-1.2 1.3-2.1.7-.7-.5-.8-1.3-.6-2.2 1.2-6.4 3.1-12.6 2.8-19.2-.2-4.3 3-6.6 6.3-8 1.9-.8 3.8.4 4.5 2.7-3.3.4-6.9.4-8.1 4.6l-1.1 7.3c-.7 1.8 1.2 2.6 2.3 3.8z"/><path class="st46" d="M15.6 205.1c1.6-4.7 4.6-5.7 8.9-3.6 0 .3 0 .5.1.8.9 1.2 1 2.3-.3 3.3-1.7.6-3.8-.2-5.2 1.4-1.5 1.5-.8 4.3-3.5 5.6-.6-2.8-.7-5.1 0-7.5z"/><path class="st11" d="M39.4 258l1.7-.8c1.3-.6 3.2-.7 2.5-2.8-.7-2-2.3-1.1-3.7-.7-.8.2-1.6.2-2.4.3.9-.6 1.9-1.3 2.8-1.8 1.3-.8 2.7-1.2 3.9.3.9 1.1 1.4 2.2 1 3.6-.5 1.8-1.9 2.1-3.5 2.1-.6-.1-1.5-.2-2.3-.2z"/><path class="st48" d="M23.6 205.2c1.2-.7 1-1.8 1-2.9 1.3.6 2 2.6 4 1.8-3 .9-2.5 4.3-4.4 5.9-1.3-1.4-2-3-.6-4.8z"/><path class="st11" d="M33.5 250.4c-1-1.3-.5-4-3-3.9-2.1.1-1.4 2.2-1.7 3.5-1.8-1.3-1.4-2.7-.2-4.1.8-1 2.1-1 3.2-.6 2.3 1 1.8 3.2 1.7 5.1zm2.1-142c2.4 3.7-.6 4.7-3 6l3-6z"/><path class="st49" d="M37.7 236.3c-.1-3 .8-6-.2-9 2.9 2.9 2.4 5.9.2 9z"/><path class="st11" d="M29.5 261c2.1-1.5 4.5-2.2 7.1-1.9-2 2.2-4.5 2.1-7.1 1.9z"/><path class="st10" d="M61.5 96.4c2.4.4 3.7 2.1 4.8 4-2.2-.5-4.6-1-4.8-4z"/><path class="st22" d="M107.4 51.5l-2.6-4.8c-.7-1.2-1.6-2.5 0-3.4 1.2-.7 2.1.4 2.7 1.5 2.7 4.4 5.4 8.7 8.1 13 .6 1 1.5 1.9.5 3.1-1 1.2-2.3 1.1-3.6.5-4.4-2-8.9-4-14.2-6.4 1.8 4 3.2 6.8 5.3 9.4.9 1.2 1.1 2.3.1 3.5-1.1 1.3-1.7-.1-2.5-.4-1.8-4.6-4.8-8.6-7.4-12.8-.8-1.2-2.2-2.5-.8-3.9 1.2-1.2 2.8-.7 4.2-.1 4.1 1.9 8.2 3.8 12.5 5.8.5-2.6-1.2-3.7-2.3-5z"/><path class="st50" d="M98.1 67.6c.6 1.5 4.2 1.3 2.7 3.8-1.3 2.2-3.2.7-4.7-.3-2.3-1.6-3.9-.4-5.6 1-1.9 1.6-3.2 3.3-1.8 5.9.7 1.3 1.5 2.8 0 4-1.2.9-2.1 0-3.1-.6-1.3-5.3-3.2-10.4-5.3-15.4-.7-1.6-1.4-3.2-.1-4.6 1.6-1.7 3.2-.9 5 0 4.3 2.2 8.2 4.9 12.9 6.2z"/><path class="st51" d="M83.4 82.2c1.5 1.9 1.5 3.5-1 4.5-3.4-4.3-7.4-7.9-11.4-11.7-1.2-1.1-3.1-2.2-1.4-3.9 1.4-1.5 2.6.1 3.7 1.2 3.4 3.3 6.8 6.6 10.1 9.9z"/><path class="st52" d="M335.5 282.1c-3.3 4.4-8 4.1-12.8 4-6.1-.2-12.2-.1-18.3-.1-6.9-1.4-13.9-1.5-20.8 0h-2.1c-1.9-1.5-4.1-.6-6.1-1-1.4-.3-3-1.4-1.9-2.5 3.6-3.6 5.8-8.7 11-10.6 2.1 3.7-2.4 5.3-2.8 8.6 5.1.7 10.2.3 15.7.2-1.3-2.4-3.1-3.9-3.9-6.1-1.5-4.2-2.5-8.7.9-12.2 3.4-3.6 5.9-7 3.6-11.7-.7 1.8-1.5 4.2-2.7 6.3-.6 1.1-1 3.2-3.2 1.7-.6-1.4-.7-3 0-4.3 4.8-8.8 7-18.4 8.6-28.1 1.1-6.6 1.9-13.4 1.2-20.1.3 2.5.1 5 .1 7.5 0 1.1.3 2.6-1.3 2.7-1.5.1-2-.9-1.5-2.4-.7-.1-1.3.5-2 0-1.2-1.6-1.1-3.3-.5-5.1 1.4-1.5 1.4-3 .7-4.9-.8-2.1-1.6-4.3-1.2-6.7 1.9-1.5 1.6-3.3.9-5.3 0-.5.1-.9.3-1.3 1.2-2.2 1-4.4.2-6.6-1-2.7-1.3-5.4-.2-8.1 3-.4 4.2 2.3 6.1 3.7 5.1 3.9 7.7 3.9 12.4-.5 1.3-1.2 2.5-2.2 4.4-1.4.6.4 0 2.6 1.9 1.2 2.1-1.4 4.5-1.3 6.6.1 5.7 3.7 10.9 3 15.6-1.7.3-.3.9-.5 1.3-.6.7-.1 1.2.9 2 .5-.3-.7-.9-1.2-.8-2.1 1.4-2.5 3-2.5 4.4-1-1.2-8.8-5-17.4-7.7-26.5-.4-1.3-.6-2.6.6-3.7 6.5 12.7 9.7 26.3 11.5 40.3 4.3 33.5-2.6 64.9-18.3 94.6-.5 1.3-1.3 2.2-1.9 3.2z"/><path class="st53" d="M344.3 144.3c.1 4.1 1.9 7.7 3.3 11.4 2.7 7 3.8 14.3 5.4 21.5.1.6.2 1.3-1 1.6-1.7-.2.2-8.5-4.7-2.5-.1.5-.4.9-1 1-7.4 7-8.8 7.2-18.4 2.7-3.8-1.8-6.2.3-8.5 3.2-1.8-2.4.5-3.4 1-4.9.3-.4.7-.8 1.2-1 4.3-2 8.4-.2 12.5.9 8.2 1.1 13.9-5.9 11.1-13.6-1.1-3.2-2.4-6.5-3.1-9.9l-.6-2.7c-6.9-18.8-17.5-35.3-31.8-49.4-24.8-25.5-54.8-40.4-90.2-44.2l-1.5-.3c-3.3-.7-6.7-.2-10.1-.3-24.6-1-47.9 4-69.9 15.2-7.4 3.8-13.8 9-20.7 13.6-4.8 2.6-8.8 6-12.3 10.2-.5.5-1 .9-1.6 1.4-10.3 10.4-19.3 21.8-26.3 34.7-5.2 9.4-10 19-13.5 29.2-2.1 6.1.2 11.2 6.2 13.7 2.3 1 4.9.9 7.2 1.7.7.3 1.2.9 1.4 1.6-3.4 4.3-9.9 4.7-13.7.9-.9-.9-1.2-2.4-2.7-2.7-.4-.1-.7-.4-.8-.8-4.8-4-4.7-8.9-2.4-14.1.6-1.4.6-2.9.5-4.4 3.3-13.1 9.3-25.1 16.7-36.3 24.6-37.3 58.7-61 102.9-68 53.5-8.6 99.4 7.4 137.1 46.6 11.1 11.6 19.7 24.9 26.7 39.3.7 1.5 1.5 3 1.6 4.7z"/><path class="st54" d="M384 155.4c.1 3 1.1 5.8 2 8.7.4 1.4.6 2.8-1.2 3.2-1.7.4-2.2-1-2.5-2.4-.5-2.1-.9-4.2-1.5-6.3-.4-1.5-1.5-2.2-3-1.7-1.5.4-2.2 1.4-1.8 3 .5 2.1 1.1 4.2 1.5 6.3.2 1 .1 2.1-1.2 2.3-1.2.2-1.8-.4-2.1-1.5-.5-1.7-1.2-3.4-1.5-5.2-.4-2.1-.8-3.5-3.4-2.7-2.6.8-2.8 2.3-2 4.6.7 2 1.2 4.1 1.7 6.2.2 1-.2 2-1.3 2.4-1.4.5-1.8-.7-2-1.6-1-3.7-2-7.3-2.9-11-.5-2 .8-2.6 2.4-3 4.8-1.3 9.6-2.5 14.3-4 2.6-1 3.4.8 4.5 2.7z"/><path class="st55" d="M143.6 316.2c-1.4 2.6-.2 4.9-.5 7.1-.1 1.1-.3 2.1-1.5 2.2-1.3.1-2.3-.8-2.4-2-.1-4.6-.3-9.3.2-13.9.3-3.1 2.7-2.6 4.2-.7 1.5 1.9 2.6 4.2 3.9 6.2.4.6.9 1.5 1.9 1.2 1-.4.6-1.3.7-2.1.2-2.3-1.6-6.2 1.6-6.2 3.7 0 1.7 4.2 1.9 6.5.3 2.6 0 5.3 0 7.9 0 1.3.2 2.8-1.6 3.2-1.5.3-2.4-.6-3.3-1.7-1.7-2.3-2.4-5.5-5.1-7.7z"/><path class="st56" d="M212.4 325.8c-4.1.7-6.1-.9-5.5-5.4.3-2-.2-4 .1-5.9.4-2.4-2-6.3 2.4-7 4.2-.7 8.9-1 11.5 3.6 2 3.5 1.9 7.4.1 11-1.8 3.2-4.8 4.3-8.6 3.7z"/><path class="st57" d="M368.9 198.4c-1.8-4.1-.9-8.4-1-12.6 0-2.2 2.1-2.4 3.7-2.5 4.4-.4 8.9-.6 13.4-1 2.7-.3 4 .7 4.2 3.5.2 3.1.7 6.3 1 9.4.1 1.1-.3 2.1-1.5 2.2-1.5.2-2.1-.7-2.2-2-.2-2.1-.3-4.3-.4-6.5-.1-2.1-1.1-3-3.2-2.8-2.1.2-2.2 1.6-2.1 3.2.2 2 .4 4 .5 6 .1 1.1-.3 2.1-1.6 2.1-1.2 0-1.7-.9-1.8-2-.1-1.8-.3-3.6-.4-5.5 0-2.2-.9-3.5-3.2-3.5-3 .5-4.2 2-3.3 5.1.5 1.7.7 3.5.5 5.3-.1 1.8-1 2.2-2.6 1.6z"/><path class="st58" d="M225.6 314.8c.1 1.1 0 .8 0 .5-.2-7.4 4.3-10.5 11.5-7.9.8.3 1.6.5 1.6 1.6 0 1.3-1 1.7-2 1.8h-4.9c-1.1.1-2.5.4-2.4 1.9.2 1.3 1.3 1.7 2.6 1.8 2.1.1 5.9-1.3 5.9 1.5 0 3.6-3.9 1.3-6 1.8-1.4.3-2.7.5-2.6 2.3 0 1.6 1 2.4 2.5 2.4.5 0 1-.1 1.5 0 2 .2 5.5-1.6 5.5 1.8 0 2.8-3.4 1.3-5.4 1.7l-2.5.1c-4.8.6-6.2-1.7-5.5-6.1.3-1.3.2-2.5.2-5.2z"/><path class="st59" d="M197.7 362.3c5.3-4.1 8.3-4 13.1.5 2.7 3.6 1.8 6.8-1 9.9l-1.1 1.1c-3.6 2.3-6.9 1.2-10.1-.9v.1c-2.5-3.4-2.1-7-.9-10.7z"/><path class="st15" d="M157.9 316.4v-.5c0-8.6 1.9-10.1 10.6-8.5 1.2.2 2.5.3 2.3 1.9-.1 1.2-1.2 1.3-2.2 1.5-2.3.6-6.5-1.8-6.5 2 0 3.1 4 1.2 6.3 1.6 1 .2 2.1.4 2.1 1.7 0 1.3-1.1 1.6-2.1 1.6-1.3.1-2.6.1-4 .1-1.5 0-2.7.3-2.7 2.1.1 1.7 1.2 2.2 2.7 2.3.5 0 1-.1 1.5 0 1.9.4 5.1-1.3 5.1 1.9-.1 2.8-3.2 1.5-4.9 1.6-8.2.4-8.2.3-8.2-9.3z"/><path class="st60" d="M350.2 120.2c-5.3 0-10.6-6.9-8.7-12 1.7-4.5 5.2-7.6 10-8.8 4.9-1.2 7.7 1.9 10.3 5.3 1.9 2.5 1.5 5.3.3 8-.4 1-1.2 1.6-2.4 1.1-1.1-.4-1.6-1.4-1.1-2.4 2.4-4.5-.2-6.9-3.8-8.5-2.7-1.2-8.7 2.7-9.9 6-1.3 3.5 1.1 6.7 5.5 7.5 1.3.2 3-.2 3 1.7.1 2.2-1.8 2-3.2 2.1z"/><path class="st61" d="M352.4 126.6c-1.4.2-3 .4-3.4-1.2-.4-2.1 1.6-2.1 3-2.3 5.4-.8 10.8-1.4 16.2-2.1 1.4-.2 2.3.4 2.9 1.5.8 1.4.1 2.6-.8 3.6l-10.7 13.1c-.9 1-2 2.2-3.2.7-.9-1.1-.6-2.4.6-3.5 1.7-1.5 3.7-2.7 1.8-5.7-2.4-3.8-2.5-4.2-6.4-4.1z"/><path class="st62" d="M253.3 38.6c.2-4.8 3.9-10.6 7.8-11.8 4.3-1.3 7.8.3 10.4 3.8.7.9 1.1 2 1.5 3.1.3.9.6 2.1-.5 2.6-1.4.7-2.4-.2-2.7-1.3-1-3.5-3.3-5.5-6.9-4.8-3.9.7-4.9 4.1-5.8 7.3-.7 2.5-.1 4.6 2 6.1 2.2 1.6 4.5 2.1 6.8.1 1.3-1.2 2.7-1.8 3.8-.3 1.2 1.8-.8 2.6-1.9 3.4-2.9 2.3-6 2.3-9.2.5-3.5-1.9-5.5-4.6-5.3-8.7z"/><path class="st63" d="M258.3 316.7v-6.5c0-1.5.5-2.7 2.3-2.5 1.4.1 1.9 1.1 1.9 2.4-.1 2.1-.7 4.4 2.8 4.5 3.4.1 3.9-1.7 3.7-4.4-.1-1.2.4-2.4 1.8-2.5 1.6-.1 1.9 1.1 1.9 2.3v13c0 1.2-.3 2.5-1.9 2.4-1.7-.1-2-1.4-2-2.8 0-2 1.2-4.6-2.5-4.7-2.5-.1-4.3.1-3.9 3.4.2 1.7.7 4.2-2 4.2-2.9 0-1.8-2.6-2-4.2-.2-1.5 0-3 0-4.5l-.1-.1z"/><path class="st64" d="M369.2 216.3c.6-1.7 2.2-2.7 3.5-3.3 4.7-2.2 3.2-3.7-.1-5.8-1.8-1.1-5.7-2.4-3.6-5.2 1.3-1.8 3.9 1.1 5.1 2.4 4.5 4.8 8.1 2.9 11.9-.7 1-.9 2.2-2.2 3.4-.9 1.4 1.5-.2 2.6-1.3 3.6-.7.7-1.6 1.2-2.4 1.7-3.1 1.7-2.7 2.9 0 4.8 1.6 1.2 5.4 2.6 3.7 4.8-1.9 2.6-4-.9-5.4-2.2-2.9-2.7-5.4-3.5-8.3-.1-.8.9-2.2 1.3-3.4 2-1.3.3-2.6 1.2-3.1-1.1z"/><path class="st65" d="M370.1 256.1c-.2 0-.4.1-.5 0-2.7-1.6-7.3-2.6-6.6-6.1.7-3.6 5.1-1.2 7.8-1.8 1.5-.4 3.1-.3 4.7-1.4l-8.2-2.5c-1.4-.4-2.5-1.2-2-2.8.5-1.8 1.8-.7 2.8-.4 4.1 1.3 8.4 1.7 12.2 3.8-1.4 1.1-1.4 2 .3 2.7 1.2.5 2.6.2 3.5 1.4-2.7 3-6.4 1.3-9.7 1.8-1.7.3-3.6.1-5.3.1-1 2.5 1.6 2.7 2.2 4-.1.7-.5 1.1-1.2 1.2z"/><path class="st66" d="M25.5 178.4c3.2.5 6.5 1 9.7 1.6 1.2.2 2.3.8 2.1 2.3-.2 1.6-1.6 1.4-2.7 1.3-3.4-.5-6.9-.9-10.3-1.5-2.9-.6-5.4-1-5.4 3.2 0 1.2-.4 2.5-1.9 2.4-1.5-.1-1.7-1.4-1.6-2.6.5-3.9 1-7.8 1.6-11.8.2-1.4.9-2.1 2.3-1.9 1.5.3 1.8 1.4 1.4 2.6-1.8 5.1 2 4.2 4.8 4.4z"/><path class="st67" d="M242.6 316.6v-6c0-1.4.3-2.8 2-2.9 1.8-.1 2 1.3 2.1 2.7 0 1.5.1 3 0 4.5-.4 4.4-.5 8.6 6.1 7.3 1.1-.2 2.4.4 2.3 1.9-.1 1.5-1.3 1.7-2.5 1.7h-.5c-9.3.9-9.4.7-9.5-9.2z"/><path class="st68" d="M386 233.1c-5.3 3.1-11.5 3.6-17.2 5.5-1 .3-2 .4-2.5-.8-.5-1.3.1-2.6 1.3-2.7 4.7-.6 5.4-4.1 6-7.8 1.5-1.8 3.3-1.4 5.1-.6.7.6.7 1.3.1 2-1.6 1.7-.3 2.4 1.1 3 1.8 1.8 4.5-.7 6.1 1.4z"/><path class="st69" d="M377.3 272.1c-.5 2-1.5 2.3-3 1.7l-15.2-5.9c-1.2-.4-2.1-1.2-1.9-2.6.2-1.2 1.3-1.8 2.2-1.4 5.7 2.1 11.3 4.4 16.9 6.7.6.3.8 1.1 1 1.5z"/><path class="st70" d="M177 308.8c1.8 2.2.7 5.4 2.9 7.9 2.1-2.3 1-5.7 3.1-7.8 1 .5.6 2.3 2.1 2.5-.1-1.4-1.6-1.6-2.1-2.5 3.1-2 3.7-2 4.8.9.5 1.2.7 2.5 1.1 3.8.3 1.1.8 2.1 1.3 3.7.7-1.5 1.2-2.5 1.7-3.5 1.4 4 1.4 4-2.6 5.6-1 .4-.2 2.1-1.4 2.6l-1.2-4.1c-.3-1.1-.9-2.5-2-2.5-1.3 0-.9 1.9-1.6 2.7.7-.1-.9.1-.4-.3.1 0 0-.3-.1-.4-1 .8-.7 3.3-3 2.5-1.8-.7-3-2.2-3.3-4-.3-2.4-1.3-4.9.7-7.1z"/><path class="st71" d="M42.5 106.4h14.4c-1.8 1.5-3.2.7-4.6 1-1.6.4-4.2-1.1-4.5 1.5-.2 2.2 1.7 3.4 4 3.3 1.8 1.1 3.7 2 5.4 3.2 1.1.7 3.1 1.5 1.8 3.3-1.2 1.7-2.5.1-3.7-.6-.5-.3-1.2-.5-1.7-.7-2-2.2-4.5-3.7-7.1-4.9-1.2-1.1-2.8-1.5-4.1-2.5-1.5-1.2-2.6-2.5.1-3.6z"/><path class="st72" d="M177 308.8c0 1.6-.1 3.3 0 4.9.2 2.2.9 4.8 3 5.2 2.2.3 1.2-2.9 2.6-4.3.1 1.3.3 2.4.4 3.5-.5 2.8.2 6.8-3.3 7.3-4.2.6-2.7-4-3.7-6.3-1.2-2.6-1.5-5.7-2-8.6-.5-2.4.1-2.7 3-1.7z"/><path class="st73" d="M40.5 114.5c4.5 3.3 9.5 5.9 14.7 8 .8 2.5 1 4.7-2.7 2.9-4.5-2.2-8.9-4.7-13.4-7.1-1.2-.6-2.4-1.4-1.9-3 .6-1.8 2.1-1 3.3-.8z"/><path class="st74" d="M280.6 316.4v7c0 1.3-.7 2.2-2.1 2.1-1.2-.1-1.6-1-1.6-2.1v-13.4c0-1.1.4-2 1.6-2.1 1.5-.2 2.1.9 2.1 2.1v6.4z"/><path class="st64" d="M386 233.1c-1.7-.1-3.2.3-4.8.8-1.5.5-1.6-.5-1.1-1.6 1.5-1.9-1.1-2.8-1-4.3-1.7-1.6-3.6-.7-5.5-.7-.8-2.2-3.2-2.5-4.5-4.1-.7-1.9-.4-2.9 1.8-2l14.2 7.8c2.3 1.1 3.4 2.2.9 4.1z"/><path class="st72" d="M187.8 322c1.2-.6-2.3-5 2.7-3.1 1.1.4 1.5-3.1 1.4-5.1 0-1 0-1.9-.1-2.9-.1-1.6.6-2.5 2.3-2.2 1.7.3 1.4 1.9 1 2.6-1 1.8-.7 3.7-1.1 5.6-1 1.4-.6 3.1-1.3 4.6-.6 1.3-.3 3.2-2.2 3.4-2 .2-1.7-2.1-2.7-2.9z"/><path class="st75" d="M368.9 262.2c-2.2-.5-4.5-1-6.7-1.6-1.2-.3-2.2-.9-1.7-2.4.5-1.4 1.6-1.5 2.8-1 2.2 1 4.9 1 6.8 2.7 1 1.4 2.7.1 3.9 1 .3.5.2.9-.1 1.3-1.6.7-3.3.5-5 0z"/><path class="st76" d="M384.2 249.1c-2.1-.5-4.9 1.5-6-2.3-.9-3 1.5-1.2 2.1-1.8 2.2.5 6.1-.5 3.9 4.1z"/><path class="st77" d="M368.9 198.4c3.7-.9 1.7-3.4 1.6-5.4-.2-3-2-7 3.8-6.6-5.2 2.3-1.8 6.4-2 9.7-.1 3.5-.2 3.8-3.4 2.3z"/><path class="st78" d="M374.2 261c-1.4-.1-3 .6-4-1.2l2.2-.3-2.3-3.5 1.2-1.1c2.1 1.2 4.5 1.7 5.7 4.1-.7 1-1.7 1.7-2.8 2z"/><path class="st79" d="M374.2 261c.1-1.9 1.5-1.9 2.9-2l1.1 1c1 .9 2.8 1.5 1.7 3.3-.9 1.4-2.3 1.5-3.8.7-1-.7-1.5-1.8-1.9-3z"/><path class="st70" d="M187.8 322c2.2 2.5 3.9 3.6 4.4-1.2.1-1.3.4-3 1.8-3.9-.3 1.9-.5 3.9-.9 5.7-.4 1.6-1.1 3.4-3.1 3-2-.2-2.5-1.8-2.2-3.6z"/><path class="st80" d="M198.7 372.9c3.3.6 6.6 2.1 10.1.9-3.7 3.7-7 2.8-10.1-.9z"/><path class="st68" d="M371 221.2c-1.3.1-1.8.8-1.8 2-2.4-2.3-1.1-4.6.1-6.9.8 1.1 2 .8 3.1.9-1.2 1.1-2.1 2.3-1.4 4z"/><path class="st71" d="M65.5 105.5c-.6 3.1-3 1.6-5.5 2.1 1.2-1.6 0-3.7 2.6-4.1.9.6 1.9 1.3 2.9 2z"/><path class="st80" d="M197.7 362.3c-.1 3.6-.4 7.2 1 10.7-3.9-3.2-3.8-6.9-1-10.7zm12.1 10.4c1.8-3.2 2.7-6.4 1-9.9 3.4 3.8 3.1 6.5-1 9.9z"/><path class="st78" d="M374.2 261c1.2.6 2 1.6 1.9 3-2.6 0-4.9-1-7.2-1.9 1.7-.4 3.8.7 5.3-1.1zm1.9 3.1c3.2 0 4.5-1.1 2-4 2.5 0 3.4 1.6 2.5 3.6-1 2.2-2.8 1.7-4.5.4z"/><path class="st81" d="M140.2 221.3c1-1.4 1.3-3.4 3.5-4.1.8 5.8 0 11.1-2.4 16.6-3.9 9.1-6.9 18.7-6 28.9.1.8.1 1.7 0 2.5-.3 2.2.5 5.3-1.8 6.2-1.9.7-2.3-2.9-4.1-3.7-7-6.1-9.4-14.9-13-22.9-1.9-4.4-3.1-9-4.3-13.7-3.1-15.3-2.9-30.6 0-45.9 5.5-21.9 15.4-41.3 32.2-56.6 9.8-8.9 21-15.8 33.9-19.1 21.4-5.5 42.6-5.8 62.9 4.7 14.5 7.5 26.7 17.8 36 31.3l7.1 11.3c.6 1 1.3 2.1.4 3.2-.8.9-1.9.2-2.7-.3-2-1.3-3-.1-3.8 1.5l-1.8 3c-3.9 6-4 6-10.5 3.5-2.5-1-5.3-1.5-7.8-.9-4.7 1.3-9.5 1.2-14.2 1.8-2.9.4-5.4 1.5-7.5 3.5-2.7 2.6-5.7 3.3-9.5 2.9-8.1-.9-16-2.5-23.7-5-13.7-4.4-26.1-1.2-37.7 6.5-4.6 3-8.7 6.6-12.8 10.3-2.4 1.5-4.5 3.3-5.5 6-4.9 6.8-9.1 13.8-10.8 22.1-.6 2.9-2.7 5.3-4 8-.6 1.3-2.1 2.6-.3 3.9 1.4 1 2.8.1 4.1-.8 1.6-1.2 2.1-3.7 4.1-4.7z"/><path class="st82" d="M151.3 235.1c-3.9-10.2-2.5-20.5-.3-30.8-.5-.7-.5-1.4.1-2.1-2.6-1.4-4.5-3-1.7-5.9 4.2-8.5 11.6-13.8 19.3-18.8 10.8-6.9 22.2-8.3 34.3-4.6 5.7 1.7 11.6 2.6 17.3 4.6 3.1 1.9 4.1 4.3 3.4 8.3-1.2 6.6-.5 13.4 1.1 20 .5 2.2 2 3.7 3.7 5 2.7 3.2 5.3 6.3 9.2 8.1 1.4.6 2.4 1.7 2.7 3.3 1.8 9.6 4 19.1 4.7 28.8.3 4.8.1 9.5-2.3 13.9-.1.1-.3.2-.3.4-1.4 4.5-1.5 9.8-7.3 11.6-3.9.8-7-.3-8.8-4.1-.2-3.7 2.2-6.9 2.4-10.5.3-6.4-1.3-12.1-5.8-16.7-2.1-2.1-3.9-4.5-5.2-7.2-.5-.7-.8-2.1-2-.7-3.5 4.2-8.1 4-12.8 3.1-6.2-1.2-12.3-2.4-18.1-5-3.1-1.3-4.8-3.9-6.3-6.7-1.1-2.1-1.8-4.6-4.3-6.3-1.4 4.1.8 7 2.8 9.2 6.2 6.7 6 14.3 4.1 22.3-1.1 4.7-1.2 9.5-1.6 14.3-.4 4.6-2.1 7.4-6.4 8.5-1.3.3-2.5.8-3.8.9-6 .5-6.5-.4-4.9-6.3 2-7.5 3.4-15.4-2.4-21.7-2.9-3.1-5.5-6.4-7.9-9.9-1.7-1.2-2.7-2.9-2.9-5z"/><path class="st83" d="M242.7 265c1.4-13.4 0-26.5-3.5-39.6-.9-3.4-1.7-5.1-4.6-6.5-3.3-1.6-5.6-4.5-7.3-7.8-4.4-7.5-5.4-15.7-4.9-24.1 0-.6.4-1.2.7-1.8 2.3-4.4 2.1-4.8-3-6.4-7.7-1.9-15.3-4.2-23-5.7-17.4-3.4-30.1 5.5-41.7 16.8-2.1 2.1-4 4.3-6 6.5-6.1 2.4-8.2 8.4-9.5 13.6-1.4 5.5-4.2 10.1-6.8 15.3 4.6-1.1 4.5-5.5 6.9-8.8.1 2.1.2 3.5.3 4.9-.8 3.5-2.8 5.9-6.1 7.1-1.7.6-3.3.5-4.5-1-1.1-1.5-.2-2.7.7-4 2.5-3.3 4.3-7.1 5.3-11.1 1.8-7.6 5.6-14.1 10.7-19.9 1.1-2.5 3.5-3.9 5-6.1 6.1-6.7 13.6-11.5 21.6-15.5 9.9-5 20.1-5.3 30.4-2 8.1 2.6 16.3 4.1 24.8 5 2.6.3 4.9-.1 6.6-2.4.5-.6 1.2-1.2 1.9-1.6 6.2-4.4 25.4-5.7 32.1-1.9 2 1.1 3.2 1.1 4.4-1.1 1.3-2.3 2.9-4.4 4.4-6.6 1.3-1.6 2.6-2.2 4.7-.8 5.3 3.5 7.3 9.6 4.8 15-2.4 2.8-1.6 5.2.6 7.8 3.2 3.9 6.9 7.5 8.7 12.4.3.9.3 1.8.2 2.7.9 2.9 1.9 5.8 2.8 8.8.6 1.9 0 2.8-2.1 2.2-.2 0-.4 0-.5-.1-5.2-8.8-11.4-17-17.2-25.3-2.5-3.6-3-7.7.5-11.4.7-.7 1.2-1.6.7-2.7-5.4 4.8-6.1 8.2-2.2 13.9 4 5.9 8.3 11.6 11.6 17.9 2.1 3.9 4.5 7.9 3.2 12.7-2.7 4.2-5.6 5.4-11.1 3.6-3.4-1.1-6.1-.4-8.9 1.2-1.1.6-2.8 1-2.8 2.5 0 1.6 1.6 2 2.7 2.6 7.8 4 16.2 1.7 20.9-5.6.5-.8.9-1.8 1.6-2.5.5-.6 1.2-.9 1.9-.9 2.8-3 1.3 1.9 3.2 1.3 1.3-1.8.3-4.3.6-6.6.2-2.2-1.8-4.4-.6-6.7.9-.1 1.4.5 1.4 1.1 0 7.9.9 15.9-.7 23.8-1.9 9.6-4 19.1-8.7 27.9-.6 1.2-.2 2.9-.3 4.4-.8 5.4-2.7 10.1-7.8 12.8-4.1 3.1-7 7.3-10.7 10.9 1.8 2.7 6.2-1.2 7.4 2.9h-24.5c2.6-2.8 5.4-3.1 8.2-2.8 4.2.4 7.4-1.1 10-4.2 11.9-14.1 20.3-29.9 23.2-48.3.5-3.3 2.9-6.4 0-10.1l-3.9 6c.9 2.6-1.4 3.1-2.8 3.9-8.4 4.6-16.7 3.6-24.4-1.6-3.2-2.2-6.3-3.4-10.2-2.5-2.3.6-4.6-.2-6.9-.7-3.3-.7-4.5.5-3.2 3.7 1.8 4.5 2 9.4 3.2 14.1.4 1.6.8 3.3-.6 4.7.3 7.6 2.9 14.4 7 20.7 4.6 7 4.3 8.7-2.5 13.3-1.9 1.3-1.9 1.3-.9 3.7h-15.2c4-2.9 7.6-.4 11.1-1.9-1.6-1.3-3.1-2.5-3.2-4.3-.1-1.6 1.1-.4 1.7-.4 2.2.6 4.3.7 5.8-1.4.4-.5.8-1 1.1-1.5.2-3.2-3-1.8-4.1-3-1-.1-2.4.2-2.6-1.3-.3-2 2.4-1.3 2.7-2.8-.6-1.2-.5-2.5-.8-3.8-.2-.5-.2-1.5-.9-1.5s-.3 1-.5 1.5c-.2.9-.7 1.6-1.6 1.9-3.2 1-1 5.4-4 6.4v-8.9z"/><path class="st81" d="M249.7 248c-1.3-6.4-1.4-13.1-4.5-19.1-.7-1.4-1.3-2.9-.4-4.3 1.1-1.7 2.9-1 4.5-.7 3.9.9 7.8 1.7 11.7.3 2.3-.8 3.6.9 5.2 2.2 8.9 7.1 21.1 7.1 28.3 0 1.8-.6 3.7-1.6 3.1 1.9-3.4 19.4-11.6 36.5-24.9 51.1-3.2 3.6-7.5 1.8-11.2 1.9-1.5 0-1.1-2-.8-3.3 1.1-3.5 0-6.3-2.3-9.1-4.7-6.2-5.7-14-8.7-20.9z"/><path class="st84" d="M64.2 242c-2.3 1.4-2.8 0-3.2-1.9-3-14.1-4.7-28.4-3.9-42.9.1-2.5.4-3.8 3.6-3.6 4.5.3 7-2.7 6.3-7.3-.6-3.7 1.6-3.1 3.4-2.7 4.5 1 5.4 3.6 3.4 7.9-.3.6-.5 1.3-.5 1.9.3 3.7 4.2 7.2.7 11.3-.5.5 1.7 2.5 3.1 2.8 3.4.6 4.2 2.6 4.2 5.6 0 1.6-.3 3.8 2 3.9 2.6.1 2-2.3 1.8-3.8-.8-6.2 4.8-9.6 6.3-14.8.5-1.6 1-3.1.4-4.8-1.2-3.5 1-4.3 3.7-4.8 3.4-.7 4 1.5 4 4s1 4.4 2.7 6.1c1.9 1.7 4.4 3 3.5 6.3-.8 2.9-.6 5.6-5.2 3.1-4.2-2.3-4.2 2.3-5.3 4.8-1.1 2-2.1 4.1-3.3 6-2.7 4.3-3.1 8.6.2 12.8.7.9 1.7 1.8 1 3-.8 1.3-2 .2-3.1.2-9.1-.1-18.1.9-25.8 6.9z"/><path class="st85" d="M220.7 273.9c-1.6 1.3-1.7 3-.5 4.4 2.4 2.7.7 3-1.6 3-9.6 0-19.2-.1-28.9 0-2.7 0-3.9-.8-4-3.7 0-2.2-1.1-4.2-2.8-5.6-2-2.1-1.5-4.6-1.1-7 1-5.5 1.8-11.1 2.7-16.7.8-5 3.2-7 8.3-6.1 7 1.3 14 2.2 21.2 1 1.5-.2 2.9.4 4.2 1.3 9.5 6.3 10.8 21.2 2.5 29.4z"/><path class="st86" d="M220.7 273.9c.5-1.2.7-2.6 1.4-3.7 5.4-8.9 3.2-16.7-3.4-23.9-1.5-1.6-2.9-2.6-5.1-1.9-6.6 2.2-13.1.6-19.5-.9-5.8-1.3-7.7-.1-8.3 5.7-.7 7.6-2.8 15-2.8 22.7.2 2.8 2 5.4 1.4 8.3-1.7.1-1.9-.9-2.1-1.6-1.1-4.6-4-3.6-5.2-.9-2.5 5.5-2.8 0-4-.5-1.6-1.9-.2-2.2 1.3-2.2 2.1 0 3.6-.9 3.7-3.1.2-9.3 2.3-18.4 3.1-27.6.3-3-.4-5.5-2.6-7.6-2.8-2.9-4.6-6.4-6.2-10.1-.8-2-1.6-4.6.8-5.8 2.7-1.3 3.5 1.5 4.4 3.4 1.9 4 3.5 8.3 7.4 10.9 6.9 3 13.9 5.3 21.6 5.6 3.3.1 6.6-.1 9.1-2.8 1.1-1.2 2.3-1.2 3.2.3l5.5 7c6 7.3 7.9 15.3 3.7 24.2-.6 1.2-.7 2.5-1.1 3.8-.5 2.3.9 3.1 2.7 3.9 1.5.6 3.7.2 4.2 2.5.9 1.8 3.4 1 4.8 2.9-5.4 1.6-9.6 0-13.5-3.2-1.9-1.6-5.4-1.6-4.5-5.4z"/><path class="st87" d="M152.8 242.3c4.3 5.2 4.6 9.9-.8 14.9-3.2 2.9-1.4 6.8.3 10.1.7 1.5 1.9 2.7 2.8 4.1 1.6 2.3 1.2 3.9-1.8 3.6-3.3-.3-6.6.1-9.8.5-3.2.4-4.6-1.3-4-4.5 1.6-9.2.7-18.8 3.7-27.8-.6-2.8.9-4.6 3.4-4.7 2.6-.3 5.4.3 6.2 3.8z"/><path class="st88" d="M95.3 269c3.6-2.9 6.5-7.2 12.3-6.2 2.9.5 5.2 1.5 6.4 4 1.1 2.4 0 4.6-1.8 6.7-6.4 7.3-14.7 8.6-23.5 7.2-6.3-1-9.2-8.8-6-14.3.6-1.1.9-2.7 2.8-2.2 1.3.3 1.7 1.4 2 2.5.6 1.9.2 4.4 2.9 5.3 2.4.4 3-2.4 4.9-3z"/><path class="st13" d="M113.5 232.1c3.7 12.6 8.8 24.6 15.9 35.7.6 4 3.4 6.8 5.5 10-.8 1.5-2-.2-2.9.4-3.1-.1-4.5-2.6-5.9-4.7-3.5-5.4-8-10.4-8.8-17.3.1-6.1-2.5-11.2-6-16l-.6-.6c-3.4-9.3-3.1-19.1-4.6-28.7-.5-3.3.1-6.6.9-9.8.3-1.1.5-2.7 1.8-2.6 1.7 0 1.4 1.9 1.8 3 .4 1-.2 1.9-.2 2.9-.5 9.4.4 18.6 3.1 27.7z"/><path class="st89" d="M117.2 256.2c4.3 7.8 8 15.9 14.7 22 1.8 2.8 1.5 4.1-2.3 3.8-4.1-.3-8.3-.1-12.4-.2-1.4 0-3.3 1.1-4-.8-.5-1.5 1.3-2.1 2.1-3 5.9-6.2 5.4-13.5-1.3-18.3-1.2-.9-3.6-1.1-2.2-3.5.8-1.3.7-3.8 2.7-3.7 2.3-.1 1.3 2.7 2.7 3.7z"/><path class="st83" d="M152.8 242.3c-5.5-4.3-6.9-4.2-9.7.9-3.6 4.2-3.5 9.4-3.8 14.4-.3 5.6 0 11.2-1.6 16.7-1.8-.5-1.6-2.1-1.4-3.3 1.7-9.9-.2-20.3 3.9-29.8.7-1.5 1.6-2.9 1.9-4.5.4-2.4.6-1.4 1.6-.2s2.2 0 2.9-.8c.8-.7.9-2.4.1-2.7-3.4-1.3-1.7-3.9-1.4-5.8 1-6 .9-12.1.9-18.2 2.5 0 1.9 1.6 1.9 2.5.1 5.6 0 11.3 0 17 0 2.7.3 5.4 3.2 6.7 1.7 1.3 2.3 3.2 2.8 5.2-.1.8-.4 1.5-1.3 1.9z"/><path class="st90" d="M77.3 275.3l1.4 3.1c.5 1.1 2 2.4.1 3.3-1.5.7-2.3-.7-3-1.9-5.7-9.9-9.4-20.7-12.9-31.6-.3-.8-.7-1.8 0-2.3 1-.7 2 0 2.5.8 1.5 2.3 2.9 4.8 4.4 7.2 2 3.2 3.3 6.9 7.3 8.3 1 1.8.4 3.4-.4 5.1-1.2 2.7-.9 5.4.6 8z"/><path class="st91" d="M77.4 256.4c-1.3-1.8-2.6-3.6-3.8-5.3 0-.3 0-.7-.1-1-3.2-6.7-3-7 4.5-8.7 4-.9 8.1-1.3 12.3-1.2 3.3.1 5.4 1.3 5.2 5-1.2.5-1.8-.4-2.6-1-2-1.5-3.3-1-4.2 1.2-.4.2-.8.3-1.3.3-.8-.1-1.6-.4-2.4-.6-3.8-.7-4.5.3-3.2 3.9l1.3 2.7c.6 1.5 1.6 2.8 1.2 4.5-2.2 5.4-4.6 1.3-6.9.2z"/><path class="st92" d="M95.3 213.2c.4-6.2 1.9-7 8.4-4.5 1-3.4 2.5-6.8-2.4-8.6 4.5-1 5.5-.4 5.4 3.8-.3 12.3 1.3 24.4 4.5 36.2-.2.9.1 2.8-.7 2.6-3.3-.7-5.6-3.3-8.2-5.2-1.7-1.2-.5-3 .3-4.5 3.4-6.3 3.2-12.7.6-19.1-.8-2-1.1-5-3.9-5.2-2.7-.2-2.4 3.2-4 4.5z"/><path class="st93" d="M95.2 256.1c3.5 3.2 1.3 6-1.5 7.2-3.7 1.6-2.4-3.2-4.2-4.4l-.6-.4c-1.1-1.4-1.7-3.1-2.5-4.8-.5-1.2-1.1-2.5-.1-3.7 1.2-1.3 2.7-.8 4 0 1.9 1.9 4.3 3.3 4.9 6.1z"/><path class="st94" d="M103.2 244.1c2.3 1.8 5 3.1 5.1 6.4.1 3.3-2.6 4.7-5 6.2-.3.2-1.4-.5-1.5-.9-.9-3.4-.9-6.9-.2-10.3.2-.6 1-.9 1.6-1.4z"/><path class="st13" d="M95.2 256.1c-2.2-1-3.4-3-5-4.7-1.2-2.9-4.4-2.1-6.5-3.4-1-.6-2.9-.4-2.6-2.2.4-2 2.1-1.6 3.5-1.3.9.2 2-.1 2.8.5.3 0 .6 0 .9-.1 2.1-.1 3.5.8 4.1 2.9.5 2.9 5.7 4.3 2.8 8.3zm.1 12.9c-2.4 5.1-2.4 5.1-5 3.1-.7-3.6-2.4-7.6 4.3-6.6 1.1.2 1.1-4.2 3-2.7 2.1 1.8-1.4 3-1.9 4.8-.2.5-.3 1-.4 1.4zm-1.6 16c-.8 0-1.7.1-2.5 0-1.8-.3-5.1 1-5.1-1.1-.1-2.9 3.3-2 5.2-1.7 3 .4 5.8 0 8.7-.1.8 0 2.2-.5 2.4.9.1 1.4-1 2-2.3 2h-6.4z"/><path class="st95" d="M161.3 262.6c-.6 1.7.8 4.8-1.7 4.8-2.6 0-3.6-3.3-3.9-5.5-.3-2.4 1.7-5 3.8-4.8 2.5.3 1.4 3.5 1.8 5.5z"/><path class="st83" d="M283.6 285.9c-.2-.7-.8-1.8.6-1.8 6.3-.1 12.5 0 18.8.1.9 0 1.3.9 1.4 1.8-7-.1-13.9-.1-20.8-.1z"/><path class="st96" d="M99.4 229.2c-4.2.9-5.6-1.5-4-6.9.9-1.4 1.7-3.1 3.7-2.3 1.8.7 2 2.4 1.5 4.1-.4 1.6-.2 3.5-1.2 5.1z"/><path class="st97" d="M152.7 282.1h-4.4c-1.1 0-2.7.2-2.6-1.4 0-1.3 1.5-1.5 2.6-1.8 3.5-.9 6.9 2 10.5.1.4-.2 1.1.5 1.2 1.3 0 1-.5 1.6-1.4 1.7-2 .1-3.9 0-5.9 0v.1z"/><path class="st13" d="M84.2 256.1c-1.3-1-1.7-2.4-1.9-3.9-.5-1.6-1.5-3.6.6-4.3 2.4-.8 2.1 1.7 2.7 3.2 1 2.8 2.7 5.3 4 7.9v-.1c-.1 1.4-.2 2.9-.4 4.9-2.6-2.5-2.1-6.2-5-7.7z"/><path class="st98" d="M92.4 247.8l-4.1-2.9c-.5-2.4-.9-4.4 2.9-3.1 2 .6 2.8 2.1 4.1 3.2.4 1 1.4 2 .2 3.1-1.1 1.2-2-.4-3.1-.3z"/><path class="st99" d="M233.8 279.5c-2-.6-4.2-.9-6-1.8-1.7-.9-4.9-2.3-.8-4.5 2 2.8 5.5 2.5 8.2 3.8 1.3 1.5 1.3 1.5-1.4 2.5z"/><path class="st100" d="M99.4 229.2c.1-1.5 0-3 .2-4.4.3-1.4 1.1-3-.5-4-1.7-1.2-2.4 1.1-3.7 1.4.1-2.2 1.3-4.1 3.5-3.8 2.3.3 2.4 2.7 2.4 4.7-.1 2.2.7 4.7-1.9 6.1z"/><path class="st101" d="M254.6 278c-2 2.4-4 4.6-6.9 1-.1-2.2-.3-4.6 2.7-5.3.2.1.4.3.5.4-.9 3.4 2.1 3 3.7 3.9z"/><path class="st102" d="M250.7 265c.7 1.3.7 2.6-.1 3.9-1.6.1-3.2.2-3.9-1.8l1.1-2.1c.9-1.9 1.9-1.2 2.9 0z"/><path class="st101" d="M250.5 273c2-1 3.9-.8 5.4.7 1 .9 1.5 2.3-.4 3.1-1.4-1.1-3.2-1.6-4.6-2.6l-.5-.6c.1-.1.1-.3.1-.6z"/><path class="st83" d="M151 202.2c.5.7.5 1.4-.1 2.1-.6.7-1.3 1.5-2.5 2.9-.3-3-1-5 2.6-5z"/><path class="st103" d="M321.2 178.1c-.3 0-.6.1-.8.2-1.4-.2-2.5.4-3.5 1.4-5.1 5.6-9.3 5.8-14.8.8l-4.7-4.3c-1.8-1.6-2.7-3.8-3.5-6-5.6-15.7-15-29.1-26.6-40.5-16.2-15.8-35.3-25.9-58.9-26.3-15.6-.2-30.5 2.1-44.4 8.8-18.6 8.8-32.2 23.1-42 41-4 7.3-7.6 14.8-10 22.8-1.2 2-2.9 3.6-4.6 5.1-5 4.5-7.9 4.8-13.9 1.9-1.2-.6-2.3-1.4-3.7-1l-2.7.8c-1.5.1-2.8-.2-3.5-1.8-.7-3.5-3.4-1.4-5.2-1.9l-.9-.7c.9-1.3 2.2-1.3 3.6-1.5 8.3.7 8.2.6 10.9-7.7 13.1-39.7 38.7-67.9 79-79.7 43.7-12.8 82.5-2 115 30.1 14.3 14.1 24.3 31 30.7 50 .9 2.7 2.1 5.2 4.4 7.1.5.5.5 1 .1 1.4z"/><path class="st12" d="M89.2 181.2c1.2-1 2.2-.8 3.5-.1 7.4 4.2 9.6 3.9 15.7-2.3l2.8-2.7c2.8 5.4-.9 10.1-1.3 15 1.5-1.9-.5-6 3.6-6.8-.7 6.1-1.5 12.1-2.1 18.2-.9 10 .7 19.8 2 29.6-3.8-9-4.7-18.3-3.9-27.9.2-1.9.4-3.5-1-5.3-2.5 12.4.1 24.1 2.4 35.8.3 1.8.2 3.6.3 5.4-3.5-6.4-3.6-13.6-4.7-20.5-.8-4.8-.6-9.9-.3-14.9.3-4-1.3-5.1-4.8-4.6-1.5-2.3-4.1-4-3.2-7.3.4-1.6.9-3.7-1.8-3.4-2.1.2-4.6.7-4 3.8.4 2 1.1 3.9-.9 5.3-.4-8.6-.4-8.6 8.2-11.1-3.2-1.5-3.2-1.5-12.4 1.8-.3-2 .9-3.4 1.8-4.9 2.9-.9.4-2.1.1-3.1z"/><path class="st104" d="M89.2 184.3c.8 2.2-1.2 3.3-1.9 4.9-2.2.7-4.5 2.4-6-1.2-1.3-3.1-1.4-5.6 2.4-6.9l3.3 1.1c1.3.1 2 .8 2.2 2.1z"/><path class="st105" d="M89.3 195.5c-.1 1.4-1 2-2.3 2-1.1 0-1.7-.8-1.8-1.8-.1-1.3.6-2.2 1.9-2.3 1.3 0 2 .9 2.2 2.1z"/><path class="st106" d="M79 196c-1.1-.3-1.9-.8-1.8-2 .1-1.1.7-1.9 1.9-1.7 1.1.2 1.8 1 1.8 2 .1 1.2-.8 1.6-1.9 1.7z"/><path class="st107" d="M62.1 187.4c-.2.9-.7 1.5-1.6 1.5-1.2 0-1.7-.8-1.7-1.9.1-.9.6-1.5 1.6-1.4 1.2 0 1.7.8 1.7 1.8z"/><path class="st108" d="M61.3 176.6c.3.3.5.6.8.8.1 1.5-.2 2.7-2.1 2.5-.5-.1-1.2-.8-1.2-1.3-.1-1.7.9-2.3 2.5-2z"/><path class="st109" d="M303.2 55.7c-2.9-.2-5.5-1.2-5.8-4.2-.2-1.6 1.2-3.5 3.3-3.7 1.2-.2 6.7 4.7 6.4 5.7-.6 1.8-2.3 2.1-3.9 2.2z"/><path class="st110" d="M328 337.8c-.7 3-2.2 5.7-6.3 5.9-4 .2-8.6-4.6-8.4-8.8.2-4 2.8-5.9 6.5-6.1 3.9-.3 8.3 4.5 8.2 9z"/><path class="st111" d="M108.3 347.9c-.1 4.2-4.4 8.8-8.2 8.3-3.6-.4-6.1-2.4-6.1-6.4 0-3.8 4.4-8.5 7.7-8.5 3.5 0 6.6 3.1 6.6 6.6z"/><path class="st112" d="M193.3 34.3c-3.8.1-6.7-3.5-6.6-8.2 0-4.4 2.5-7.2 6.3-7.3 4-.1 6.9 3.2 6.9 7.9.1 4.5-2.6 7.6-6.6 7.6z"/><path class="st113" d="M223.5 26.9c-.1 4.5-3 7.9-6.7 7.9s-6.8-3.5-6.7-7.8c.1-4.3 3.2-8 6.7-7.9 3.8.1 6.8 3.7 6.7 7.8z"/><path class="st114" d="M354.7 303.3c-2-.4-4.5.7-5.4-1.9-.2-.6.9-2.2 1.4-2.3 2.6-.2 3.3 2 4 4.2z"/><path class="st11" d="M42.5 106.4c-1.7 1.1-.9 2.1.1 3l3.7 3c-1.4-.6-2.8-1.1-4.1-1.7-1.4-.6-2.6-1.3-1.9-3.3.6-1.8 1.3-3 3.3-3h12.1c-1.3-1.6-2.2-2.8-3.2-4.1 2.7.6 4.3 2.8 7.4 4.4-6.3 2-12.1-.7-17.4 1.7z"/><path class="st115" d="M65.6 82.7c3.8.6 6.4 2.8 8.2 5.9 1.6 2.6-.2 4.5-1.6 6.7-2 3-3.6 2.8-5.8.4-1.3-1.5-3.1-2.6-4.3-4.1-1.1-1.4-4.2-2-2.4-4.6 1.4-2.1 3.2-4 5.9-4.3z"/><path class="st116" d="M26.9 238.4c-4.2.3-6.3-2.3-6.8-6.1-.5-3.9 3.5-7 8.5-6.9 4.3 0 7 2.6 6.9 6.6-.1 4-3.3 6.4-8.6 6.4z"/><path class="st117" d="M23.6 205.2l.6 4.8c.1 3.1-1.3 4.5-4.4 4.1-3.6-2.6-2.3-5.7-.9-8.8 1.5-2 3.1-1.2 4.7-.1z"/><path class="st48" d="M18.9 205.3c-.1 3-1.6 6.1.9 8.8-1.3.5-2.4-1.2-3.7-.3-.4 1.6 1.3 2.2 1.5 3.5-1.8.4-2.6-.8-2.6-2.1 0-3.4-1.2-6.9.6-10.1v6.8c1.7-2.7.7-5.6 3.3-6.6z"/><path class="st118" d="M89.9 68.4c-.4 1.4-1.4 2.6-2.7 2.7-2.2.1-2.1-2.2-2.7-3.6-.4-1-.1-2.1 1.4-1.7 1.6.3 3.1 1 4 2.6z"/><path class="st13" d="M113.5 184.3c-2.3 1.9-2.3 4.6-2.3 7.2 0 .9.2 2.1-1.3 2.1-.6 0-1.5.4-1.9.1-1-.9-.1-1.8.3-2.6 2.4-4.7 2.6-9.8 2.8-15 4.6-17 13.2-31.8 25.1-44.8 10.3-11.2 22.6-19.7 37.1-24.3 16.1-5.1 32.6-6.3 49.5-3.1 17.5 3.3 32.1 12.1 44.5 24.2 12 11.7 21.9 25.1 27.5 41.3.8 2.3 2.8 4.1 2.6 6.8.7 3.3.8 6.6 1.8 9.9.5 1.6 1.2 4.5-2 5.2l-.5-.6c-1.4-5.7-2.8-11.4-5.4-16.7-4.1-9.7-7.8-19.6-14.9-27.7-13.3-17.7-29.5-31.6-51.4-36.6-27.7-6.3-53.7-1.6-76.1 16.6-18 14.6-28.9 33.9-34.7 56.3-.1.6-.4 1.2-.7 1.7z"/><path class="st119" d="M328.4 215.2c.2-4.4.6-8.5 6.1-9.8 1.8-.4 2.5-2.7 1.1-4.1-2.4-2.3-1.4-3.8.4-5.8 1.8-2.1 1.2-4.3-.5-6.3-.9-1-2.1-2.1-.7-3.3 1.6-1.4 3.6-2.7 5.8-2.4 2.5.4 1 2.3 1 3.6.1 4.2 2.5 6.6 6.5 6.6 3.4 0 3.7 1.4 3.8 4.2.4 13-.8 25.8-3.6 38.5-.8 3.4-1.7 3.9-5 2.5-6.9-3-14-5-21.7-3.4-.8.2-1.7.4-2.3-.3-.9-1-.1-2 .5-2.6 4.6-5 3.4-9.7-.2-14.6-1.5-2.1-2.4-4.7-3.7-7-.6-1.2-1.2-2.6-2.7-2.5-1.4.1-2.2 1.3-2.8 2.6-3.4 7-4.8 14.3-.7 21.4 2 3.6 1.2 5.6-2.1 7-3.2 1.3-4.9 4.3-7.4 6.1-1.1-.8-1-1.6-.8-2.4 4.2-12.8 5.5-25.9 4.3-39.3-.3-2.7 1-3.4 3-4.2 3.2-1.1 4.7-3.6 4.4-6.9-.1-1.4-1.5-3.1.9-3.5 2-.3 4.5.5 4.9 2.6 1.1 5.8 4.7 10.2 7.6 15 1.7 2.8-.4 6.3 1 9.3 2.1 3.4 2.5 7.1 1.6 11-.7 2.6.2 3.7 2.9 3.7 3.4 0 6.8 1.4 10.3.2 2.2-.8 4-1.8 4.2-4.3.5-4.7 1.8-9.1 3.2-13.5.9-2.9.7-5.9.2-8.9-.2-1.4-1-2.5-2.4-2.9-1.7-.5-2.4.8-3 2-2.5 4.7-8.2 6.7-10 12-.9 1.7-3 1.8-4.1-.3z"/><path class="st120" d="M328.4 215.2c1.7 1 3.4 1.1 3.8-1.2.5-3.3 2.5-5.1 5.2-6.6 1.8-1 3.4-2.6 4-4.9.4-1.5.9-3.6 3.2-3 2.1.6 4.4 1.7 4.5 4.1.2 3.8.8 7.6-.7 11.3-1.5 3.8-2.7 7.7-2.5 11.9.1 2.3-1.3 4.4-3.5 5-3 .8-5.9 1.2-9.2 1-6.3-.4-10.2-1.3-7.1-9 .9-2.2-1.3-4.9-.9-7.6l3.2-1z"/><path class="st121" d="M317.4 281.1c-7.5.1-13.4-2.8-17.7-8.9-2.5-3.5-1.4-7.1 2.6-8.7 5.5-2.2 11.8.4 14.9 6.3.9 1.8 1.5 4.1 3.8 3.9 2.4-.2 2.2-3 3.2-4.6 1.1-1.7.6-5.5 3.8-4.5 2.8.9 3.7 4 3.1 7.2-1.2 6.3-6 9.5-13.7 9.3z"/><path class="st122" d="M284.8 272.1c3.4-3.8 5.8-8.2 7.8-12.8 2.9-3.2 2.9-8 5.7-11.5 1.2 2.8.4 6 2.4 8.6 1 1.3-1 2.1-2 2.9-7.4 5.9-7.7 12.6-.9 19.3.8.8 2.7 1.3 1.8 3-.6 1.2-2.1.6-3.2.6l-14.9.1c-1 0-2.1.3-2.6-.8-.6-1.1.4-1.8 1-2.6 1.9-2.1 4.1-3.9 4.9-6.8z"/><path class="st123" d="M297.6 214.1c-.4.2-.7.4-1.1.7-.8-1.9-2.6-1.5-4.1-1.8-.4-9.9-6.5-17.1-11.7-24.7-1.2-1.8-2.7-3.4-3.8-5.2-3.5-5.6-2.5-12.3 2.4-16.5.8-.7 1.7-1.2 2.6-.3 1.2 1.2 1.5 3.1.4 4.1-7.5 6.9-2.2 12 2.1 17.4 5.1 6.3 9.7 13 12.6 20.6.3 1.9.4 3.8.6 5.7z"/><path class="st124" d="M295.6 195.1c-2.7-5.2-6.9-9.3-10.3-13.9-1.8-2.4-2.5-4.7.3-6.8 2.5-.5 1.7-5.2 4.5-4.2 1.6.5 1.4 3.8 2.6 5.5.4.5-.1-.1.2.5 2.3 4.8 3.6 9.9 4.5 15.2-.2.3-.2.6.1.9.9 1.9.3 2.9-1.9 2.8z"/><path class="st125" d="M334.4 242c2.4.9 6.1 1.1 7 2.8 1.1 2.1-2.4 4.1-3.3 6.6-.9 2.7-2.5 5-4.9 6.6-.9.7-2.1 1.4-3.2.7-1.3-.9-1.1-2.3-.6-3.6 1.2-3.4 2.6-6.7 3.9-10.1-.7-1.4-1.3-2.8 1.1-3z"/><path class="st126" d="M334.4 242c-1.2.7-1.1 1.9-1.1 3-4.3-3-8-1.3-11.7 1.2-1.2.8-2.7 3.2-3.9 1.1-1.1-1.8-1.3-5.1 1.5-5.9 5-1.5 10.3-2.7 15.2.6z"/><path class="st127" d="M311.5 250.3c-1.1 2 1.4 5.9-2.1 5.9-2.4 0-6.1-2-5.8-5.5.3-3.3 3.4-6 6.2-6 3.3 0 .6 3.7 1.7 5.6z"/><path class="st128" d="M311.5 223.1c0-2.2.8-4.6 2.2-4.3 3.7.8 3.9 4.5 4.4 7.5.3 2-1.3 4-3.1 3.6-4-.7-2.3-4.8-3.5-6.8z"/><path class="st129" d="M325.5 188.9c-2.6-.8-4.4-1.9-4.2-4.6.2-2.6 1.9-4 4.3-3.8 1.7.2 4 1 3.6 3.3-.4 2.2-1.5 4.3-3.7 5.1z"/><path class="st130" d="M319.5 258.2c-.8-.1-2.8.2-1.9-1.4 1.4-2.8 4-4.8 6.8-6.2.7-.4 1 .7 1 1.3.2 2.6-3.2 6.4-5.9 6.3z"/><path class="st131" d="M340.4 261.2c-.6 1.1-1.3 2.2-1.8 3.4-.5 1.3-.2 3.1-2.2 3.3-.8.1-1-.7-1.2-1.3-.4-1.7-1.4-3.5.7-4.8.8-.5 1.5-1.2 2.3-1.8 1.3-.6 2.3-.7 2.2 1.2z"/><path class="st132" d="M331 190.6c1.2.1 1.9.7 2 1.9 0 1.3-.8 2.2-2.1 2.3-1.3.2-1.7-.8-1.8-1.8-.1-1.4.6-2.2 1.9-2.4z"/><path class="st133" d="M350.2 187.3c-.1 1.2-.8 1.8-2 1.8-1.1-.1-1.9-.6-1.7-1.8.2-1 .8-1.9 1.9-1.8 1.3-.1 1.8.7 1.8 1.8z"/><path class="st134" d="M346.3 177.3c.3-.3.6-.7 1-1 1.2.3 2.7.1 2.8 2 0 1-.6 1.5-1.5 1.6-1.9.1-1.9-1.4-2.3-2.6z"/><path class="st135" d="M295.6 195.1c1.5-.4 1.7-1.6 1.9-2.8 1.4 2 4.4 4.3-.9 5.1-.9-.6-1.2-1.4-1-2.3z"/><path class="st136" d="M306 193.3c.2 1.5-.5 2-1.4 2-1.4.1-2.1-.7-2.2-2-.1-.9.3-1.7 1.3-1.6 1.3 0 2.1.7 2.3 1.6z"/><path class="st137" d="M321.5 262.9c0 .9-.3 1.7-1.4 1.7-1.3 0-2.2-.7-2.3-2.1-.1-1.4.8-1.6 1.9-1.5 1.2 0 1.9.7 1.8 1.9z"/><path class="st138" d="M340.4 261.2l-2.2-1.2c1-1.2 1.6-2.8 3.4-3.5 1 2-.1 3.4-1.2 4.7z"/><path class="st139" d="M322.9 192.3c1 .3 1.8.8 1.7 2-.1.9-.8 1.5-1.7 1.4-1-.1-1.8-.7-1.7-1.9.2-.9.8-1.4 1.7-1.5z"/><path class="st140" d="M342.4 152.3c.9.4 1.1 1.2.8 2.1-1.5 3.9 1.5 6.9 2 10.4.6 3.6 1 6.7-2.1 9.5-4.7 4.2-9.8 2.8-11.3-3.2-3.4-13.8-11-25.8-17.5-38.2-.9-1.7-2.7-2.9-4.1-4.3-2.2-2.5-4.8-4.7-6.4-7.7-1.5-2.8-3.3-5.3-5.5-7.5-.3-.3-.6-.7-.8-1.1-2.2-3.1-5.3-5.1-8.5-7.1-1.4-.9-2.4-2-3.5-3.2-4.9-5.8-11-9.9-18-12.7-12.1-5.9-24.5-11.1-37.7-14.1-16.6-3.8-33.2-3-49.9-.4-14.8 2.3-28.4 8-41.2 15.5-13.2 7.8-24.4 18.2-34.6 29.8-3.6 2.9-6.5 6.3-8.1 10.7-.2.4-.4.8-.7 1.2-3.1 3.7-5.1 8-7.5 12.2-.2.4-.5.8-.8 1.2-4 6.6-6.4 13.7-8.7 21l-.3 1.5c-1.1 3.3-1.7 7-6.2 7.4-2.9.2-8.3-4.2-9.3-7.4-.3-1-.5-2 0-2.9 4.3-7.6 6.3-16.1 10.5-23.9 4.3-8 10.2-15 13.5-23.6 6-6 12.1-12 16.4-19.5 8.8-6.7 17.2-13.9 26.6-19.7 11.6-7.1 24.1-12.3 37.5-14.9 4.2-.8 8.1-2.7 12.3-3.7 9.9-2.3 19.7-1.8 29.5-1 4.3.4 9-1.8 12.2.9.4.1-2-1.5-2.6-2.1 10.4 0 20.3 2.6 30 5.8 18.2 5.9 34.9 14.8 49.7 27.2 4.3 3.6 8.7 7 12 11.6 4.8 6.6 10.4 12.7 14.7 19.4 3.5 5.6 8 10.8 10.5 17l1.9 5.6c1.5 3.5 2.7 7.2-.4 10.7 2.3-.9 1.8-5.8 5.6-2.5z"/><path class="st141" d="M218.8 57.5c1.5 1.8 4.2.6 6 3-4.5 0-9 0-13.1-.4-8.3-.8-16.5-.7-24.7-.4-5.4.2-10.8 1.7-16 4.1-4.3 1.9-9.3 2.4-13.9 3.8-15.8 4.7-29.7 12.8-42.3 23.4-3.4 2.8-6.6 6.4-11.3 7.5-.5-.4-.6-.9-.2-1.4l.8-.8c4.4-3 8.1-6.9 12.2-10.2 10.9-9.3 23.1-16 36.5-20.9 17.9-6.4 36.3-9.8 55.3-8.5 3.4 1.4 7.1-.2 10.7.8z"/><path class="st142" d="M87.4 117.4c.1 4.4-2.9 7.6-5.2 10.9-2.5 3.7-4.5 7.5-6.4 11.5-2.1 4.3-4.4 8.6-6.6 12.8-2.2 4.2-1.8 9.4-5.4 13-1.2 1.2 3.8 7.6 6.6 8.4 3.2.9 5.1-.7 5.9-3.7 2.1-8.6 5.3-16.8 9.2-24.7.4-.9 1-1.3 1.8-1.4 1.6 1.8.2 3.4-.4 5-2.5 6.4-5.2 12.7-6.9 19.5-.9 3.6-1.1 6.5 1.3 9.3l-3.6.4c-6.8.6-11.7-2.5-15.6-7.9-1-1.4-1.8-2.8-1.1-4.6 4.4-11.6 8.4-23.3 15.6-33.6 3.4-4.2 5.6-9.2 8.9-13.5.4-.6.5-2 1.9-1.4z"/><path class="st143" d="M310.3 127.4c3.2 1.9 5.2 4.8 6.9 8.1 5.6 10.7 12 20.9 15.1 32.7.2 1 1 1.9.9 2.8-.5 4.8 2.7 4.6 5.7 4.2 3.4-.5 5.5-3 5.6-6.2 0-2.8 0-5.9-1.6-8.7-1-1.8-1.4-4.1.3-6 1.1 3.2 1.8 6.5 3.3 9.5 2.2 4.8 2 8.8-2.6 11.8-2.9 1.9-5.3 5.8-9.8 3.5-2.9-1.2-5.9-2.2-9-2.9-.8-2 .7-2.7 2.1-3.1 2.6-.8 2.6-2.4 1.9-4.6-4.2-12.6-10.2-24.3-17.5-35.4-1-1.7-2.9-3.3-1.3-5.7z"/><path class="st144" d="M342.4 152.3c-2.7-1.1-3.1.6-3.1 2.7 0 1.2-.2 2.4-1.5 2.9-.7.3-1.2-.2-1.6-.8-.7-1.2-1.4-2.8-.2-3.6 3.3-2 1.8-4.8 1.1-6.9-2-5.7-3.4-11.7-8.1-16.2-1.8-1.8-4.6-3.7-3.2-7.1-5.3-1.7-5.2-8-9.1-10.8-3.6-2.5-4.8-6.4-6.2-10.3 14.7 14 25.4 30.7 31.9 50.1z"/><path class="st145" d="M87.4 117.4c-2.6 3.8-5.2 7.6-7.7 11.4-.9 1.4-1.7 2.8-3.3 3.5 6.7-13.5 15.8-25 26.7-35.3l.2 1.4c.1 2-.3 3.8-1.9 5.4-3.7 3.7-7.7 7.1-10.1 11.9-.7 1.5-2.3 1.8-3.9 1.7zm28.7-31.3c-3.2 4.5-7.1 8.1-12.2 10.2 3.6-4 7.4-7.7 12.2-10.2z"/><path class="st52" d="M325.7 176c3.2.2 6 1.2 8.5 3.2-4.3-.4-8.5-2.6-12.9-1.1 0-.3-.1-.5-.3-.7 1-2.1 2.7-2.3 4.7-1.4z"/><path class="st140" d="M218.8 57.5c-3.7.2-7.4 1.7-10.8-.9 3.6-.2 7.3-.4 10.8.9z"/><path class="st146" d="M210.8 317.1c.4-2.7-1.1-6 2.9-6.1 3.7-.1 4.4 2.6 4.5 5.7.1 3.3-1.1 5.7-4.7 5.6-4.3 0-1.8-3.7-2.7-5.2z"/><path class="st147" d="M367.1 125.1c-2.5 1.9-2.6 4.8-5.5 4.1-.8-.2-1.8-1.4-1.3-2.4 1.2-2.4 3.3-2.1 6.8-1.7z"/><path class="st148" d="M379.1 228c-.7 1.7 7.4 1.3 1 4.3-1.4-.3-3.5 1.5-3.9-1.2-.4-2 .4-3.5 2.9-3.1z"/><path class="st149" d="M183 309c2.9-.1 4.4 1 3.7 4.1-2.8 0-4.1-1.3-3.7-4.1z"/><path class="st150" d="M292.5 176.2c-2.2-1.1-1.2-4-2.9-5.6-1.8.8-1.6 3.8-4.1 3.7 2.5-4.1.1-12.3-4.1-14.8-1.7-1-2.7.5-4.1.7 1.4-5 4.1-2 6.5-.9-1.5-5-5.5-8.4-7.4-13 6.1 5.4 9.4 12.7 13 19.7 1.2 2.3 1.9 4.8 2.8 7.2 1.1 1 .9 2 .3 3z"/><path class="st151" d="M151.2 186.3c-.9 2.7-2.8 4.5-5 6.1.4-3.1 2.7-4.6 5-6.1z"/><path class="st152" d="M220.1 178.7c2.3-.7 4.7-.8 6.2 1.5 1.4 2.3-.9 3.4-2 5-2.5 3.5-2.2 7.4-1.2 11.3 1.3 4.9 3.5 9.5 4.2 14.6-3.4-.6-3.9-3.6-4.2-6-1-7.2-2.6-14.4-.1-21.7.7-2.1-1.5-3.4-2.9-4.7z"/><path class="st153" d="M218.8 238.1c-.6-.1-1.5-.6-1.9-.3-11.4 7.3-21.6 2.1-31.9-2.7 6.2 1.6 12.4 3.6 18.7 4.5 4.3.6 10 2.4 11.7-4.6.2-.8 1.1-.9 1.6-.7 1.5.8 1.6 2.4 1.8 3.8z"/><path class="st154" d="M249.9 207.2c-.1-.8-.2-1.6-.2-2.5 0-1.7-.6-2.9-2.6-2.8-1.7 0-2.2 1.1-2.4 2.6-.3 2-.7 3.9-1.3 5.8-2 6-5.2 6.9-8.9 1.6-4.2-6.1-6.3-13.4-6.9-20.9-.1-1.2.2-2.4 1.5-2.8 1.3-.4 2.2.4 3 1.3 2.4 2.4 3.7 5.4 5.5 8.2.7 1 1.1 2.5 2.8 2.5 1.9-.1 2.2-1.8 2.8-3.1 2.4-5.4 1-9.4-4.6-14.1-1.7-5.2 1.7-9.7 7.8-10.2 2-.2 4 .2 6-.2 5.2-2.6 11.4-4.5 14.8 1 5.2 8.4 12.2 16.5 11.3 27.6-.3 4.1-1.6 6.3-6.4 7.5-7 1.9-13.6.6-20.5.3-.8-.4-1.3-1-1.7-1.8z"/><path class="st155" d="M292.4 213l3.2-2.4c1.3 1.3.6 2.9.9 4.2-4.9 11.7-16.6 15.3-26.3 8.3-2.8-2-3.3-3.5.3-5.1 4.3-1.9 8-5.1 13.4-2 2.9 1.6 6.5.5 8.5-3z"/><path class="st156" d="M249.9 207.2c1.1 0 1.7.6 1.7 1.7-3 1.7-.8 3.5.3 4.7 1.9 1.9 4.2 3.4 6.8 5.4-4.3 1.7-7.5-.1-10.9-1.1-1.2-.4-1.5-1.4-1-2.4 1.4-2.6 1.1-5.8 3.1-8.3z"/><path class="st157" d="M283.4 200.1c2.4 2.7 2.8 5.3 4 7.6.7 1.4 1.5 2.8 0 3.9-1.5 1.2-3.1.4-4.6-.3-1.5-.6-2.4-1.7-1.9-3.5.7-2.3 1.6-4.7 2.5-7.7z"/><path class="st158" d="M252.4 172.6c-2.9 1.7-6.4-.2-9.4 2.3-2.8 2.3-4.8 4.4-4.4 8.2-3.5-1.5-3.6-5.1-.2-8 4.2-3.5 9-3.5 14-2.5z"/><path class="st159" d="M250.9 274.3c2.4-.6 4.3-.5 4.6 2.6l-.9 1.1c-1.8 0-3.7 2.1-5.2-.1-1.2-1.8.8-2.5 1.5-3.6z"/><path class="st160" d="M264.9 213.4c1 .1 2.2.2 2 1.4-.1 1.5-1.4 2.1-2.8 2.1-1 0-2-.3-2-1.6.2-1.5 1.3-2 2.8-1.9z"/><path class="st161" d="M250.7 265c-1-.7-2-.8-3 0-1-1.4-1.4-3.2.7-3.5 2.3-.3 2.3 1.8 2.3 3.5z"/><path class="st12" d="M89.5 259c-2.7-3-4.7-6.4-5.6-10.4-2.3.6-1.1 2.5-1.6 3.6-.3-.4-.7-.7-.9-1.2-.7-2.2-3.6-4.3-1.1-6.6 2.2-2.1 4.9-.9 7.1.7-1.8.4-3.9-.7-6 1.2 3.9.6 7.4 1.2 8.8 5.2-.9-.5-1.9-1.7-3-.9-1.2.9.1 2 .4 3 .6 1.8 1.9 3.4 1.9 5.4z"/><path class="st162" d="M325.7 176c-1.7 0-3.3.3-4.7 1.4-2-.4-3.2-1.4-3.9-3.7-5.7-16.9-13.7-32.6-25.4-46.3-23.3-27.2-52.8-41.9-88.7-41.5-33.4.3-61.6 13.4-84.1 38.4-13.4 14.9-22 32.2-27 51.4-.9 3.3-2.4 4.5-5.7 3.4-1.6-.5-3.2-.7-4.8-1.1-4.5-1-4.3-3.4-3.3-7.4 2.4-9 6.4-17.5 9.3-26.3l.2.1c3-4.1 4.7-9 7.9-13 2-4.1 5-7.6 7.8-11.1 6.6-9 14.9-16.2 23.6-23.2 11.9-9.5 25.5-15.8 39.8-20.4 8.6-2.8 17.6-4.4 26.7-5 18.2-1.3 36 .3 53.2 7.1 7.5 3 15.1 5.8 22.2 9.8 6.3 3.9 12.5 8 17.9 13.1 1 1 2 1.9 3.1 2.9 3.2 2.4 6.2 5.1 8.9 8 2.3 2.4 3.9 5.4 6.1 7.8l5.8 7.1c-.1 3.2 2.7 4.8 4.1 7.1 6.7 10.8 12.1 22.3 16.3 34.3 1 2.8 1.4 5.8-3.3 5.6-1.2-.1-2.2 0-2 1.5z"/><path class="st13" d="M89.2 184.3l-2.2-2.1c.6-.7 1.3-1.1 2.2-1 1.9.3 4 1.1 3.6 3.1-.5 2.1-2.4 0-3.6 0zm13.2 10.7c.3 1.9 2.8.6 3.5 2.8-3.1.9-5.4.4-6.4-2.9-.7-2.1.4-2.9 3-2.4.6.8.6 1.7-.1 2.5z"/><path class="st163" d="M102.4 195v-2.4c1.1-.7 2.3-1.6 3.5-.2.3.4.5 1.3.3 1.8-.8 1.9-2.3 1.1-3.8.8z"/><path class="st52" d="M292.5 176.2l-.2-2.9c2.7 5.7 5.3 11.5 5 18-1.6-5-3.2-10-4.8-15.1z"/><path class="st164" d="M286.4 101.6c-6.3-3.9-12.4-8.1-17.9-13.1 7.1 2.8 13.4 6.7 17.9 13.1z"/><path class="st165" d="M103.1 120.3c-1.4 4.5-4.8 7.7-7.8 11.1.9-5 3.6-8.6 7.8-11.1zm-7.8 11.1c-2.2 4.6-3.5 9.8-7.9 13 1.5-5 3.9-9.5 7.9-13z"/><path class="st164" d="M298.3 112.5c-4-1.6-6.2-5-8.9-8 3.9 1.7 7.4 3.7 8.9 8zm6.2 7.8c-3-1.9-5-4.5-6.1-7.8 3.2 1.7 4.9 4.6 6.1 7.8z"/><path class="st166" d="M261.7 195.2c-1.7-.1-3.3-.8-3.1-2.8.2-2.4 2.1-3.1 4.2-3.2 1.7-.1 3.1.5 2.9 2.4-.2 2.1-1.8 3.2-4 3.6z"/></svg>