<svg height="1027.3" width="1579.7" xmlns="http://www.w3.org/2000/svg"><path d="m10.787 1015.285h1524.77v-991.614h-1524.77z" fill="#477bc7"/><g stroke="#fff"><path d="m1138.615 406.17v88.936c0 13.328 10.805 24.131 24.131 24.131h88.889c13.329 0 24.133 10.279 24.133 22.957v36.341m-440.014-160.99v-116.663c0-13.328-10.805-24.131-24.131-24.131h-88.889c-13.329 0-24.133-10.279-24.133-22.957v-36.341m-417.684 326.608h187.434c13.328 0 24.131-10.805 24.131-24.131v-67.236c0-13.329 10.279-24.133 22.955-24.133h140.244m154.502 75.668h220.103c13.328 0 24.131-17.011 24.131-30.337v-42.922c0-13.329 10.279-24.133 22.957-24.133h222.027m115.984 424.628v-116.663c0-13.328-10.805-24.131-24.132-24.131h-88.889c-13.329 0-24.133-10.279-24.133-22.957v-36.341" fill="none" stroke-miterlimit="10" stroke-width="2.896"/><path d="m1325.984 614.105c0 24.432-19.807 44.243-44.242 44.243s-44.242-19.811-44.242-44.243c0-24.435 19.807-44.242 44.242-44.242s44.242 19.807 44.242 44.242" fill="#fff" stroke-width=".121"/><path d="m359.669 754.297v-118.087c0-13.36 7.208-24.192 16.101-24.192h230.126c8.893 0 16.102-10.303 16.102-23.014v-9.822m257.852-37.682h246.337c13.328 0 24.131 17.011 24.131 30.337v79.621m-174.905 69.789v-124.396c0-13.328-10.805-24.131-24.131-24.131h-100.997c-13.329 0-24.133-10.278-24.133-22.955v-24.745" fill="none" stroke-miterlimit="10" stroke-width="2.896"/><path d="m741.088 187.237c0 24.432-19.807 44.243-44.242 44.243s-44.242-19.811-44.242-44.243c0-24.435 19.807-44.242 44.242-44.242s44.242 19.807 44.242 44.242m-335.237 597.849c0 24.433-19.808 44.243-44.243 44.243s-44.243-19.811-44.243-44.243c0-24.435 19.808-44.242 44.243-44.242s44.243 19.807 44.243 44.242m613.801-51.436c0 24.433-19.807 44.243-44.242 44.243s-44.242-19.811-44.242-44.243c0-24.435 19.807-44.242 44.242-44.242s44.242 19.807 44.242 44.242m-725.552-191.825c0 24.433-19.807 44.243-44.242 44.243s-44.242-19.811-44.242-44.243c0-24.435 19.807-44.242 44.242-44.242s44.242 19.807 44.242 44.242" fill="#fff" stroke-width=".121"/><path d="m726.632 340.208h-187.434c-13.328 0-24.131-10.805-24.131-24.131v-67.236c0-13.329-10.279-24.133-22.955-24.133h-140.244m323.622 307.861v246.337c0 13.328-17.011 24.131-30.337 24.131h-79.621m279.998-409.113v-246.337c0-13.328 17.011-24.131 30.337-24.131h79.621m-42.852 811.32v-220.103c0-13.328-17.011-24.131-30.337-24.131h-42.922c-13.329 0-24.133-10.279-24.133-22.957v-187.902" fill="none" stroke-miterlimit="10" stroke-width="2.896"/><path d="m1017.195 497.547c0-46.766-36.217-85.069-82.134-88.404-5.489-41.44-40.933-73.424-83.873-73.424a84.282 84.282 0 0 0 -34.398 7.309c-18.569-25.808-48.86-42.617-83.08-42.617-49.31 0-90.467 34.892-100.138 81.333a96.106 96.106 0 0 0 -2.151-.028c-56.494 0-102.289 45.796-102.289 102.289 0 56.495 45.795 102.288 102.289 102.288 1.483 0 2.955-.037 4.422-.101h293.904l-.006-.014c48.408-.638 87.455-40.069 87.455-88.63" fill="#fff" stroke-width=".121"/><g fill="none" stroke-miterlimit="10"><path d="m903.458 475.031v-116.663c0-13.328 10.805-24.131 24.131-24.131h88.889c13.329 0 24.133-10.279 24.133-22.957v-36.341" stroke-width="2.896"/><path d="m556.228 495.935v-100.456c0-11.476-13.152-20.779-29.373-20.779h-108.196" stroke-width="2.965"/><path d="m799.588 753.313v-116.996c0-13.365-6.287-24.2-14.041-24.2h-51.723c-7.756 0-14.043-10.308-14.043-23.023v-36.445" stroke-width="2.896"/></g><path d="m383.511 212.418c0 24.432-19.807 44.243-44.242 44.243s-44.242-19.811-44.242-44.243c0-24.435 19.807-44.242 44.242-44.242s44.242 19.807 44.242 44.242m36.26 153.569c0 24.433-19.807 44.243-44.242 44.243s-44.242-19.811-44.242-44.243c0-24.435 19.807-44.242 44.242-44.242s44.242 19.807 44.242 44.242m296.474 339.443c0 24.432-19.807 44.243-44.242 44.243s-44.242-19.811-44.242-44.243c0-24.435 19.807-44.242 44.242-44.242s44.242 19.807 44.242 44.242m125.84 80.74c0 24.433-19.807 44.243-44.242 44.243s-44.242-19.811-44.242-44.243c0-24.435 19.807-44.242 44.242-44.242s44.242 19.807 44.242 44.242m115.076 139.051c0 24.433-19.807 44.243-44.242 44.243s-44.242-19.811-44.242-44.243c0-24.435 19.807-44.242 44.242-44.242s44.242 19.807 44.242 44.242m239.785-264.192c0 24.432-19.807 44.243-44.242 44.243s-44.242-19.811-44.242-44.243c0-24.435 19.807-44.242 44.242-44.242s44.242 19.807 44.242 44.242m138.645-250.049c0 24.433-19.807 44.243-44.242 44.243s-44.242-19.811-44.242-44.243c0-24.435 19.807-44.242 44.242-44.242s44.242 19.807 44.242 44.242m-253.825-140.777c0 24.432-19.807 44.243-44.242 44.243s-44.242-19.811-44.242-44.243c0-24.435 19.807-44.242 44.242-44.242s44.242 19.807 44.242 44.242m-61.854-147.173c0 24.432-19.807 44.243-44.242 44.243s-44.242-19.811-44.242-44.243c0-24.435 19.807-44.242 44.242-44.242s44.242 19.807 44.242 44.242" fill="#fff" stroke-width=".121"/></g><path d="m968.731 747.703c.426.406 1.154.418 1.595.04 0 0 1.673-1.487 3.894-3.489.349.148.744.243 1.169.243 1.461 0 2.646-1.054 2.646-2.352 0-.393-.107-.758-.289-1.083 3.862-3.516 7.739-7.154 7.527-7.356-.213-.203-4.515 3.083-8.682 6.343a2.901 2.901 0 0 0 -1.202-.258c-1.458 0-2.644 1.057-2.644 2.355 0 .284.06.554.167.811l-4.152 3.313a.955.955 0 0 0 -.029 1.434m16.723-19.853.137-.202-.333-.177-.821-.418-2.463 3.785 1.155.596 2.326-3.583zm6.918 6.261-.666-1.028-4.259 2.192.669 1.027zm-2.69 8.628h4.927v-1.19h-4.927zm2.69 7.426-4.256-2.191-.669 1.027 4.259 2.192zm-10.414 3.272 2.463 3.787 1.156-.595-2.464-3.788zm-7.223 5.788h1.338v-4.382h-1.338zm-5.882-5.788-1.156-.596-2.478 3.802 1.155.594 2.48-3.8zm-6.158-5.463-4.257 2.191.669 1.028 4.258-2.192zm-1.567-6.425h-4.927v1.19h4.927zm2.25-6.274-4.256-2.192-.67 1.028 4.257 2.191zm4.303-3.842 1.157-.596-2.465-3.785-.744.378-.425.217.137.202 2.34 3.583zm8.392-6.37h-1.338v4.383h1.338zm24.404 40.803h-50.128c-.501 0-.898.352-.898.798s.396.797.898.797h50.128c.503 0 .898-.352.898-.797 0-.433-.411-.798-.898-.798m5.125-66.025h-60.392c-.365 0-.669.27-.669.595 0 .324.304.595.669.595h1.17c.669 6.031 6.888 11.197 15.739 13.821 1.137.339 2.311.636 3.526.879 3.056.623 6.339.975 9.76.975 3.452 0 6.766-.353 9.853-.988a44.428 44.428 0 0 0 3.527-.88c8.818-2.623 14.99-7.775 15.66-13.794h1.172c.362 0 .667-.27.667-.595-.014-.338-.318-.608-.683-.608m-50.738 44.792c1.369 8.992 10.065 15.959 20.541 15.959 10.477 0 19.173-6.953 20.541-15.959.123-.811.199-1.651.199-2.488a16.49 16.49 0 0 0 -1.202-6.166c-1.276-3.221-3.542-6.02-6.461-8.142a21.46 21.46 0 0 0 -3.24-1.936 22.593 22.593 0 0 0 -4.606-1.623 23.01 23.01 0 0 0 -5.246-.595c-1.807 0-3.555.203-5.244.595a21.802 21.802 0 0 0 -7.862 3.559c-2.919 2.109-5.169 4.921-6.461 8.142a16.47 16.47 0 0 0 -1.202 6.166c.045.838.121 1.677.243 2.488m-2.355 20.434 1.929-16.783a26.666 26.666 0 0 1 -.5-1.542 16.566 16.566 0 0 1 -.427-2.096 17.421 17.421 0 0 1 1.034-8.912c.261-.677.563-1.326.898-1.975.259-.486.532-.947.838-1.421l.699-6.058c0-1.096 1.004-1.989 2.234-1.989h6.994a22.069 22.069 0 0 1 1.612-.594 24.549 24.549 0 0 1 7.587-1.191c1.869 0 3.681.204 5.399.595a23.172 23.172 0 0 1 3.801 1.19h6.995c1.23 0 2.233.893 2.233 1.989l.699 6.058c.305.461.58.935.837 1.421.336.635.64 1.298.898 1.975a17.502 17.502 0 0 1 1.217 6.41c0 .851-.062 1.691-.183 2.502a19.345 19.345 0 0 1 -.425 2.096 13.61 13.61 0 0 1 -.502 1.542l1.931 16.783h-45.794zm36.276-48.984a47.054 47.054 0 0 1 -3.527.852v6.166h3.527zm-23.141 7.018h-3.526v-6.992a45.73 45.73 0 0 0 3.526.851v6.14zm-42.463 205.312-7.347 18.292 13.258 4.55 3.122-20.572a25.46 25.46 0 0 1 -9.034-2.27zm21.256.056a25.451 25.451 0 0 1 -10.562 2.294c-.558 0-1.089-.045-1.621-.078l-.797 20.123 21.043-4.102-8.064-18.236m-6.755-7.539c-7.865 0-14.255-6.236-14.255-13.93s6.39-13.93 14.255-13.93c7.891 0 14.268 6.236 14.268 13.93s-6.377 13.93-14.268 13.93zm-3.826-36.813c-12.448 0-22.545 9.857-22.545 22.019 0 12.158 10.097 22.019 22.545 22.019 12.435 0 22.531-9.86 22.531-22.019 0-12.161-10.097-22.019-22.531-22.019m7.567 28.664c-3.255 0-5.898-2.579-5.898-5.76 0-3.18 2.644-5.76 5.898-5.76 3.255 0 5.899 2.58 5.899 5.76 0 3.182-2.644 5.76-5.899 5.76zm-2.697-17.091c-6.31 0-11.438 5.007-11.438 11.186 0 6.178 5.128 11.187 11.438 11.187 6.337 0 11.452-5.01 11.452-11.187 0-6.179-5.115-11.186-11.452-11.186"/><path d="m380.995 789.24-2.585-13.237-.082-.083s16.419-16.201 12.702-19.917-20.423 13.222-20.423 13.222l-11.727-2.072c2.994-3.714 4.254-7.402 2.813-8.845-1.724-1.718-6.65.408-10.998 4.752a29.014 29.014 0 0 0 -2.035 2.276l-9.405-1.662-6.429 5.474 26.207 12.03-15.679 19.079c-.406.411-.788.816-1.122 1.229l-9.795-3.978-4.658 4.653 10.474 4.798 3.154 3.152 4.408 8.457 4.321-4.321-5.044-9.963c.259-.174.508-.373.738-.604l20.336-15.986.274.274 13.672 27.121 4.803-5.758-1.961-10.048c.991-.73 1.997-1.59 2.974-2.566 4.35-4.352 6.474-9.275 4.751-10.998-1.548-1.553-5.697.025-9.682 3.525m402.191-17.468h-12.249v-4.084h12.249zm0 8.167h-12.249v-4.084h12.249zm-10.209 24.502a2.04 2.04 0 1 1 .001-4.081 2.04 2.04 0 0 1 -.001 4.081zm10.209-40.838h-12.249a4.083 4.083 0 0 0 -4.086 4.084v44.922a4.081 4.081 0 0 0 4.086 4.084h12.249a4.082 4.082 0 0 0 4.084-4.084v-44.922a4.084 4.084 0 0 0 -4.084-4.084m26.56 44.923v-4.084h-12.253v4.084a4.079 4.079 0 0 0 -4.084 4.084h20.418a4.08 4.08 0 0 0 -4.082-4.084m-6.139-10.21c-1.13 0-2.04-.914-2.04-2.042a2.042 2.042 0 1 1 2.04 2.042zm24.502-42.88h-49.006a4.082 4.082 0 0 0 -4.082 4.084h53.088v32.67h-36.752v8.169h36.752a4.084 4.084 0 0 0 4.086-4.085v-36.754a4.084 4.084 0 0 0 -4.086-4.084m-603.752-234.727h13.085v-4.746h-13.085zm50.466 11.128h-5.537a2.986 2.986 0 1 1 0-5.974h5.537a2.993 2.993 0 0 1 2.991 2.992 2.99 2.99 0 0 1 -2.991 2.982zm-33.765 30.341c-9.523 0-17.255-7.728-17.255-17.254 0-9.534 7.732-17.26 17.255-17.26 9.532 0 17.264 7.727 17.264 17.26 0 9.525-7.732 17.254-17.264 17.254zm36.146-40.01h-54.694a4.555 4.555 0 0 0 -4.555 4.549v36.404a4.555 4.555 0 0 0 4.555 4.553h54.697a4.549 4.549 0 0 0 4.549-4.553v-36.404a4.549 4.549 0 0 0 -4.553-4.549m-36.322 9.994c7.039 0 12.749 5.708 12.749 12.758 0 7.039-5.711 12.752-12.749 12.752s-12.749-5.713-12.749-12.752c0-7.05 5.711-12.758 12.749-12.758" fill="#131112"/><path d="m1154.169 660.279h5.023c.483 0 .88.353.88.782 0 .43-.397.783-.88.783h-5.023c-.293.431-.83.72-1.434.72-.138 0-.275-.015-.413-.045-.724-.168-1.277-.751-1.277-1.442 0-.538.329-1.013.809-1.274v-8.608c0-.292.192-.553.467-.691a.897.897 0 0 1 .413-.093c.486 0 .883.354.883.784v8.608c.222.108.413.277.552.476m-1.83 21.743h10.099v15.837h-19.489v-15.837zm11.651-3.375h4.212l-4.453 3.375v-1.211h-22.113v1.211l-4.453-3.375h26.566zm-.189-38.609 4.453 3.377h-31.017l4.454-3.377v1.214h22.128v-1.214zm-11.462 0h-9.338v-15.837h19.487v15.837zm13.706 35.494h-26.582v-28.941h26.582zm-13.706-30.89h-15.069v32.854h30.968v-32.854h-2.193zm134.515 1.954h-24.183v3.178h24.183zm-36.538-59.783 18.527 16.485 2.564-2.283 2.087-5.377.758-1.969.878-2.261.802-2.08 1.461-3.777-1.748-1.555-3.697-3.29-1.678-1.502-17.391 5.325zm55.514 25.106-1.771 1.578-1.301 1.157-1.79 1.592-.641.571.853.759 1.689 1.502 1.393 1.239 1.678 1.495.82.729 6.421-5.716-6.421-5.716-.93.811zm-35.603 33.866h3.326c7.217-6.58 21.91-19.971 28.674-26.129l-1.689-1.502zm33.382-24.898-27.752 24.898h3.367c6.232-5.589 18.444-16.561 26.066-23.404zm-28.544-26.819-.829 2.126 26.032 19.52 1.789-1.593c-8.804-6.556-23.025-16.651-26.992-20.053m30.074 17.312c-7.125-5.588-22.308-16.509-28.472-21.458l-.794 2.049 27.493 20.993 1.774-1.585zm-28.85-27.97-3.689-3.289 1.907-1.698 3.697 3.289-1.914 1.698zm1.51-165.678c0 .444.888.816 1.388.816.499 0 1.387-.371 1.387-.816v-12.325c0-.444-.888-.813-1.387-.813-.5 0-1.388.369-1.388.813zm-3.791 27.033v-43.939h34.673v43.939c0 .191-.184.355-.401.355h-33.89c-.199-.016-.382-.164-.382-.355m6.567-62.948c0-.445-.888-.816-1.387-.816-.5 0-1.388.371-1.388.816v12.322c0 .446.888.816 1.388.816.499 0 1.387-.37 1.387-.816zm28.106 17.72h-34.673v-23.801c0-.193.184-.354.399-.354h33.872c.217 0 .401.162.401.354zm-1.701 47.037c.334 0 .584-.238.584-.519v-.415h-2.201v.415c0 .297.266.519.584.519zm-30.256 0h-1.016c-.334 0-.583-.238-.583-.519v-.415h2.2v.415c-.015.282-.283.519-.601.519m-253.228-177.776c0 6.889 6.275 12.472 14.019 12.472 3.205 0 6.17-.96 8.536-2.572.196-.132.405-.28.585-.426l.044-.039c.18-.134.359-.28.525-.426l.045-.042a13.277 13.277 0 0 0 1.977-2.118l.061-.079.329-.481.09-.133.284-.466.076-.134.268-.505.06-.106a9.97 9.97 0 0 0 .525-1.28l.045-.146c.06-.159.105-.333.149-.506l.061-.226.105-.439.045-.253.074-.441.03-.253.045-.479.015-.227c.016-.226.029-.466.029-.706l-.029-.706-.015-.227-.045-.479-.03-.253-.074-.44-.045-.253-.105-.44-.061-.226-.149-.506-.045-.146a12.307 12.307 0 0 0 -.525-1.28l-.06-.106-.268-.505-.076-.135c-.09-.159-.179-.32-.284-.465l-.075-.133-.329-.481-.06-.08a12.71 12.71 0 0 0 -1.978-2.117l-.045-.041-.525-.426-.045-.04-.583-.426c-2.366-1.612-5.317-2.572-8.537-2.572-7.759.014-14.034 5.61-14.034 12.5m-5.886 0c0-7.343 5.047-13.646 12.205-16.337a22.424 22.424 0 0 1 7.715-1.374 22.407 22.407 0 0 1 7.713 1.374c7.159 2.691 12.207 8.995 12.207 16.337 0 9.767-8.927 17.722-19.92 17.722s-19.92-7.955-19.92-17.722m39.392-20.907h4.521v-4.211h-4.521zm-30.435-6.33h37.024v9.98h-18.154c-2.441-.892-5.106-1.385-7.907-1.385s-5.467.493-7.908 1.385h-18.167v-1.986l.253-4.495c.043-.763 7.986-3.168 8.664-3.2l6.21-.298zm35.989-3.985h-50.069c-.569 0-1.033.413-1.033.921v2.131h52.137v-2.131c0-.508-.464-.921-1.035-.921m-4.073 31.222c0 10.273-9.406 18.641-20.954 18.641s-20.954-8.368-20.954-18.641c0-7.022 4.389-13.167 10.874-16.337h-15.996v43.506c3.939 1.014 12.117 2.532 26.076 2.532s22.137-1.506 26.076-2.532v-43.506h-15.996c6.47 3.17 10.874 9.301 10.874 16.337m-33.296-19.854h-13.733v-7.383h14.423v6.755c0 .347-.314.627-.689.627m12.342 50.168c13.884 0 22.031-1.45 26.076-2.491v5.317c0 .506-.464.921-1.034.921h-50.085c-.569 0-1.033-.415-1.033-.921v-5.317c4.043 1.041 12.177 2.491 26.076 2.491m-91.031-199.872c7.824 2.617 12.006 10.916 9.351 18.573-2.668 7.645-11.185 11.736-19.009 9.12-7.837-2.604-12.006-10.916-9.351-18.56 2.668-7.645 11.185-11.736 19.009-9.133m37.296 43.372s.321 1.706.705 3.797c.103.59.038 1.27-.18 1.924-.346 1.013-1.09 1.898-1.886 2.257-.641.334-1.898.359-3.194-.077-.923-.308-1.847-.821-2.565-1.501l-1.77-1.629c-.321.744-1.039 1.411-1.744 1.616l1.873 1.719c1 .924 2.193 1.591 3.45 2.014 1.693.552 3.489.68 5.015-.038 1.501-.731 2.54-2.091 3.078-3.604a6.162 6.162 0 0 0 .282-3.091l-.705-3.81c-.103-.629-.706-1.039-1.334-.949-.641.09-1.129.744-1.026 1.372m-23.323-10.864-3.104-3.091s1.449-1.398 2.232-2.54l2.848 3.63-1.975 2.001zm-2.655-11.878s-2.835 8.607-12.391 10.146l23.062 18.92s5.503-.141 6.131-6.17l-16.803-22.896zm2.604 10.851 1.116-1.103-1.834-2.142-1.308 1.373 2.027 1.873m-304.874 595.109c-5.292 0-9.616-4.207-9.616-9.396 0-5.175 4.324-9.382 9.616-9.382 5.307 0 9.602 4.207 9.602 9.382 0 5.189-4.295 9.396-9.602 9.396zm3.636-33.805c2.404 0 4.369 1.906 4.369 4.251 0 2.36-1.964 4.266-4.369 4.266-2.404 0-4.354-1.906-4.354-4.266 0-2.346 1.95-4.251 4.354-4.251zm-19.497-14.117v57.216h31.561v-57.216zm19.497 21.241c1.613 0 2.932-1.29 2.932-2.873s-1.319-2.859-2.932-2.859c-1.612 0-2.932 1.275-2.932 2.859 0 1.583 1.319 2.873 2.932 2.873zm-3.636 13.179c-2.316 0-4.207 1.832-4.207 4.105 0 2.272 1.891 4.119 4.207 4.119 2.331 0 4.222-1.847 4.222-4.119s-1.891-4.105-4.222-4.105m1.952 4.126c0 1.041-.88 1.891-1.95 1.891s-1.935-.85-1.935-1.891c0-1.055.865-1.906 1.935-1.906s1.95.85 1.95 1.906m28.32 13.472c-2.99 0-5.395-2.36-5.395-5.263 0-2.917 2.404-5.277 5.395-5.277 2.961 0 5.38 2.36 5.38 5.277 0 2.903-2.419 5.263-5.38 5.263zm2.023-18.969c1.363 0 2.448 1.07 2.448 2.389s-1.085 2.389-2.448 2.389c-1.349 0-2.433-1.07-2.433-2.389s1.085-2.389 2.433-2.389zm-10.921-7.916v32.102h17.694v-32.102zm8.898 19.306c-1.305 0-2.375 1.041-2.375 2.316s1.07 2.302 2.375 2.302c1.29 0 2.346-1.026 2.346-2.302s-1.056-2.316-2.346-2.316zm2.023-7.388c.909 0 1.642-.718 1.642-1.613s-.733-1.613-1.642-1.613c-.894 0-1.642.718-1.642 1.613s.748 1.613 1.642 1.613m-.935 9.687c0 .586-.484 1.055-1.085 1.055-.616 0-1.099-.469-1.099-1.055s.484-1.07 1.099-1.07a1.08 1.08 0 0 1 1.085 1.07m-278.167-353.397c0-7.618-6.32-13.792-14.108-13.792h-39.717c-7.788 0-14.108 6.173-14.108 13.792 0 7.616 6.32 13.793 14.108 13.793h39.717c7.788 0 14.108-6.177 14.108-13.793"/><path d="m363.356 369.32h-4.537v-4.425h-4.112v4.425h-4.549v4.03h4.549v4.43h4.112v-4.43h4.537z" fill="#fff"/><path d="m396.824 329.188h-2.608v6.854c0 1.292-.886 2.652-2.669 3.756-1.747 1.093-4.307 1.82-7.133 1.814-6.745.011-12.398 4.905-12.422 11.138v2.023h2.632v-2.023c.012-4.609 4.319-8.567 9.79-8.569 6.466-.038 12.24-3.142 12.422-8.139-.012-3.77-.012-6.848-.012-6.854"/><path d="m391.392 371.844c0 1.1-.922 1.993-2.05 1.993-1.116 0-2.038-.893-2.038-1.993 0-1.103.922-1.996 2.038-1.996 1.128 0 2.05.893 2.05 1.996m5.072-4.861c0 1.1-.922 1.993-2.038 1.993-1.128 0-2.038-.893-2.038-1.993s.91-1.993 2.038-1.993c1.116 0 2.038.893 2.038 1.993m4.824 5.202c0 1.1-.922 1.993-2.038 1.993-1.128 0-2.038-.893-2.038-1.993 0-1.103.91-1.994 2.038-1.994 1.116 0 2.038.892 2.038 1.994m-4.874 4.668c0 1.1-.922 1.993-2.038 1.993-1.128 0-2.05-.893-2.05-1.993 0-1.103.922-1.994 2.05-1.994 1.116 0 2.038.892 2.038 1.994" fill="#fff"/><path d="m374.794 215.963c.372.885-.066 1.894-.983 2.26-.903.365-1.94-.06-2.312-.945l-6.337-15.133c-.372-.889.066-1.905.97-2.27.917-.363 1.953.066 2.325.954zm-49.233 1.956a1.724 1.724 0 0 1 .97-2.266c.917-.364 1.966.058 2.325.951l6.337 15.134c.372.886-.066 1.904-.983 2.266a1.779 1.779 0 0 1 -2.298-.95l-6.35-15.135zm50.721-23.053c-6.789-16.232-25.76-24.004-42.366-17.369-16.619 6.641-24.564 25.175-17.775 41.409.239.563.518 1.093.784 1.633.093.501.239.999.452 1.492l5.912 14.104c1.621 3.898 6.178 5.767 10.176 4.171 3.985-1.594 5.885-6.043 4.264-9.942l-5.912-14.104c-1.634-3.903-6.191-5.77-10.176-4.178-1.74.695-3.042 1.946-3.866 3.441-4.57-14.279 2.723-29.835 17.151-35.603 14.467-5.784 30.873.38 37.836 13.77-1.714-.566-3.627-.586-5.447.138-3.985 1.594-5.899 6.045-4.264 9.948l5.912 14.104c1.515 3.611 5.527 5.44 9.286 4.429-1.275 7.704-6.443 12.999-9.725 15.655-.571-1.275-1.661-2.05-2.484-1.72l-5.115 2.045c-.85.337-1.076 1.699-.518 3.042.571 1.346 1.714 2.161 2.551 1.825l5.128-2.045c.717-.29.956-1.34.664-2.48 11.252-5.489 14.095-14.842 14.68-20.857a7.35 7.35 0 0 0 -.027-5.667l-5.912-14.106-.252-.489c-.292-.889-.585-1.768-.956-2.644"/><path d="m708.392 207.808h-22.105v2.68h22.105zm0-5.36h-22.105v2.68h22.105zm0-5.36h-22.105v2.68h22.105zm6.631 0v16.08c0 1.48-1.484 2.68-3.316 2.68h-28.737c-1.832 0-3.316-1.199-3.316-2.68v-21.44h35.366v5.36zm0-27.692h-35.366v-8.04c0-.37.092-.723.261-1.043.503-.962 1.681-1.637 3.054-1.637h28.737l.194.016c.16.008.32.014.471.038h.002c.369.061.713.18 1.027.333v.002l.008.002c.224.11.436.233.62.38l.01.005c.142.114.271.241.385.375l.018.017c.359.423.569.931.577 1.48v.002h.003v8.068zm-43.107 8.038c-1.832 0-3.316 1.199-3.316 2.68s1.484 2.68 3.316 2.68c1.831 0 3.316-1.199 3.316-2.68s-1.484-2.68-3.316-2.68m57.471 25.014h-11.052v-13.4h-41.998v13.4h-11.052c-1.831 0-3.316-1.199-3.316-2.68v-25.014c0-1.48 1.484-2.68 3.316-2.68h64.103c1.832 0 3.316 1.199 3.316 2.68v25.014c0 1.48-1.484 2.68-3.316 2.68" fill-rule="evenodd"/><g stroke="#fff"><path d="m577.613 796.943c0 24.432-19.807 44.243-44.242 44.243s-44.242-19.811-44.242-44.243c0-24.435 19.807-44.242 44.242-44.242s44.242 19.807 44.242 44.242m-153.575-166.476c0 24.432-19.807 44.243-44.242 44.243s-44.242-19.811-44.242-44.243c0-24.435 19.807-44.242 44.242-44.242s44.242 19.807 44.242 44.242m708.922-251.48c0 24.432-19.807 44.243-44.242 44.243s-44.242-19.811-44.242-44.243c0-24.435 19.807-44.242 44.242-44.242s44.242 19.807 44.242 44.242m-693.992 132.041c0 24.432-19.807 44.243-44.242 44.243s-44.242-19.811-44.242-44.243c0-24.435 19.807-44.242 44.242-44.242s44.242 19.807 44.242 44.242" fill="#fff" stroke-width=".121"/><path d="m385.882 500.524h-70.127c-13.328 0-24.131-10.805-24.131-24.131v-67.236c0-13.329-10.279-24.133-22.955-24.133h-76.258m251.016-9.872v-52.911c0-13.328-17.011-24.131-30.337-24.131h-176.085c-13.329 0-24.133-10.279-24.133-22.957v-62.063" fill="none" stroke-miterlimit="10" stroke-width="2.896"/><path d="m259.922 203.487c0 24.432-19.807 44.243-44.242 44.243s-44.242-19.811-44.242-44.243c0-24.435 19.807-44.242 44.242-44.242s44.242 19.807 44.242 44.242m-59.841 175.292c0 24.432-19.807 44.243-44.242 44.243s-44.242-19.811-44.242-44.243c0-24.435 19.807-44.242 44.242-44.242s44.242 19.807 44.242 44.242" fill="#fff" stroke-width=".121"/><path d="m846.843 191.761h352.989c13.328 0 24.131 17.011 24.131 30.337v47.627" fill="none" stroke-miterlimit="10" stroke-width="2.896"/><path d="m1265.196 280.876c0 24.432-19.807 44.243-44.242 44.243s-44.242-19.811-44.242-44.243c0-24.435 19.807-44.242 44.242-44.242s44.242 19.807 44.242 44.242" fill="#fff" stroke-width=".121"/><path d="m1213.625 114.788h-109.832c-13.328 0-24.131 17.011-24.131 30.337v47.627" fill="none" stroke-miterlimit="10" stroke-width="2.896"/><path d="m1278.326 108.977c0 24.432-19.807 44.243-44.242 44.243s-44.242-19.811-44.242-44.243c0-24.435 19.807-44.242 44.242-44.242s44.242 19.807 44.242 44.242" fill="#fff" stroke-width=".121"/><path d="m94.507 613.829h57.843c13.328 0 24.131 10.805 24.131 24.131v63.249c0 13.329 10.279 24.133 22.957 24.133h160.017" fill="none" stroke-miterlimit="10" stroke-width="2.896"/><path d="m148.301 617.931c0 24.432-19.807 44.243-44.242 44.243s-44.242-19.811-44.242-44.243c0-24.435 19.807-44.242 44.242-44.242s44.242 19.807 44.242 44.242" fill="#fff" stroke-width=".121"/></g><path d="m397.206 586.723c-14.56 0-26.364 10.078-26.364 22.504 0 11.257 18.114 39.298 18.114 39.298l18.593-.017s16.014-27.854 16.014-39.282c0-12.423-11.796-22.5-26.357-22.5zm0 2.277c13.06 0 23.683 9.08 23.683 20.226 0 9.427-11.934 31.47-15.019 37.002l-15.319.009c-5.383-8.513-17.03-28.675-17.03-37.012 0-11.149 10.622-20.226 23.683-20.226m-7.294 76.035h16.329a7.82 7.82 0 0 0 .891-1.565h-18.105c.235.551.526 1.073.885 1.565m8.151 3.864c2.624 0 4.998-.9 6.741-2.349h-13.48c1.746 1.447 4.111 2.349 6.738 2.349m9.691-18.217h-19.35v9.955c0 .453.07.886.153 1.321h19.038c.079-.433.159-.868.159-1.321zm-9.69-6.549-7.46-27.921 6.828 2.141 8.119-2.246-7.487 28.027zm9.951-28.713.015-.047-.27-.05-2.289-.901-8.043 2.536-6.776-2.536-2.555.831v.179l.018.005 8.838 33.092h2.22l8.841-33.092.015-.005-.015-.012m-308.981 35.165v-5.36a1.526 1.526 0 0 0 -3.05 0v5.36c-15.369-.778-27.678-13.076-28.45-28.45h5.121a1.524 1.524 0 0 0 0-3.048h-5.123c.776-15.382 13.088-27.687 28.461-28.461l-.02.076v5.589a1.525 1.525 0 0 0 3.05 0v-5.587l-.02-.074c15.379.774 27.689 13.076 28.464 28.457h-5.158a1.524 1.524 0 1 0 0 3.048h5.158c-.77 15.373-13.07 27.672-28.444 28.45zm-1.523-65.912c-19.853 0-35.939 16.088-35.939 35.935s16.086 35.941 35.939 35.941c19.845 0 35.937-16.094 35.937-35.941s-16.092-35.935-35.937-35.935m2.821 37.136c.108-.308.192-.619.192-.952a3 3 0 1 0 -6.003 0 3.005 3.005 0 0 0 3.004 3.004c.159 0 .3-.067.451-.094l.071.094 12.435 10.793 3.357.884-1.666-3.459-11.841-10.271" fill="#131112"/><path d="m557.918 784.395c-.323 0-.589-.237-.589-.524s.265-.526.589-.526h5.166a7.324 7.324 0 0 0 -.155-.772h-5.011c-.323 0-.589-.238-.589-.525 0-.288.265-.523.589-.523h4.703c-.31-.924-.758-1.886-1.334-2.935-.405-.575-1.305-1.099-1.951-1.174a166.54 166.54 0 0 0 -17.227-.898c-5.364 0-10.711.261-16.104.786v14.86c1.53.149 3.061.275 4.591.375 2.47.174 4.943.3 7.399.362l2.092 5.531.322.837h1.756l4.056 14.624-8.971 1.81c-.646.175-1.165.462-1.165 1.037v1.748h26.127v-3.559c0-.573-.519-1.035-1.166-1.035h-3.761l-5.743-21.206c2.598-.149 5.195-.362 7.806-.635.646-.075 1.559-.601 1.952-1.174.954-1.724 1.544-3.222 1.782-4.669h-5.152c-.322 0-.59-.238-.59-.527 0-.285.268-.522.59-.522h5.264a7.173 7.173 0 0 0 0-.776h-5.279v.013zm-21.846 39.672c0 .574.52 1.036 1.166 1.036h23.795c.648 0 1.166-.461 1.166-1.036v-4.794h-26.128v4.794zm1.278-30.395a181.147 181.147 0 0 1 -6.415-.312l1.853 4.358c.168.4.702.723 1.179.723h5.194l-1.811-4.77zm-41.556-8.803 1.347.699h11.554v-1.398h-11.54l-1.362.699zm13.787-1.935v3.646l3.735 2.359 5.447.649v-9.678l-5.447.649-3.735 2.374zm10.093-2.999 5.433-2.597v14.836l-5.433-2.597zm733.582-490.43h-63.543v5.656h69.209v-5.656zm-63.543-36.433v35.637h3.547v-32.482h62.116v32.482h3.545v-35.637h-69.209zm21.413 52.217h26.4v-.924h-26.4zm15.888-9.335v3.282h7.543l2.955 4.336h-26.386l2.956-4.336h7.54v-3.282zm-1.65-156.063h-4.497c-.13-.619-.727-1.109-1.473-1.109h-.354v-9.849h-2.751v9.849h-.339c-.745 0-1.344.476-1.473 1.109h-4.497c-1.019 0-1.845.734-1.845 1.641v.778h19.075v-.778c-.016-.907-.84-1.641-1.845-1.641m-6.325-11.763v-43.182c0-5.917 5.404-10.727 12.053-10.727 6.65 0 12.053 4.809 12.053 10.727v36.17c0 .677.615 1.238 1.375 1.238.761 0 1.376-.548 1.376-1.238v-36.241c-.032-7.242-6.649-13.117-14.803-13.117-8.17 0-14.819 5.917-14.819 13.188v43.182h.907v-42.36h.921v42.36zm13.461 10.999.08.461c.373 1.454 1.828 2.549 3.593 2.549h16.728c1.925 0 3.512-1.326 3.673-3.01h-23.994zm19.187-18.588-3.674 8.226c2.2-.358 8.84-.473 8.383-4.9-.372-1.973-1.342-3.743-2.75-5.198-5.126-3.648-4.855 1.974-1.959 1.872m-.614 5.156c-1.795.244-3.964.418-6.553.418-2.636 0-4.788-.173-6.552-.432v1.743h13.104zm0 4.146h-13.089v.575h13.089zm0 4.579h-13.089v.56h13.089zm-13.702-13.881s2.113-5.376-1.959-1.872c-1.358 1.412-2.33 3.138-2.717 5.04.09 1.787 2.331.907 4.677 1.31zm9.157-.647c.258.346.403.749.403 1.195 0 1.18-1.084 2.145-2.411 2.145-1.326 0-2.411-.965-2.411-2.145 0-.446.146-.849.405-1.195v-4.809c-2.605.388-4.918 1.512-6.666 3.125 2.088.619.561 2.217.563 2.231l.692 4.579c1.748.258 4.765.526 7.416.533 2.592.007 5.212.737 6.553-.431l2.075-4.031c.005-.013-2.043-2.262.042-2.88-1.746-1.613-4.076-2.736-6.664-3.125zm-9.157 18.689v-13.002c-2.33-.388 11.564-2.984-4.79-1.31a9.658 9.658 0 0 0 -.096 1.367v12.93h4.886zm13.702-5.3h-13.089v.562h13.089zm0-1.152h-13.089v.561h13.089zm5.42-7.702c-3.915 1.257-23.257-.419-19.225 1.166l-1.598 13.048 20.904-.061v-12.93c0-.418-.032-.821-.081-1.223m-5.42 6.566h-13.089v.561h13.089zm-13.088 7.587h13.089v-3.024h-13.089zm-6.424-9.115-.291-.029c-.727 0-1.084.52-1.31 1.167 0 0-.857 2.275-.857 5.183l.857 5.183c.21.648.582 1.167 1.31 1.167.584 0 1.069-.332 1.231-.807-.583-.692-.94-1.541-.94-2.477zm27.619 1.124s.857 2.275.857 5.183c0 2.909-.857 5.183-.857 5.183-.211.648-.583 1.167-1.312 1.167-.614 0-1.116-.374-1.262-.879.55-.678.873-1.497.873-2.391v-9.357c.13-.03.242-.059.389-.059.728-.015 1.1.52 1.312 1.153m-1028.474 40.983h1.139c.386 0 .702-.28.702-.623 0-.341-.316-.623-.702-.623h-1.384c-1.05-2.819-5.64-5.092-11.56-5.777-.507.825-2.014 1.416-3.784 1.416s-3.258-.592-3.785-1.402c-5.885.684-10.438 2.943-11.506 5.762h-1.384c-.387 0-.702.282-.702.623 0 .343.315.623.702.623h1.139zm-25.366 35.018h19.62c3.89 0 5.467-33.116 5.467-33.116h-30.551c0-.017 1.507 33.116 5.464 33.116m-3.554-4.999c-.631-2.774-1.209-6.635-1.715-11.483-.86-8.207-1.245-16.524-1.261-16.604l-.054-.979h32.771l-.048.979c0 .034-.038.873-.125 2.275a99.206 99.206 0 0 1 -.158 2.524 312.138 312.138 0 0 1 -.998 11.805c-.385 3.63-.806 6.716-1.26 9.208-.158.826-.297 1.591-.457 2.275l-.051.249c-.946 4.081-1.927 5.701-3.486 5.701h-19.603c-1.574-.016-2.607-1.73-3.554-5.95m24.874 13.723 3.536 21.28c0 1.744-1.595 3.146-3.536 3.146h-22.86c-1.962 0-3.54-1.416-3.54-3.146l3.54-21.28zm-3.591 25.64c0 .81.735 1.48 1.664 1.48.91 0 1.664-.654 1.664-1.48v-.264h-3.327zm-19.146 0c0 .81.736 1.48 1.662 1.48.93 0 1.666-.654 1.666-1.48v-.264h-3.328zm1.417-32.478h-1.417v5.889h22.456v-5.889h-1.419zm35.998-28.272-.018.171-2.574 17.228c-.438 2.556-2.416 4.253-4.957 4.253h-4.258l.018-.061c.175-.748.332-1.574.491-2.46h3.766c1.313 0 1.98-1.075 2.139-2.09l2.556-17.117c-.034-1.013-.982-1.822-2.12-1.822h-4.082c.073-.967.123-1.823.159-2.524h3.923c2.734 0 4.958 1.979 4.958 4.425m-83.94 163.758h-13.603l-8.054 15.158h40.191l-7.953-15.158zm.125 68.377v-47.057h-.868v-1.908h.868v-3.418h-3.271v3.418h.812v1.908h-.812v47.057c-4.542.167-8.009 1.042-8.009 2.091 0 1.169 4.291 2.122 9.59 2.122s9.589-.946 9.589-2.122c0-1.049-3.413-1.916-7.9-2.091m-.349-69.203h-2.691l.556-2.108h1.581l.555 2.108zm259.185 153.16-6.899 14.118c-1.534 3.141-4.353 4.905-6.291 3.928l-16.491-8.216c-1.945-.976-2.275-4.296-.734-7.452l6.894-14.126c1.536-3.141 4.353-4.905 6.291-3.928l16.493 8.216c1.938.977 2.268 4.311.736 7.451zm-11.693 25.181-1.226 2.504c-.272.561-.777.873-1.122.708l-2.932-1.463c-.344-.18-.406-.763-.128-1.325l1.225-2.518c.272-.561.773-.873 1.119-.693l2.932 1.463c.345.165.4.764.132 1.325zm-4.24 8.679-1.227 2.518c-.274.547-.775.873-1.118.693l-2.936-1.462c-.35-.165-.407-.763-.13-1.325l1.224-2.504c.277-.562.775-.873 1.125-.708l2.93 1.463c.347.165.402.764.132 1.325zm-4.241 8.679-1.227 2.518c-.275.562-.775.873-1.12.708l-2.937-1.462c-.341-.18-.399-.779-.127-1.34l1.222-2.504c.276-.562.775-.873 1.124-.708l2.93 1.477c.35.165.401.764.135 1.31zm-6.653-3.304-1.226 2.504c-.27.561-.772.873-1.12.708l-2.934-1.477c-.345-.165-.401-.764-.133-1.31l1.23-2.519c.267-.546.774-.873 1.117-.693l2.936 1.462c.345.165.402.764.13 1.325zm-6.647-3.333-1.23 2.519c-.272.561-.775.873-1.12.708l-2.933-1.463c-.346-.18-.406-.763-.131-1.325l1.228-2.519c.27-.561.775-.873 1.12-.708l2.936 1.462c.341.18.398.779.13 1.325zm-6.655-3.303-1.227 2.504c-.273.561-.77.873-1.12.708l-2.931-1.477c-.35-.165-.408-.749-.134-1.31l1.228-2.519c.27-.561.774-.873 1.12-.693l2.933 1.463c.348.165.403.764.131 1.325zm-1.171-8.27 1.227-2.504c.274-.561.774-.873 1.121-.708l2.934 1.463c.343.18.402.764.131 1.325l-1.229 2.519c-.269.546-.772.873-1.118.693l-2.932-1.463c-.348-.165-.405-.764-.134-1.325zm4.242-8.679 1.23-2.519c.27-.561.771-.873 1.116-.693l2.935 1.462c.346.165.404.764.132 1.325l-1.227 2.504c-.273.561-.774.873-1.121.708l-2.933-1.463c-.344-.18-.405-.764-.132-1.325zm7.822 11.573-1.226 2.518c-.273.561-.775.873-1.118.693l-2.94-1.462c-.342-.166-.401-.764-.13-1.311l1.229-2.519c.274-.561.774-.873 1.12-.708l2.932 1.463c.347.18.408.763.132 1.325zm5.478-4.937 1.233-2.519c.272-.561.77-.873 1.117-.693l2.933 1.463c.348.165.403.764.13 1.325l-1.223 2.504c-.275.562-.775.873-1.125.708l-2.932-1.463c-.342-.18-.403-.764-.133-1.325zm1.043 6.93c.344.18.405.764.13 1.325l-1.227 2.518c-.274.561-.774.873-1.122.694l-2.932-1.463c-.345-.165-.402-.764-.13-1.325l1.226-2.504c.273-.561.77-.873 1.12-.708l2.935 1.462zm-7.692-10.248 1.23-2.519c.27-.561.772-.873 1.117-.693l2.932 1.463c.347.165.406.763.132 1.325l-1.224 2.504c-.275.562-.775.873-1.12.708l-2.936-1.462c-.343-.18-.4-.779-.131-1.325zm33.026-31.092-17.919-8.944c-3.281-1.642-8.05 1.349-10.648 6.66l-21.19 43.381c-2.597 5.325-2.039 10.953 1.243 12.595l17.919 8.944c3.283 1.642 8.053-1.349 10.65-6.66l21.193-43.395c2.596-5.325 2.038-10.967-1.248-12.595m663.923-128.983c0 .872-.718 1.582-1.616 1.582s-1.616-.709-1.616-1.582c0-.876.718-1.584 1.616-1.584s1.616.708 1.616 1.584m-2.8 2.324-3.72 14.435 2.219.452 2.822-14.599-1.321-.287zm-7.517 29.103h3.271l2.347-12.097-2.373-.475-3.245 12.571m5.473 22.894c-4.143 0-7.491-3.272-7.491-7.311 0-4.038 3.348-7.311 7.491-7.311 4.13 0 7.478 3.273 7.478 7.311 0 4.039-3.348 7.311-7.478 7.311zm-41.636 0c-4.13 0-7.478-3.272-7.478-7.311 0-4.038 3.348-7.311 7.478-7.311s7.491 3.273 7.491 7.311c0 4.039-3.361 7.311-7.491 7.311zm43.033-21.479h-5.785c-7.119 3.911-7.337 10.613-7.35 11.339l.115.822h-18.599l-.064-.664c-.859-7.564-5.285-10.428-7.619-11.497h-5.131c-7.747 0-14.032 6.138-14.032 13.71s6.285 13.71 14.032 13.71h9.8l2.283-6.539c.654-1.738 2.347-2.927 4.233-2.976h11.403c1.898.049 3.579 1.285 4.156 3.06l1.873 6.455h10.685c7.747 0 14.032-6.139 14.032-13.71 0-7.573-6.285-13.71-14.032-13.71zm-16.713 20.143h-11.403c-.731-.045-1.886.754-2.065 1.458l-2.014 5.82h19.137l-1.706-5.836c-.154-.7-1.231-1.485-1.95-1.442zm-13.545-9.474h15.623c.141-1.893 1.077-6.941 6.08-10.669h-27.783c2.463 1.762 5.272 4.968 6.08 10.669"/><path d="m1071.34 541.63v370.578c0 13.328 17.011 24.131 30.337 24.131h79.621m-883.175-75.429v-53.009c0-13.365-6.287-24.2-14.041-24.2h-51.723c-7.756 0-14.043-10.308-14.043-23.023v-36.445" fill="none" stroke="#fff" stroke-miterlimit="10" stroke-width="2.896"/><path d="m344.602 884.7c0 24.432-19.807 44.243-44.242 44.243s-44.242-19.811-44.242-44.243c0-24.435 19.807-44.243 44.242-44.243s44.242 19.807 44.242 44.243" fill="#fff" stroke="#fff" stroke-width=".121"/><path d="m324.539 883.452h63.341c13.328 0 24.131 10.805 24.131 24.131v1.439c0 13.329 10.279 24.133 22.957 24.133h36.341" fill="none" stroke="#fff" stroke-miterlimit="10" stroke-width="2.896"/><path d="m537.079 929.082c0 24.432-19.807 44.243-44.242 44.243s-44.242-19.811-44.242-44.243c0-24.435 19.807-44.243 44.242-44.243s44.242 19.807 44.242 44.243" fill="#fff" stroke="#fff" stroke-width=".121"/><path d="m1248.439 803.514h-75.706c-13.328 0-24.131-17.011-24.131-30.337v-79.621" fill="none" stroke="#fff" stroke-miterlimit="10" stroke-width="2.896"/><path d="m1301.466 795.403c0 24.432-19.807 44.243-44.242 44.243s-44.242-19.811-44.242-44.243c0-24.435 19.807-44.242 44.242-44.242s44.242 19.807 44.242 44.242m157.833 15.227c0 24.432-19.807 44.243-44.242 44.243s-44.242-19.811-44.242-44.243c0-24.435 19.807-44.242 44.242-44.242s44.242 19.807 44.242 44.242" fill="#fff" stroke="#fff" stroke-width=".121"/><path d="m1280.147 771.844c12.659.122 20.587-.666 21.663 13.369h15.44c0-21.74-18.962-24.668-37.508-24.668-18.544 0-37.506 2.929-37.506 24.668h15.323c1.185-14.305 10.031-13.495 22.589-13.369m-30.269 20.355c3.761 0 6.889.224 7.584-3.473a9.242 9.242 0 0 0 .149-1.733h-15.468c0 5.503 3.465 5.207 7.734 5.207m52.027-5.206h-.145c0 .666.058 1.238.162 1.733.734 3.409 3.862 3.2 7.61 3.2 4.289 0 7.766.284 7.766-4.933zm-14.191 7.28a2.13 2.13 0 0 1 -2.13-2.133 2.13 2.13 0 1 1 4.26 0 2.13 2.13 0 0 1 -2.13 2.133zm0 7.305a2.13 2.13 0 1 1 0-4.26 2.13 2.13 0 0 1 0 4.26zm0 7.309a2.13 2.13 0 1 1 0-4.26 2.13 2.13 0 0 1 0 4.26zm-8.769-14.614a2.129 2.129 0 0 1 -2.13-2.133 2.13 2.13 0 1 1 4.26 0 2.13 2.13 0 0 1 -2.13 2.133zm0 7.305a2.129 2.129 0 0 1 -2.13-2.128 2.13 2.13 0 1 1 4.26 0 2.13 2.13 0 0 1 -2.13 2.128zm0 7.309a2.129 2.129 0 0 1 -2.13-2.128 2.13 2.13 0 1 1 4.26 0 2.13 2.13 0 0 1 -2.13 2.128zm-8.767-7.309a2.132 2.132 0 0 1 0-4.261 2.13 2.13 0 1 1 0 4.261zm0 7.309a2.132 2.132 0 0 1 0-4.261 2.13 2.13 0 1 1 0 4.261zm24.178-25.64v-2.186c0-.98-1.129-1.037-2.523-1.037h-2.267c-1.392 0-2.519.058-2.519 1.037v3.345h-16.081v-3.345c0-.98-1.125-1.037-2.515-1.037h-2.271c-1.394 0-2.519.058-2.519 1.037v4.094c-3.665 3.806-15.647 20.008-16.081 21.97l.004 13.092c0 1.206.984 2.19 2.188 2.19h58.466a2.194 2.194 0 0 0 2.188-2.19v-13.156c-.429-1.902-12.411-18.1-16.072-21.906v-1.908" fill="#131112"/><path d="m328 877.667c.019-.145.037-.274.019-.354l-.019-.163-.163.08c-.091.049-.18.13-.31.244-.381.339-.887.969-1.416 1.938-.527.969-.761 1.712-.836 2.198-.017.146-.037.274-.017.356l.017.16.163-.08c.093-.049.183-.13.31-.242.381-.34.891-.969 1.415-1.94.529-.969.765-1.712.837-2.198m-1.326-.339h-.035c-.984 0-1.91.516-2.326 1.294a1.998 1.998 0 0 0 -.111 1.76c.111.259.256.502.455.712.182-.679.51-1.421.8-1.972a9.846 9.846 0 0 1 1.217-1.794m1.163 2.811a9.798 9.798 0 0 1 -1.236 1.795h.038c.98 0 1.906-.517 2.326-1.293.308-.55.345-1.179.106-1.761a2.243 2.243 0 0 0 -.455-.712c-.143.68-.487 1.439-.78 1.971m-1.309-5.737.111.145.106-.145a.942.942 0 0 0 .146-.339c.164-.452.329-1.211.329-2.295 0-1.066-.164-1.842-.329-2.294l-.146-.341-.106-.146-.111.146c-.053.08-.109.193-.145.341-.164.452-.328 1.211-.328 2.294 0 1.066.163 1.843.328 2.295zm-.98-.532c-.182-.679-.236-1.487-.236-2.086 0-.596.054-1.405.236-2.084-.891.372-1.508 1.164-1.508 2.084 0 .922.635 1.715 1.508 2.086m3.688-2.102c0-.922-.619-1.73-1.508-2.085.182.679.236 1.487.236 2.085s-.054 1.405-.236 2.085c.889-.355 1.508-1.148 1.508-2.085m1.508 14.772c0-.243-.218-.436-.489-.436h-7.233c-.272 0-.491.193-.491.436 0 .242.219.436.491.436h7.233c.272 0 .489-.195.489-.436m-.489 1.098h-7.233m7.723 1.972c0-.242-.218-.436-.489-.436h-7.233c-.272 0-.491.195-.491.436 0 .243.219.435.491.435h7.233c.272 0 .489-.192.489-.435m0 3.071c0-.243-.218-.436-.489-.436h-7.233c-.272 0-.491.193-.491.436 0 .242.219.436.491.436h7.233c.272 0 .489-.195.489-.436m-.962-14.028a2.943 2.943 0 0 0 -1.036-1.31c0-.387-.13-.677-.436-.807-.091-.032-.18-.065-.292-.065-.218 0-.455.098-.69.258a3.364 3.364 0 0 0 -.69-.064c-1.273 0-2.456.663-2.999 1.663a2.67 2.67 0 0 0 -.147 2.264 2.93 2.93 0 0 0 1.038 1.308c0 .389.125.68.434.809a.85.85 0 0 0 .292.065c.218 0 .454-.098.69-.259.237.048.456.066.692.066 1.271 0 2.452-.664 2.997-1.665a2.678 2.678 0 0 0 .146-2.263m-6.469-6.884c0 1.389 1.089 2.553 2.544 2.877.199.339.454.566.782.566.325 0 .599-.228.781-.566 1.452-.323 2.544-1.487 2.544-2.877s-1.091-2.554-2.544-2.877c-.2-.34-.456-.566-.781-.566-.329 0-.599.226-.782.566-1.455.322-2.544 1.487-2.544 2.877m8.996-4.606v28.362c0 .42-.382.775-.873.775h-9.614c-.472 0-.873-.339-.873-.775v-28.362c0-.421.382-.775.873-.775h9.614c.491.015.873.354.873.775m.743 0c0-.793-.726-1.422-1.597-1.422h-9.614c-.891 0-1.599.647-1.599 1.422v28.362c0 .792.727 1.421 1.599 1.421h9.614c.889 0 1.597-.646 1.597-1.421zm-17.826 1.632c-.346-1.212-1.782-2.36-3.144-2.521a168.005 168.005 0 0 0 -39.472 0c-1.362.177-2.798 1.326-3.144 2.521-2.125 8.388-2.125 16.306 0 24.694.346 1.212 1.782 2.36 3.144 2.521a168.005 168.005 0 0 0 39.472 0c1.362-.177 2.798-1.326 3.144-2.521 2.126-8.387 2.126-16.306 0-24.694m21.081-4.218v35.312h-71.911v-35.312c0-1.212 1.109-2.199 2.472-2.199h66.985c1.363 0 2.453.987 2.453 2.199m-71.911 37.17c0 1.211 1.109 2.197 2.472 2.197h66.985c1.363 0 2.472-.986 2.472-2.197v-1.212h-71.929zm61.877 4.395c0 .486.436.874.983.874h3.034c.546 0 .983-.388.983-.874v-1.536h-5.016v1.536zm-56.862-1.536h5.017v1.536c0 .486-.436.874-.984.874h-3.052c-.545 0-.981-.388-.981-.874zm200.044 5.614c.129.268.258.408.345.433.086-.025.216-.166.344-.433.056-.128.13-.268.186-.447.201-.586.388-1.48.388-2.667 0-1.188-.173-2.082-.388-2.668-.057-.178-.131-.332-.186-.447-.129-.267-.272-.42-.344-.433-.087.025-.201.167-.345.433-.058.128-.129.268-.185.447-.202.586-.375 1.48-.375 2.668 0 1.187.173 2.081.388 2.667.044.167.114.319.172.447m3.402-3.114c0-.971-.573-1.812-1.435-2.298.172.701.244 1.507.244 2.298 0 .792-.085 1.596-.244 2.298.862-.485 1.435-1.327 1.435-2.298m-4.665 2.298c-.171-.702-.243-1.506-.243-2.298 0-.79.086-1.597.243-2.298-.861.486-1.434 1.326-1.434 2.298 0 .97.573 1.813 1.434 2.298m25.86 16.745a1.845 1.845 0 0 0 -1.779-.076l-.274.167a1.448 1.448 0 0 0 -.617 1.134v.027c0 .19.043.369.114.534.158.371.474.677.89.843.158.063.314.101.487.114l.217.026c.558 0 1.047-.242 1.361-.613.073-.09.144-.179.187-.282.099-.191.159-.395.159-.623 0-.409-.188-.767-.476-1.048l-.271-.205m1.723 2.375c.185-.346.286-.715.286-1.123 0-.767-.373-1.47-.962-1.94l-.171-.13a3.141 3.141 0 0 0 -1.822-.561c-.559 0-1.09.141-1.536.384l-.186.101c-.761.486-1.248 1.264-1.248 2.146 0 .178.014.344.058.522l.013.051c.26 1.021 1.177 1.839 2.34 2.03h.028c.172.025.344.038.531.038 1.119 0 2.095-.548 2.598-1.365l.072-.153m18.653-.933c-.157 1.238-1.203 2.107-2.381 2.043-4.55-.129-9.042-.256-13.519-.755a4.525 4.525 0 0 1 -.559 1.111c3.832 2.043 7.793 3.421 12.442 4.34 1.205.167 1.807 1.097 1.392 2.144-2.023 5.322-6.227 7.926-12.055 9.483-1.478.242-2.883-.447-3.242-1.518-1.363-3.969-2.669-7.926-3.502-11.985-.374 0-.747-.039-1.104-.104-.904 3.983-1.048 7.824-.503 12.1.231 1.06-.632 1.814-1.938 1.724-5.267-.408-10.847-2.374-13.991-6.305-.788-.995-.559-2.451.459-3.179 3.803-2.731 7.621-5.373 11.81-7.569a4.598 4.598 0 0 1 -.272-.981c-4.722.446-9.025 1.621-13.516 3.548-1.134.6-2.268.141-2.526-1.097-.976-4.826.272-10.109 3.358-14.168.717-.932 2.167-1.149 3.244-.51 3.975 2.373 7.85 4.811 11.366 7.644a6.785 6.785 0 0 1 1.117-.676c-2.021-3.868-4.763-7.097-8.394-10.249-1.047-.766-1.091-1.915.1-2.578 5.079-2.758 11.709-2.798 17.177-.97 1.218.407 1.837 1.506 1.434 2.502-1.421 3.918-2.84 7.772-4.705 11.499.4.23.774.485 1.104.79 3.415-2.718 6.055-5.806 8.395-9.61.531-1.046 1.707-1.456 2.741-.792 4.921 3.229 6.759 8.872 6.069 14.117m3.115-.294c0-12.137-11.064-21.978-24.712-21.978-13.647 0-24.71 9.841-24.71 21.978 0 12.139 11.063 21.98 24.71 21.98 13.648 0 24.712-9.841 24.712-21.98m-48.992-16.822c.303.626.718 1.021 1.249 1.021s.945-.408 1.248-1.021c1.593-.471 2.754-1.799 2.754-3.382 0-1.57-1.161-2.91-2.754-3.383-.303-.624-.717-1.021-1.248-1.021s-.946.408-1.249 1.021c-1.593.473-2.755 1.814-2.755 3.396 0 1.57 1.162 2.91 2.755 3.37m54.057-8.258v50.161c0 .778-.703 1.403-1.576 1.403h-56.396c-.877 0-1.578-.624-1.578-1.403v-50.161c0-.779.701-1.405 1.578-1.405h56.397c.859-.013 1.576.625 1.576 1.405m-3.443 52.408h-3.444c-.512 3.606 3.444 3.606 3.444 0zm-52.68 0h3.443c.511 3.606-3.443 3.606-3.443 0zm996.276-154.94h-38.186v-22.319h38.186zm-41.045-25.051v27.783h43.907v-27.783zm57.621 47.871c0-.744-.628-1.347-1.372-1.347h-68.239a1.36 1.36 0 0 0 -1.372 1.347c0 .731.616 1.334 1.372 1.334h68.239c.744 0 1.372-.603 1.372-1.334m-31.864-5.74h-6.965c-1.398 0-2.142-1.09-1.668-2.45.475-1.36 1.655-2.463 2.642-2.463h4.938c.975 0 2.168 1.103 2.668 2.463.487 1.36-.218 2.45-1.616 2.45zm18.458-11.672h-44.548l-12.506 14.135h70.059l-13.006-14.135"/><path d="m1364.789 330.094h-109.832c-13.328 0-24.131 17.011-24.131 30.337v47.627" fill="none" stroke="#fff" stroke-miterlimit="10" stroke-width="2.896"/><path d="m1450.641 326.844c0 24.432-19.807 44.243-44.242 44.243s-44.242-19.811-44.242-44.243c0-24.435 19.807-44.242 44.242-44.242s44.242 19.807 44.242 44.242" fill="#fff" stroke="#fff" stroke-width=".121"/><path d="m541.304 120.885h-76.652c-13.328 0-24.131 17.011-24.131 30.337v71.757" fill="none" stroke="#fff" stroke-miterlimit="10" stroke-width="2.896"/><path d="m615.092 114.619c0 24.432-19.807 44.243-44.242 44.243s-44.242-19.811-44.242-44.243c0-24.435 19.807-44.242 44.242-44.242s44.242 19.807 44.242 44.242" fill="#fff" stroke="#fff" stroke-width=".121"/><path d="m1450.103 337.137h-7.57a2.468 2.468 0 0 1 0-4.936h7.57a2.47 2.47 0 0 1 0 4.936zm-15.876-.494h-17.607a1.562 1.562 0 0 1 0-3.124h17.607a1.561 1.561 0 1 1 0 3.124zm-26.738.494h-7.568a2.469 2.469 0 0 1 0-4.936h7.568a2.47 2.47 0 0 1 2.471 2.469 2.47 2.47 0 0 1 -2.471 2.467zm-3.557-23.348c2.261-6.374 4.08-8.322 7.754-8.322h27.39c3.651 0 5.68 2.17 7.746 8.296l4.141 8.392a12.668 12.668 0 0 0 -4.407-.778h-42.904c-1.407 0-2.751.226-3.993.637l4.271-8.225zm53.842 17.31a8.57 8.57 0 0 0 -.811-3.635 10.951 10.951 0 0 0 -.195-.859l-5.673-14.068-.039-.124c-1.986-5.914-4.811-11.386-11.977-11.386h-27.394c-7.341 0-9.936 5.608-11.965 11.351l-5.936 14.102c-.859 1.377-1.348 2.948-1.348 4.62v4.377c0 .678.082 1.338.232 1.977-.147.384-.232.8-.232 1.238v13.014c0 1.912 1.55 3.46 3.456 3.46h7.176a3.458 3.458 0 0 0 3.453-3.46v-6.506h37.582v6.506a3.456 3.456 0 0 0 3.456 3.46h6.762a3.459 3.459 0 0 0 3.456-3.46v-13.018c0-.434-.085-.852-.23-1.234a8.64 8.64 0 0 0 .23-1.981v-4.373" fill="#131112"/><path d="m561.134 91.459c-4.238 0-7.665 3.361-7.679 7.506.013 4.158 3.441 7.506 7.679 7.519 4.251-.013 7.692-3.361 7.692-7.519 0-4.145-3.441-7.506-7.692-7.506zm-9.764 7.506c0-5.274 4.384-9.552 9.764-9.552 5.407 0 9.791 4.278 9.791 9.552 0 5.287-4.384 9.565-9.791 9.565-5.38 0-9.764-4.278-9.764-9.565zm-6.948 12.023c2.086-1.382 3.613-3.481 4.171-5.952 1.289 2.537 3.374 4.596 5.899 5.952zm23.674 0h-.226c4.344-2.325 7.294-6.842 7.294-12.023 0-7.559-6.284-13.697-14.016-13.697-7.28 0-13.285 5.447-13.962 12.395a9.953 9.953 0 0 0 -8.277-4.384c-5.487 0-9.924 4.344-9.924 9.698 0 3.334 1.727 6.257 4.344 8.011h-.239c-3.055 0-5.54 2.418-5.54 5.407v17.434c0 2.988 2.484 5.408 5.54 5.408h35.006c3.055 0 5.54-2.421 5.54-5.408v-17.434c0-2.989-2.484-5.407-5.54-5.407m8.031 10.985v7.413l13.949 7.145v-22.329l-13.949 7.772"/><path d="m1239.495 936.167c0 24.432-19.807 44.243-44.242 44.243s-44.242-19.811-44.242-44.243c0-24.435 19.807-44.242 44.242-44.242s44.242 19.807 44.242 44.242" fill="#fff" stroke="#fff" stroke-width=".121"/><path d="m1452.656 567.158v-77.45c0-13.328-10.805-24.131-24.131-24.131h-205.023c-13.329 0-24.133-10.279-24.133-22.957v-36.341" fill="none" stroke="#fff" stroke-miterlimit="10" stroke-width="2.896"/><path d="m1495.881 581.734c0 24.432-19.807 44.243-44.242 44.243s-44.242-19.811-44.242-44.243c0-24.435 19.807-44.242 44.242-44.242s44.242 19.807 44.242 44.242" fill="#fff" stroke="#fff" stroke-width=".121"/><path d="m1236.724 901.335h-44.054v51.01h44.054zm-22.027 57.967a2.318 2.318 0 1 0 0-4.637 2.32 2.32 0 0 0 0 4.637m25.505 2.319h-51.01a3.478 3.478 0 0 1 -3.478-3.478v-60.287a3.478 3.478 0 0 1 3.478-3.478h51.01a3.478 3.478 0 0 1 3.478 3.478v60.287a3.478 3.478 0 0 1 -3.478 3.478" fill-rule="evenodd"/><path d="m1440.958 579.348c8.392-15.293 27.903 6.539 38.624-.422-5.311 16.743-28.627-4.892-38.624.422m7.384-8.435c8.378-15.279 27.903 6.526 38.624-.422-5.311 16.756-28.627-4.89-38.624.422m7.384-8.449c8.378-15.293 27.889 6.539 38.624-.409-5.311 16.743-28.641-4.903-38.624.409m8.52-8.378s1.647-2.478 10.167.554c8.492 3.006 9.017 1.661 9.883-.461 1.477-3.691-17.04-10.651-20.05-.092m-1.988 34.207c-1.988 10.269-12.184 2.518-17.267 8.477l5.183 5.18s1.108-2.359 6.773-1.977c7.412.514 11.644-5.801 11.545-9.505zm-11.644-5.467-7.299-2.637c-3.735.474-1.846 5.01-1.292 7.357 1.321 5.405.057 6.275.057 6.275l1.164 1.2c1.619-1.964 3.337-2.532 5.282-2.782-.511-3.625-1.903-7.212 2.087-9.413m-4.259 27.079a1.252 1.252 0 0 1 -1.747-.04l-10.267-10.389a1.193 1.193 0 0 1 .028-1.701c.483-.474 1.264-.447 1.747.027l10.267 10.401c.469.474.454 1.24-.028 1.701m-1.42 1.663a1.265 1.265 0 0 1 -1.747-.027l-10.267-10.401a1.18 1.18 0 0 1 .043-1.701 1.262 1.262 0 0 1 1.747.027l10.267 10.401c.454.474.44 1.24-.043 1.701m2.982-3.281a1.262 1.262 0 0 1 -1.747-.027l-10.267-10.401a1.18 1.18 0 0 1 .043-1.701c.483-.461 1.264-.447 1.747.027l10.252 10.401c.469.474.454 1.24-.028 1.701m1.42-1.689a1.269 1.269 0 0 1 -1.761-.038l-10.267-10.403c-.454-.474-.44-1.238.043-1.7s1.264-.436 1.732.026l10.281 10.401c.469.476.454 1.24-.028 1.714m-11.502 3.763a.364.364 0 0 1 -.497.04l-3.081-2.559a.336.336 0 0 1 -.028-.5l2.911-3.336a.379.379 0 0 1 .511-.04l3.067 2.557c.156.132.156.342.028.488l-2.911 3.348"/><g fill="#64afe4" fill-opacity=".505"><path d="m911.409 539.456c-4.269.947-7.536 2.747-10.302 5.68-2.209 2.357-3.638 4.919-4.511 8.149l-.483 1.763-.074 14.534c-.056 16.038-.093 15.574 1.095 17.374.334.501 1.04 1.188 1.615 1.559.891.594 1.188.687 2.376.743 1.708.093 2.766-.353 3.694-1.596.891-1.151 1.207-2.339 1.207-4.492 0-1.522.056-1.875.371-2.283.705-.891 3.397-1.077 4.047-.26.093.111.223 1.132.278 2.265.13 2.506.464 3.508 1.578 4.752 1.095 1.225 2.005 1.633 3.545 1.652 1.485 0 2.543-.464 3.453-1.541 1.002-1.169 1.411-2.487 1.541-4.919.093-2.079.093-2.098.613-2.376.78-.39 2.042-.501 2.58-.223.446.241.464.353.575 2.413.093 1.949.167 2.302.705 3.378 1.002 2.042 2.58 3.118 4.752 3.23 1.077.056 1.485 0 2.19-.334 1.077-.501 2.06-1.578 2.71-2.951l.483-1.04v-14.85c0-14.776 0-14.85-.408-16.483-.928-3.601-2.636-6.59-5.197-9.058-2.432-2.357-4.789-3.712-8.149-4.733-1.504-.446-1.968-.501-5.365-.557-2.766-.056-4.028 0-4.919.204zm9.188 3.23c.817.204 2.357.817 3.434 1.355 1.726.854 2.172 1.188 3.824 2.84 1.522 1.522 2.005 2.153 2.71 3.527.483.928 1.058 2.302 1.299 3.063.408 1.392.408 1.392.483 16.094.056 14.59.056 14.72-.334 15.463-.446.872-1.374 1.411-2.098 1.225-.613-.148-1.559-.947-1.893-1.615-.186-.353-.278-1.095-.278-2.246 0-2.84-.52-3.972-2.209-4.845-1.856-.928-4.752-.594-6.293.724-1.225 1.04-1.392 1.522-1.522 4.214-.13 2.543-.316 3.063-1.355 3.657-.427.241-.557.241-1.132-.037-1.021-.501-1.281-1.207-1.411-3.787-.093-2.079-.13-2.302-.65-3.137-.835-1.337-2.116-1.986-4.084-2.098-2.654-.148-4.733.798-5.606 2.562-.353.687-.427 1.132-.427 2.599 0 2.06-.223 3.026-.854 3.657-.557.557-1.374.483-2.079-.186-1.002-.928-.965-.334-.965-15.425 0-15.11.019-15.37 1.002-18.006 1.968-5.216 6.998-9.133 12.752-9.949 1.893-.26 5.977-.074 7.685.353zm-1.948 1.87c-.278.538.056 1.058.78 1.207.334.074 1.281.446 2.098.835 3.378 1.633 5.699 4.418 6.608 7.926.316 1.244.353 2.079.353 7.017 0 4.102.056 5.643.223 5.81.334.334 1.04.26 1.262-.13.241-.483.241-9.04 0-11.23-.575-5.012-3.842-9.244-8.632-11.193-1.726-.705-2.413-.761-2.692-.241zm-13.54 10.24c-3.026.928-4.251 4.604-2.376 7.072 1.633 2.135 5.03 2.339 6.831.39 2.58-2.766.872-7.239-2.896-7.574-.52-.037-1.207 0-1.559.111zm2.58 1.745c1.782.91 2.116 3.434.613 4.733-1.986 1.763-4.882.501-4.882-2.135 0-1.708 1.151-2.877 2.84-2.877.483 0 1.132.13 1.429.278zm9.02-1.785c-.928.241-1.671.705-2.32 1.429-.817.947-1.114 1.726-1.114 2.951 0 2.543 1.893 4.436 4.455 4.436s4.455-1.893 4.455-4.436c0-1.726-.891-3.211-2.432-3.991-.78-.408-2.246-.594-3.044-.39zm2.506 1.856c.761.39 1.485 1.652 1.485 2.562 0 3.026-4.232 4.01-5.55 1.281-.427-.872-.483-1.504-.186-2.283.223-.613 1.04-1.522 1.559-1.726.668-.278 2.023-.204 2.692.167zm-96.806-11.558c-2.556.385-5.268-.421-6.056-1.796-.788-1.383.632-2.813 3.179-3.198 2.556-.394 5.259.421 6.047 1.796.806 1.383-.623 2.804-3.17 3.198zm-2.932 6.358c-2.181.797-5.204.467-6.743-.724s-1.017-2.804 1.164-3.601c2.171-.788 5.195-.467 6.734.724s1.026 2.804-1.154 3.601zm-9.217-10.701c-2.675-.064-4.81-1.274-4.783-2.703.037-1.429 2.226-2.547 4.902-2.483 2.666.055 4.801 1.264 4.764 2.694-.037 1.429-2.217 2.547-4.883 2.492zm-3.005 9.849c-1.594 1.118-4.627 1.31-6.762.421-2.144-.889-2.584-2.529-.98-3.646 1.594-1.127 4.627-1.31 6.762-.421 2.144.889 2.575 2.52.98 3.646zm-12.387-9.4c.861-1.347 3.601-2.025 6.12-1.53 2.538.495 3.894 1.997 3.033 3.335-.852 1.347-3.592 2.034-6.129 1.53-2.52-.495-3.876-1.988-3.023-3.335zm15.575-7.687c-10.82-.238-19.708 4.269-19.836 10.078-.137 5.8 8.53 10.701 19.35 10.939s19.698-4.27 19.836-10.078c.137-5.8-8.521-10.701-19.35-10.939m8.906 25.401a36.738 36.738 0 0 0 7.229-2.483l-.156 6.496a34.225 34.225 0 0 1 -7.229 2.703zm-2.868 7.284a35.127 35.127 0 0 1 -7.476.476 31.91 31.91 0 0 1 -2.739-.266l.156-6.817c.916.128 1.814.229 2.703.266a37.129 37.129 0 0 0 7.513-.421l-.156 6.762zm-12.909-.238c-3.335-.632-6.798-1.558-10.161-2.226l.165-7.082c3.335.678 6.789 1.722 10.161 2.446zm-12.845-2.703c-2.556-.367-4.993-.504-7.229-.11l.192-6.945c2.254-.696 4.654-.33 7.192 0l-.156 7.055zm37.968-9.162h-.009l.037-1.603s-7.623 5.561-19.662 4.819c-12.039-.751-27.468-9.84-32.974 2.932l-.073 2.941c1.768-4.187 3.692-5.662 5.25-6.303l-.137 7.229c-1.869.788-4.288 2.996-5.259 5.699l-.055 2.043c5.516-12.772 20.944-3.674 32.984-2.932 12.03.751 19.662-4.81 19.662-4.81l.018-1.09h.018l.202-8.924m-22.216-82.769a8.534 8.534 0 0 1 8.535-8.534 8.534 8.534 0 1 1 0 17.069 8.534 8.534 0 0 1 -8.535-8.535zm8.535 22.418c1.413 0 13.214-14.657 13.214-21.954 0-7.298-5.917-13.215-13.214-13.215-7.298 0-13.214 5.917-13.214 13.215 0 7.297 11.851 21.954 13.214 21.954m23.465-10.098a2.209 2.209 0 0 0 -2.207-2.206h-8.048c-.168 0-.36-.01-.574.347l-.786 1.31c-.186.307.095.411.211.411h9.198c.072 0 .137.065.137.138l2.071 18.134a.144.144 0 0 1 -.138.141h-46.662a.144.144 0 0 1 -.138-.141l2.069-18.134c0-.073.067-.138.139-.138h9.126c.188 0 .484-.109.147-.659-.397-.647-.242-.457-.664-1.174-.157-.266-.374-.235-.668-.235h-7.941a2.21 2.21 0 0 0 -2.207 2.206l-2.07 18.134c0 1.219.99 2.208 2.207 2.208h46.662a2.208 2.208 0 0 0 2.206-2.208zm-16.572-63.518h-5.22a.344.344 0 0 1 -.343-.343v-1.149a.344.344 0 0 0 -.343-.343h-7.305a.343.343 0 0 0 -.343.343v1.149a.343.343 0 0 1 -.342.343h-5.221a.343.343 0 0 0 -.343.342v1.47c0 .189.154.343.343.343h19.117a.344.344 0 0 0 .343-.343v-1.47a.344.344 0 0 0 -.343-.342m-3.12-17.008-.067.002-.065.012-.171.018h-14.326c-.107 0-.215-.021-.324-.058l-.102-.031a3.027 3.027 0 0 1 -2.303-2.945c0-1.674 1.371-3.212 3.035-3.035.257.027.734.015.919-.169.183-.184.148-.615.122-.873-.275-2.584 2.115-4.712 4.713-4.712 1.812 0 3.671.983 4.262 2.697.097.282.281.753.566.835.287.082.71-.217.941-.405.702-.576 1.648-.756 2.559-.756a4.719 4.719 0 0 1 4.713 4.713 4.709 4.709 0 0 1 -4.473 4.708zm-.241-11.504c-.913 0-1.737.278-2.568.63a.14.14 0 0 1 -.163-.056 6.834 6.834 0 0 0 -5.597-2.943c-3.329 0-6.041 2.49-6.622 5.653-.016.092 0 .239-.211.252-2.357.456-4.041 2.477-4.041 4.967a5.105 5.105 0 0 0 3.837 4.954c.318.108.646.163.976.163h14.326c.151 0 .306-.012.469-.039a6.792 6.792 0 0 0 6.39-6.785 6.806 6.806 0 0 0 -6.797-6.797m16.274 18.673h-44.96v-26.874c0-.362.307-.668.67-.668h43.622c.362 0 .668.306.668.668zm-22.48 3.816a1.24 1.24 0 1 1 0-2.48 1.24 1.24 0 0 1 0 2.48zm21.811-33.442h-43.622a2.754 2.754 0 0 0 -2.752 2.752v30.315a2.756 2.756 0 0 0 2.752 2.752h43.622a2.757 2.757 0 0 0 2.752-2.752v-30.315a2.756 2.756 0 0 0 -2.752-2.752m-105.515 207.843a.295.295 0 0 0 -.293-.294h-6.265a.295.295 0 0 0 -.293.294v.986a.294.294 0 0 1 -.294.293h-4.475a.295.295 0 0 0 -.294.294v1.26c0 .161.132.293.294.293h16.391a.295.295 0 0 0 .293-.293v-1.26a.295.295 0 0 0 -.293-.294h-4.476a.294.294 0 0 1 -.293-.293v-.986m15.848-7.13h-38.547v-23.041c0-.311.265-.574.575-.574h37.399c.311 0 .574.263.574.574v23.041zm-19.272 3.271a1.063 1.063 0 1 1 0-2.125 1.063 1.063 0 0 1 0 2.125zm18.699-28.671h-37.399a2.361 2.361 0 0 0 -2.358 2.359v25.988a2.361 2.361 0 0 0 2.358 2.36h37.399a2.362 2.362 0 0 0 2.36-2.36v-25.988a2.362 2.362 0 0 0 -2.36-2.359m-4.217 7.19a.828.828 0 0 0 -1.161.156l-6.099 7.985-7.25-3.856a1.501 1.501 0 0 0 -1.922.472l-4.801 7.012a.502.502 0 0 1 -.239.127h-6.986a.828.828 0 1 0 0 1.657h6.986c.594 0 1.268-.355 1.603-.845l4.718-6.889 7.218 3.84a1.55 1.55 0 0 0 1.921-.42l6.169-8.078a.829.829 0 0 0 -.157-1.161m31.524-118.921c-.57 0-1.066.356-1.331.883v-.08c0-1.104-.784-1.999-1.751-1.999-.665 0-1.244.424-1.54 1.05-.296-.626-.875-1.05-1.54-1.05-.533 0-1.01.273-1.331.703v-6.202c0-1.105-.783-1.999-1.75-1.999-.968 0-1.751.894-1.751 1.999v12.215l-.816-1.7c-.317-.664-.917-1.04-1.536-1.04-.284 0-.572.08-.84.246-.848.532-1.158 1.747-.693 2.715l4.035 8.413c.002.009.433.689.649 1.015.593.895 1.379 1.58 2.413 1.58h6.078c1.788 0 3.237-1.716 3.237-3.832v-11.164c0-.968-.687-1.752-1.534-1.752m11.509-6.121c-.74 0-1.337-.599-1.337-1.339a1.337 1.337 0 1 1 2.676 0c0 .74-.6 1.339-1.339 1.339zm.549-17.417h-40.081a2.747 2.747 0 0 0 -2.745 2.744v26.716a2.747 2.747 0 0 0 2.745 2.744h11.892s.746 0 .577-.54c-.119-.378-.66-1.384-.685-1.431-.221-.433-.803-.388-.803-.388h-8.727a.661.661 0 0 1 -.666-.652v-26.184c0-.358.3-.652.666-.652h34.47c.365 0 .665.294.665.652v26.184a.66.66 0 0 1 -.665.652h-4.585s-.924-.094-.924.699v.961c0 .698.982.698.982.698h7.885a2.747 2.747 0 0 0 2.745-2.744v-26.716a2.748 2.748 0 0 0 -2.745-2.744m146.897-5.196c0 1.627-1.348 2.942-2.976 2.942h-24.045c-1.629 0-2.978-1.314-2.978-2.942v-14.729a2.58 2.58 0 0 1 2.58-2.58h24.84a2.578 2.578 0 0 1 2.578 2.58v14.729zm-2.928-23.061a1.568 1.568 0 0 1 0 3.134 1.567 1.567 0 0 1 0-3.134zm-.025-3.049h-24.046a6.027 6.027 0 0 0 -6.027 6.028v20.119a6.027 6.027 0 0 0 6.027 6.028h24.046a6.028 6.028 0 0 0 6.028-6.028v-20.119a6.028 6.028 0 0 0 -6.028-6.028m-18.197 11.665c0-.718-.583-1.3-1.302-1.3h-3.501c-.718 0-1.302.582-1.302 1.3v13.533c0 .72.583 1.302 1.302 1.302h3.501c.718 0 1.302-.582 1.302-1.302zm18.45 0a1.3 1.3 0 0 0 -1.3-1.3h-14.288a1.3 1.3 0 0 0 -1.302 1.3v1.231c0 .718.582 1.302 1.302 1.302h14.288c.718 0 1.3-.583 1.3-1.302zm-9.465 8.04c0-.72-.583-1.302-1.302-1.302h-4.825a1.3 1.3 0 0 0 -1.302 1.302v5.487a1.3 1.3 0 0 0 1.302 1.3h4.825c.718 0 1.302-.582 1.302-1.3zm1.755 5.49a1.3 1.3 0 0 0 1.3 1.3h4.827c.717 0 1.302-.582 1.302-1.3v-5.487c0-.72-.585-1.302-1.302-1.302h-4.827a1.3 1.3 0 0 0 -1.3 1.302zm7.71-8.97a.946.946 0 0 0 -.947-.947h-14.997a.946.946 0 1 0 0 1.892h14.998a.945.945 0 0 0 .945-.945m13.416 41.927a1.539 1.539 0 1 1 .005-3.077 1.539 1.539 0 0 1 -.005 3.077zm-.046-6.316h-23.614a6.15 6.15 0 0 0 -6.148 6.148v19.75c0 2.57 1.576 4.77 3.812 5.687l2.73-2.932-.018-.07h-.375c-1.473 0-2.688-1.229-2.688-2.702v-17.186h28.987v17.189c0 1.472-1.215 2.701-2.688 2.701h-7.863c.395.533.618 1.172.642 1.849.021.568-.1 1.121-.349 1.614h7.572a6.15 6.15 0 0 0 6.148-6.148v-19.75a6.148 6.148 0 0 0 -6.148-6.149m-3.089 24a7.396 7.396 0 0 0 1.987-5.336 7.39 7.39 0 0 0 -2.367-5.179 7.418 7.418 0 0 0 -5.068-1.992 7.47 7.47 0 0 0 -5.449 2.372 7.438 7.438 0 0 0 -1.789 6.784l2.218-2.383.28-.266a4.815 4.815 0 0 1 1.2-2.36 4.788 4.788 0 0 1 3.54-1.54c1.227 0 2.395.459 3.291 1.293a4.79 4.79 0 0 1 1.538 3.366 4.805 4.805 0 0 1 -1.291 3.465 4.781 4.781 0 0 1 -2.962 1.508l-2.276 2.447a7.464 7.464 0 0 0 7.147-2.18m-8.534 3.421a1.584 1.584 0 0 1 -.082-2.251l2.563-2.755c.287-.31.44-.721.427-1.144a1.597 1.597 0 0 0 -.51-1.107l-.846-.789a1.585 1.585 0 0 0 -1.086-.427h-.057a1.592 1.592 0 0 0 -1.11.51l-4.491 4.825a.81.81 0 0 1 -.6.262l-.202-.025a.82.82 0 0 1 -.592-.586l-.274-1.048a1.593 1.593 0 0 0 -1.944-1.14l-1.121.292a1.594 1.594 0 0 0 -1.139 1.945l1.128 4.317a1.6 1.6 0 0 1 -.373 1.49l-4.2 4.513c-.287.308-.44.72-.426 1.142.017.422.199.821.507 1.11l5.303 4.931a1.594 1.594 0 0 0 2.252-.082l9.074-9.754a1.598 1.598 0 0 0 -.082-2.254l-2.119-1.973m-195.699-12.491-2.027 16.905a1.707 1.707 0 0 1 -1.683 1.502h-24.475c-.858 0-1.583-.664-1.684-1.517l-2.255-18.811h30.441c.485 0 .947.218 1.269.582.32.363.473.859.415 1.339zm-8.2 26.051c-.976 0-1.77-.794-1.77-1.771 0-.976.795-1.77 1.77-1.77.976 0 1.772.794 1.772 1.77 0 .977-.796 1.771-1.772 1.771zm-15.454 0a1.772 1.772 0 0 1 -1.771-1.771c0-.976.794-1.77 1.771-1.77.976 0 1.77.794 1.77 1.77 0 .977-.794 1.771-1.77 1.771zm26.129-29.956a5.577 5.577 0 0 0 -4.158-1.885h-37.788a1.934 1.934 0 0 0 0 3.869h3.452l2.314 19.288a5.578 5.578 0 0 0 4.805 4.862 5.59 5.59 0 0 0 -.389 2.05c0 3.109 2.528 5.636 5.636 5.636s5.635-2.527 5.635-5.636c0-.705-.132-1.379-.369-2.002h4.925a5.573 5.573 0 0 0 -.369 2.002 5.64 5.64 0 0 0 5.633 5.636 5.64 5.64 0 0 0 5.636-5.636c0-.724-.14-1.418-.39-2.054a5.581 5.581 0 0 0 4.762-4.859l2.027-16.906a5.6 5.6 0 0 0 -1.362-4.367m-136.271-12.343 2.641-.772a3.896 3.896 0 0 0 .318-7.364l-22.184-8.678a3.89 3.89 0 0 0 -4.173.877 3.894 3.894 0 0 0 -.874 4.17l8.674 22.184a3.894 3.894 0 0 0 3.798 2.472 3.89 3.89 0 0 0 3.566-2.787l.778-2.637 10.189 10.187a3.884 3.884 0 0 0 2.756 1.141 3.887 3.887 0 0 0 2.754-1.141l1.954-1.951a3.899 3.899 0 0 0 0-5.507l-10.198-10.195m49.505-2.898c10.824 0 19.6-2.489 19.6-5.555v-7.009l-.397.284c-1.167.782-2.778 1.466-4.783 2.038-3.88 1.096-8.998 1.701-14.421 1.701-5.422 0-10.541-.606-14.421-1.701-2.007-.572-3.616-1.256-4.784-2.038l-.396-.284v7.009c0 3.066 8.777 5.555 19.6 5.555m.002-10.595c10.458 0 19.003-2.319 19.57-5.247l.03-.309v-7.058l-.397.284c-.982.66-2.284 1.251-3.873 1.759l-.91.278c-.315.088-.633.176-.963.258-.761.189-1.559.36-2.393.514-3.277.607-7.089.93-11.065.93s-7.79-.323-11.071-.93a43.867 43.867 0 0 1 -2.391-.514 22.839 22.839 0 0 1 -.963-.258c-.314-.087-.617-.18-.911-.278-1.589-.508-2.891-1.099-3.873-1.759l-.396-.284v7.058l.03.309c.571 2.928 9.116 5.247 19.575 5.247m2.107-15.886a2.112 2.112 0 0 1 -2.109 2.109c-1.162 0-2.11-.947-2.11-2.109s.948-2.11 2.11-2.11c1.163 0 2.109.948 2.109 2.11zm-13.181 4.26c1.065.205 2.202.385 3.4.528 2.358.284 4.951.443 7.671.443s5.314-.159 7.67-.443a48.827 48.827 0 0 0 3.401-.528c4.846-.942 8.129-2.485 8.499-4.251.025-.113.035-.221.035-.334v-9.979c0-3.067-8.777-5.556-19.6-5.556-10.824 0-19.6 2.489-19.6 5.556v9.979c0 .113.011.221.036.334.366 1.765 3.643 3.308 8.488 4.251m144.026-76.995h-.027c-.409-6.48-5.799-11.608-12.382-11.608-6.075 0-11.129 4.365-12.2 10.128l-.421-.011c-4.526 0-8.345 2.999-9.59 7.114a6.477 6.477 0 1 0 -.585 12.926h11.507v-4.409a5.062 5.062 0 0 1 5.059-5.059h11.555a5.062 5.062 0 0 1 5.059 5.059v4.409h2.023a9.272 9.272 0 0 0 9.272-9.271c0-5.118-4.149-9.277-9.272-9.277m-4.418 14.13a2.663 2.663 0 0 0 -2.663-2.663h-11.555a2.664 2.664 0 0 0 -2.663 2.663v7.519h-3.493c-2.29 0-3.51 2.698-2.003 4.418l11.935 13.594a2.661 2.661 0 0 0 4.004 0l11.934-13.599c1.512-1.721.287-4.418-2.003-4.418h-3.493v-7.515m138.303 121.927c3.875 3.876 10.183 3.876 14.06 0 3.876-3.877 3.876-10.183 0-14.061-3.877-3.876-10.185-3.876-14.06 0-3.878 3.877-3.878 10.184 0 14.061zm-17.554 12.084 9.985-9.984a3.841 3.841 0 0 1 2.671-1.13c-3.745-5.581-3.156-13.228 1.772-18.155 5.598-5.599 14.711-5.599 20.31 0 5.6 5.599 5.6 14.71 0 20.309-4.927 4.927-12.574 5.519-18.155 1.773a3.848 3.848 0 0 1 -1.131 2.671l-9.983 9.984a3.868 3.868 0 0 1 -5.469-5.468m-325.579 44.395c-7.763 0-14.078-6.315-14.078-14.078 0-7.761 6.315-14.078 14.078-14.078s14.078 6.317 14.078 14.078c0 7.763-6.315 14.078-14.078 14.078zm0-31.908c-9.833 0-17.831 7.999-17.831 17.831 0 9.834 7.999 17.833 17.831 17.833s17.831-7.999 17.831-17.833c0-9.833-7.999-17.831-17.831-17.831m9.56 17.288h-6.965a3.057 3.057 0 0 0 -1.014-1.012v-8.372a1.596 1.596 0 1 0 -3.19 0v8.372a3.057 3.057 0 1 0 4.202 4.204h6.965a1.596 1.596 0 1 0 0-3.192m-28.395-28.093-13.353-11.313h26.706zm15.179 10.909h-30.356c-.383 0-.719-.249-.719-.532v-18.361l13.73 11.591c.281.239.639.368 1.007.368h2.319c.368 0 .727-.13 1.008-.368l13.731-11.591v18.361c-.001.283-.337.532-.719.532zm0-26.227h-30.356c-2.605 0-4.725 2.035-4.725 4.537v21.158c0 2.502 2.12 4.538 4.725 4.538h30.356c2.604 0 4.724-2.035 4.724-4.538v-21.158c0-2.501-2.12-4.537-4.724-4.537m440.25 45.57c0 .9-.733 1.634-1.635 1.634h-32.58a1.636 1.636 0 0 1 -1.634-1.634v-19.315h35.849zm-30.078-35.369a1.567 1.567 0 0 1 3.132 0v3.262c0 .864-.703 1.566-1.565 1.566a1.567 1.567 0 0 1 -1.567-1.566zm21.174 0c0-.863.703-1.565 1.565-1.565.863 0 1.566.702 1.566 1.565v3.262c0 .864-.703 1.566-1.566 1.566a1.568 1.568 0 0 1 -1.565-1.566zm7.268.914h-1.528v-.914a4.18 4.18 0 0 0 -4.175-4.175 4.18 4.18 0 0 0 -4.175 4.175v.914h-12.822v-.914a4.18 4.18 0 0 0 -4.174-4.175 4.18 4.18 0 0 0 -4.175 4.175v.914h-1.529a5.999 5.999 0 0 0 -5.992 5.992v28.462a5.999 5.999 0 0 0 5.992 5.992h32.58a5.998 5.998 0 0 0 5.993-5.992v-28.462a5.999 5.999 0 0 0 -5.993-5.992m-24.082 21.039h1.161v10.435c0 .811.658 1.47 1.469 1.47h.029c.81 0 1.47-.659 1.47-1.47v-11.934c0-.811-.66-1.47-1.47-1.47h-2.658a1.47 1.47 0 0 0 -1.469 1.47v.029c0 .81.659 1.47 1.469 1.47m15.575 5.292h-.492v-1.126c0-.81-.66-1.47-1.471-1.47h-.027c-.812 0-1.472.66-1.472 1.47v1.126h-2.004l3.485-6.055a1.472 1.472 0 0 0 -1.274-2.203h-.031c-.525 0-1.012.283-1.275.737l-4.63 8.052a1.475 1.475 0 0 0 -.196.734v.234c0 .811.66 1.469 1.469 1.469h4.456v2.177c0 .811.66 1.47 1.471 1.47h.028c.811 0 1.471-.659 1.471-1.47v-2.177h.492a1.47 1.47 0 0 0 1.47-1.469v-.029c0-.811-.659-1.47-1.47-1.47m-304.575-165.581a1.604 1.604 0 1 1 0-3.208 1.604 1.604 0 0 1 0 3.208zm-2.323-6.061h-8.463v-1.406a4.236 4.236 0 0 1 4.231-4.23 4.236 4.236 0 0 1 4.231 4.23v1.406zm-10.784 6.061a1.604 1.604 0 1 1 0-3.208 1.604 1.604 0 0 1 0 3.208zm22.584 23.959-1.48-28.599a1.497 1.497 0 0 0 -1.495-1.42h-4.369v-1.406c0-4.789-3.897-8.685-8.686-8.685s-8.685 3.896-8.685 8.685v1.406h-4.37c-.798 0-1.454.625-1.496 1.42l-1.484 28.679a1.495 1.495 0 0 0 1.495 1.575h29.082c.828 0 1.497-.67 1.497-1.497l-.009-.157m149.725 91.895a3.616 3.616 0 0 1 -3.613-3.612 3.615 3.615 0 0 1 3.613-3.612 3.616 3.616 0 0 1 3.612 3.612 3.618 3.618 0 0 1 -3.612 3.612zm-11.944 0a3.616 3.616 0 0 1 -3.612-3.612 3.615 3.615 0 0 1 3.612-3.612 3.615 3.615 0 0 1 3.613 3.612 3.617 3.617 0 0 1 -3.613 3.612zm-11.941 0a3.616 3.616 0 0 1 -3.612-3.612 3.615 3.615 0 0 1 3.612-3.612 3.615 3.615 0 0 1 3.613 3.612 3.617 3.617 0 0 1 -3.613 3.612zm28.368-17.051c-4.404-3.818-10.237-5.921-16.427-5.921-6.188 0-12.021 2.103-16.425 5.921-4.5 3.904-6.98 9.121-6.98 14.693 0 5.458 2.433 10.636 6.739 14.478-1.996 3.462-5.344 6.707-5.382 6.744a2.388 2.388 0 0 0 1.653 4.11l.205-.009c.401-.035 9.67-.871 17.716-4.825.824.077 1.655.115 2.476.115 6.188 0 12.021-2.103 16.425-5.921 4.501-3.904 6.98-9.12 6.98-14.691s-2.479-10.789-6.98-14.693m-206.481 54.322h-8.972v-5.058a4.485 4.485 0 1 1 8.972 0zm14.617-16.052-17.003-17.004a2.97 2.97 0 0 0 -4.199 0l-17.004 17.004a2.97 2.97 0 0 0 2.101 5.068h2.303v12.712a3.839 3.839 0 0 0 3.839 3.839h21.722a3.839 3.839 0 0 0 3.839-3.839v-12.712h2.303a2.967 2.967 0 0 0 2.743-1.833 2.965 2.965 0 0 0 -.643-3.235m271.902 71.29-4.67-9.943s2.549-1.843 4.895 1.01c2.348 2.862 1.426 7.558-.226 8.933zm-2.381 2.778c-.812.58-8.1 4.461-13.144-1.01-5.043-5.462-6.479-11.421 3.189-22.103l2.559 6.024s-4.436 4.087-2.996 8.83c1.446 4.743 5.072 5.977 6.684 6.211 0 0-5.968-4.668-2.659-8.951 1.542-1.993 2.107-.299 3.903 3.489 1.794 3.788 3.275 6.922 2.464 7.511zm-9.696-52.773c7.301 9.709-1.143 20.597-1.143 20.597-6.522-14.04 1.143-20.597 1.143-20.597zm12.807 53.326s5.092-4.191 4.774-8.868c-.319-4.677-2.179-8.185-8.18-10.065-1.963-.608-4.777.047-4.777.047l-2.922-6.969s6.407-9.223 4.922-16.136c-2.183-10.177-6.757-17.904-6.757-17.904s-7.283 8.231-6.266 16.107c.66 5.135 1.467 7.978 3.568 13.815 0 0-8.922 9.85-9.603 17.034-.776 8.166 2.786 14.087 9.254 15.041 7.671 1.141 13.82-1.412 13.82-1.412s2.837 3.031 2.32 7.792c-.519 4.752-5.406 7.071-7.33 5.481 0 0 4.514-2.572 2.66-5.968-1.854-3.386-5.342-3.489-7.462-1.076-2.12 2.404-1.291 8.474 5.223 9.017 6.515.542 11.059-6.959 8.239-12.806-1.255-2.601-1.483-3.133-1.483-3.133"/><path d="m718.389 510.402c-.34.374-.374.561-.374 2.788 0 2.397 0 2.414.442 2.754.612.476 1.343.459 1.853-.068.408-.391.425-.493.425-2.686 0-2.057-.034-2.329-.357-2.737-.459-.595-1.462-.612-1.989-.051zm7.089-.068c-.391.306-.408.442-.459 2.601-.051 2.261-.051 2.295.391 2.822.544.646 1.343.731 1.921.204.51-.493.578-.884.51-3.23-.051-1.938-.085-2.091-.459-2.397-.51-.408-1.394-.408-1.904 0zm7.752.102c-.408.391-.425.493-.425 2.686 0 2.244.017 2.295.442 2.737.578.561 1.258.578 1.887.034.459-.408.476-.459.527-2.397.034-1.088.017-2.176-.034-2.397-.289-1.088-1.615-1.462-2.397-.663zm6.409-.034c-.34.374-.374.561-.374 2.788 0 2.397 0 2.414.442 2.754.612.476 1.343.459 1.853-.068.408-.391.425-.493.425-2.686 0-2.057-.034-2.329-.357-2.737-.459-.595-1.462-.612-1.989-.051zm-21.233 8.466c-.884.442-1.496 1.122-2.074 2.363l-.442.935v22.457l.442.833c.306.595.663 1.003 1.258 1.36l.816.51 11.271.051c10.948.034 11.288.034 12.172-.306 1.241-.459 2.21-1.326 2.669-2.38.357-.85.374-.901.323-11.441-.051-10.455-.051-10.591-.425-11.373-.493-1.088-1.768-2.414-2.822-2.941l-.867-.425h-10.795c-10.642 0-10.829 0-11.526.357zm22.44 2.924c1.19.901 1.139.34 1.139 11.73 0 11.577.119 10.625-1.36 10.999-.527.119-3.927.17-11.101.136-10.013-.051-10.353-.068-10.591-.374-.204-.289-.238-2.057-.238-10.914 0-6.358.068-10.761.17-11.016.085-.238.306-.578.51-.782.34-.34.442-.34 10.608-.306l10.251.051zm-19.346 1.972c-1.19.544-1.343.935-1.411 3.723-.068 2.652.017 2.975.799 2.89l.442-.051.085-2.414c.068-2.023.136-2.465.391-2.72s.714-.323 3.128-.391c2.448-.068 2.839-.119 3.009-.391.136-.204.136-.374 0-.595-.17-.255-.527-.289-2.975-.323-2.414-.034-2.89 0-3.468.272zm-14.892-2.04c-.765.765-.629 1.7.306 2.193.221.119 1.207.204 2.516.204 2.04 0 2.159-.017 2.55-.425.255-.255.425-.612.425-.918 0-1.292-.527-1.547-3.23-1.547-2.057 0-2.074 0-2.567.493zm41.412-.289c-.884.476-1.054 1.564-.34 2.261.391.408.51.425 2.55.425 1.309 0 2.295-.085 2.516-.204.935-.493 1.071-1.428.306-2.193-.493-.493-.51-.493-2.601-.493-1.173 0-2.244.085-2.431.204zm-41.14 7.82c-.901.527-1.02 1.445-.272 2.193.493.493.51.493 2.567.493 2.703 0 3.23-.255 3.23-1.547 0-.306-.17-.663-.425-.918-.391-.408-.493-.425-2.584-.425-1.309 0-2.312.085-2.516.204zm40.8.221c-.255.255-.425.612-.425.918 0 1.292.527 1.547 3.23 1.547 2.057 0 2.074 0 2.567-.493.765-.765.629-1.7-.306-2.193-.221-.119-1.207-.204-2.516-.204-2.04 0-2.159.017-2.55.425zm-41.14 7.14c-.527.51-.544 1.241-.068 1.853.34.442.357.442 2.771.442 2.312 0 2.448-.017 2.788-.391.544-.578.51-1.513-.068-1.972-.408-.323-.68-.357-2.737-.357-2.193 0-2.295.017-2.686.425zm41.157-.068c-.595.459-.612 1.462-.051 1.989.374.34.561.374 2.788.374 2.397 0 2.414 0 2.754-.442.476-.612.459-1.343-.068-1.853-.391-.408-.493-.425-2.686-.425-2.057 0-2.329.034-2.737.357zm-41.089 6.426c-.765.765-.629 1.7.306 2.193.221.119 1.207.204 2.516.204 2.04 0 2.159-.017 2.55-.425.255-.255.425-.612.425-.918 0-1.292-.527-1.547-3.23-1.547-2.057 0-2.074 0-2.567.493zm41.412-.289c-.884.476-1.054 1.564-.34 2.261.391.408.51.425 2.55.425 1.309 0 2.295-.085 2.516-.204.935-.493 1.071-1.428.306-2.193-.493-.493-.51-.493-2.601-.493-1.173 0-2.244.085-2.431.204zm-29.563 7.293c-.442.34-.442.357-.442 2.771 0 2.312.017 2.448.391 2.788.578.544 1.513.51 1.972-.068.323-.408.357-.68.357-2.737 0-2.193-.017-2.295-.425-2.686-.51-.527-1.241-.544-1.853-.068zm6.953.187c-.442.527-.442.561-.391 2.822.051 2.159.068 2.295.459 2.601.51.408 1.394.408 1.904 0 .374-.306.408-.459.459-2.397.068-2.346 0-2.737-.51-3.23-.578-.527-1.377-.442-1.921.204zm7.837-.102c-.425.442-.442.493-.442 2.737 0 2.193.017 2.295.425 2.686.782.799 2.108.425 2.397-.663.051-.221.068-1.309.034-2.397-.051-1.938-.068-1.989-.527-2.397-.629-.544-1.309-.527-1.887.034zm6.46-.085c-.442.34-.442.357-.442 2.771 0 2.312.017 2.448.391 2.788.578.544 1.513.51 1.972-.068.323-.408.357-.68.357-2.737 0-2.193-.017-2.295-.425-2.686-.51-.527-1.241-.544-1.853-.068z"/></g></svg>