<?xml version="1.0" encoding="iso-8859-1"?>
<!-- Generator: Adobe Illustrator 16.0.0, SVG Export Plug-In . SVG Version: 6.00 Build 0)  -->
<!DOCTYPE svg PUBLIC "-//W3C//DTD SVG 1.1//EN" "http://www.w3.org/Graphics/SVG/1.1/DTD/svg11.dtd">
<svg version="1.1" id="Capa_1" xmlns="http://www.w3.org/2000/svg" xmlns:xlink="http://www.w3.org/1999/xlink" x="0px" y="0px"
	 width="438.202px" height="438.201px" viewBox="0 0 438.202 438.201" style="enable-background:new 0 0 438.202 438.201;"
	 xml:space="preserve">
	 <style>*{fill: white;}</style>
<g>
	<g>
		<g>
			<path d="M380.124,386.484c0-53.037-30.672-110.824-30.672-110.824c-11.886-23.803-25.355-50.777-54.199-66.684
				c-0.536-0.296-3.288-1.65-4.196-2.076l-31.323-14.42l-15.047-12.688l-24.179,24.05l9.952,71.743l-11.357,3.134l-11.358-3.134
				l9.956-71.743l-24.18-24.05l-15.052,12.688l-31.325,14.42c-0.91,0.427-3.661,1.781-4.195,2.076
				c-28.844,15.905-42.315,42.881-54.2,66.684c0,0-25.648,52.412-30.671,110.824c-0.054,0.623-0.067,1.25-0.067,1.877
				c0,17.295,14.967,31.364,33.364,31.364c1.342,0,2.682-0.104,4.009-0.307c9.289-1.43,17.289-4.402,24.488-8.146l96.089,26.502
				c0.242,0.067,0.486,0.116,0.73,0.162l0.111,0.021c0.195,0.043,0.391,0.086,0.534,0.104c0.618,0.092,1.195,0.139,1.767,0.139
				c0.571,0,1.148-0.047,1.705-0.133c0.208-0.023,0.413-0.066,0.688-0.127c0.252-0.048,0.504-0.099,0.748-0.164l96.088-26.504
				c7.198,3.743,15.198,6.717,24.486,8.146c1.327,0.205,2.667,0.307,4.01,0.307c18.396,0,33.363-14.069,33.363-31.362
				C380.19,387.734,380.124,387.111,380.124,386.484z M207.293,410.887l-62.667-17.285c7.234-9.127,7.763-22.307,0.483-32.096
				c-3.59-4.828-8.521-8.062-13.892-9.599v-72.936l76.075,20.981L207.293,410.887L207.293,410.887z M306.985,351.908
				c-5.372,1.533-10.303,4.77-13.895,9.6c-7.28,9.789-6.751,22.969,0.483,32.096l-62.665,17.285V299.955l76.074-20.982
				L306.985,351.908L306.985,351.908z"/>
			<path d="M219.1,179.791c31.719,0,74.271-39.629,74.993-106.081C294.554,27.597,272.593,0,219.1,0
				c-53.495,0-75.46,27.597-74.992,73.71C144.829,140.163,181.975,179.791,219.1,179.791z M204.025,92.231
				c38.785,4.131,72.597-50.109,72.047-1.545c-0.328,29.072-27.297,72.97-56.967,72.97c-31.144,0-52.63-36.483-56.965-72.954
				C157.438,51.15,230.034,60.162,204.025,92.231z"/>
		</g>
	</g>
</g>
<g>
</g>
<g>
</g>
<g>
</g>
<g>
</g>
<g>
</g>
<g>
</g>
<g>
</g>
<g>
</g>
<g>
</g>
<g>
</g>
<g>
</g>
<g>
</g>
<g>
</g>
<g>
</g>
<g>
</g>
</svg>
