<svg fill="#fff" height="438.201" viewBox="0 0 438.202 438.201" width="438.202" xmlns="http://www.w3.org/2000/svg"><path d="m380.124 386.484c0-53.037-30.672-110.824-30.672-110.824-11.886-23.803-25.355-50.777-54.199-66.684-.536-.296-3.288-1.65-4.196-2.076l-31.323-14.42-15.047-12.688-24.179 24.05 9.952 71.743-11.357 3.134-11.358-3.134 9.956-71.743-24.18-24.05-15.052 12.688-31.325 14.42c-.91.427-3.661 1.781-4.195 2.076-28.844 15.905-42.315 42.881-54.2 66.684 0 0-25.648 52.412-30.671 110.824-.054.623-.067 1.25-.067 1.877 0 17.295 14.967 31.364 33.364 31.364 1.342 0 2.682-.104 4.009-.307 9.289-1.43 17.289-4.402 24.488-8.146l96.089 26.502c.242.067.486.116.73.162l.111.021c.195.043.391.086.534.104.618.092 1.195.139 1.767.139.571 0 1.148-.047 1.705-.133.208-.023.413-.066.688-.127.252-.048.504-.099.748-.164l96.088-26.504c7.198 3.743 15.198 6.717 24.486 8.146 1.327.205 2.667.307 4.01.307 18.396 0 33.363-14.069 33.363-31.362-.001-.629-.067-1.252-.067-1.879zm-172.831 24.403-62.667-17.285c7.234-9.127 7.763-22.307.483-32.096a26.239 26.239 0 0 0 -13.892-9.599v-72.936l76.075 20.981zm99.692-58.979a26.219 26.219 0 0 0 -13.895 9.6c-7.28 9.789-6.751 22.969.483 32.096l-62.665 17.285v-110.934l76.074-20.982zm-87.885-172.117c31.719 0 74.271-39.629 74.993-106.081.461-46.113-21.5-73.71-74.993-73.71-53.495 0-75.46 27.597-74.992 73.71.721 66.453 37.867 106.081 74.992 106.081zm-15.075-87.56c38.785 4.131 72.597-50.109 72.047-1.545-.328 29.072-27.297 72.97-56.967 72.97-31.144 0-52.63-36.483-56.965-72.954-4.702-39.552 67.894-30.54 41.885 1.529z" fill="#fff"/></svg>