<svg xmlns="http://www.w3.org/2000/svg" viewBox="-185 279 240 235"><style>.st0{fill:url(#SVGID_1_)}.st1{fill:#cbfc00}.st2{fill:#e4ecb0}</style><title>shape_app_RGB</title><radialGradient id="SVGID_1_" cx="-368.822" cy="791.47" r=".759" gradientTransform="matrix(218 0 0 -213 80301 168921)" gradientUnits="userSpaceOnUse"><stop offset="0" stop-color="#39391C"/><stop offset="1" stop-color="#1C1B05"/></radialGradient><path class="st0" d="M-174 290H44v213h-218V290z"/><path class="st1" d="M-185 514H55V279h-240v235zm11-224H44v213h-218V290zm154 81l-44-26v10l44 26v-10zm0 47v-9l-44-26v10l44 25zm-47-73l-43 26.6V418l43-25.2V345zm1.5 102l43.5-26-43.5-24-43.5 25 43.5 25zm1.5-89v9l44 26v-9l-44-26zm44 48v-10l-44-26v10l44 26z"/><path class="st2" d="M-78.1 333l-12.9 7.5 2.1 3.5 12.9-7.5-2.1-3.5m-42.8 34v-3.8l7.9-4.7-2.1-3.5-5.8 3.5-2.9 1.7c-.6.3-1.2 1-1.2 1.7v5.1h4.1m24.8 81l2.1-3.5-12.9-7.5-2.1 3.5 12.9 7.5m0-104l-12.9 7.5 2.1 3.5 12.9-7.5-2.1-3.5m-16.9 88.6l-7.9-4.6v-10h-4.1v11.3c0 .7.6 1.3 1.2 1.6l2.9 1.7 5.9 3.4 2-3.4m106.8-72.7l-2.9-1.7-52-31.2-2.9-1.7c-.6-.3-1.6-.3-2.2 0L-69 327l-3.7 2.2 2.1 3.5 5.6-3.4 56 33.5v65.3l-56 33.5-23.9-14.3-2.1 3.5 22 13.2 2.9 1.7c.6.3 1.6.3 2.2 0L-9 432.8l2.9-1.7c.6-.3 1.2-1 1.2-1.6v-68c-.1-.7-.7-1.3-1.3-1.6M-125 374h4v15h-4v-15zm0 21h4v16h-4v-16z"/></svg>