<svg xmlns="http://www.w3.org/2000/svg" viewBox="0 0 107.48 163.59"><defs><clipPath id="a" transform="translate(-.3 -.33)"><path d="M0 0h107.78v163.93H0z" fill="none"/></clipPath></defs><title>stanford_cardinal_logo</title><path fill="#a90533" d="M23.41 0L0 23.26v59.82l20.34 20.34h48.6v20.77H43.95v-13.55H.04v32.7l20.1 20.25h67.64l19.7-19.68V82.8L87.06 63.07H42.45V40.79h24.69v15.36h40.34V22.97L85.02 0H23.41z"/><g clip-path="url(#a)"><path d="M2.7 24.47v57.55l18.73 18.75h50.2v26.19H41.21v-13.55H2.7v28.86l18.81 19h64.8l18.74-18.75V84.25l-19.18-18.4H39.7V38.16h30.11V53.5h35.23v-29L83.88 2.78H24.47L2.7 24.47" fill="#fff"/><path fill="#a90533" d="M25.57 5.68L5.4 25.81V81.1l17.16 17.16h51.78v31.61H38.52v-13.55H5.44v24.99l17.2 17.46h62.57l17.13-17.17V85.54L84.73 68.75H37.01V35.63h35.53v15.36h29.8V25.81L82.77 5.68h-57.2z"/><path d="M64.33 90.67a.51.51 0 0 1-.11.15l.11-.15" fill="#b30838"/><path d="M55.35 2.84a2.34 2.34 0 0 0-2 .87 2.14 2.14 0 0 0-.39 1.22 3.64 3.64 0 0 0 .14.88c-.43.83-1 2.12-1.08 2.13h-.42a2.24 2.24 0 0 0-2.42 1.48 2.58 2.58 0 0 0-.28 1.25 7.59 7.59 0 0 0 .8 2.84l.43.61c-2.81 1.91-2.69 3.74-2.68 5a2.09 2.09 0 0 0 .26 1 2 2 0 0 0 .73.75l-.3.31c-2.17 1.66-4.61 3.2-4.67 5.21a4.13 4.13 0 0 0 .54 1.62c-1.49.74-3.08 2.1-3.06 3.77v.18c.17 2.08 2.71 2.9 3.48 3.11l.66.17.61-.38a10.3 10.3 0 0 1 4.32-1.69v.09c0 3.81-5.34 5.47-5.57 5.54l.25-.06a13.3 13.3 0 0 0-10.35 7.45 4.65 4.65 0 0 0-1.48 3.11 2.82 2.82 0 0 0 .72 1.87l.18.18.23.12c2.45 1.22 7.36-1.56 10.06-3.33l.14-.09.12-.12a2.08 2.08 0 0 1 1.38-.73 1.59 1.59 0 0 1 .95.57l.28.36.45.18a6.7 6.7 0 0 1 1.16.54 86.86 86.86 0 0 0-9.79 4.3l-.5.24-.25.49c-.71 1.42-3.54 3-5.16 3.72-2.58 1.12-4.1 2.59-4.51 4.38a4.31 4.31 0 0 0-.11 1 4.75 4.75 0 0 0 1 2.84l.48.47.58.1c1.57.26 9.33-1.46 13.82-2.51h.21c1.9-.74 2.5-.47 2.57-.44v.48l.27.23a13.3 13.3 0 0 1-3.1 4.31l-.3.21-.12.39a4.56 4.56 0 0 1-2.71 2.42h.13c-8.74 2.18-8.83 5.58-8.66 6.57l.31 1.41 7.95-.66.4-.34c.48-.41.62-.27.74-.15l.26.36.49.17 1.16.23v.12a12.35 12.35 0 0 1-.43 2.83H39.1l-.2 1.19a2.41 2.41 0 0 1-1.22.33c-1.89-.79-3.81 1.25-4 1.48l-.16.16-.22.33a6.34 6.34 0 0 1-1.96 1.16l.27-.09c-1.63.41-2.11 1.29-2.22 2a2.24 2.24 0 0 0 0 .37 2.51 2.51 0 0 0 1 1.86c-1.29.33-3.22.82-3.2 2.57v.13a1.91 1.91 0 0 0 .91 1.51c.61.38 2.22 1.38 15-3.86l.13-.05a7.74 7.74 0 0 1-1.14 1l-.18.12-.21.07a7.25 7.25 0 0 1-3.22 1.87h.14c-5.17.83-6.9 3.13-7.48 4.43a3.36 3.36 0 0 0 .06 3.18c.56.86.67.93 6.53-.13a19 19 0 0 1-1.07 2.8l-4.65 4.22c-5.51 3.13-8.81 13.27-9.17 14.43l-.05.17v.59a2.68 2.68 0 0 0 1.21 2.38c1.69 1.05 4.16-.2 5.15-.79l.37-.22.75-1.34c.83-1.41 3.24-1.87 4.14-1.94 2.6.31 5.21-2.15 5.73-2.68l.14-.13.1-.17a.88.88 0 0 1 .65-.46c3.7.49 6.4-3.53 7.35-5.2.86-.23 1.58 0 2.26 1.37a20.7 20.7 0 0 1 .81 5.58v.87l-.16 5.37-.2 5.17.15-.2v.17l-.05 2.78c0 2.3-.2 4.19-.3 5-.41 3.07-1 3.43-1.18 3.56a7.06 7.06 0 0 1-1.32.5 12 12 0 0 0-2 .75c-2.92 1.24-3.74 3.35-4.52 5.26a4.67 4.67 0 0 1-1.34 2.05c-1.51 1-1.51 1-2.09 1.05l-1.24.24a7 7 0 0 0-4.35 3.67l-1.15 2.3h47.58l-.2-2.13c-.24-2.23-1.23-3.65-6-5.23a5.43 5.43 0 0 1-3.14-2c-.87-1-2-1.91-5.44-3.68-1.33-.68-2.53-3.57-3.28-7.25a7 7 0 0 1-.16-3v-.08l-.25-7.18v-5.77s.07-5.69.09-8a8.81 8.81 0 0 0 3.89 1.22l6.09.25h.11c1.25-.11 4.92 2 7.56 4.14l.1.08.1.06c1.89 1.08 4.26 2.16 5.8.93a2.81 2.81 0 0 0 .77-3l.06.25c-1.54-11-7.89-12.81-8.92-13a3.87 3.87 0 0 1-.73-.27 1.57 1.57 0 0 1 .19-.22l-.1.09c1.91-1.48 2.69-3 2.34-4.42-.53-2.16-3.3-2.77-3.85-2.87h-.52c-2.69.38-5.69-1.39-6-1.6-2.89-2.21-3.67-3.93-3.68-4.9a1.22 1.22 0 0 1 .14-.63v.06l.2-.28v-.21c.94 0 3.4 1.08 5.48 2.43l-.23-.21a4.75 4.75 0 0 0 6 .29l.41-.31.16-.51a9.7 9.7 0 0 1 2-2 3.44 3.44 0 0 0 1.65-2.74 2.57 2.57 0 0 0-.11-.69c-.68-2.29-4.63-3.1-8-3.38l-2.32-1.37c-2.92-1.72-4.61-2.79-5.62-4.85 2 .19 4 .37 5.06.49a7.17 7.17 0 0 0 4.23-.17 2 2 0 0 0 1.25-1.88.94.94 0 0 0 0-.12c-.12-1.56-2.07-4-5.47-5.55a12.54 12.54 0 0 1-5.54-5 7.28 7.28 0 0 1-.26-1.92 12.51 12.51 0 0 1 .12-1.78c1.36.04 2.85 1.78 2.87 1.78l.57.61.83-.06a4.67 4.67 0 0 1 2 .63l.62.34.68-.22c.77-.25 3.36.13 4.75.33 2.44.36 3.34.81 4.12-.58l.2-.32.09-.43c.45-6.75-4.53-9.23-4.73-9.33l-.56-.25h-.12a6.4 6.4 0 0 1-.88-1.26 5.26 5.26 0 0 0-5.22-2.46 4.19 4.19 0 0 0-2.13-.84l-.46-.51a4 4 0 0 0-.19-.65l.83.12c7.62 1.07 8.59 1.09 9.43.25a2.45 2.45 0 0 0 .74-1.78 2.51 2.51 0 0 0-.06-.5c-.59-2.71-6.7-5.53-11.73-7.43-3.65-1.39-4.61-2.86-4.8-3.22l-.15-.45a.67.67 0 0 1 .22-.56 2.91 2.91 0 0 1 2.32.08l.2.05h.19c3.15.24 4.6-1.4 5-2.41l.19-.53-.19-.54a7.34 7.34 0 0 0-3.71-4.08 2.23 2.23 0 0 0 1-2.1c0-.67-.84-2.4-3.29-4.08 1.8-.6 0-3.76-2.11-5.45l-.66-.5a3.59 3.59 0 0 0 2.16-2.82 2.47 2.47 0 0 0 0-.44 1.94 1.94 0 0 0-1.44-2 5 5 0 0 1-2.22-.88c.4-.05 0-2.21-.26-2.61 0-.21.2-.71.19-.92a2.08 2.08 0 0 0-.57-1.62 2.22 2.22 0 0 0-1.63-.49" fill="#fff"/><path d="M59.28 113.51l-.11 9v5.82l.25 7.09a8.41 8.41 0 0 0 .19 3.41c.63 3.08 1.83 7.19 4.13 8.36 6.36 3.23 3.87 4.12 8.8 5.76s4.77 2.88 4.93 4.22H34.3a5.6 5.6 0 0 1 3.26-2.82c2.11-.46 1.46 0 3.84-1.5 1.94-1.23 1.6-5.48 5.63-7.19 1.64-.7 2.76-.9 3.52-1.37.54-.34 1.41-.89 1.91-4.71.17-1.27.31-5.79.37-7.91l.25-5.48-.23.31.16-5.42v-.91s-.16-4.56-1-6.23-2.26-3.09-4.79-2c0 0-2.82 5.71-6.3 5a2.48 2.48 0 0 0-2 1.24s-2.65 2.69-4.64 2.19c0 0-4 .24-5.48 2.74-.14.24-.56 1-.56 1s-4.17 2.49-3.92-.5c0 0 3.39-10.9 8.62-13.64l5-4.48s2.78-5.63 1-5.88l-6.44 1.33s.24-3.82 6.46-4.82a11.48 11.48 0 0 0 3.92-2.71s3.73-2.48 2.49-4.48c0 0-1.24-.75-3 .74 0 0-13.57 5.57-13.69 3.73-.07-1.05 4-1 4.48-2.24 0 0 0-2.73-1.74-1.49 0 0-1.49-1 .5-1.49 0 0 2.24-1 2.74-2 0 0 1.49-1.49 2.74-1 0 0 2.74 0 3-1.49h4s1.48-4.41.48-5.91l-2-.5a2 2 0 0 0-3 0l-6 .5s-.5-2.74 7.46-4.73c0 0 3-1 3.73-3.48 0 0 5-5 3.23-6.47 0 0-.25-2.49-4.73-.75 0 0-11.7 2.74-13.18 2.49 0 0-2.74-3.24 3-5.72 0 0 4.73-2 6-4.48 0 0 9-4.31 10-4.31 0 0 3.23-1.74-1.49-3.48 0 0-2-2.74-4.73 0 0 0-6.47 4.23-8.46 3.23 0 0-1-1 1-3a11.77 11.77 0 0 1 9.2-6.72s8-2.43 6.48-8.59c0 0-1.84-1.09-6.56 1.74 0 0-5.28-1.75.71-4.41l1.79-2.43s-1.83 1.29-2.1-.06c-.14-.68-.19-1.64 1.7-2.58 2.43-1.2 1.86-2.29 4.74-2.42a1.36 1.36 0 0 0 .14-1.19c-2.77-.33-4.09-3.82.75-5.94l.49-2-2.09.19s-1.75-3.16 1.61-3.1a8.88 8.88 0 0 0 2.13-3.9s-.86-1.33.63-1.33c0 0 1-.44.51 1.79a6.9 6.9 0 0 1 .62 2.54s-.62 1.43 3 2.26c.39.09.4 2.69-2.09 2.44 0 0-.81 1.63 1.54 3.48 0 0 3.89 3.61.36 3.81 0 0 5.42 3.46 3.86 5-.68.68-2.78-.27-3 .12-.28.57-.17.85.57 1.16s4.52 1.26 5.59 4.35c0 0-.56 1.56-3.33 1.35 0 0-5.22-1.92-4.48 2.81 0 0 .6 2.39 5.82 4.39 0 0 12.72 4.8 10.48 7-.6.6-11.22-1.33-13.22-1.33L61.31 47s3-.75 3 2l1.22 1.32s2 0 2.24 1c0 0 3.23-.75 4.48 1.5 0 0 1.24 2.49 2.24 2.24 0 0 4.16 2 3.78 7.79-.26.42-6.07-1.08-8-.44a6.33 6.33 0 0 0-2.95-.83s-2.79-3.38-5.52-2a12.55 12.55 0 0 0 0 5.48c.39 1.34 3.14 4.53 6.42 6 3.13 1.4 4.47 3.49 4.52 4.2.07 1-2.69.65-3.11.56l-8.03-.85a6.29 6.29 0 0 0 .44 1.78c1.45 3.8 4.43 4.83 9.28 7.86 0 0 10.2.74 6 4 0 0-2.32 1.81-2.57 2.8a3.17 3.17 0 0 1-4-.25s-7.39-4.79-7.88-1.55c0 0-2.27 3 4 7.75 0 0 3.69 2.37 7.17 1.87 0 0 5.29 1 .81 4.44 0 0-2.48 2.24 1.25 3.23 0 0 6.22 1 7.71 11.7 0 0 1 3.24-4.24.25 0 0-6-4.73-8.71-4.48l-6-.25a6.53 6.53 0 0 1-3.79-1.45s-1.63-1.28-1.79.88" fill="#006f53"/></g><path d="M106.03 158.47a2.44 2.44 0 0 0-1.79-.74 2.49 2.49 0 0 0-1.74.69 2.42 2.42 0 0 0-.79 1.85 2.53 2.53 0 1 0 4.32-1.8z" fill="#a90533"/><path d="M105.7 158.8a2 2 0 0 1 .61 1.47 2.06 2.06 0 0 1-.61 1.49 2.08 2.08 0 0 1-3 0 2.11 2.11 0 0 1 0-3 2.06 2.06 0 0 1 3 .04z" fill="#fff"/><path d="M104.55 160.07a.67.67 0 0 1-.4.1h-.29v-.81h.18a1.2 1.2 0 0 1 .42.06.32.32 0 0 1 .23.32.37.37 0 0 1-.14.33zm-.69.61h.32a.84.84 0 0 1 .25 0 .35.35 0 0 1 .21.21 1.34 1.34 0 0 1 0 .34 1.92 1.92 0 0 0 0 .39h.7v-.08a.41.41 0 0 1 0-.08.75.75 0 0 1 0-.08v-.25a.76.76 0 0 0-.25-.63 1 1 0 0 0-.4-.16.9.9 0 0 0 .49-.19.61.61 0 0 0 .2-.51.71.71 0 0 0-.38-.67 1.36 1.36 0 0 0-.55-.14h-1.36v2.84h.73v-1z" fill="#a90533" stroke="#fff" stroke-width=".15"/></svg>