<svg viewBox="0 0 124 184" xmlns="http://www.w3.org/2000/svg"><path d="m27.5.5c30.8 0 61.7.1 92.5-.1 3 0 3.6.6 3.6 3.6-.1 58.7-.1 117.3 0 176 0 3-.6 3.6-3.6 3.6-38.7-.1-77.3-.1-116 0-3 0-3.6-.6-3.6-3.6.1-50.5.1-101 .1-151.5 1.8.5 1.6 2.3 2.2 3.6 3.9 8.2 10.3 13 19.4 13.4 8.9.4 15.8-3.7 20.1-11.4 4.4-7.9 3.7-15.8-1.1-23.6-3.2-5.4-8.8-7.1-13.6-10zm58.6 37.4c7.2 10.3 6.9 20.3 1.1 30.6-4 7.2-9.4 13.2-14.5 19.5-9.3 11.4-21 21.4-23.2 37.3-6.6-1.9-10.1-8.4-7.9-15 1.7-5.3 4.6-9.9 7.6-14.5 7.6-11.5 17.3-21.5 24.3-33.4 4.9-8.3 6.3-16.4 2.3-25.4-5.7-13.3-17-21.3-28.2-29.4-.5-.3-1.6-.6-2.2.8 4.5 5.6 7.6 12.1 8.1 19.6.8 11.3-5 19.9-11.9 28-7.5 8.9-16.6 16.4-23.1 26.1-10.8 16.1-10.5 25 .4 37.7 21 24.5 47 43.1 72.5 62.8.7-1.7-.1-2.6-.6-3.6-3.2-6.2-6.1-12.5-8.3-19.1-3.8-11.5-5.2-22.8 4-32.7 2.5-2.7 4.8-5.5 7.2-8.3 7.1-8.3 14.4-16.5 19.9-26.1 6.5-11.5 7-22.9-1.2-34-5.7-7.7-12.6-14.1-20.4-19.5-1.5-1-3.2-2.5-5.9-1.4z" fill="#fdfcfc"/><path d="m27.5.5c4.8 2.9 10.4 4.6 13.7 10 4.8 7.8 5.5 15.6 1.1 23.6-4.3 7.7-11.2 11.8-20.1 11.4-9.1-.4-15.5-5.2-19.4-13.4-.6-1.3-.4-3.1-2.2-3.6v-10c1.8-.8 1.6-2.7 2.2-4.2 3-7.7 9.6-11 16.7-13.8z" fill="#d6232a"/><path d="m19.5.5c-7.1 2.8-13.7 6.1-16.8 13.8-.6 1.4-.4 3.3-2.2 4.2 0-5.3.1-10.7-.1-16 0-1.7.3-2.1 2.1-2.1 5.7.2 11.3.1 17 .1z" fill="#fdfcfc"/><path d="m86.1 37.9c2.7-1.1 4.4.4 5.9 1.4 7.9 5.4 14.8 11.8 20.4 19.5 8.1 11.1 7.7 22.5 1.2 34-5.4 9.6-12.8 17.8-19.9 26.1-2.4 2.8-4.7 5.6-7.2 8.3-9.1 10-7.8 21.3-4 32.7 2.2 6.6 5.1 12.9 8.3 19.1.5 1 1.3 1.9.6 3.6-25.5-19.8-51.5-38.3-72.5-62.8-10.8-12.7-11.2-21.5-.4-37.7 6.5-9.7 15.6-17.2 23.1-26.1 6.9-8.1 12.7-16.7 11.9-28-.5-7.5-3.5-14-8.1-19.6.6-1.4 1.7-1.1 2.2-.8 11.2 8.1 22.5 16.1 28.2 29.4 3.9 9 2.6 17.2-2.3 25.4-7.1 11.9-16.7 21.9-24.3 33.4-3 4.6-5.9 9.2-7.6 14.5-2.1 6.6 1.3 13.1 7.9 15 2.2-15.8 13.9-25.8 23.2-37.3 5.1-6.3 10.5-12.3 14.5-19.5 5.8-10.3 6.1-20.3-1.1-30.6z" fill="#050505"/></svg>