<?xml version="1.0" encoding="utf-8"?>
<svg version="1.1" id="Atishay_Jain" xmlns="http://www.w3.org/2000/svg" xmlns:xlink="http://www.w3.org/1999/xlink" width="150px" x="0px"
	 y="0px" viewBox="0 0 450 160" xml:space="preserve">
<path d="M120.3,42.1c2.6,0,2.6,3.2,0,3.2h-13.9V76c0,7.2,1.2,14.6,10.5,14.6c1.9,0,4.6-0.7,6-1.5c2.1-1,4,1.6,1.3,3
	c-2.5,1.3-4.8,1.7-7.3,1.7c-11.2,0-13.9-8.5-13.9-17.8V45.3h-9.3c-2.7,0-2.7-3.2,0-3.2h9.3V29.3c0-2.2,3.4-2.1,3.4,0v12.8H120.3z"/>
<path d="M140.4,35.3c0,2.2-3.7,2.2-3.7,0v-5.6c0-2.2,3.7-2.2,3.7,0V35.3z M136.8,43.6c0-2.4,3.5-2.4,3.5-0.1v48.7
	c0,2.4-3.5,2.4-3.5,0V43.6z"/>
<path d="M155.3,81.4c1.3,6.2,10.8,9.1,19.6,9.1c6,0,18.8-2.5,18.8-11.6c0-17.6-41-1.5-41-23.1c0-9.6,11.9-14.6,21.2-14.6
	c7.6,0,18.2,1.3,21.6,10.2c0.7,2.8-2.6,3.4-3.3,1.3c-2.8-7.5-12.8-8.2-18.3-8.2c-7.2,0-17.8,3.1-17.8,11.3
	c0,16.9,41.1,1.3,41.1,23.1c0,12-14.2,14.8-22.3,14.8c-8.2,0-20.9-2-22.8-11.7C151.3,79.4,155,78.7,155.3,81.4z"/>
<path d="M254.6,63.3c0-13-12.1-21.2-23.9-18.1c-10.3,2.6-17.2,12.3-17.5,22.8v23.8c0,1.1-0.6,1.8-1.7,1.8s-1.8-0.7-1.8-1.8V29.3
	c0-2.4,3.5-2.2,3.5,0.1v28.1c2.3-8.4,9.2-13.7,16.4-15.6c13.3-3.4,28.5,4.5,28.5,21.4v28.5c0,1.1-0.6,1.8-1.7,1.8s-1.8-0.7-1.8-1.8
	L254.6,63.3L254.6,63.3z"/>
<path d="M296.7,41.4c4.3,0.1,8.4,1.1,12,3.2c3.3,2.2,5.8,5.3,7.3,9.3V43.8c0-1.1,0.6-1.8,1.7-1.8s1.8,0.7,1.8,1.8v47.9
	c0,1.1-0.7,1.8-1.8,1.8c-1.1,0-1.7-0.7-1.7-1.8V81.6c-1.5,4-4,7.1-7.3,9.3c-6.3,3.7-14.3,4.6-21.9,1.5c-10.8-4.4-16.2-14.3-15.9-26
	c0.3-10.1,5.7-19.4,15.2-23.1C289.4,41.9,292.9,41.3,296.7,41.4z M316,72.1v-8.7c-0.4-7.3-3.8-13.3-10.4-16.5
	c-2.9-1.3-5.8-1.9-8.9-2c-8.5-0.1-17.1,4.4-20.5,12.7c-1.1,2.6-1.7,5.8-1.8,8.7c-0.3,7.7,2.3,14.8,8.8,20c3.5,2.7,7.8,4.2,12.3,4.5
	c3.5,0.1,6.8-0.7,10.1-2.2C312.2,85.4,315.6,79.4,316,72.1z"/>
<path d="M330.8,44.1c-0.5-2,2.1-3.3,3.4-1.2l22.7,44.9l22.2-44.9c1-2.5,4.6-1,3.4,1.2l-33.9,67c-1.3,2.7-4.1,1.4-3.2-1.1l9.3-18.8
	L330.8,44.1z"/>
<path d="M88.6,91.1L56.7,28.4c-0.2-0.6-0.8-0.9-1.4-0.9c-0.6,0-1.2,0.3-1.5,0.9L22,91.1c-0.4,0.8-0.1,1.7,0.6,2.1
	c0.8,0.5,1.8,0.3,2.3-0.5L33.8,75l21.5-42.6L76.8,75l8.9,17.7c0.5,0.7,1.3,0.9,2.1,0.6C88.6,92.9,89,91.9,88.6,91.1z"/>
<circle cx="27.1" cy="42.4" r="3.8"/>
<circle cx="83.4" cy="42.4" r="3.8"/>
<path class="st0" d="M27.1,55.3c4.2,3.4,8.6,6.4,13.3,9c0.6,0.3,1.2,0.7,1.8,0.9L44,66c1.2,0.5,2.4,0.9,3.7,1.3l0.9,0.3l1,0.2
	l1.9,0.4c0.6,0.1,1.3,0.2,1.9,0.2c0.6,0,1.3,0.1,1.9,0.1c5.2-0.1,10.3-1.5,14.8-4c4.7-2.6,9.2-5.6,13.3-9c-3.4,4.3-7.6,8-12.2,11
	c-0.6,0.4-1.2,0.8-1.8,1.1l-1.9,0.9c-0.6,0.3-1.2,0.7-1.9,0.9l-2,0.7c-1.3,0.4-2.7,0.8-4.1,1c-0.7,0.1-1.4,0.2-2.1,0.2l-2.1,0.1
	c-0.7,0-1.4-0.1-2.1-0.2c-0.7,0-1.4-0.1-2.1-0.2L49,70.6l-1-0.2c-0.3-0.1-0.7-0.2-1-0.3c-1.3-0.4-2.7-1-3.9-1.6l-2-0.9
	c-0.6-0.3-1.2-0.7-1.8-1.1C34.6,63.4,30.5,59.6,27.1,55.3z"/>
<circle class="st1" cx="28.4" cy="43.8" r="1.3"/>
<circle class="st1" cx="82.1" cy="43.8" r="1.3"/>
<path d="M379.7,89.4c0,0.4-0.3,0.7-0.7,0.7s-0.7-0.3-0.7-0.7s0.3-0.7,0.7-0.7S379.7,89,379.7,89.4z"/>
<path d="M406.7,82.3c-0.1-3.2-3.1-5.3-6.3-4.5c-2.7,0.7-4.5,3.2-4.5,5.9v6c0,0.3-0.2,0.5-0.5,0.5S395,90,395,89.7v-7
	c0-1.7-0.7-3.5-2.2-4.4c-1.2-0.7-2.7-0.9-4-0.6c-2.7,0.7-4.5,3.2-4.5,5.9v6c0,0.6-0.9,0.6-0.9,0V77.2c0-0.2,0.2-0.4,0.4-0.4
	c0.3,0,0.5,0.2,0.5,0.4V81c0.7-2.3,2.4-3.6,4.3-4.1c1.6-0.4,3.3-0.2,4.7,0.7c1.1,0.7,2.1,1.7,2.4,3.8c0.7-2.7,2.4-4,4.5-4.5
	c3.3-0.8,7.4,1.2,7.4,5.3v7.5c0,0.3-0.2,0.5-0.5,0.5s-0.4-0.2-0.4-0.5L406.7,82.3L406.7,82.3z"/>
<path d="M424.5,83.3c0,0.4-0.1,0.9-0.8,0.9H412c0.1,1.1,0.5,2.2,1.3,3.1c1.1,1.3,2.7,2,4.4,2c1.4,0,2.9-0.4,4.1-1.3
	c0.5-0.4,1.1,0.2,0.6,0.7c-1.2,1.1-2.9,1.6-4.6,1.6c-2,0-4-0.8-5.2-2.3c-1.1-1.4-1.7-3-1.6-5c0.1-2.8,2-5.3,4.8-6.1
	c1.2-0.3,2.6-0.3,3.9,0C422.6,77.6,424.4,80,424.5,83.3z M411.9,83.3h11.6c-0.1-2.9-1.6-5-4.2-5.7c-1-0.3-2.3-0.3-3.3,0
	C413.5,78.4,412,80.7,411.9,83.3z"/>
<g>
	<path d="M67.2,129.2c1-0.2,2.3-0.3,3.6-0.3c2.4,0,4.2,0.5,5.4,1.6s1.8,2.6,1.8,4.7s-0.7,3.9-2,5.1c-1.3,1.3-3.3,2-5.9,2
		c-1.1,0-2.3,0-3.1-0.2v-12.9H67.2z M69,140.9c0.5,0,1,0.2,1.8,0.2c3.6,0,5.5-2,5.5-5.5c0-3.1-1.8-5.1-5.4-5.1c-0.8,0-1.5,0-2,0.2
		V140.9z"/>
	<path d="M80.2,135.7c0-1.1,0-2.1,0-2.9h1.5v1.8l0,0c0.5-1.3,1.5-2.1,2.6-2.1c0.2,0,0.3,0,0.5,0v1.6c-0.2,0-0.3,0-0.7,0
		c-1.1,0-2.1,1-2.3,2.3c0,0.2,0,0.5,0,0.8v5.1h-1.6L80.2,135.7L80.2,135.7z"/>
	<path d="M87.4,137.8c0,2.3,1.5,3.3,3.3,3.3c1.3,0,2-0.2,2.6-0.5l0.3,1.3c-0.7,0.3-1.6,0.7-3.1,0.7c-2.9,0-4.7-2-4.7-4.7
		s1.6-5.1,4.4-5.1c3.1,0,3.9,2.8,3.9,4.4c0,0.3,0,0.7,0,0.8h-6.7V137.8z M92.4,136.7c0-1.1-0.5-2.8-2.4-2.8c-1.8,0-2.4,1.6-2.6,2.8
		H92.4z"/>
	<path d="M101.4,142.2l-0.2-1.1l0,0c-0.5,0.8-1.5,1.5-2.9,1.5c-2,0-2.9-1.3-2.9-2.8c0-2.3,2-3.6,5.7-3.6V136c0-0.8-0.2-2.1-2.1-2.1
		c-0.8,0-1.8,0.3-2.4,0.7l-0.3-1.1c0.8-0.5,2-0.8,3.1-0.8c2.9,0,3.6,2,3.6,3.9v3.6c0,0.8,0,1.6,0.2,2.3h-1.6V142.2z M101.3,137.5
		c-2,0-4.1,0.3-4.1,2.1c0,1.1,0.8,1.6,1.6,1.6c1.3,0,2-0.8,2.3-1.6c0-0.2,0.2-0.3,0.2-0.5V137.5z"/>
	<path d="M105.7,135.3c0-1,0-1.8,0-2.6h1.5v1.5l0,0c0.5-1,1.5-1.8,2.9-1.8c1.3,0,2.3,0.8,2.6,2l0,0c0.3-0.5,0.7-1,1-1.3
		c0.5-0.5,1.1-0.7,2.1-0.7c1.3,0,3.1,0.8,3.1,4.1v5.5h-1.6v-5.4c0-1.8-0.7-2.9-2.1-2.9c-1,0-1.8,0.7-2,1.6c0,0.2-0.2,0.5-0.2,0.8
		v5.9h-1.6v-5.5c0-1.5-0.7-2.6-2-2.6c-1.1,0-1.8,0.8-2.1,1.8c-0.2,0.3-0.2,0.5-0.2,0.8v5.7h-1.6v-6.9H105.7z"/>
	<path d="M120.8,144.6c0.5-1.1,1-3.3,1.1-4.7l2-0.2c-0.5,1.6-1.3,3.9-1.8,4.7L120.8,144.6z"/>
	<path d="M130.3,129.2c0.8-0.2,2-0.3,3.1-0.3c1.6,0,2.8,0.3,3.6,1c0.7,0.5,1.1,1.3,1.1,2.3c0,1.3-0.8,2.4-2.3,2.9l0,0
		c1.3,0.3,2.8,1.3,2.8,3.3c0,1.1-0.5,2-1.1,2.6c-1,0.8-2.4,1.3-4.6,1.3c-1.1,0-2.1,0-2.6-0.2L130.3,129.2L130.3,129.2z M131.9,134.7
		h1.5c1.8,0,2.9-1,2.9-2.3c0-1.5-1.1-2.1-2.9-2.1c-0.8,0-1.3,0-1.5,0.2V134.7z M131.9,140.9c0.3,0,0.8,0,1.5,0
		c1.8,0,3.4-0.7,3.4-2.6c0-1.8-1.5-2.6-3.4-2.6h-1.5V140.9z"/>
	<path d="M148.7,139.6c0,1,0,1.8,0,2.6h-1.5l-0.2-1.5l0,0c-0.5,0.8-1.5,1.8-3.1,1.8c-1.5,0-3.3-0.8-3.3-4.1v-5.5h1.8v5.2
		c0,1.8,0.5,2.9,2.1,2.9c1.1,0,2-0.8,2.3-1.6c0.2-0.3,0.2-0.5,0.2-0.8v-5.9h1.8v6.9H148.7z"/>
	<path d="M153.4,130.1c0,0.7-0.5,1-1.1,1s-1-0.5-1-1c0-0.7,0.5-1.1,1.1-1.1C153.1,129,153.4,129.5,153.4,130.1z M151.5,142.2v-9.5
		h1.8v9.5H151.5z"/>
	<path d="M156.1,128.3h1.8v13.9h-1.8V128.3z"/>
	<path d="M168.9,128.3v11.4c0,0.8,0,1.8,0,2.4h-1.5v-1.6l0,0c-0.5,1-1.6,1.8-3.3,1.8c-2.3,0-4.1-2-4.1-4.9c0-3.1,2-5.1,4.2-5.1
		c1.5,0,2.4,0.7,2.9,1.5l0,0v-5.5H168.9z M167.1,136.7c0-0.2,0-0.5,0-0.7c-0.3-1.1-1.1-2-2.4-2c-1.8,0-2.8,1.6-2.8,3.6
		s1,3.4,2.8,3.4c1.1,0,2.3-0.8,2.4-2.1c0-0.2,0-0.5,0-0.8V136.7z"/>
	<path d="M174.8,144.6c0.5-1.1,1-3.3,1.1-4.7l2-0.2c-0.5,1.6-1.3,3.9-1.8,4.7L174.8,144.6z"/>
	<path d="M184.1,129h1.6v11.7h5.7v1.5h-7.3V129z"/>
	<path d="M194.1,137.8c0,2.3,1.5,3.3,3.3,3.3c1.3,0,2-0.2,2.6-0.5l0.3,1.3c-0.7,0.3-1.6,0.7-3.1,0.7c-2.9,0-4.7-2-4.7-4.7
		s1.6-5.1,4.4-5.1c3.1,0,3.9,2.8,3.9,4.4c0,0.3,0,0.7,0,0.8h-6.7V137.8z M199.1,136.7c0-1.1-0.5-2.8-2.4-2.8c-1.8,0-2.4,1.6-2.6,2.8
		H199.1z"/>
	<path d="M208.1,142.2l-0.2-1.1l0,0c-0.5,0.8-1.5,1.5-2.9,1.5c-2,0-2.9-1.3-2.9-2.8c0-2.3,2-3.6,5.7-3.6V136c0-0.8-0.2-2.1-2.1-2.1
		c-0.8,0-1.8,0.3-2.4,0.7l-0.3-1.1c0.8-0.5,2-0.8,3.1-0.8c2.9,0,3.6,2,3.6,3.9v3.6c0,0.8,0,1.6,0.2,2.3h-1.6V142.2z M207.9,137.5
		c-2,0-4.1,0.3-4.1,2.1c0,1.1,0.8,1.6,1.6,1.6c1.3,0,2-0.8,2.3-1.6c0-0.2,0.2-0.3,0.2-0.5V137.5z"/>
	<path d="M212.3,135.7c0-1.1,0-2.1,0-2.9h1.5v1.8l0,0c0.5-1.3,1.5-2.1,2.6-2.1c0.2,0,0.3,0,0.5,0v1.6c-0.2,0-0.3,0-0.7,0
		c-1.1,0-2.1,1-2.3,2.3c0,0.2,0,0.5,0,0.8v5.1h-1.6V135.7z"/>
	<path d="M218.9,135.3c0-1,0-1.8,0-2.6h1.5l0.2,1.6l0,0c0.5-1,1.6-1.8,3.1-1.8c1.3,0,3.4,0.8,3.4,4.1v5.7h-1.8V137
		c0-1.5-0.5-2.8-2.1-2.8c-1.1,0-2,0.8-2.3,1.8c0,0.2-0.2,0.5-0.2,0.8v5.7h-1.8V135.3z"/>
	<path d="M228.6,144.6c0.5-1.1,1-3.3,1.1-4.7l2-0.2c-0.5,1.6-1.3,3.9-1.8,4.7L228.6,144.6z"/>
	<path d="M248.1,141.7c-0.8,0.3-2.3,0.7-4.1,0.7c-2,0-3.6-0.5-4.9-1.8c-1.1-1.1-1.8-2.9-1.8-4.9c0-3.9,2.8-6.9,7.2-6.9
		c1.5,0,2.8,0.3,3.3,0.7l-0.5,1.5c-0.7-0.3-1.6-0.5-2.9-0.5c-3.3,0-5.2,2-5.2,5.2c0,3.4,2,5.4,5.1,5.4c1.1,0,2-0.2,2.3-0.3v-3.9
		h-2.6v-1.3h4.4v6.2H248.1z"/>
	<path d="M250.5,135.7c0-1.1,0-2.1,0-2.9h1.5v1.8l0,0c0.5-1.3,1.5-2.1,2.6-2.1c0.2,0,0.3,0,0.5,0v1.6c-0.2,0-0.3,0-0.7,0
		c-1.1,0-2.1,1-2.3,2.3c0,0.2,0,0.5,0,0.8v5.1h-1.6V135.7z"/>
	<path d="M265.3,137.5c0,3.4-2.4,5.1-4.7,5.1c-2.6,0-4.6-2-4.6-4.9c0-3.1,2.1-5.1,4.7-5.1C263.4,132.6,265.3,134.5,265.3,137.5z
		 M257.8,137.5c0,2.1,1.1,3.6,2.9,3.6c1.6,0,2.9-1.5,2.9-3.8c0-1.6-0.8-3.6-2.8-3.6C258.7,133.9,257.8,135.7,257.8,137.5z"/>
	<path d="M267.9,132.7l1.3,4.9c0.3,1,0.5,2,0.7,2.9l0,0c0.2-1,0.5-2,0.8-2.9l1.5-4.9h1.5l1.5,4.7c0.3,1.1,0.7,2.1,0.8,3.1l0,0
		c0.2-1,0.5-2,0.7-3.1l1.3-4.7h1.6l-3.1,9.5h-1.6l-1.5-4.6c-0.3-1-0.7-2-0.8-3.1l0,0c-0.2,1.1-0.5,2.1-0.8,3.1l-1.5,4.6h-1.6
		l-2.9-9.5H267.9z"/>
	<path d="M289.8,136.3v1.3h-4.9v-1.3H289.8z"/>
	<path d="M296.2,142.2V129h1.8l4.2,6.7c1,1.5,1.8,2.9,2.4,4.2l0,0c-0.2-1.8-0.2-3.4-0.2-5.4V129h1.6v13.2h-1.8l-4.2-6.7
		c-1-1.5-1.8-2.9-2.4-4.4l0,0c0.2,1.6,0.2,3.3,0.2,5.4v5.7H296.2z"/>
	<path d="M309.9,137.8c0,2.3,1.5,3.3,3.3,3.3c1.3,0,2-0.2,2.6-0.5l0.3,1.3c-0.7,0.3-1.6,0.7-3.1,0.7c-2.9,0-4.7-2-4.7-4.7
		s1.6-5.1,4.4-5.1c3.1,0,3.9,2.8,3.9,4.4c0,0.3,0,0.7,0,0.8h-6.7V137.8z M314.9,136.7c0-1.1-0.5-2.8-2.4-2.8c-1.8,0-2.4,1.6-2.6,2.8
		H314.9z"/>
	<path d="M319.3,132.7l1.8,5.4c0.3,0.8,0.5,1.6,0.8,2.4l0,0c0.2-0.8,0.5-1.6,0.8-2.4l1.8-5.4h1.8l-3.8,9.5H321l-3.6-9.5H319.3z"/>
	<path d="M329,137.8c0,2.3,1.5,3.3,3.3,3.3c1.3,0,2-0.2,2.6-0.5l0.3,1.3c-0.7,0.3-1.6,0.7-3.1,0.7c-2.9,0-4.7-2-4.7-4.7
		s1.6-5.1,4.4-5.1c3.1,0,3.9,2.8,3.9,4.4c0,0.3,0,0.7,0,0.8H329V137.8z M334,136.7c0-1.1-0.5-2.8-2.4-2.8c-1.8,0-2.4,1.6-2.6,2.8
		H334z"/>
	<path d="M337.8,135.7c0-1.1,0-2.1,0-2.9h1.5v1.8l0,0c0.5-1.3,1.5-2.1,2.6-2.1c0.2,0,0.3,0,0.5,0v1.6c-0.2,0-0.3,0-0.7,0
		c-1.1,0-2.1,1-2.3,2.3c0,0.2,0,0.5,0,0.8v5.1h-1.6V135.7z"/>
	<path d="M348,140.4c0.5,0.3,1.5,0.7,2.3,0.7c1.3,0,1.8-0.7,1.8-1.5s-0.5-1.3-1.8-1.8c-1.6-0.7-2.4-1.5-2.4-2.6
		c0-1.5,1.3-2.8,3.3-2.8c1,0,1.8,0.3,2.3,0.7l-0.5,1.3c-0.3-0.2-1-0.5-2-0.5c-1,0-1.6,0.7-1.6,1.3c0,0.8,0.5,1.1,1.8,1.6
		c1.6,0.7,2.4,1.5,2.4,2.9c0,1.6-1.3,2.8-3.6,2.8c-1,0-2-0.3-2.6-0.7L348,140.4z"/>
	<path d="M358.1,130v2.8h2.4v1.3h-2.4v5.1c0,1.1,0.3,1.8,1.3,1.8c0.5,0,0.8,0,1-0.2v1.3c-0.3,0.2-0.8,0.2-1.5,0.2
		c-0.8,0-1.5-0.3-1.8-0.7c-0.5-0.5-0.7-1.3-0.7-2.4v-5.2H355v-1.3h1.5v-2.3L358.1,130z"/>
	<path d="M371,137.5c0,3.4-2.4,5.1-4.7,5.1c-2.6,0-4.6-2-4.6-4.9c0-3.1,2.1-5.1,4.7-5.1S371,134.5,371,137.5z M363.5,137.5
		c0,2.1,1.1,3.6,2.9,3.6c1.6,0,2.9-1.5,2.9-3.8c0-1.6-0.8-3.6-2.8-3.6C364.3,133.9,363.5,135.7,363.5,137.5z"/>
	<path d="M373.2,135.8c0-1.1,0-2.1,0-3.1h1.5v1.6l0,0c0.7-1.1,1.8-1.8,3.4-1.8c2.3,0,4.1,2,4.1,4.9c0,3.4-2.1,5.1-4.2,5.1
		c-1.3,0-2.3-0.5-2.9-1.5l0,0v5.2h-1.6v-10.4H373.2z M374.8,138.4c0,0.3,0,0.5,0,0.7c0.3,1.1,1.3,2,2.6,2c1.8,0,2.9-1.5,2.9-3.6
		c0-2-1-3.6-2.8-3.6c-1.1,0-2.3,0.8-2.6,2.1c0,0.2-0.2,0.5-0.2,0.7L374.8,138.4L374.8,138.4z"/>
	<path d="M390.4,130v2.8h2.4v1.3h-2.4v5.1c0,1.1,0.3,1.8,1.3,1.8c0.5,0,0.8,0,1-0.2v1.3c-0.3,0.2-0.8,0.2-1.5,0.2
		c-0.8,0-1.5-0.3-1.8-0.7c-0.5-0.5-0.7-1.3-0.7-2.4v-5.2h-1.5v-1.3h1.5v-2.3L390.4,130z"/>
	<path d="M395,135.7c0-1.1,0-2.1,0-2.9h1.5v1.8l0,0c0.5-1.3,1.5-2.1,2.6-2.1c0.2,0,0.3,0,0.5,0v1.6c-0.2,0-0.3,0-0.7,0
		c-1.1,0-2.1,1-2.3,2.3c0,0.2,0,0.5,0,0.8v5.1H395V135.7z"/>
	<path d="M402.5,132.7l2.1,5.5c0.2,0.7,0.5,1.3,0.7,2l0,0c0.2-0.5,0.3-1.3,0.7-2l2-5.5h1.8l-2.6,6.7c-1.3,3.3-2.1,4.9-3.3,5.9
		c-0.8,0.8-1.6,1-2.1,1.1l-0.5-1.5c0.5-0.2,1-0.5,1.5-0.8c0.5-0.3,1-1,1.5-2c0-0.2,0.2-0.3,0.2-0.5s0-0.2-0.2-0.5l-3.4-8.6h1.8
		V132.7z"/>
	<path d="M413,130.1c0,0.7-0.5,1-1.1,1c-0.7,0-1-0.5-1-1c0-0.7,0.5-1.1,1.1-1.1C412.5,129,413,129.5,413,130.1z M411,142.2v-9.5h1.8
		v9.5H411z"/>
	<path d="M415.6,135.3c0-1,0-1.8,0-2.6h1.5l0.2,1.6l0,0c0.5-1,1.6-1.8,3.1-1.8c1.3,0,3.4,0.8,3.4,4.1v5.7h-1.8V137
		c0-1.5-0.5-2.8-2.1-2.8c-1.1,0-2,0.8-2.3,1.8c0,0.2-0.2,0.5-0.2,0.8v5.7h-1.8V135.3z"/>
	<path d="M434.6,132.7c0,0.7,0,1.5,0,2.6v5.5c0,2.1-0.5,3.4-1.3,4.4c-1,0.8-2.3,1.1-3.4,1.1s-2.4-0.3-3.1-0.8l0.5-1.3
		c0.7,0.3,1.6,0.8,2.8,0.8c1.8,0,3.1-1,3.1-3.3v-1l0,0c-0.5,0.8-1.5,1.6-2.9,1.6c-2.3,0-4.1-2-4.1-4.6c0-3.3,2.1-5.1,4.2-5.1
		c1.6,0,2.6,0.8,2.9,1.6l0,0v-1.5h1.3V132.7z M432.9,136.5c0-0.3,0-0.5-0.2-0.8c-0.3-1-1.1-1.8-2.4-1.8c-1.6,0-2.8,1.5-2.8,3.6
		c0,1.8,1,3.4,2.8,3.4c1,0,2-0.7,2.4-1.8c0.2-0.3,0.2-0.7,0.2-1V136.5z"/>
	<path d="M436.8,141.2c0-0.7,0.5-1.3,1.1-1.3c0.7,0,1.1,0.5,1.1,1.3c0,0.7-0.5,1.3-1.1,1.3C437.3,142.5,436.8,141.9,436.8,141.2z"/>
	<path d="M440.8,141.2c0-0.7,0.5-1.3,1.1-1.3c0.7,0,1.1,0.5,1.1,1.3c0,0.7-0.5,1.3-1.1,1.3C441.2,142.5,440.8,141.9,440.8,141.2z"/>
	<path d="M444.8,141.2c0-0.7,0.5-1.3,1.1-1.3c0.7,0,1.1,0.5,1.1,1.3c0,0.7-0.5,1.3-1.1,1.3C445.2,142.5,444.8,141.9,444.8,141.2z"/>
</g>
</svg>
