<svg viewBox="0 0 240.0004 234.0004" xmlns="http://www.w3.org/2000/svg" xmlns:xlink="http://www.w3.org/1999/xlink"><radialGradient id="a" cx="93.66" cy="-18" gradientUnits="userSpaceOnUse" r="383.64"><stop offset="0" stop-color="#ec202b"/><stop offset=".146" stop-color="#e2202a"/><stop offset=".399" stop-color="#c51e26"/><stop offset=".727" stop-color="#981c20"/><stop offset="1" stop-color="#6d1a1b"/></radialGradient><linearGradient id="b"><stop offset=".14" stop-color="#fff"/><stop offset="1" stop-color="#eaecea"/></linearGradient><linearGradient id="c" gradientUnits="userSpaceOnUse" x1="28.872" x2="214.065" xlink:href="#b" y1="116.908" y2="116.908"/><linearGradient id="d" gradientUnits="userSpaceOnUse" x1="77.789" x2="201.101" xlink:href="#b" y1="116.582" y2="116.582"/><linearGradient id="e" gradientUnits="userSpaceOnUse" x1="41.821" x2="138.764" xlink:href="#b" y1="127.613" y2="127.613"/><path clip-rule="evenodd" d="m0 0h240v234h-240z" fill="url(#a)" fill-rule="evenodd"/><g fill="url(#c)"><path d="m145.399 50.817c36.321 0 65.766 29.77 65.766 66.092s-29.444 66.092-65.766 66.092h-58.51c-30.44 0-55.117-25.003-55.117-55.443s24.677-55.309 55.117-55.309c3.186 0 6.308.207 9.346.726 12.046-13.551 29.606-22.158 49.164-22.158"/><path d="m145.399 47.916c-9.981 0-19.606 2.095-28.609 6.228a68.367 68.367 0 0 0 -21.65 15.656 58.641 58.641 0 0 0 -8.252-.586c-7.831 0-15.43 1.538-22.586 4.57a57.848 57.848 0 0 0 -18.44 12.453 57.923 57.923 0 0 0 -12.431 18.46c-3.026 7.16-4.56 14.761-4.56 22.592s1.534 15.432 4.56 22.592a57.923 57.923 0 0 0 12.431 18.46c5.328 5.336 11.532 9.793 18.44 12.721 7.156 3.033 14.755 4.838 22.586 4.838h58.51c9.268 0 18.262-2.087 26.73-5.675 8.176-3.464 15.519-8.555 21.825-14.869 6.304-6.312 11.255-13.729 14.714-21.912 3.581-8.473 5.397-17.502 5.397-26.771s-1.816-18.281-5.397-26.754a68.569 68.569 0 0 0 -14.714-21.853c-6.306-6.314-13.649-11.275-21.825-14.739-8.469-3.588-17.462-5.411-26.73-5.411z"/><path d="m145.399 50.817c36.321 0 65.766 29.77 65.766 66.092s-29.444 66.092-65.766 66.092h-58.51c-30.44 0-55.117-25.003-55.117-55.443s24.677-55.309 55.117-55.309c3.186 0 6.308.207 9.346.726 12.046-13.551 29.606-22.158 49.164-22.158m0-2.9c-9.981 0-19.606 2.095-28.609 6.228a68.367 68.367 0 0 0 -21.65 15.656 58.641 58.641 0 0 0 -8.252-.586c-7.831 0-15.43 1.538-22.586 4.57a57.848 57.848 0 0 0 -18.44 12.453 57.923 57.923 0 0 0 -12.431 18.46c-3.026 7.16-4.56 14.761-4.56 22.592s1.534 15.432 4.56 22.592a57.923 57.923 0 0 0 12.431 18.46c5.328 5.336 11.532 9.793 18.44 12.721 7.156 3.033 14.755 4.838 22.586 4.838h58.51c9.268 0 18.262-2.087 26.73-5.675 8.176-3.464 15.519-8.555 21.825-14.869 6.304-6.312 11.255-13.729 14.714-21.912 3.581-8.473 5.397-17.502 5.397-26.771s-1.816-18.281-5.397-26.754a68.569 68.569 0 0 0 -14.714-21.853c-6.306-6.314-13.649-11.275-21.825-14.739-8.469-3.588-17.462-5.411-26.73-5.411z"/></g><path d="m79.214 129.102a5.031 5.031 0 1 1 7.213-7.017l26.679 26.747c8.261 8.272 19.679 13.389 32.293 13.389 25.205 0 45.638-20.433 45.638-45.638s-20.433-45.638-45.638-45.638a45.437 45.437 0 0 0 -28.422 9.932 54.93 54.93 0 0 0 -9.619-4.978c9.957-9.313 23.331-15.018 38.041-15.018 30.763 0 55.702 24.939 55.702 55.702s-24.939 55.702-55.702 55.702c-15.373 0-29.291-6.228-39.37-16.298l-26.815-26.884z" fill="url(#d)"/><path d="m109.854 100.884a34.847 34.847 0 0 0 -22.965-8.583c-19.324 0-34.989 15.607-34.989 34.931s15.665 34.989 34.989 34.989l11.152.272c3.697 3.836 7.856 7.455 12.387 10.356h-23.539c-24.882 0-45.068-20.424-45.068-45.306s20.156-45.165 45.038-45.165c11.625 0 22.215 4.311 30.2 11.533l20.279 20.782c1.939 1.991 1.896 5.159-.095 7.098s-5.177 1.887-7.115-.104l-20.273-20.804z" fill="url(#e)"/><path d="m145.399 50.817c36.321 0 65.766 29.77 65.766 66.092s-29.444 66.092-65.766 66.092h-58.51c-30.44 0-55.117-25.003-55.117-55.443s24.677-55.309 55.117-55.309c3.186 0 6.308.207 9.346.726 12.046-13.551 29.606-22.158 49.164-22.158m0-2.9c-9.981 0-19.606 2.095-28.609 6.228a68.367 68.367 0 0 0 -21.65 15.656 58.641 58.641 0 0 0 -8.252-.586c-7.831 0-15.43 1.538-22.586 4.57a57.848 57.848 0 0 0 -18.44 12.453 57.923 57.923 0 0 0 -12.431 18.46c-3.026 7.16-4.56 14.761-4.56 22.592s1.534 15.432 4.56 22.592a57.923 57.923 0 0 0 12.431 18.46c5.328 5.336 11.532 9.793 18.44 12.721 7.156 3.033 14.755 4.838 22.586 4.838h58.51c9.268 0 18.262-2.087 26.73-5.675 8.176-3.464 15.519-8.555 21.825-14.869 6.304-6.312 11.255-13.729 14.714-21.912 3.581-8.473 5.397-17.502 5.397-26.771s-1.816-18.281-5.397-26.754a68.569 68.569 0 0 0 -14.714-21.853c-6.306-6.314-13.649-11.275-21.825-14.739-8.469-3.588-17.462-5.411-26.73-5.411z" fill="url(#c)"/><path d="m79.214 129.102a5.031 5.031 0 1 1 7.213-7.017l26.679 26.747c8.261 8.272 19.679 13.389 32.293 13.389 25.205 0 45.638-20.433 45.638-45.638s-20.433-45.638-45.638-45.638a45.437 45.437 0 0 0 -28.422 9.932 54.93 54.93 0 0 0 -9.619-4.978c9.957-9.313 23.331-15.018 38.041-15.018 30.763 0 55.702 24.939 55.702 55.702s-24.939 55.702-55.702 55.702c-15.373 0-29.291-6.228-39.37-16.298l-26.815-26.884z" fill="url(#d)"/><path d="m109.854 100.884a34.847 34.847 0 0 0 -22.965-8.583c-19.324 0-34.989 15.607-34.989 34.931s15.665 34.989 34.989 34.989l11.152.272c3.697 3.836 7.856 7.455 12.387 10.356h-23.539c-24.882 0-45.068-20.424-45.068-45.306s20.156-45.165 45.038-45.165c11.625 0 22.215 4.311 30.2 11.533l20.279 20.782c1.939 1.991 1.896 5.159-.095 7.098s-5.177 1.887-7.115-.104l-20.273-20.804z" fill="url(#e)"/><path clip-rule="evenodd" d="m0 0h240v234h-240z" fill="url(#a)" fill-rule="evenodd"/><path d="m145.399 50.817c36.321 0 65.766 29.77 65.766 66.092s-29.444 66.092-65.766 66.092h-58.51c-30.44 0-55.117-25.003-55.117-55.443s24.677-55.309 55.117-55.309c3.186 0 6.308.207 9.346.726 12.046-13.551 29.606-22.158 49.164-22.158m0-2.9c-9.981 0-19.606 2.095-28.609 6.228a68.367 68.367 0 0 0 -21.65 15.656 58.641 58.641 0 0 0 -8.252-.586c-7.831 0-15.43 1.538-22.586 4.57a57.848 57.848 0 0 0 -18.44 12.453 57.923 57.923 0 0 0 -12.431 18.46c-3.026 7.16-4.56 14.761-4.56 22.592s1.534 15.432 4.56 22.592a57.923 57.923 0 0 0 12.431 18.46c5.328 5.336 11.532 9.793 18.44 12.721 7.156 3.033 14.755 4.838 22.586 4.838h58.51c9.268 0 18.262-2.087 26.73-5.675 8.176-3.464 15.519-8.555 21.825-14.869 6.304-6.312 11.255-13.729 14.714-21.912 3.581-8.473 5.397-17.502 5.397-26.771s-1.816-18.281-5.397-26.754a68.569 68.569 0 0 0 -14.714-21.853c-6.306-6.314-13.649-11.275-21.825-14.739-8.469-3.588-17.462-5.411-26.73-5.411z" fill="url(#c)"/><path d="m79.214 129.102a5.031 5.031 0 1 1 7.213-7.017l26.679 26.747c8.261 8.272 19.679 13.389 32.293 13.389 25.205 0 45.638-20.433 45.638-45.638s-20.433-45.638-45.638-45.638a45.437 45.437 0 0 0 -28.422 9.932 54.93 54.93 0 0 0 -9.619-4.978c9.957-9.313 23.331-15.018 38.041-15.018 30.763 0 55.702 24.939 55.702 55.702s-24.939 55.702-55.702 55.702c-15.373 0-29.291-6.228-39.37-16.298l-26.815-26.884z" fill="url(#d)"/><path d="m109.854 100.884a34.847 34.847 0 0 0 -22.965-8.583c-19.324 0-34.989 15.607-34.989 34.931s15.665 34.989 34.989 34.989l11.152.272c3.697 3.836 7.856 7.455 12.387 10.356h-23.539c-24.882 0-45.068-20.424-45.068-45.306s20.156-45.165 45.038-45.165c11.625 0 22.215 4.311 30.2 11.533l20.279 20.782c1.939 1.991 1.896 5.159-.095 7.098s-5.177 1.887-7.115-.104l-20.273-20.804z" fill="url(#e)"/></svg>