<svg viewBox="0 0 203 41" xmlns="http://www.w3.org/2000/svg"><path d="m25.5 1.5h72c-.6 1.7-2.4 1.5-3.6 2.1-8.3 3.9-13 13.1-11.1 21.8 2 9.3 10.6 16.2 19.7 15.9s17.3-7 19-15.6c1.9-9.7-2.7-18.5-11.6-22.4-1.2-.5-2.7-.5-3.3-1.9h72c-.9 1.6-2.6 1.6-3.9 2.2-9.5 4.4-14 15.6-10.1 25.2 4 9.8 14.5 14.7 24.6 11.4 9.9-3.2 15.3-13.8 12.7-24-2.1-8.2-8.4-11.8-15.4-14.8 5 0 10 .1 15-.1 1.7-.1 2.1.3 2.1 2.1-.1 12.3-.1 24.7 0 37 0 1.7-.3 2.4-2.1 2-.6-.1-1.3 0-2 0-65 0-130 0-195 .1-3.4 0-4.2-.7-4.1-4.1.3-11.4.2-22.9 0-34.4 0-2.2.4-2.7 2.6-2.6 4.5.2 9 .1 13.5.1-.6 1.7-2.3 1.6-3.6 2.1-7.9 3.7-12.7 13-11 21.4 1.9 9.5 10.1 16.4 19.3 16.4 8.9 0 17.4-6.8 19.3-15.2 2-9.4-2.3-18.6-10.7-22.5-1.4-.7-3.2-.7-4.3-2.2z" fill="#fdfdfc"/><path d="m25.5 1.5c1.1 1.5 2.9 1.5 4.4 2.2 8.3 3.9 12.7 13.1 10.7 22.5-1.8 8.5-10.4 15.2-19.3 15.2-9.3 0-17.5-6.9-19.4-16.4-1.7-8.4 3.1-17.7 11-21.4 1.3-.6 3-.4 3.6-2.1z" fill="#254fa2"/><path d="m106.5 1.5c.7 1.4 2.2 1.4 3.3 1.9 8.9 3.9 13.5 12.7 11.6 22.4-1.7 8.5-9.9 15.3-19 15.6s-17.7-6.6-19.7-15.9c-1.9-8.7 2.8-17.9 11.1-21.8 1.3-.6 3-.4 3.6-2.1 3.1-.1 6.1-.1 9.1-.1z" fill="#ec1e26"/><path d="m186.5 1.5c7 2.9 13.3 6.6 15.4 14.8 2.6 10.2-2.8 20.8-12.7 24-10.1 3.3-20.6-1.6-24.6-11.4-3.9-9.6.6-20.7 10.1-25.2 1.3-.6 3-.6 3.8-2.1 2.7-.1 5.3-.1 8-.1z" fill="#fed506"/></svg>