<svg xmlns="http://www.w3.org/2000/svg" viewBox="0 192.8 612 599.2"><path fill="#F94DFF" d="M0 792h612V192.8H0V792zm28.1-571.2H584v543.1H28.1V220.8z"/><radialGradient id="a" cx="-368.498" cy="792.811" r=".757" gradientTransform="matrix(561 0 0 -543.15 206938.75 430957.906)" gradientUnits="userSpaceOnUse"><stop offset="0" stop-color="#3F022E"/><stop offset="1" stop-color="#310232"/></radialGradient><path fill="url(#a)" d="M28.1 220.8H584v543.1H28.1V220.8z"/><path fill="#FFB3FF" d="M403.4 604.6l-91.8-91.3c4.6-5.6 7.4-13 7.4-20.9 0-6.1-1.8-12-4.8-17.1l91.3-92.3c13 8.7 30.6 7.4 42.1-4.1 13-13 13-34.4 0-47.4s-33.9-13-46.9 0c-11.5 11.5-12.8 29.3-4.1 42.3l-91 92.1c-5.4-3.8-11.7-6.1-18.9-6.1-17.9 0-32.4 14.5-32.4 32.6s14.5 32.6 32.4 32.6c5.4 0 10.5-1.3 14.8-3.6l93.6 93.1c-6.9 12.8-5.1 29.1 5.6 39.8 13 13 33.9 13 46.9 0s13-34.4 0-47.4c-12.1-12-31.2-13-44.2-2.3"/><path fill="#F94DFF" d="M286.1 362.8c-71.7 0-130 57.9-130 129.5 0 71.4 58.1 129.5 130 129.5s130-57.9 130-129.5c-.2-71.6-58.3-129.5-130-129.5zm.5 232.1c-56.9 0-103.3-45.9-103.3-102.5s46.2-102.5 103.3-102.5c56.9 0 103 45.9 103 102.5.3 56.6-45.9 102.5-103 102.5z"/><title>color_app_RGB</title></svg>