<svg fill="#fff" height="786.225" viewBox="0 0 786.225 786.225" width="786.225" xmlns="http://www.w3.org/2000/svg"><g fill="#fff"><circle cx="393.111" cy="201.502" r="155.781"/><path d="m431.486 418.581-38.376-38.376-38.376 38.376z"/><path d="m756.096 705.838c.486-.283.977-.562 1.455-.854.342-.209.676-.434 1.014-.65.504-.32 1.006-.645 1.498-.979.309-.215.617-.436.922-.654.512-.363 1.018-.73 1.516-1.109.293-.223.58-.451.875-.684.494-.391.982-.785 1.471-1.191.113-.098.234-.188.352-.285.188-.16.363-.33.549-.494a57.231 57.231 0 0 0 2.313-2.129 66.688 66.688 0 0 0 2.172-2.222c.266-.285.527-.572.785-.861.42-.469.832-.939 1.23-1.42.201-.238.398-.48.598-.725.432-.527.854-1.062 1.264-1.607.162-.211.316-.428.479-.645.422-.568.834-1.146 1.232-1.729.148-.217.293-.439.438-.66a58.19 58.19 0 0 0 1.131-1.756c.158-.26.311-.525.471-.787.33-.553.65-1.109.961-1.672.189-.342.369-.691.553-1.037.252-.486.512-.973.752-1.467.221-.449.434-.908.641-1.365.186-.395.373-.795.545-1.195.244-.559.473-1.131.699-1.697.123-.307.246-.613.363-.92.248-.652.48-1.314.705-1.98.08-.234.164-.469.24-.705.232-.713.447-1.436.654-2.16.059-.199.113-.395.17-.596.199-.732.383-1.473.557-2.215.047-.209.096-.414.143-.619.158-.717.301-1.436.434-2.16.045-.254.096-.508.137-.762a62.74 62.74 0 0 0 .432-3.004c.07-.6.133-1.197.188-1.797.035-.43.066-.857.098-1.285a62.32 62.32 0 0 0 .086-1.562c.008-.117.008-.234.012-.35v-4.289c-.018-.43-.029-.859-.055-1.285-.031-.555-.078-1.105-.125-1.662-.037-.441-.07-.889-.117-1.332-.055-.514-.125-1.027-.193-1.539-.062-.475-.121-.953-.197-1.428-.07-.463-.16-.928-.248-1.391-.092-.512-.18-1.023-.287-1.527-.086-.424-.189-.846-.289-1.266-.127-.539-.242-1.078-.383-1.607-.104-.4-.227-.799-.342-1.201-.152-.541-.299-1.082-.469-1.615-.129-.408-.271-.812-.408-1.219-.178-.518-.346-1.041-.535-1.553-.156-.424-.33-.844-.498-1.266-.189-.482-.377-.975-.58-1.453-.186-.436-.387-.861-.582-1.293-.211-.461-.414-.924-.633-1.377-.207-.43-.434-.848-.646-1.271-.232-.451-.459-.906-.705-1.348-.219-.4-.457-.799-.688-1.199-.264-.457-.525-.916-.799-1.371-.227-.365-.467-.725-.703-1.088a44.257 44.257 0 0 0 -.928-1.418c-.229-.338-.471-.668-.709-1.002-.342-.48-.688-.963-1.047-1.434a53.5 53.5 0 0 0 -.746-.951c-.369-.465-.742-.93-1.125-1.385-.104-.125-.201-.256-.307-.383l-191.899-224.726c-11.676-13.675-28.16-20.803-44.83-21.051v-.022h-5.316v53.142h45.984c18.549 0 33.645 15.093 33.645 33.645v227.965c0 8.531-3.209 16.316-8.465 22.252h-22.76c9.566-3.057 16.498-12.018 16.498-22.598v-221.967c0-13.102-10.623-23.723-23.727-23.723h-355.82c-13.101 0-23.722 10.621-23.722 23.723v221.967c0 10.58 6.928 19.539 16.496 22.598h-22.759c-5.255-5.938-8.464-13.723-8.464-22.254v-227.959c0-18.555 15.092-33.646 33.645-33.646h45.983v-53.142s-7.885.152-10.508.325c-14.899.983-29.178 8.497-39.639 20.749l-191.884 224.723c-.107.125-.205.256-.31.381-.382.457-.753.92-1.123 1.387-.25.318-.504.633-.748.951a51.69 51.69 0 0 0 -1.047 1.436c-.237.332-.479.662-.708 1-.319.467-.625.941-.93 1.418-.234.361-.473.723-.699 1.09-.276.451-.538.912-.801 1.369-.232.4-.467.799-.687 1.199-.244.441-.469.896-.7 1.348-.219.424-.443.844-.651 1.271-.221.453-.423.914-.632 1.377-.196.43-.399.859-.584 1.293-.204.48-.388.971-.58 1.453-.167.426-.342.842-.498 1.266-.189.514-.36 1.035-.533 1.555-.138.406-.283.809-.41 1.215-.168.535-.317 1.076-.47 1.619-.114.398-.234.799-.34 1.199-.137.529-.256 1.07-.382 1.609-.098.42-.202.84-.292 1.266-.106.506-.19 1.016-.284 1.525-.085.465-.175.928-.249 1.391-.074.477-.133.951-.194 1.43-.07.514-.142 1.025-.196 1.537-.047.441-.08.889-.118 1.334-.045.555-.092 1.105-.125 1.66-.024.432-.037.863-.053 1.299l-.001.021v4.191c.004.139.005.275.011.41a62.319 62.319 0 0 0 .37 4.642 61.735 61.735 0 0 0 .432 3.008c.044.254.09.508.138.762.131.723.273 1.443.433 2.16.045.205.095.41.143.619.172.742.354 1.48.556 2.213.055.203.113.396.169.598.207.725.422 1.443.652 2.16.077.232.161.469.241.705.227.666.457 1.326.705 1.979.115.309.241.615.363.92.228.568.457 1.141.699 1.697.175.402.361.801.542 1.197.211.457.42.914.642 1.365.241.492.497.98.752 1.467.184.346.363.695.553 1.037a54.2 54.2 0 0 0 .96 1.67c.157.262.311.527.472.789a57.3 57.3 0 0 0 1.129 1.756c.146.221.289.441.438.658.398.584.812 1.16 1.231 1.73.161.213.317.432.479.645.41.545.833 1.076 1.265 1.607.197.244.393.484.594.725.402.479.813.951 1.231 1.418a57.648 57.648 0 0 0 1.925 2.054 55.768 55.768 0 0 0 2.048 1.996c.427.396.859.781 1.296 1.164.188.162.362.332.55.49.116.102.236.191.353.289.482.406.974.801 1.471 1.191.288.229.577.461.869.684.499.379 1.006.746 1.518 1.107.307.219.612.441.922.656.492.336.995.658 1.498.98.337.217.672.438 1.015.646.478.295.967.572 1.455.855.037.018.073.039.108.061h-30.227v34.604h786.22v-34.601h-30.232v-.004z"/></g></svg>