<?xml version="1.0" encoding="utf-8"?>
<!-- Generator: Adobe Illustrator 24.3.0, SVG Export Plug-In . SVG Version: 6.00 Build 0)  -->
<svg version="1.1" id="Layer_1" xmlns="http://www.w3.org/2000/svg" xmlns:xlink="http://www.w3.org/1999/xlink" x="0px" y="0px"
	 viewBox="0 0 512 512" style="enable-background:new 0 0 512 512;" xml:space="preserve">
<style type="text/css">
	.st0{fill:#FA0F00;}
	.st1{fill:#FFFFFF;}
</style>
<g id="Experience_Cloud" transform="translate(1055 664)">
	<path id="Контур_25" class="st0" d="M-1055-584.03c0-44.13,35.84-79.97,79.97-79.97h352.05c44.13,0,79.97,35.84,79.97,79.97
		v352.05c0,44.13-35.84,79.97-79.97,79.97h-352.05c-44.13,0-79.97-35.84-79.97-79.97V-584.03z"/>
	<path id="Прямоугольник_13" class="st0" d="M-975.03-664h352.05c44.13,0,79.97,35.84,79.97,79.97v352.05
		c0,44.13-35.84,79.97-79.97,79.97h-352.05c-44.13,0-79.97-35.84-79.97-79.97v-352.05C-1055-628.16-1019.16-664-975.03-664z"/>
	<path id="Контур_26" class="st1" d="M-758.55-548.29l123.08,280.58h-87.35l-76.08-173.57l-46.39,105.78h54.37l29.7,67.79
		h-201.32l123.08-280.58H-758.55z"/>
</g>
</svg>
