<?xml version="1.0" ?><svg data-name="Adobe Folder 2020" id="Adobe_Folder_2020" viewBox="0 0 240 210" xmlns="http://www.w3.org/2000/svg"><defs><style>.cls-1{fill:#1e1717;}.cls-2{fill:#ed032a;}.cls-3{fill:#fee;}</style></defs><title/><g data-name="Creative Cloud" id="Creative_Cloud"><path class="cls-1" d="M232.5,52.5a15,15,0,0,0-15-15H7.5v150a15,15,0,0,0,15,15h195a15,15,0,0,0,15-15Z"/><path class="cls-2" d="M217.5,30H137.63A3.41,3.41,0,0,1,135,28.88L111.75,5.63A18.2,18.2,0,0,0,98.63,0H22.5A22.57,22.57,0,0,0,0,22.5v165A22.57,22.57,0,0,0,22.5,210h195A22.57,22.57,0,0,0,240,187.5V52.5A22.57,22.57,0,0,0,217.5,30Zm15,157.5a15,15,0,0,1-15,15H22.5a15,15,0,0,1-15-15V37.5h210a15,15,0,0,1,15,15Z" data-name="Path 4" id="Path_4"/><path class="cls-3" d="M136.77,73.7a46.27,46.27,0,0,1,0,92.54h-41a38.75,38.75,0,0,1,0-77.49,39.58,39.58,0,0,1,6.51.49A45.93,45.93,0,0,1,136.77,73.7m0-2a47.92,47.92,0,0,0-20,4.34,46.94,46.94,0,0,0-15.12,11A40.45,40.45,0,0,0,80,89.8a39.3,39.3,0,0,0-12.88,8.75,39.75,39.75,0,0,0-8.68,13,41,41,0,0,0-3.22,15.82,39.72,39.72,0,0,0,3.22,15.82,41.28,41.28,0,0,0,8.68,13,40.56,40.56,0,0,0,28.7,12.25h41a47.38,47.38,0,0,0,18.69-4,48.64,48.64,0,0,0,15.26-10.43A47.28,47.28,0,0,0,181,138.59a48.56,48.56,0,0,0,0-37.52,49.21,49.21,0,0,0-10.29-15.33,47.9,47.9,0,0,0-33.95-14.07Z"/><path class="cls-3" d="M90.43,128.51a3.51,3.51,0,1,1,5-4.9l18.69,18.69a31.91,31.91,0,1,0,2.73-47.53,38.22,38.22,0,0,0-6.72-3.5,39,39,0,1,1-1,56.07Z"/><path class="cls-3" d="M111.92,108.77a24.21,24.21,0,0,0-16.1-6,24.47,24.47,0,1,0,0,48.93l7.84.21a50.93,50.93,0,0,0,8.68,7.28H95.82a31.68,31.68,0,1,1,21.07-55.3l14.21,14.56a3.51,3.51,0,1,1-5,4.9Z"/></g></svg>